<svg width="30" height="30" viewBox="0 0 30 30" fill="none" xmlns="http://www.w3.org/2000/svg">
<path d="M12.75 3C12.2845 2.99976 11.8304 3.14389 11.4503 3.41254C11.0701 3.68119 10.7827 4.06113 10.6275 4.5H8.25C7.65326 4.5 7.08097 4.73705 6.65901 5.15901C6.23705 5.58097 6 6.15326 6 6.75V24.75C6 25.3467 6.23705 25.919 6.65901 26.341C7.08097 26.7629 7.65326 27 8.25 27H21.75C22.3467 27 22.919 26.7629 23.341 26.341C23.7629 25.919 24 25.3467 24 24.75V6.75C24 6.15326 23.7629 5.58097 23.341 5.15901C22.919 4.73705 22.3467 4.5 21.75 4.5H19.3725C19.2173 4.06113 18.9299 3.68119 18.5497 3.41254C18.1696 3.14389 17.7155 2.99976 17.25 3H12.75ZM12 5.25C12 5.05109 12.079 4.86032 12.2197 4.71967C12.3603 4.57902 12.5511 4.5 12.75 4.5H17.25C17.4489 4.5 17.6397 4.57902 17.7803 4.71967C17.921 4.86032 18 5.05109 18 5.25C18 5.44891 17.921 5.63968 17.7803 5.78033C17.6397 5.92098 17.4489 6 17.25 6H12.75C12.5511 6 12.3603 5.92098 12.2197 5.78033C12.079 5.63968 12 5.44891 12 5.25ZM8.25 6H10.6275C10.7827 6.43887 11.0701 6.81881 11.4503 7.08746C11.8304 7.35611 12.2845 7.50024 12.75 7.5H17.25C17.7155 7.50024 18.1696 7.35611 18.5497 7.08746C18.9299 6.81881 19.2173 6.43887 19.3725 6H21.75C21.9489 6 22.1397 6.07902 22.2803 6.21967C22.421 6.36032 22.5 6.55109 22.5 6.75V24.75C22.5 24.9489 22.421 25.1397 22.2803 25.2803C22.1397 25.421 21.9489 25.5 21.75 25.5H8.25C8.05109 25.5 7.86032 25.421 7.71967 25.2803C7.57902 25.1397 7.5 24.9489 7.5 24.75V6.75C7.5 6.55109 7.57902 6.36032 7.71967 6.21967C7.86032 6.07902 8.05109 6 8.25 6ZM19.5 18C19.5 17.8011 19.421 17.6103 19.2803 17.4697C19.1397 17.329 18.9489 17.25 18.75 17.25C18.5511 17.25 18.3603 17.329 18.2197 17.4697C18.079 17.6103 18 17.8011 18 18V21.75C18 21.9489 18.079 22.1397 18.2197 22.2803C18.3603 22.421 18.5511 22.5 18.75 22.5C18.9489 22.5 19.1397 22.421 19.2803 22.2803C19.421 22.1397 19.5 21.9489 19.5 21.75V18ZM15 13.5C15.1989 13.5 15.3897 13.579 15.5303 13.7197C15.671 13.8603 15.75 14.0511 15.75 14.25V21.75C15.75 21.9489 15.671 22.1397 15.5303 22.2803C15.3897 22.421 15.1989 22.5 15 22.5C14.8011 22.5 14.6103 22.421 14.4697 22.2803C14.329 22.1397 14.25 21.9489 14.25 21.75V14.25C14.25 14.0511 14.329 13.8603 14.4697 13.7197C14.6103 13.579 14.8011 13.5 15 13.5ZM12 11.25C12 11.0511 11.921 10.8603 11.7803 10.7197C11.6397 10.579 11.4489 10.5 11.25 10.5C11.0511 10.5 10.8603 10.579 10.7197 10.7197C10.579 10.8603 10.5 11.0511 10.5 11.25V21.75C10.5 21.9489 10.579 22.1397 10.7197 22.2803C10.8603 22.421 11.0511 22.5 11.25 22.5C11.4489 22.5 11.6397 22.421 11.7803 22.2803C11.921 22.1397 12 21.9489 12 21.75V11.25Z" fill="#707887"/>
</svg>
