<svg width="30" height="30" viewBox="0 0 30 30" fill="none" xmlns="http://www.w3.org/2000/svg">
<g id="excel/ic">
<path id="Vector" d="M4.90295 5.89515L18.1008 4.00533C18.1752 3.99463 18.251 4.00007 18.3231 4.02129C18.3952 4.04251 18.462 4.079 18.5188 4.12831C18.5757 4.17762 18.6213 4.23859 18.6526 4.3071C18.6839 4.37561 18.7002 4.45007 18.7003 4.52543V26.4747C18.7002 26.55 18.6839 26.6243 18.6527 26.6928C18.6214 26.7612 18.5759 26.8221 18.5192 26.8714C18.4624 26.9207 18.3958 26.9572 18.3239 26.9785C18.2519 26.9998 18.1762 27.0054 18.1018 26.9948L4.90191 25.105C4.65162 25.0693 4.4226 24.9442 4.25691 24.7527C4.09122 24.5612 4 24.3162 4 24.0627V6.93745C4 6.68395 4.09122 6.43895 4.25691 6.24748C4.4226 6.056 4.65267 5.9309 4.90295 5.89515ZM19.7503 6.02465H23.9501C24.2285 6.02465 24.4956 6.13557 24.6925 6.33302C24.8894 6.53046 25 6.79825 25 7.07748V23.9227C25 24.2019 24.8894 24.4697 24.6925 24.6671C24.4956 24.8646 24.2285 24.9755 23.9501 24.9755H19.7503V6.02465ZM12.6106 15.5001L15.5505 11.2888H13.0306L11.3507 13.6955L9.67077 11.2888H7.15089L10.0907 15.5001L7.15089 19.7114H9.67077L11.3507 17.3046L13.0306 19.7114H15.5505L12.6106 15.5001Z" fill="#707887"/>
</g>
</svg>
