<svg width="30" height="30" viewBox="0 0 30 30" fill="none" xmlns="http://www.w3.org/2000/svg">
<g id="icons8:gender">
<path id="Vector" d="M20.6247 2.8125V4.6875H23.965L20.801 7.88063C19.67 7.02666 18.2919 6.56398 16.8747 6.5625C15.1216 6.5625 13.4847 7.25625 12.2453 8.49656C11.6327 9.10179 11.1463 9.82262 10.8144 10.6173C10.4825 11.4119 10.3116 12.2645 10.3117 13.1257C10.3118 13.9868 10.4828 14.8394 10.8149 15.634C11.147 16.4285 11.6335 17.1493 12.2463 17.7544C13.0619 18.57 14.0331 19.1559 15.1169 19.4531C15.2238 19.3716 15.3438 19.2862 15.4394 19.1906C15.8324 18.791 16.1147 18.296 16.2588 17.7544C15.2381 17.6284 14.2892 17.164 13.5635 16.4353C12.6785 15.5513 12.1872 14.3775 12.1872 13.125C12.1872 11.8725 12.6794 10.7006 13.5653 9.81563C14.4485 8.92781 15.6222 8.4375 16.8747 8.4375C18.1272 8.4375 19.3 8.92969 20.1841 9.81563C20.6215 10.2485 20.9686 10.7639 21.2052 11.332C21.4417 11.9002 21.5631 12.5096 21.5622 13.125C21.5622 13.9359 21.3325 14.6906 20.9472 15.3806C21.0372 15.8644 21.0935 16.3725 21.0935 16.875C21.0935 17.3419 21.0541 17.8031 20.9763 18.2531C21.1638 18.1003 21.3306 17.9269 21.5041 17.7544C22.7435 16.5131 23.4372 14.8781 23.4372 13.125C23.4372 11.6906 22.9647 10.3275 22.1191 9.19875L25.3122 6.03563V9.375H27.1872V2.8125H20.6247ZM14.8825 10.5469C14.7756 10.6284 14.6556 10.7137 14.56 10.8094C14.155 11.2162 13.8906 11.7094 13.7406 12.2466C14.7625 12.3778 15.6953 12.8241 16.436 13.5647C17.3219 14.4487 17.8141 15.6225 17.8141 16.8741C17.8141 18.1256 17.3219 19.2984 16.436 20.1834C15.551 21.0722 14.3772 21.5625 13.1247 21.5625C11.8722 21.5625 10.6994 21.0703 9.81533 20.1844C9.37757 19.7518 9.03027 19.2364 8.79366 18.6682C8.55706 18.1 8.43589 17.4905 8.43721 16.875C8.43721 16.0641 8.66689 15.3094 9.05221 14.6194C8.95808 14.1267 8.90912 13.6265 8.90596 13.125C8.90596 12.6581 8.94533 12.1969 9.02314 11.7469C8.83564 11.8997 8.66971 12.0731 8.49533 12.2466C7.25783 13.485 6.56221 15.1219 6.56221 16.875C6.56221 18.3094 7.03471 19.6725 7.88033 20.8013L6.29971 22.3828L4.42471 20.5078L3.07471 21.8259L4.94971 23.7009L3.07471 25.5759L4.42471 26.9259L6.29971 25.0509L8.17471 26.9259L9.49189 25.5759L7.61689 23.7009L9.19939 22.1203C10.3292 22.9756 11.7077 23.4381 13.1247 23.4375C14.8778 23.4375 16.5147 22.7437 17.7541 21.5034C18.9935 20.265 19.6872 18.6281 19.6872 16.875C19.6872 15.1219 18.9935 13.4869 17.7531 12.2456C16.9375 11.43 15.9663 10.8441 14.8825 10.5469Z" fill="#707887"/>
</g>
</svg>
