<svg width="30" height="30" viewBox="0 0 30 30" fill="none" xmlns="http://www.w3.org/2000/svg">
<g id="basil:layout-outline">
<path id="Vector" fill-rule="evenodd" clip-rule="evenodd" d="M11.6386 6.75772C10.2336 6.60207 8.81574 6.60207 7.41077 6.75772C7.24848 6.77599 7.09703 6.84816 6.98065 6.96267C6.86428 7.07718 6.78973 7.2274 6.76893 7.38928C6.60266 8.80993 6.60266 10.2451 6.76893 11.6657C6.79001 11.8276 6.86482 11.9777 6.98139 12.092C7.09796 12.2063 7.24954 12.2782 7.41187 12.2962C8.80398 12.4516 10.2454 12.4516 11.6375 12.2962C11.7998 12.2782 11.9514 12.2063 12.068 12.092C12.1845 11.9777 12.2593 11.8276 12.2804 11.6657C12.4469 10.245 12.4469 8.80893 12.2804 7.38819C12.2593 7.22634 12.1845 7.07624 12.068 6.96193C11.9514 6.84762 11.7998 6.77571 11.6375 6.75772M7.22786 5.12682C8.75366 4.95773 10.2935 4.95773 11.8193 5.12682C12.9036 5.24722 13.7832 6.10098 13.9113 7.19773C14.0924 8.74528 14.0924 10.3086 13.9113 11.8562C13.8472 12.3866 13.6058 12.8798 13.226 13.2559C12.8463 13.632 12.3506 13.8689 11.8193 13.9282C10.3056 14.0968 8.74155 14.0968 7.22786 13.9282C6.69654 13.8689 6.20085 13.632 5.82113 13.2559C5.44141 12.8798 5.19994 12.3866 5.13586 11.8562C4.95471 10.3087 4.95471 8.74528 5.13586 7.19773C5.20017 6.66752 5.44174 6.17454 5.82144 5.79867C6.20114 5.4228 6.69671 5.18606 7.22786 5.12682ZM11.6386 17.7034C10.2336 17.5477 8.81574 17.5477 7.41077 17.7034C7.24865 17.7216 7.09731 17.7936 6.98096 17.9079C6.86461 18.0222 6.78996 18.1721 6.76893 18.3338C6.60258 19.7548 6.60258 21.1904 6.76893 22.6114C6.79001 22.7732 6.86482 22.9233 6.98139 23.0376C7.09796 23.1519 7.24954 23.2239 7.41187 23.2419C8.80398 23.3973 10.2454 23.3973 11.6375 23.2419C11.7998 23.2239 11.9514 23.1519 12.068 23.0376C12.1845 22.9233 12.2593 22.7732 12.2804 22.6114C12.4469 21.1906 12.4469 19.7546 12.2804 18.3338C12.2593 18.172 12.1845 18.0219 12.068 17.9076C11.9514 17.7933 11.7998 17.7214 11.6375 17.7034M7.22786 16.0725C8.75367 15.9034 10.2935 15.9034 11.8193 16.0725C12.9036 16.1929 13.7832 17.0466 13.9113 18.1434C14.0924 19.6909 14.0924 21.2543 13.9113 22.8018C13.847 23.3321 13.6054 23.825 13.2257 24.2009C12.846 24.5768 12.3505 24.8135 11.8193 24.8728C10.3056 25.0424 8.74155 25.0424 7.22786 24.8728C6.69671 24.8135 6.20114 24.5768 5.82144 24.2009C5.44174 23.825 5.20017 23.3321 5.13586 22.8018C4.95471 21.2543 4.95471 19.6909 5.13586 18.1434C5.20017 17.6132 5.44174 17.1202 5.82144 16.7443C6.20114 16.3684 6.69671 16.1317 7.22786 16.0725ZM22.5915 6.75772C21.1865 6.60207 19.7686 6.60207 18.3637 6.75772C18.2014 6.77599 18.0499 6.84816 17.9335 6.96267C17.8172 7.07718 17.7426 7.2274 17.7218 7.38928C17.5556 8.80993 17.5556 10.2451 17.7218 11.6657C17.7429 11.8276 17.8177 11.9777 17.9343 12.092C18.0508 12.2063 18.2024 12.2782 18.3647 12.2962C19.7569 12.4516 21.1983 12.4516 22.5904 12.2962C22.7527 12.2782 22.9043 12.2063 23.0208 12.092C23.1374 11.9777 23.2122 11.8276 23.2333 11.6657C23.3998 10.245 23.3998 8.80893 23.2333 7.38819C23.2122 7.22634 23.1374 7.07624 23.0208 6.96193C22.9043 6.84762 22.7538 6.77571 22.5915 6.75772ZM18.1807 5.12682C19.7065 4.95773 21.2464 4.95773 22.7722 5.12682C23.8565 5.24722 24.736 6.10098 24.8642 7.19773C25.0453 8.74528 25.0453 10.3086 24.8642 11.8562C24.8001 12.3866 24.5586 12.8798 24.1789 13.2559C23.7992 13.632 23.3035 13.8689 22.7722 13.9282C21.2585 14.0968 19.6944 14.0968 18.1807 13.9282C17.6494 13.8689 17.1537 13.632 16.774 13.2559C16.3943 12.8798 16.1528 12.3866 16.0887 11.8562C15.9075 10.3087 15.9075 8.74527 16.0887 7.19773C16.153 6.66752 16.3946 6.17454 16.7743 5.79867C17.154 5.4228 17.6496 5.18606 18.1807 5.12682ZM22.5915 17.7034C21.1865 17.5477 19.7686 17.5477 18.3637 17.7034C18.2015 17.7216 18.0502 17.7936 17.9338 17.9079C17.8175 18.0222 17.7428 18.1721 17.7218 18.3338C17.5555 19.7548 17.5555 21.1904 17.7218 22.6114C17.7429 22.7732 17.8177 22.9233 17.9343 23.0376C18.0508 23.1519 18.2024 23.2239 18.3647 23.2419C19.7569 23.3973 21.1983 23.3973 22.5904 23.2419C22.7527 23.2239 22.9043 23.1519 23.0208 23.0376C23.1374 22.9233 23.2122 22.7732 23.2333 22.6114C23.3998 21.1906 23.3998 19.7546 23.2333 18.3338C23.2122 18.172 23.1374 18.0219 23.0208 17.9076C22.9043 17.7933 22.7538 17.7214 22.5915 17.7034ZM18.1807 16.0725C19.7065 15.9034 21.2464 15.9034 22.7722 16.0725C23.8565 16.1929 24.736 17.0466 24.8642 18.1434C25.0453 19.6909 25.0453 21.2543 24.8642 22.8018C24.7999 23.3321 24.5583 23.825 24.1786 24.2009C23.7989 24.5768 23.3033 24.8135 22.7722 24.8728C21.2585 25.0424 19.6944 25.0424 18.1807 24.8728C17.6496 24.8135 17.154 24.5768 16.7743 24.2009C16.3946 23.825 16.153 23.3321 16.0887 22.8018C15.9075 21.2543 15.9075 19.6909 16.0887 18.1434C16.153 17.6132 16.3946 17.1202 16.7743 16.7443C17.154 16.3684 17.6496 16.1317 18.1807 16.0725Z" fill="#707887"/>
</g>
</svg>
