<svg width="24" height="24" viewBox="0 0 24 24" fill="none" xmlns="http://www.w3.org/2000/svg">
<path d="M0 12C0 5.37258 5.37258 0 12 0C18.6274 0 24 5.37258 24 12C24 18.6274 18.6274 24 12 24C5.37258 24 0 18.6274 0 12Z" fill="#C3C6CB"/>
<path fill-rule="evenodd" clip-rule="evenodd" d="M15.3293 7.3241C15.7614 6.89197 16.4621 6.89197 16.8942 7.3241C17.3263 7.75624 17.3263 8.45687 16.8942 8.88901L13.6743 12.1089L16.8947 15.3293C17.3269 15.7614 17.3269 16.4621 16.8947 16.8942C16.4626 17.3263 15.762 17.3263 15.3298 16.8942L12.1094 13.6738L8.88901 16.8942C8.45687 17.3263 7.75624 17.3263 7.3241 16.8942C6.89197 16.4621 6.89197 15.7614 7.3241 15.3293L10.5445 12.1089L7.32464 8.88901C6.8925 8.45687 6.8925 7.75624 7.32464 7.3241C7.75678 6.89197 8.45741 6.89197 8.88955 7.3241L12.1094 10.544L15.3293 7.3241Z" fill="#707887"/>
</svg>
