<svg width="30" height="30" viewBox="0 0 30 30" fill="none" xmlns="http://www.w3.org/2000/svg">
<path d="M21.6719 2H7.32812C3.8332 2 1 4.8332 1 8.32812V22.6719C1 26.1668 3.8332 29 7.32812 29H21.6719C25.1668 29 28 26.1668 28 22.6719V8.32812C28 4.8332 25.1668 2 21.6719 2Z" fill="url(#paint0_radial_203_2093)"/>
<path d="M21.6719 2H7.32812C3.8332 2 1 4.8332 1 8.32812V22.6719C1 26.1668 3.8332 29 7.32812 29H21.6719C25.1668 29 28 26.1668 28 22.6719V8.32812C28 4.8332 25.1668 2 21.6719 2Z" fill="url(#paint1_radial_203_2093)"/>
<path d="M14.5009 5C11.6494 5 11.2914 5.01249 10.1715 5.06342C9.05365 5.11466 8.29062 5.29158 7.62302 5.55124C6.93233 5.81941 6.34654 6.17819 5.76295 6.76199C5.17884 7.34568 4.82005 7.93147 4.55104 8.62183C4.29064 9.28963 4.1135 10.053 4.06321 11.1703C4.01312 12.2903 4 12.6483 4 15.5C4 18.3517 4.0126 18.7085 4.06342 19.8284C4.11487 20.9462 4.29179 21.7092 4.55125 22.3768C4.81963 23.0675 5.17842 23.6533 5.76222 24.2369C6.3457 24.821 6.93149 25.1806 7.62166 25.4488C8.28977 25.7084 9.05291 25.8853 10.1705 25.9366C11.2906 25.9875 11.6482 26 14.4997 26C17.3516 26 17.7084 25.9875 18.8283 25.9366C19.9461 25.8853 20.71 25.7084 21.3781 25.4488C22.0685 25.1806 22.6535 24.821 23.2368 24.2369C23.821 23.6533 24.1796 23.0675 24.4487 22.3771C24.7068 21.7092 24.8841 20.946 24.9366 19.8286C24.9869 18.7087 25 18.3517 25 15.5C25 12.6483 24.9869 12.2905 24.9366 11.1705C24.8841 10.0527 24.7068 9.28973 24.4487 8.62215C24.1796 7.93147 23.821 7.34568 23.2368 6.76199C22.6528 6.17798 22.0687 5.8192 21.3775 5.55135C20.7081 5.29158 19.9447 5.11455 18.8268 5.06342C17.7068 5.01249 17.3502 5 14.4977 5H14.5009ZM13.559 6.89219C13.8386 6.89177 14.1506 6.89219 14.5009 6.89219C17.3046 6.89219 17.6368 6.90227 18.7439 6.95256C19.7676 6.99939 20.3233 7.17043 20.6934 7.31418C21.1835 7.50444 21.5328 7.73197 21.9001 8.09957C22.2676 8.46707 22.495 8.81703 22.6858 9.30706C22.8295 9.67665 23.0008 10.2323 23.0474 11.256C23.0977 12.3629 23.1086 12.6954 23.1086 15.4976C23.1086 18.2998 23.0977 18.6323 23.0474 19.7391C23.0006 20.7629 22.8295 21.3185 22.6858 21.6882C22.4955 22.1782 22.2676 22.5272 21.9001 22.8944C21.5326 23.2619 21.1837 23.4894 20.6934 23.6797C20.3237 23.8241 19.7676 23.9947 18.7439 24.0416C17.637 24.0919 17.3046 24.1028 14.5009 24.1028C11.6972 24.1028 11.3649 24.0919 10.2581 24.0416C9.23435 23.9943 8.67869 23.8233 8.30825 23.6795C7.81832 23.4892 7.46825 23.2617 7.10075 22.8942C6.73325 22.5267 6.50583 22.1776 6.31504 21.6874C6.17129 21.3177 6.00004 20.762 5.95342 19.7383C5.90312 18.6314 5.89304 18.299 5.89304 15.495C5.89304 12.6911 5.90312 12.3603 5.95342 11.2534C6.00025 10.2297 6.17129 9.67403 6.31504 9.30391C6.5054 8.81388 6.73326 8.46392 7.10086 8.09642C7.46836 7.72892 7.81832 7.50139 8.30836 7.31071C8.67848 7.16634 9.23435 6.99571 10.2581 6.94868C11.2267 6.90489 11.6021 6.89177 13.559 6.88956V6.89219ZM20.1058 8.63559C19.4102 8.63559 18.8458 9.19943 18.8458 9.89516C18.8458 10.5908 19.4102 11.1551 20.1058 11.1551C20.8015 11.1551 21.3658 10.5908 21.3658 9.89516C21.3658 9.19954 20.8015 8.63517 20.1058 8.63517V8.63559ZM14.5009 10.1078C11.5231 10.1078 9.10877 12.5221 9.10877 15.5C9.10877 18.4779 11.5231 20.8911 14.5009 20.8911C17.4788 20.8911 19.8924 18.4779 19.8924 15.5C19.8924 12.5222 17.4786 10.1078 14.5007 10.1078H14.5009ZM14.5009 12C16.4339 12 18.001 13.5669 18.001 15.5C18.001 17.4329 16.4339 19 14.5009 19C12.5679 19 11.001 17.4329 11.001 15.5C11.001 13.5669 12.5679 12 14.5009 12Z" fill="white"/>
<defs>
<radialGradient id="paint0_radial_203_2093" cx="0" cy="0" r="1" gradientUnits="userSpaceOnUse" gradientTransform="translate(8.17187 31.0795) rotate(-90) scale(26.759 24.888)">
<stop stop-color="#FFDD55"/>
<stop offset="0.1" stop-color="#FFDD55"/>
<stop offset="0.5" stop-color="#FF543E"/>
<stop offset="1" stop-color="#C837AB"/>
</radialGradient>
<radialGradient id="paint1_radial_203_2093" cx="0" cy="0" r="1" gradientUnits="userSpaceOnUse" gradientTransform="translate(-3.52261 3.94495) rotate(78.681) scale(11.9614 49.3054)">
<stop stop-color="#3771C8"/>
<stop offset="0.128" stop-color="#3771C8"/>
<stop offset="1" stop-color="#6600FF" stop-opacity="0"/>
</radialGradient>
</defs>
</svg>
