<svg width="30" height="30" viewBox="0 0 30 30" fill="none" xmlns="http://www.w3.org/2000/svg">
<g id="mdi:table-of-contents">
<path id="Vector" d="M3.75 10C3.75 10.6904 4.30964 11.25 5 11.25H20C20.6904 11.25 21.25 10.6904 21.25 10C21.25 9.30964 20.6904 8.75 20 8.75H5C4.30964 8.75 3.75 9.30964 3.75 10ZM3.75 15C3.75 15.6904 4.30964 16.25 5 16.25H20C20.6904 16.25 21.25 15.6904 21.25 15C21.25 14.3096 20.6904 13.75 20 13.75H5C4.30964 13.75 3.75 14.3096 3.75 15ZM3.75 20C3.75 20.6904 4.30964 21.25 5 21.25H20C20.6904 21.25 21.25 20.6904 21.25 20C21.25 19.3096 20.6904 18.75 20 18.75H5C4.30964 18.75 3.75 19.3096 3.75 20ZM23.75 20C23.75 20.6904 24.3096 21.25 25 21.25C25.6904 21.25 26.25 20.6904 26.25 20C26.25 19.3096 25.6904 18.75 25 18.75C24.3096 18.75 23.75 19.3096 23.75 20ZM25 8.75C24.3096 8.75 23.75 9.30964 23.75 10C23.75 10.6904 24.3096 11.25 25 11.25C25.6904 11.25 26.25 10.6904 26.25 10C26.25 9.30964 25.6904 8.75 25 8.75ZM23.75 15C23.75 15.6904 24.3096 16.25 25 16.25C25.6904 16.25 26.25 15.6904 26.25 15C26.25 14.3096 25.6904 13.75 25 13.75C24.3096 13.75 23.75 14.3096 23.75 15Z" fill="#707887"/>
</g>
</svg>
