<svg width="30" height="30" viewBox="0 0 30 30" fill="none" xmlns="http://www.w3.org/2000/svg">
<g id="bi:people-fill">
<path id="Vector" d="M13.375 25C13.375 25 11.75 25 11.75 23.4167C11.75 21.8333 13.375 17.0833 19.875 17.0833C26.375 17.0833 28 21.8333 28 23.4167C28 25 26.375 25 26.375 25H13.375ZM19.875 15.5C21.1679 15.5 22.4079 14.9996 23.3221 14.1088C24.2364 13.218 24.75 12.0098 24.75 10.75C24.75 9.49022 24.2364 8.28204 23.3221 7.39124C22.4079 6.50045 21.1679 6 19.875 6C18.5821 6 17.3421 6.50045 16.4279 7.39124C15.5136 8.28204 15 9.49022 15 10.75C15 12.0098 15.5136 13.218 16.4279 14.1088C17.3421 14.9996 18.5821 15.5 19.875 15.5ZM10.476 25C10.2352 24.5057 10.1151 23.9638 10.125 23.4167C10.125 21.2713 11.23 19.0625 13.271 17.5267C12.2524 17.2202 11.191 17.0706 10.125 17.0833C3.625 17.0833 2 21.8333 2 23.4167C2 25 3.625 25 3.625 25H10.476ZM9.3125 15.5C10.3899 15.5 11.4233 15.083 12.1851 14.3406C12.947 13.5983 13.375 12.5915 13.375 11.5417C13.375 10.4919 12.947 9.48503 12.1851 8.7427C11.4233 8.00037 10.3899 7.58333 9.3125 7.58333C8.23506 7.58333 7.20175 8.00037 6.43988 8.7427C5.67801 9.48503 5.25 10.4919 5.25 11.5417C5.25 12.5915 5.67801 13.5983 6.43988 14.3406C7.20175 15.083 8.23506 15.5 9.3125 15.5Z" fill="#707887"/>
</g>
</svg>
