<svg width="23" height="23" viewBox="0 0 23 23" fill="none" xmlns="http://www.w3.org/2000/svg">
<circle cx="11.5" cy="11.5" r="11.5" fill="#BFC7D1"/>
<path d="M10.5327 13.724C10.1967 11.358 12.6467 10.462 12.6467 8.95C12.6467 8.166 12.1567 7.592 11.2747 7.592C10.6167 7.592 10.0427 7.914 9.56669 8.446L8.65669 7.606C9.34269 6.822 10.2807 6.262 11.4567 6.262C13.0947 6.262 14.2147 7.186 14.2147 8.838C14.2147 10.868 11.7227 11.624 11.9607 13.724H10.5327ZM11.2747 17.196C10.6587 17.196 10.1967 16.72 10.1967 16.062C10.1967 15.39 10.6587 14.928 11.2747 14.928C11.8767 14.928 12.3527 15.39 12.3527 16.062C12.3527 16.72 11.8767 17.196 11.2747 17.196Z" fill="white"/>
</svg>
