<svg width="30" height="30" viewBox="0 0 30 30" fill="none" xmlns="http://www.w3.org/2000/svg">
<path d="M11 20.3264V10.6723C11.0002 10.5515 11.0334 10.433 11.0962 10.3292C11.1589 10.2254 11.2489 10.1401 11.3566 10.0822C11.4644 10.0244 11.5859 9.99613 11.7086 10.0004C11.8313 10.0047 11.9505 10.0414 12.0538 10.1066L19.6849 14.9323C19.7815 14.9932 19.861 15.0771 19.9161 15.1762C19.9711 15.2753 20 15.3864 20 15.4993C20 15.6123 19.9711 15.7234 19.9161 15.8225C19.861 15.9216 19.7815 16.0054 19.6849 16.0663L12.0538 20.8934C11.9505 20.9586 11.8313 20.9953 11.7086 20.9996C11.5859 21.0039 11.4644 20.9756 11.3566 20.9178C11.2489 20.8599 11.1589 20.7746 11.0962 20.6708C11.0334 20.567 11.0002 20.4485 11 20.3277V20.3264Z" fill="#F40407"/>
</svg>
