<svg width="435" height="254" viewBox="0 0 435 254" fill="none" xmlns="http://www.w3.org/2000/svg">
<path d="M201 188L223 125" stroke="#C3C6CB"/>
<path d="M291 173L223 125" stroke="#C3C6CB"/>
<path d="M321 108L223 125" stroke="#C3C6CB"/>
<path d="M211 75L223 125" stroke="#C3C6CB"/>
<path d="M130 137L223 125" stroke="#C3C6CB"/>
<path d="M113 68L223 125" stroke="#C3C6CB"/>
<path d="M173 17L223 125" stroke="#C3C6CB"/>
<path d="M283 34L223 125" stroke="#C3C6CB"/>
<path d="M397 64L223 125" stroke="#C3C6CB"/>
<path d="M390 149L223 125" stroke="#C3C6CB"/>
<path d="M381 208L223 125" stroke="#C3C6CB"/>
<path d="M283 224L223 125" stroke="#C3C6CB"/>
<path d="M152 237L223 125" stroke="#C3C6CB"/>
<path d="M74 193L223 125" stroke="#C3C6CB"/>
<path d="M38 136L223 125" stroke="#C3C6CB"/>
<rect x="185" y="108" width="76" height="34" rx="17" fill="#373D49"/>
<path d="M209.914 124.368V119.12H211.45V132.528H209.914V125.712H207.498C206.698 127.456 205.338 129.024 203.082 130.304L202.154 129.152C204.186 128 205.434 126.656 206.122 125.072L202.41 125.472L202.186 124.048L206.57 123.792C206.73 123.136 206.842 122.48 206.89 121.776H202.89V120.448H208.474C208.474 121.824 208.346 123.136 207.994 124.368H209.914ZM212.906 118.768H214.49V133.232H212.906V118.768ZM226.681 118.768H228.345V133.264H226.681V118.768ZM220.649 119.84C222.809 119.84 224.377 121.824 224.377 124.928C224.377 128.064 222.809 130.032 220.649 130.032C218.505 130.032 216.937 128.064 216.937 124.928C216.937 121.824 218.505 119.84 220.649 119.84ZM220.649 121.328C219.401 121.328 218.521 122.688 218.521 124.928C218.521 127.2 219.401 128.56 220.649 128.56C221.913 128.56 222.793 127.2 222.793 124.928C222.793 122.688 221.913 121.328 220.649 121.328ZM231.895 124.48L240.711 124.144C240.743 123.376 240.743 122.64 240.743 121.904V121.488H232.295V120.16H242.359V121.904C242.359 124 242.359 125.984 241.719 129.024L240.087 128.88C240.391 127.584 240.551 126.448 240.631 125.392L232.103 125.824L231.895 124.48ZM230.775 130H243.831V131.36H230.775V130Z" fill="white"/>
<rect x="170" y="171" width="62" height="34" rx="17" fill="#1FBBBA"/>
<path d="M196.929 181.704H198.625V189.624H196.929V181.704ZM198.161 185.016H200.689V186.408H198.161V185.016ZM192.817 182.536H194.641C194.641 186.312 192.161 188.776 187.809 189.8L187.185 188.44C190.929 187.592 192.817 185.72 192.817 183.416V182.536ZM187.889 182.536H193.889V183.88H187.889V182.536ZM189.249 190.248H190.913V191.88H196.961V190.248H198.625V196.152H189.249V190.248ZM190.913 193.192V194.808H196.961V193.192H190.913ZM211.904 181.704H213.584V189.24H211.904V181.704ZM204 189.896H213.584V193.592H205.664V195.432H204.032V192.392H211.92V191.192H204V189.896ZM204.032 194.888H214.016V196.2H204.032V194.888ZM205.264 183.048H206.64V183.72C206.64 186.296 205.088 188.52 202.448 189.336L201.664 188.024C203.968 187.32 205.264 185.56 205.264 183.72V183.048ZM205.616 183.048H206.976V183.72C206.976 185.448 208.288 187.08 210.56 187.736L209.776 189.032C207.152 188.264 205.616 186.168 205.616 183.72V183.048ZM202.112 182.456H210.096V183.8H202.112V182.456Z" fill="white"/>
<rect x="253" y="156" width="76" height="34" rx="17" fill="#1FBBBA"/>
<path d="M270.49 176.432H271.498C273.274 176.432 274.874 176.384 276.794 176.048L276.938 177.408C274.97 177.76 273.322 177.808 271.498 177.808H270.49V176.432ZM270.458 168.24H275.658V173.552H272.122V176.976H270.49V172.208H274.042V169.584H270.458V168.24ZM280.922 166.704H282.522V181.328H280.922V166.704ZM276.314 171.824H278.634V173.2H276.314V171.824ZM277.962 167.024H279.514V180.592H277.962V167.024ZM294.841 166.688H296.505V181.344H294.841V166.688ZM292.041 172.048H295.065V173.424H292.041V172.048ZM285.033 176.56H286.169C288.777 176.56 290.537 176.512 292.601 176.16L292.761 177.504C290.649 177.856 288.825 177.92 286.169 177.92H285.033V176.56ZM285.033 167.984H291.801V169.36H286.697V177.008H285.033V167.984ZM286.297 172.08H291.225V173.408H286.297V172.08ZM309.063 166.72H310.743V175.648H309.063V166.72ZM299.447 173.536H300.663C303.399 173.536 305.303 173.456 307.543 173.088L307.735 174.448C305.431 174.832 303.463 174.896 300.663 174.896H299.447V173.536ZM299.415 167.6H306.087V171.824H301.079V174.288H299.447V170.56H304.439V168.96H299.415V167.6ZM305.879 175.936C308.951 175.936 310.839 176.912 310.839 178.624C310.839 180.336 308.951 181.328 305.879 181.328C302.807 181.328 300.935 180.336 300.935 178.624C300.935 176.912 302.807 175.936 305.879 175.936ZM305.879 177.248C303.783 177.248 302.599 177.728 302.599 178.624C302.599 179.52 303.783 180 305.879 180C307.975 180 309.159 179.52 309.159 178.624C309.159 177.728 307.975 177.248 305.879 177.248Z" fill="white"/>
<rect x="92" y="120" width="76" height="34" rx="17" fill="#1FBBBA"/>
<path d="M111.922 131.6H113.234V133.44C113.234 135.76 112.098 138.128 109.842 139.104L108.962 137.808C110.93 136.944 111.922 135.088 111.922 133.44V131.6ZM112.21 131.6H113.538V133.44C113.538 135.04 114.498 136.656 116.386 137.392L115.49 138.672C113.314 137.808 112.21 135.696 112.21 133.44V131.6ZM119.842 130.72H121.426V139.696H119.842V130.72ZM117.762 134.464H120.322V135.824H117.762V134.464ZM116.722 130.992H118.29V139.232H116.722V130.992ZM116.562 139.968C119.586 139.968 121.506 140.96 121.506 142.64C121.506 144.32 119.586 145.312 116.562 145.312C113.506 145.312 111.618 144.32 111.618 142.64C111.618 140.96 113.506 139.968 116.562 139.968ZM116.562 141.248C114.498 141.248 113.266 141.744 113.266 142.64C113.266 143.536 114.498 144.032 116.562 144.032C118.61 144.032 119.826 143.536 119.826 142.64C119.826 141.744 118.61 141.248 116.562 141.248ZM124.913 132.096H134.161V133.456H124.913V132.096ZM123.377 142.048H136.593V143.44H123.377V142.048ZM133.441 132.096H135.089V133.856C135.089 135.984 135.089 138 134.449 141.072L132.785 140.912C133.441 138.048 133.441 135.936 133.441 133.856V132.096ZM133.825 136.128V137.376L124.721 137.84L124.497 136.48L133.825 136.128ZM148.063 130.704H149.743V139.376H148.063V130.704ZM138.447 137.408H139.663C142.399 137.408 144.303 137.344 146.543 136.976L146.735 138.32C144.431 138.704 142.463 138.784 139.663 138.784H138.447V137.408ZM138.415 131.568H145.087V135.744H140.079V138.224H138.447V134.464H143.439V132.912H138.415V131.568ZM140.175 140.112H149.743V145.152H140.175V140.112ZM148.095 141.44H141.823V143.808H148.095V141.44Z" fill="white"/>
<rect x="159" y="57" width="104" height="34" rx="17" fill="#1FBBBA"/>
<path d="M175.739 79.192H188.987V80.568H175.739V79.192ZM181.515 76.104H183.179V79.912H181.515V76.104ZM181.499 70.76H182.987V71.08C182.987 73.976 180.491 76.056 176.939 76.6L176.315 75.272C179.483 74.84 181.499 73.08 181.499 71.08V70.76ZM181.723 70.76H183.195V71.08C183.195 73.08 185.211 74.84 188.379 75.272L187.755 76.6C184.219 76.056 181.723 73.976 181.723 71.08V70.76ZM176.907 69.864H187.771V71.224H176.907V69.864ZM181.515 67.96H183.179V70.392H181.515V67.96ZM191.594 69.032H200.842V70.392H191.594V69.032ZM190.042 79.112H203.258V80.472H190.042V79.112ZM200.154 69.032H201.802V70.376C201.802 72.152 201.818 74.184 201.178 77.256L199.514 77.08C200.154 74.184 200.154 72.088 200.154 70.376V69.032ZM200.49 72.552V73.816L191.402 74.312L191.162 72.888L200.49 72.552ZM194.986 75.448H196.666V79.608H194.986V75.448ZM209.193 69.4H210.777C210.777 73.352 209.705 76.872 205.321 79.368L204.377 78.184C208.153 76.072 209.193 73.208 209.193 69.672V69.4ZM205.145 69.4H209.753V70.744H205.145V69.4ZM209.113 72.76V74.008L204.633 74.472L204.409 73.032L209.113 72.76ZM209.609 73.368H212.809V74.712H209.609V73.368ZM215.257 67.704H216.873V82.328H215.257V67.704ZM212.217 68.056H213.785V81.624H212.217V68.056ZM229.047 67.688H230.727V82.344H229.047V67.688ZM222.935 68.776C225.127 68.776 226.711 70.776 226.711 73.928C226.711 77.08 225.127 79.096 222.935 79.096C220.759 79.096 219.175 77.08 219.175 73.928C219.175 70.776 220.759 68.776 222.935 68.776ZM222.935 70.296C221.655 70.296 220.775 71.656 220.775 73.928C220.775 76.216 221.655 77.592 222.935 77.592C224.215 77.592 225.095 76.216 225.095 73.928C225.095 71.656 224.215 70.296 222.935 70.296ZM234.55 69.096H243.798V70.456H234.55V69.096ZM233.014 79.048H246.23V80.44H233.014V79.048ZM243.078 69.096H244.726V70.856C244.726 72.984 244.726 75 244.086 78.072L242.422 77.912C243.078 75.048 243.078 72.936 243.078 70.856V69.096ZM243.462 73.128V74.376L234.358 74.84L234.134 73.48L243.462 73.128Z" fill="white"/>
<rect x="283" y="91" width="76" height="34" rx="17" fill="#1FBBBA"/>
<path d="M300.57 102.776H307.306V109.384H300.57V102.776ZM305.642 104.104H302.218V108.04H305.642V104.104ZM309.786 101.704H311.466V111.384H309.786V101.704ZM311.002 105.544H313.53V106.92H311.002V105.544ZM306.106 110.696H307.546V111.112C307.546 113.784 305.242 115.72 302.026 116.28L301.37 114.952C304.218 114.536 306.106 112.968 306.106 111.112V110.696ZM306.346 110.696H307.77V111.112C307.77 112.968 309.69 114.536 312.506 114.952L311.866 116.28C308.65 115.72 306.346 113.784 306.346 111.112V110.696ZM317.849 110.648H319.129V111.304C319.129 113.352 318.025 115.32 315.833 116.12L315.017 114.888C316.889 114.232 317.849 112.712 317.849 111.304V110.648ZM318.249 110.648H319.465V111.304C319.465 112.744 320.281 114.28 322.041 115L321.353 116.264C319.145 115.416 318.249 113.336 318.249 111.304V110.648ZM323.225 110.648H324.441V111.304C324.441 113.16 323.513 115.368 321.353 116.264L320.665 115C322.409 114.216 323.225 112.584 323.225 111.304V110.648ZM323.593 110.648H324.873V111.304C324.873 112.808 325.817 114.28 327.705 114.888L326.889 116.12C324.665 115.352 323.593 113.448 323.593 111.304V110.648ZM324.745 101.72H326.425V110.024H324.745V101.72ZM318.537 102.52C320.777 102.52 322.409 103.928 322.409 105.976C322.409 107.992 320.777 109.416 318.537 109.416C316.297 109.416 314.649 107.992 314.649 105.976C314.649 103.928 316.297 102.52 318.537 102.52ZM318.537 103.912C317.241 103.912 316.281 104.728 316.281 105.976C316.281 107.224 317.241 108.024 318.537 108.024C319.833 108.024 320.777 107.224 320.777 105.976C320.777 104.728 319.833 103.912 318.537 103.912ZM338.343 101.688H340.023V116.344H338.343V101.688ZM339.639 107.304H342.295V108.696H339.639V107.304ZM329.287 111.368H330.471C333.063 111.368 334.983 111.272 337.143 110.872L337.319 112.28C335.079 112.68 333.127 112.76 330.471 112.76H329.287V111.368ZM329.287 103.08H336.087V104.44H330.951V112.008H329.287V103.08Z" fill="white"/>
<rect x="75" y="51" width="76" height="34" rx="17" fill="#20C782"/>
<path d="M99.3859 66.488H103.354V67.848H99.3859V66.488ZM95.6579 62.904H97.0179V65.304C97.0179 68.744 95.5139 72.008 93.0019 73.304L91.9459 71.96C94.2499 70.856 95.6579 68.04 95.6579 65.304V62.904ZM95.9939 62.904H97.3379V65.304C97.3379 68.008 98.7299 70.664 100.986 71.704L99.9779 73.048C97.4499 71.784 95.9939 68.696 95.9939 65.304V62.904ZM102.522 61.688H104.186V76.344H102.522V61.688ZM112.121 68.616H113.785V70.776H112.121V68.616ZM112.969 61.864C116.249 61.864 118.185 62.744 118.185 64.376C118.185 65.992 116.249 66.888 112.969 66.888C109.689 66.888 107.769 65.992 107.769 64.376C107.769 62.744 109.689 61.864 112.969 61.864ZM112.969 63.112C110.713 63.112 109.497 63.544 109.497 64.376C109.497 65.208 110.713 65.64 112.969 65.64C115.241 65.64 116.441 65.208 116.441 64.376C116.441 63.544 115.241 63.112 112.969 63.112ZM106.361 67.688H119.577V69.032H106.361V67.688ZM107.929 70.216H117.929V73.704H109.609V75.272H107.945V72.52H116.281V71.464H107.929V70.216ZM107.945 74.904H118.345V76.2H107.945V74.904ZM127.255 63.768H131.655V65.128H127.255V63.768ZM127.255 67H131.655V68.36H127.255V67ZM122.951 71.08H132.807V76.328H131.127V72.424H122.951V71.08ZM131.127 61.704H132.807V70.344H131.127V61.704ZM124.695 62.488C126.855 62.488 128.503 63.976 128.503 66.056C128.503 68.152 126.855 69.624 124.695 69.624C122.519 69.624 120.887 68.152 120.887 66.056C120.887 63.976 122.519 62.488 124.695 62.488ZM124.695 63.928C123.431 63.928 122.487 64.776 122.487 66.056C122.487 67.352 123.431 68.2 124.695 68.2C125.959 68.2 126.903 67.352 126.903 66.056C126.903 64.776 125.959 63.928 124.695 63.928Z" fill="white"/>
<rect x="113.5" width="119" height="34" rx="17" fill="#20C782"/>
<path d="M134.564 18.128H136.244V21.36H134.564V18.128ZM141.012 10.704H142.692V21.808H141.012V10.704ZM132.468 23.68H143.028V25.04H132.468V23.68ZM132.468 20.736H134.148V24.048H132.468V20.736ZM130.724 18.688L130.5 17.328C133.188 17.328 136.788 17.296 139.876 16.896L139.988 18.112C136.852 18.624 133.364 18.688 130.724 18.688ZM138.132 19.28H141.412V20.464H138.132V19.28ZM135.236 11.264C137.364 11.264 138.852 12.288 138.852 13.84C138.852 15.392 137.364 16.4 135.236 16.4C133.092 16.4 131.62 15.392 131.62 13.84C131.62 12.288 133.092 11.264 135.236 11.264ZM135.236 12.496C134.036 12.496 133.204 12.992 133.204 13.84C133.204 14.672 134.036 15.168 135.236 15.168C136.42 15.168 137.252 14.672 137.252 13.84C137.252 12.992 136.42 12.496 135.236 12.496ZM155.763 10.704H157.363V25.328H155.763V10.704ZM149.923 16.176H153.475V17.536H149.923V16.176ZM152.787 11.008H154.355V24.624H152.787V11.008ZM145.379 20.544H146.355C148.531 20.544 149.907 20.48 151.523 20.144L151.667 21.52C150.019 21.872 148.595 21.936 146.355 21.936H145.379V20.544ZM145.379 12.432H150.915V13.776H147.027V21.104H145.379V12.432ZM169.569 10.688H171.249V25.344H169.569V10.688ZM163.457 11.776C165.649 11.776 167.233 13.776 167.233 16.928C167.233 20.08 165.649 22.096 163.457 22.096C161.281 22.096 159.697 20.08 159.697 16.928C159.697 13.776 161.281 11.776 163.457 11.776ZM163.457 13.296C162.177 13.296 161.297 14.656 161.297 16.928C161.297 19.216 162.177 20.592 163.457 20.592C164.737 20.592 165.617 19.216 165.617 16.928C165.617 14.656 164.737 13.296 163.457 13.296ZM175.184 11.312H184.528V12.64H175.184V11.312ZM183.488 11.312H185.136V12.512C185.136 13.76 185.136 15.168 184.736 17.008L183.088 16.832C183.488 15.04 183.488 13.744 183.488 12.512V11.312ZM183.984 13.776V14.944L175.008 15.328L174.8 14.016L183.984 13.776ZM173.552 16.528H186.72V17.856H173.552V16.528ZM175.024 19.008H185.232V22.624H176.72V24.416H175.056V21.408H183.568V20.288H175.024V19.008ZM175.056 23.856H185.728V25.152H175.056V23.856ZM188.287 20.56H189.279C191.039 20.56 192.623 20.512 194.527 20.192L194.655 21.568C192.703 21.904 191.087 21.952 189.279 21.952H188.287V20.56ZM188.255 12.224H193.759V17.584H189.919V21.072H188.287V16.24H192.143V13.568H188.255V12.224ZM198.719 10.704H200.319V25.328H198.719V10.704ZM196.479 16.368H199.119V17.728H196.479V16.368ZM195.423 10.992H196.975V24.608H195.423V10.992ZM207.838 11.632H209.294V12.736C209.294 15.904 206.638 18.528 203.342 19.232L202.606 17.84C205.502 17.312 207.838 15.04 207.838 12.736V11.632ZM208.158 11.632H209.614V12.736C209.614 15.072 211.95 17.312 214.846 17.84L214.11 19.232C210.814 18.528 208.158 15.936 208.158 12.736V11.632ZM202.174 22.064H215.422V23.44H202.174V22.064Z" fill="white"/>
<rect x="238" y="17" width="90" height="34" rx="17" fill="#20C782"/>
<path d="M260.563 28.632H262.019V29.736C262.019 32.904 259.363 35.528 256.067 36.232L255.331 34.84C258.227 34.312 260.563 32.04 260.563 29.736V28.632ZM260.883 28.632H262.339V29.736C262.339 32.072 264.675 34.312 267.571 34.84L266.835 36.232C263.539 35.528 260.883 32.936 260.883 29.736V28.632ZM254.899 39.064H268.147V40.44H254.899V39.064ZM269.809 37.528H270.993C273.585 37.528 275.457 37.48 277.649 37.112L277.809 38.456C275.569 38.84 273.633 38.904 270.993 38.904H269.809V37.528ZM269.809 28.984H276.641V30.36H271.489V37.992H269.809V28.984ZM271.073 33.064H276.369V34.392H271.073V33.064ZM278.865 27.704H280.545V42.328H278.865V27.704ZM280.161 33.432H282.817V34.824H280.161V33.432ZM293.92 27.704H295.616V35.24H293.92V27.704ZM285.92 35.896H295.616V39.608H287.6V41.608H285.952V38.376H293.952V37.208H285.92V35.896ZM285.952 40.872H296.08V42.2H285.952V40.872ZM284.176 28.648H292.032V29.96H284.176V28.648ZM283.952 34.856L283.776 33.496C286.368 33.496 289.824 33.448 292.656 33.096L292.752 34.296C289.856 34.76 286.496 34.84 283.952 34.856ZM285.488 29.24H287.088V34.136H285.488V29.24ZM289.088 29.24H290.72V34.136H289.088V29.24ZM299.471 34.6H309.615V35.944H299.471V34.6ZM297.855 39.064H311.103V40.44H297.855V39.064ZM299.471 28.984H309.487V30.36H301.135V35.176H299.471V28.984Z" fill="white"/>
<rect x="352" y="132" width="76" height="34" rx="17" fill="#20C782"/>
<path d="M373.874 144.4H375.458C375.458 148.352 374.386 151.872 370.002 154.368L369.058 153.184C372.834 151.072 373.874 148.208 373.874 144.672V144.4ZM369.826 144.4H374.434V145.744H369.826V144.4ZM373.794 147.76V149.008L369.314 149.472L369.09 148.032L373.794 147.76ZM374.29 148.368H377.49V149.712H374.29V148.368ZM379.938 142.704H381.554V157.328H379.938V142.704ZM376.898 143.056H378.466V156.624H376.898V143.056ZM393.729 142.688H395.409V157.344H393.729V142.688ZM387.617 143.776C389.809 143.776 391.393 145.776 391.393 148.928C391.393 152.08 389.809 154.096 387.617 154.096C385.441 154.096 383.857 152.08 383.857 148.928C383.857 145.776 385.441 143.776 387.617 143.776ZM387.617 145.296C386.337 145.296 385.457 146.656 385.457 148.928C385.457 151.216 386.337 152.592 387.617 152.592C388.897 152.592 389.777 151.216 389.777 148.928C389.777 146.656 388.897 145.296 387.617 145.296ZM399.231 144.096H408.479V145.456H399.231V144.096ZM397.695 154.048H410.911V155.44H397.695V154.048ZM407.759 144.096H409.407V145.856C409.407 147.984 409.407 150 408.767 153.072L407.103 152.912C407.759 150.048 407.759 147.936 407.759 145.856V144.096ZM408.143 148.128V149.376L399.039 149.84L398.815 148.48L408.143 148.128Z" fill="white"/>
<rect x="252" y="207" width="62" height="34" rx="17" fill="#20C782"/>
<path d="M271.233 219.208H272.417V220.28C272.417 222.04 271.713 224.136 269.793 225.032L268.993 223.816C270.561 223.064 271.233 221.496 271.233 220.28V219.208ZM271.649 219.208H272.801V220.28C272.801 221.384 273.217 223.064 274.641 223.928L273.969 225.176C272.081 224.168 271.649 221.88 271.649 220.28V219.208ZM275.137 219.208H276.289V220.28C276.289 221.928 275.857 224.184 273.969 225.176L273.297 223.928C274.705 223.08 275.137 221.448 275.137 220.28V219.208ZM275.521 219.208H276.721V220.28C276.721 221.528 277.377 223.08 278.961 223.816L278.161 225.032C276.241 224.152 275.521 222.088 275.521 220.28V219.208ZM269.521 218.408H273.697V219.736H269.521V218.408ZM274.257 218.408H278.353V219.736H274.257V218.408ZM279.313 217.704H280.993V225.384H279.313V217.704ZM279.921 220.76H282.673V222.152H279.921V220.76ZM271.185 225.976H280.993V229.64H272.865V231.416H271.217V228.424H279.329V227.272H271.185V225.976ZM271.217 230.904H281.505V232.2H271.217V230.904ZM289.184 219.224H290.64V219.768C290.64 222.36 288.16 224.36 284.88 224.856L284.24 223.544C287.104 223.16 289.184 221.496 289.184 219.768V219.224ZM289.648 219.224H291.088V219.768C291.088 221.496 293.184 223.16 296.032 223.544L295.408 224.856C292.112 224.36 289.648 222.36 289.648 219.768V219.224ZM289.264 226.856H290.928V232.328H289.264V226.856ZM283.536 225.912H296.752V227.272H283.536V225.912ZM284.736 218.536H295.504V219.88H284.736V218.536Z" fill="white"/>
<rect x="343" y="190" width="76" height="34" rx="17" fill="#20C782"/>
<path d="M360.522 202.096H362.106V205.568H364.666V202.096H366.202V211.744H360.522V202.096ZM362.106 206.896V210.384H364.666V206.896H362.106ZM370.938 200.704H372.538V215.328H370.938V200.704ZM365.93 206.16H368.57V207.536H365.93V206.16ZM367.994 200.992H369.578V214.64H367.994V200.992ZM384.729 200.688H386.409V215.344H384.729V200.688ZM378.617 201.776C380.809 201.776 382.393 203.776 382.393 206.928C382.393 210.08 380.809 212.096 378.617 212.096C376.441 212.096 374.857 210.08 374.857 206.928C374.857 203.776 376.441 201.776 378.617 201.776ZM378.617 203.296C377.337 203.296 376.457 204.656 376.457 206.928C376.457 209.216 377.337 210.592 378.617 210.592C379.897 210.592 380.777 209.216 380.777 206.928C380.777 204.656 379.897 203.296 378.617 203.296ZM394.711 201.648H396.455C396.455 205.552 394.439 208.24 389.655 209.632L389.031 208.304C393.175 207.136 394.711 205.04 394.711 202.352V201.648ZM389.703 201.648H395.655V202.992H389.703V201.648ZM394.647 204.352V205.52L389.223 205.92L388.967 204.592L394.647 204.352ZM399.063 200.72H400.743V209.424H399.063V200.72ZM395.863 209.648C398.903 209.648 400.823 210.704 400.823 212.48C400.823 214.272 398.903 215.312 395.863 215.312C392.823 215.312 390.919 214.272 390.919 212.48C390.919 210.704 392.823 209.648 395.863 209.648ZM395.863 210.96C393.783 210.96 392.583 211.504 392.583 212.48C392.583 213.456 393.783 214.016 395.863 214.016C397.943 214.016 399.143 213.456 399.143 212.48C399.143 211.504 397.943 210.96 395.863 210.96Z" fill="white"/>
<rect y="119" width="76" height="34" rx="17" fill="#20C782"/>
<path d="M18.4339 131.064H27.7779V132.424H18.4339V131.064ZM17.0579 141.032H30.2739V142.408H17.0579V141.032ZM21.9859 135.896H23.6659V141.72H21.9859V135.896ZM27.1539 131.064H28.8339V132.488C28.8339 134.312 28.8339 136.344 28.2739 139.368L26.5939 139.176C27.1539 136.328 27.1539 134.248 27.1539 132.488V131.064ZM32.9606 130.616H42.1126V131.944H32.9606V130.616ZM31.3766 136.856H44.5926V138.232H31.3766V136.856ZM37.0886 137.8H38.7686V144.344H37.0886V137.8ZM41.2806 130.616H42.9286V131.896C42.9286 133.448 42.9286 135.176 42.3686 137.704L40.7206 137.496C41.2806 135.096 41.2806 133.384 41.2806 131.896V130.616ZM46.2074 131.128H53.0394V140.68H46.2074V131.128ZM51.3914 132.456H47.8554V139.352H51.3914V132.456ZM55.3434 129.704H57.0234V144.328H55.3434V129.704ZM56.6394 135.4H59.2954V136.792H56.6394V135.4Z" fill="white"/>
<rect x="36" y="176" width="76" height="34" rx="17" fill="#20C782"/>
<path d="M62.7059 186.704H64.3859V201.328H62.7059V186.704ZM64.0019 192.32H66.6579V193.728H64.0019V192.32ZM53.5699 187.904H55.2339V191.632H58.8499V187.904H60.5139V197.872H53.5699V187.904ZM55.2339 192.944V196.512H58.8499V192.944H55.2339ZM77.7286 186.704H79.4246V201.328H77.7286V186.704ZM71.2166 190.32H72.5606V191.36C72.5606 194.464 70.9606 197.408 68.4646 198.56L67.5526 197.264C69.8086 196.24 71.2166 193.76 71.2166 191.36V190.32ZM71.5686 190.32H72.8806V191.36C72.8806 193.648 74.3206 196.032 76.6086 197.024L75.6966 198.304C73.1846 197.216 71.5686 194.368 71.5686 191.36V190.32ZM67.9846 189.168H76.0646V190.512H67.9846V189.168ZM71.2166 187.008H72.8966V189.888H71.2166V187.008ZM86.5114 188.4H88.0954C88.0954 192.352 87.0234 195.872 82.6394 198.368L81.6954 197.184C85.4714 195.072 86.5114 192.208 86.5114 188.672V188.4ZM82.4634 188.4H87.0714V189.744H82.4634V188.4ZM86.4314 191.76V193.008L81.9514 193.472L81.7274 192.032L86.4314 191.76ZM86.9274 192.368H90.1274V193.712H86.9274V192.368ZM92.5754 186.704H94.1914V201.328H92.5754V186.704ZM89.5354 187.056H91.1034V200.624H89.5354V187.056Z" fill="white"/>
<rect x="107" y="220" width="90" height="34" rx="17" fill="#20C782"/>
<path d="M134.683 230.704H136.267V239.504H134.683V230.704ZM132.539 234.384H135.115V235.76H132.539V234.384ZM131.419 230.976H132.987V238.992H131.419V230.976ZM131.403 239.68C134.411 239.68 136.347 240.752 136.347 242.512C136.347 244.256 134.411 245.312 131.403 245.312C128.379 245.312 126.459 244.256 126.459 242.512C126.459 240.752 128.379 239.68 131.403 239.68ZM131.403 241.008C129.355 241.008 128.107 241.536 128.107 242.512C128.107 243.456 129.355 244 131.403 244C133.435 244 134.667 243.456 134.667 242.512C134.667 241.536 133.435 241.008 131.403 241.008ZM124.539 231.856H126.219V237.44H124.539V231.856ZM124.539 236.976H125.499C127.195 236.976 128.731 236.896 130.507 236.528L130.683 237.904C128.843 238.272 127.275 238.352 125.499 238.352H124.539V236.976ZM141.657 232.304H143.033V233.36C143.033 236.096 141.545 238.464 138.921 239.36L138.089 238.032C140.377 237.248 141.657 235.36 141.657 233.36V232.304ZM141.977 232.304H143.337V233.36C143.337 235.168 144.553 236.864 146.793 237.584L145.993 238.896C143.401 238.064 141.977 235.888 141.977 233.36V232.304ZM138.553 231.744H146.409V233.088H138.553V231.744ZM147.945 230.704H149.625V239.456H147.945V230.704ZM149.161 234.256H151.689V235.648H149.161V234.256ZM144.921 239.792C147.913 239.792 149.785 240.816 149.785 242.544C149.785 244.288 147.913 245.312 144.921 245.312C141.913 245.312 140.041 244.288 140.041 242.544C140.041 240.816 141.913 239.792 144.921 239.792ZM144.921 241.12C142.889 241.12 141.705 241.616 141.705 242.544C141.705 243.488 142.889 244 144.921 244C146.953 244 148.121 243.488 148.121 242.544C148.121 241.616 146.953 241.12 144.921 241.12ZM152.536 242.16H165.784V243.536H152.536V242.16ZM158.296 238.832H159.96V242.528H158.296V238.832ZM154.008 231.696H155.688V234.144H162.584V231.696H164.248V239.232H154.008V231.696ZM155.688 235.472V237.872H162.584V235.472H155.688ZM167.575 231.808H173.943V233.168H167.575V231.808ZM169.607 235.136H171.255V238.784H169.607V235.136ZM173.287 231.808H174.935V232.64C174.935 233.632 174.935 235.088 174.567 236.96L172.935 236.784C173.287 234.912 173.287 233.616 173.287 232.64V231.808ZM176.663 230.704H178.359V241.68H176.663V230.704ZM177.639 235.328H180.295V236.72H177.639V235.328ZM168.887 243.68H178.823V245.04H168.887V243.68ZM168.887 240.688H170.567V244.096H168.887V240.688ZM166.855 239.52L166.695 238.176C169.271 238.176 172.823 238.128 175.767 237.712L175.879 238.912C172.855 239.456 169.399 239.52 166.855 239.52Z" fill="white"/>
<rect x="359" y="47" width="76" height="34" rx="17" fill="#20C782"/>
<path d="M376.058 69.208H389.306V70.584H376.058V69.208ZM381.802 65.64H383.466V69.832H381.802V65.64ZM377.146 59.016H388.122V60.376H377.146V59.016ZM377.194 64.872H388.09V66.2H377.194V64.872ZM379.29 60.12H380.97V65.064H379.29V60.12ZM384.314 60.12H385.978V65.064H384.314V60.12ZM393.817 59.304H395.193V60.36C395.193 63.096 393.705 65.464 391.081 66.36L390.249 65.032C392.537 64.248 393.817 62.36 393.817 60.36V59.304ZM394.137 59.304H395.497V60.36C395.497 62.168 396.713 63.864 398.953 64.584L398.153 65.896C395.561 65.064 394.137 62.888 394.137 60.36V59.304ZM390.713 58.744H398.569V60.088H390.713V58.744ZM400.105 57.704H401.785V66.456H400.105V57.704ZM401.321 61.256H403.849V62.648H401.321V61.256ZM397.081 66.792C400.073 66.792 401.945 67.816 401.945 69.544C401.945 71.288 400.073 72.312 397.081 72.312C394.073 72.312 392.201 71.288 392.201 69.544C392.201 67.816 394.073 66.792 397.081 66.792ZM397.081 68.12C395.049 68.12 393.865 68.616 393.865 69.544C393.865 70.488 395.049 71 397.081 71C399.113 71 400.281 70.488 400.281 69.544C400.281 68.616 399.113 68.12 397.081 68.12ZM408.407 59.896H409.751V61.944C409.751 65.16 408.103 68.344 405.591 69.544L404.631 68.216C406.887 67.176 408.407 64.44 408.407 61.944V59.896ZM408.759 59.896H410.087V61.944C410.087 64.36 411.591 66.888 413.879 67.848L412.951 69.176C410.407 68.04 408.759 65.08 408.759 61.944V59.896ZM405.159 59.16H413.335V60.552H405.159V59.16ZM415.047 57.704H416.727V72.328H415.047V57.704Z" fill="white"/>
</svg>
