<svg width="415" height="276" viewBox="0 0 415 276" fill="none" xmlns="http://www.w3.org/2000/svg">
<path d="M156 238L210 136" stroke="#BFC7D1"/>
<path d="M239 199L210 136" stroke="#BFC7D1"/>
<path d="M308 111L210 136" stroke="#BFC7D1"/>
<path d="M197 77L210 136" stroke="#BFC7D1"/>
<path d="M31 158L210 136" stroke="#BFC7D1"/>
<path d="M94 71L210 136" stroke="#BFC7D1"/>
<path d="M155 17L210 136" stroke="#BFC7D1"/>
<path d="M270 56L210 136" stroke="#BFC7D1"/>
<path d="M370 71L210 136" stroke="#BFC7D1"/>
<path d="M361 154L210 136" stroke="#BFC7D1"/>
<path d="M343 207L210 136" stroke="#BFC7D1"/>
<path d="M308 259L210 136" stroke="#BFC7D1"/>
<path d="M151 181L210 136" stroke="#BFC7D1"/>
<path d="M47 213L210 136" stroke="#BFC7D1"/>
<path d="M107 125L210 136" stroke="#BFC7D1"/>
<rect x="179" y="119" width="62" height="34" rx="17" fill="#373D49"/>
<path d="M206.521 129.768H208.185V144.264H206.521V129.768ZM197.065 130.968H198.697V134.648H202.361V130.968H204.009V140.824H197.065V130.968ZM198.697 135.96V139.496H202.361V135.96H198.697ZM218.088 134.12H220.936V129.784H222.584V140.424H220.936V135.48H218.088V134.12ZM211.544 130.888H218.168C218.168 134.696 215.624 137.528 211.512 138.872L210.792 137.56C213.976 136.52 216.088 134.6 216.392 132.232H211.544V130.888ZM214.968 142.616H222.952V143.96H213.32V139.352H214.968V142.616Z" fill="white"/>
<rect x="106" y="164" width="90" height="34" rx="17" fill="#1FBBBA"/>
<path d="M124.291 176.16H133.635V177.504H124.291V176.16ZM122.899 185.92H136.115V187.296H122.899V185.92ZM132.739 176.16H134.403V177.744C134.403 179.696 134.403 181.744 133.859 184.832L132.179 184.672C132.739 181.776 132.739 179.632 132.739 177.744V176.16ZM147.585 174.72H149.265V185.488H147.585V174.72ZM139.617 187.68H149.649V189.04H139.617V187.68ZM139.617 184.624H141.297V188.368H139.617V184.624ZM137.969 182.144H139.185C142.081 182.144 143.937 182.064 146.081 181.68L146.257 183.024C144.049 183.424 142.145 183.504 139.185 183.504H137.969V182.144ZM137.937 175.712H144.609V180.144H139.601V182.544H137.969V178.88H142.961V177.056H137.937V175.712ZM151.52 183.248H164.768V184.592H151.52V183.248ZM157.264 183.904H158.928V189.328H157.264V183.904ZM153.12 175.28H154.784V177.136H161.472V175.28H163.136V181.664H153.12V175.28ZM154.784 178.464V180.32H161.472V178.464H154.784ZM176.303 174.688H177.983V189.344H176.303V174.688ZM173.407 180.448H176.735V181.824H173.407V180.448ZM169.423 178.32H170.735V179.36C170.735 182.432 169.215 185.392 166.735 186.56L165.823 185.264C168.063 184.208 169.423 181.728 169.423 179.36V178.32ZM169.759 178.32H171.071V179.36C171.071 181.632 172.463 184 174.703 185.024L173.807 186.304C171.311 185.184 169.759 182.336 169.759 179.36V178.32ZM166.271 177.168H174.175V178.512H166.271V177.168ZM169.407 175.008H171.087V177.888H169.407V175.008Z" fill="white"/>
<rect x="201" y="181" width="76" height="34" rx="17" fill="#1FBBBA"/>
<path d="M221.69 192.392H223.082V193.8C223.082 196.568 221.562 199 218.922 199.928L218.09 198.6C220.41 197.8 221.69 195.832 221.69 193.8V192.392ZM222.01 192.392H223.386V193.8C223.386 195.768 224.666 197.608 226.938 198.344L226.106 199.672C223.498 198.776 222.01 196.504 222.01 193.8V192.392ZM220.25 201.16H230.106V206.328H228.426V202.52H220.25V201.16ZM228.426 191.704H230.106V200.472H228.426V191.704ZM238.121 198.664H239.785V200.824H238.121V198.664ZM232.361 197.704H245.577V199.032H232.361V197.704ZM234.041 192.168H243.881V196.68H234.041V192.168ZM242.233 193.48H235.689V195.368H242.233V193.48ZM233.929 200.232H243.929V203.736H235.609V205.288H233.945V202.536H242.281V201.496H233.929V200.232ZM233.945 204.904H244.345V206.2H233.945V204.904ZM250.247 192.504H251.639V193.912C251.639 196.792 250.167 199.224 247.495 200.168L246.615 198.808C248.967 198.024 250.247 196.056 250.247 193.912V192.504ZM250.567 192.504H251.927V193.848C251.927 195.864 253.143 197.688 255.367 198.424L254.471 199.736C251.959 198.824 250.567 196.584 250.567 193.848V192.504ZM257.127 191.704H258.807V200.312H257.127V191.704ZM253.927 200.728C256.983 200.728 258.855 201.752 258.855 203.512C258.855 205.288 256.983 206.312 253.927 206.312C250.871 206.312 248.999 205.288 248.999 203.512C248.999 201.752 250.871 200.728 253.927 200.728ZM253.927 202.04C251.863 202.04 250.663 202.568 250.663 203.512C250.663 204.472 251.863 205 253.927 205C256.007 205 257.191 204.472 257.191 203.512C257.191 202.568 256.007 202.04 253.927 202.04ZM254.167 194.6H257.415V195.976H254.167V194.6Z" fill="white"/>
<rect x="62" y="108" width="90" height="34" rx="17" fill="#1FBBBA"/>
<path d="M89.2505 118.688H90.9305V133.344H89.2505V118.688ZM79.6665 119.904H81.3305V123.632H85.0265V119.904H86.6905V129.872H79.6665V119.904ZM81.3305 124.944V128.512H85.0265V124.944H81.3305ZM103.649 118.704H105.329V129.456H103.649V118.704ZM100.769 123.104H103.921V124.48H100.769V123.104ZM99.0893 119.824H100.849C100.849 123.664 98.2893 126.544 94.1133 127.904L93.4093 126.56C96.8973 125.424 99.0893 123.248 99.0893 120.544V119.824ZM94.1453 119.824H100.177V121.184H94.1453V119.824ZM95.9373 131.68H105.697V133.04H95.9373V131.68ZM95.9373 128.384H97.6173V132.416H95.9373V128.384ZM111.168 119.392H112.56V120.8C112.56 123.568 111.04 126 108.4 126.928L107.568 125.6C109.888 124.8 111.168 122.832 111.168 120.8V119.392ZM111.488 119.392H112.864V120.8C112.864 122.768 114.144 124.608 116.416 125.344L115.584 126.672C112.976 125.776 111.488 123.504 111.488 120.8V119.392ZM109.728 128.16H119.584V133.328H117.904V129.52H109.728V128.16ZM117.904 118.704H119.584V127.472H117.904V118.704ZM131.599 118.704H133.279V127.28H131.599V118.704ZM132.799 122.352H135.327V123.728H132.799V122.352ZM128.559 127.568C131.535 127.568 133.423 128.64 133.423 130.448C133.423 132.256 131.535 133.328 128.559 133.328C125.567 133.328 123.679 132.256 123.679 130.448C123.679 128.64 125.567 127.568 128.559 127.568ZM128.559 128.912C126.527 128.912 125.327 129.44 125.327 130.448C125.327 131.424 126.527 131.968 128.559 131.968C130.575 131.968 131.775 131.424 131.775 130.448C131.775 129.44 130.575 128.912 128.559 128.912ZM122.431 124.944H123.599C126.719 124.944 128.367 124.864 130.239 124.464L130.415 125.824C128.495 126.224 126.783 126.304 123.599 126.304H122.431V124.944ZM122.431 119.76H128.927V121.12H124.095V125.856H122.431V119.76Z" fill="white"/>
<rect x="152" y="60" width="90" height="34" rx="17" fill="#1FBBBA"/>
<path d="M179.251 70.688H180.931V85.344H179.251V70.688ZM169.667 71.904H171.331V75.632H175.027V71.904H176.691V81.872H169.667V71.904ZM171.331 76.944V80.512H175.027V76.944H171.331ZM193.649 70.704H195.329V81.456H193.649V70.704ZM190.769 75.104H193.921V76.48H190.769V75.104ZM189.089 71.824H190.849C190.849 75.664 188.289 78.544 184.113 79.904L183.409 78.56C186.897 77.424 189.089 75.248 189.089 72.544V71.824ZM184.145 71.824H190.177V73.184H184.145V71.824ZM185.937 83.68H195.697V85.04H185.937V83.68ZM185.937 80.384H187.617V84.416H185.937V80.384ZM203.44 72.176H205.072C205.072 76.528 203.808 80.352 198.48 83.024L197.568 81.744C202.16 79.456 203.44 76.4 203.44 72.368V72.176ZM198.416 72.176H204.432V73.52H198.416V72.176ZM203.344 75.776V77.072L197.904 77.6L197.664 76.144L203.344 75.776ZM207.184 70.688H208.864V85.312H207.184V70.688ZM208.416 76.48H211.056V77.856H208.416V76.48ZM222.815 70.704H224.415V85.328H222.815V70.704ZM218.239 76.16H220.447V77.632H218.239V76.16ZM219.951 71.024H221.535V84.592H219.951V71.024ZM211.967 72.464H218.639V73.824H211.967V72.464ZM211.887 81.856L211.695 80.464C213.567 80.464 216.687 80.416 218.911 80.112L219.023 81.328C216.735 81.792 213.727 81.856 211.887 81.856ZM213.039 73.328H214.559V80.848H213.039V73.328ZM216.031 73.328H217.551V80.848H216.031V73.328Z" fill="white"/>
<rect x="277" y="95" width="62" height="34" rx="17" fill="#1FBBBA"/>
<path d="M297.769 106.504H299.161V107.912C299.161 110.792 297.689 113.224 295.017 114.168L294.137 112.808C296.489 112.024 297.769 110.056 297.769 107.912V106.504ZM298.089 106.504H299.449V107.848C299.449 109.864 300.665 111.688 302.889 112.424L301.993 113.736C299.481 112.824 298.089 110.584 298.089 107.848V106.504ZM304.649 105.704H306.329V114.312H304.649V105.704ZM301.449 114.728C304.505 114.728 306.377 115.752 306.377 117.512C306.377 119.288 304.505 120.312 301.449 120.312C298.393 120.312 296.521 119.288 296.521 117.512C296.521 115.752 298.393 114.728 301.449 114.728ZM301.449 116.04C299.385 116.04 298.185 116.568 298.185 117.512C298.185 118.472 299.385 119 301.449 119C303.529 119 304.713 118.472 304.713 117.512C304.713 116.568 303.529 116.04 301.449 116.04ZM301.689 108.6H304.937V109.976H301.689V108.6ZM314.264 106.184H315.736V106.936C315.736 109.736 313.16 111.912 309.784 112.456L309.128 111.096C312.088 110.68 314.264 108.856 314.264 106.936V106.184ZM314.568 106.184H316.024V106.936C316.024 108.824 318.216 110.68 321.176 111.096L320.52 112.456C317.144 111.912 314.568 109.72 314.568 106.936V106.184ZM314.264 114.856H315.928V120.328H314.264V114.856ZM308.536 113.8H321.752V115.176H308.536V113.8Z" fill="white"/>
<rect x="49" y="54" width="90" height="34" rx="17" fill="#20C782"/>
<path d="M68.6825 68.576H69.9625V69.168C69.9625 72.128 68.8905 75.104 66.6665 76.4L65.6905 75.136C67.7225 73.952 68.6825 71.488 68.6825 69.168V68.576ZM69.0025 68.576H70.2825V69.168C70.2825 71.424 71.2745 73.744 73.2745 74.832L72.3465 76.08C70.1065 74.864 69.0025 72.064 69.0025 69.168V68.576ZM66.1225 67.312H72.8425V68.672H66.1225V67.312ZM68.6825 65.216H70.2825V68.368H68.6825V65.216ZM76.8425 64.704H78.4425V79.328H76.8425V64.704ZM74.7785 70.464H77.4185V71.856H74.7785V70.464ZM73.6745 64.976H75.2425V78.624H73.6745V64.976ZM83.8493 65.392H85.2413V66.8C85.2413 69.568 83.7213 72 81.0813 72.928L80.2493 71.6C82.5693 70.8 83.8493 68.832 83.8493 66.8V65.392ZM84.1693 65.392H85.5453V66.8C85.5453 68.768 86.8253 70.608 89.0973 71.344L88.2653 72.672C85.6573 71.776 84.1693 69.504 84.1693 66.8V65.392ZM82.4093 74.16H92.2653V79.328H90.5853V75.52H82.4093V74.16ZM90.5853 64.704H92.2653V73.472H90.5853V64.704ZM95.72 65.12H106.52V66.4H95.72V65.12ZM95.8 68.768H106.44V70.048H95.8V68.768ZM97.768 65.616H99.448V69.6H97.768V65.616ZM102.792 65.616H104.472V69.6H102.792V65.616ZM94.52 71.056H107.736V72.384H94.52V71.056ZM96.088 73.456H106.088V76.848H97.768V78.432H96.104V75.696H104.44V74.672H96.088V73.456ZM96.104 77.952H106.504V79.2H96.104V77.952ZM119.639 64.704H121.223V75.568H119.639V64.704ZM117.543 68.976H120.103V70.352H117.543V68.976ZM116.455 64.976H118.023V75.216H116.455V64.976ZM111.559 77.68H121.639V79.04H111.559V77.68ZM111.559 74.576H113.239V78.176H111.559V74.576ZM109.479 72.144H110.455C112.519 72.144 113.975 72.096 115.687 71.76L115.831 73.088C114.071 73.424 112.583 73.488 110.455 73.488H109.479V72.144ZM109.447 65.936H114.967V70.288H111.095V72.88H109.479V69.024H113.351V67.264H109.447V65.936Z" fill="white"/>
<rect x="123.5" width="62" height="34" rx="17" fill="#20C782"/>
<path d="M142.461 16.016H152.349V17.376H142.461V16.016ZM140.701 19.072H153.949V20.432H140.701V19.072ZM146.445 19.84H148.109V25.296H146.445V19.84ZM142.461 11.52H152.173V12.88H144.173V16.672H142.461V11.52ZM155.02 19.248H168.268V20.592H155.02V19.248ZM160.764 19.904H162.428V25.328H160.764V19.904ZM156.62 11.28H158.284V13.136H164.972V11.28H166.636V17.664H156.62V11.28ZM158.284 14.464V16.32H164.972V14.464H158.284Z" fill="white"/>
<rect x="232" y="39" width="76" height="34" rx="17" fill="#20C782"/>
<path d="M252.658 58.392H254.338V60.76H252.658V58.392ZM258.802 49.704H260.482V64.328H258.802V49.704ZM259.922 55.8H262.562V57.192H259.922V55.8ZM249.106 61.704L248.882 60.328C251.458 60.328 254.994 60.312 257.986 59.88L258.114 61.112C254.994 61.688 251.618 61.704 249.106 61.704ZM249.138 51.4H257.826V52.728H249.138V51.4ZM253.49 53.464C255.554 53.464 256.994 54.552 256.994 56.184C256.994 57.832 255.554 58.904 253.49 58.904C251.426 58.904 250.002 57.832 250.002 56.184C250.002 54.552 251.426 53.464 253.49 53.464ZM253.49 54.744C252.338 54.744 251.586 55.304 251.586 56.184C251.586 57.08 252.338 57.624 253.49 57.624C254.642 57.624 255.41 57.08 255.41 56.184C255.41 55.304 254.642 54.744 253.49 54.744ZM252.658 49.752H254.338V52.344H252.658V49.752ZM266.817 51.304H268.193V52.36C268.193 55.096 266.705 57.464 264.081 58.36L263.249 57.032C265.537 56.248 266.817 54.36 266.817 52.36V51.304ZM267.137 51.304H268.497V52.36C268.497 54.168 269.713 55.864 271.953 56.584L271.153 57.896C268.561 57.064 267.137 54.888 267.137 52.36V51.304ZM263.713 50.744H271.569V52.088H263.713V50.744ZM273.105 49.704H274.785V58.456H273.105V49.704ZM274.321 53.256H276.849V54.648H274.321V53.256ZM270.081 58.792C273.073 58.792 274.945 59.816 274.945 61.544C274.945 63.288 273.073 64.312 270.081 64.312C267.073 64.312 265.201 63.288 265.201 61.544C265.201 59.816 267.073 58.792 270.081 58.792ZM270.081 60.12C268.049 60.12 266.865 60.616 266.865 61.544C266.865 62.488 268.049 63 270.081 63C272.113 63 273.281 62.488 273.281 61.544C273.281 60.616 272.113 60.12 270.081 60.12ZM283.455 57.592H285.119V59.976H283.455V57.592ZM277.679 56.664H290.895V58.008H277.679V56.664ZM278.879 50.136H289.679V51.496H278.879V50.136ZM278.959 54.168H289.599V55.512H278.959V54.168ZM280.927 50.68H282.607V55.048H280.927V50.68ZM285.951 50.68H287.631V55.048H285.951V50.68ZM279.263 59.496H289.295V64.152H279.263V59.496ZM287.663 60.808H280.911V62.808H287.663V60.808Z" fill="white"/>
<rect x="323" y="137" width="76" height="34" rx="17" fill="#20C782"/>
<path d="M343.994 148.776C346.154 148.776 347.69 150.776 347.69 153.928C347.69 157.08 346.154 159.096 343.994 159.096C341.834 159.096 340.298 157.08 340.298 153.928C340.298 150.776 341.834 148.776 343.994 148.776ZM343.994 150.296C342.746 150.296 341.898 151.656 341.898 153.928C341.898 156.216 342.746 157.592 343.994 157.592C345.258 157.592 346.106 156.216 346.106 153.928C346.106 151.656 345.258 150.296 343.994 150.296ZM350.522 147.688H352.186V162.344H350.522V147.688ZM347.178 153.144H351.242V154.488H347.178V153.144ZM357.929 148.504H359.321V149.912C359.321 152.792 357.849 155.224 355.177 156.168L354.297 154.808C356.649 154.024 357.929 152.056 357.929 149.912V148.504ZM358.249 148.504H359.609V149.848C359.609 151.864 360.825 153.688 363.049 154.424L362.153 155.736C359.641 154.824 358.249 152.584 358.249 149.848V148.504ZM364.809 147.704H366.489V156.312H364.809V147.704ZM361.609 156.728C364.665 156.728 366.537 157.752 366.537 159.512C366.537 161.288 364.665 162.312 361.609 162.312C358.553 162.312 356.681 161.288 356.681 159.512C356.681 157.752 358.553 156.728 361.609 156.728ZM361.609 158.04C359.545 158.04 358.345 158.568 358.345 159.512C358.345 160.472 359.545 161 361.609 161C363.689 161 364.873 160.472 364.873 159.512C364.873 158.568 363.689 158.04 361.609 158.04ZM361.849 150.6H365.097V151.976H361.849V150.6ZM368.695 159.192H381.943V160.568H368.695V159.192ZM374.471 156.104H376.135V159.912H374.471V156.104ZM374.455 150.76H375.943V151.08C375.943 153.976 373.447 156.056 369.895 156.6L369.271 155.272C372.439 154.84 374.455 153.08 374.455 151.08V150.76ZM374.679 150.76H376.151V151.08C376.151 153.08 378.167 154.84 381.335 155.272L380.711 156.6C377.175 156.056 374.679 153.976 374.679 151.08V150.76ZM369.863 149.864H380.727V151.224H369.863V149.864ZM374.471 147.96H376.135V150.392H374.471V147.96Z" fill="white"/>
<rect x="263" y="242" width="90" height="34" rx="17" fill="#20C782"/>
<path d="M290.251 252.688H291.931V267.344H290.251V252.688ZM280.667 253.904H282.331V257.632H286.027V253.904H287.691V263.872H280.667V253.904ZM282.331 258.944V262.512H286.027V258.944H282.331ZM304.649 252.704H306.329V263.456H304.649V252.704ZM301.769 257.104H304.921V258.48H301.769V257.104ZM300.089 253.824H301.849C301.849 257.664 299.289 260.544 295.113 261.904L294.409 260.56C297.897 259.424 300.089 257.248 300.089 254.544V253.824ZM295.145 253.824H301.177V255.184H295.145V253.824ZM296.937 265.68H306.697V267.04H296.937V265.68ZM296.937 262.384H298.617V266.416H296.937V262.384ZM318.264 252.72H319.944V263.456H318.264V252.72ZM319.448 256.992H322.008V258.384H319.448V256.992ZM310.696 265.68H320.536V267.04H310.696V265.68ZM310.696 262.4H312.376V265.984H310.696V262.4ZM309.048 253.76H310.712V256.048H314.28V253.76H315.928V261.072H309.048V253.76ZM310.712 257.344V259.744H314.28V257.344H310.712ZM326.327 255.456H327.703V256.096C327.703 258.736 326.215 260.976 323.639 261.84L322.807 260.512C325.063 259.792 326.327 258.016 326.327 256.096V255.456ZM326.631 255.456H328.007V256.096C328.007 257.856 329.239 259.568 331.479 260.256L330.663 261.568C328.087 260.768 326.631 258.592 326.631 256.096V255.456ZM323.255 254.576H331.079V255.904H323.255V254.576ZM326.327 252.8H328.007V255.152H326.327V252.8ZM332.583 252.704H334.263V263.536H332.583V252.704ZM333.767 257.152H336.327V258.528H333.767V257.152ZM325.015 265.68H334.855V267.04H325.015V265.68ZM325.015 262.592H326.695V266.512H325.015V262.592Z" fill="white"/>
<rect x="298" y="190" width="90" height="34" rx="17" fill="#20C782"/>
<path d="M317.683 204.576H318.963V205.168C318.963 208.128 317.891 211.104 315.667 212.4L314.691 211.136C316.723 209.952 317.683 207.488 317.683 205.168V204.576ZM318.003 204.576H319.283V205.168C319.283 207.424 320.275 209.744 322.275 210.832L321.347 212.08C319.107 210.864 318.003 208.064 318.003 205.168V204.576ZM315.123 203.312H321.843V204.672H315.123V203.312ZM317.683 201.216H319.283V204.368H317.683V201.216ZM325.843 200.704H327.443V215.328H325.843V200.704ZM323.779 206.464H326.419V207.856H323.779V206.464ZM322.675 200.976H324.243V214.624H322.675V200.976ZM332.849 201.392H334.241V202.8C334.241 205.568 332.721 208 330.081 208.928L329.249 207.6C331.569 206.8 332.849 204.832 332.849 202.8V201.392ZM333.169 201.392H334.545V202.8C334.545 204.768 335.825 206.608 338.097 207.344L337.265 208.672C334.657 207.776 333.169 205.504 333.169 202.8V201.392ZM331.409 210.16H341.265V215.328H339.585V211.52H331.409V210.16ZM339.585 200.704H341.265V209.472H339.585V200.704ZM353.264 200.72H354.944V211.664H353.264V200.72ZM354.448 205.36H357.008V206.752H354.448V205.36ZM343.552 202.384H352.16V203.712H343.552V202.384ZM347.856 204.384C349.936 204.384 351.392 205.504 351.392 207.152C351.392 208.816 349.936 209.92 347.856 209.92C345.76 209.92 344.304 208.816 344.304 207.152C344.304 205.504 345.76 204.384 347.856 204.384ZM347.856 205.68C346.704 205.68 345.92 206.24 345.92 207.152C345.92 208.08 346.704 208.624 347.856 208.624C349.008 208.624 349.792 208.08 349.792 207.152C349.792 206.24 349.008 205.68 347.856 205.68ZM347.024 200.704H348.688V203.04H347.024V200.704ZM345.696 213.68H355.536V215.04H345.696V213.68ZM345.696 210.816H347.376V214.256H345.696V210.816ZM368.223 200.704H369.903V215.328H368.223V200.704ZM360.815 202.24H362.383C362.383 205.952 361.695 209.264 359.103 212.064L357.807 211.088C360.079 208.64 360.815 205.904 360.815 202.432V202.24ZM358.399 202.24H361.439V203.616H358.399V202.24ZM364.879 202.24H366.447C366.447 206.032 365.935 209.888 363.407 213.008L362.031 212.112C364.319 209.296 364.879 206.048 364.879 202.416V202.24ZM362.879 202.24H365.503V203.616H362.879V202.24Z" fill="white"/>
<rect y="141" width="62" height="34" rx="17" fill="#20C782"/>
<path d="M27.6653 151.688H29.3453V166.344H27.6653V151.688ZM24.7853 156.92H28.1133V158.28H24.7853V156.92ZM20.7692 153.88H22.1133V155.688C22.1133 159.016 20.5293 162.264 18.0332 163.528L17.0412 162.2C19.2973 161.112 20.7692 158.328 20.7692 155.688V153.88ZM21.1372 153.88H22.4653V155.688C22.4653 158.184 23.9213 160.856 26.1772 161.912L25.2013 163.224C22.6892 162.008 21.1372 158.888 21.1372 155.688V153.88ZM17.6012 153.16H25.6333V154.52H17.6012V153.16ZM41.28 151.704H42.96V160.28H41.28V151.704ZM42.48 155.352H45.008V156.728H42.48V155.352ZM38.24 160.568C41.216 160.568 43.104 161.64 43.104 163.448C43.104 165.256 41.216 166.328 38.24 166.328C35.248 166.328 33.36 165.256 33.36 163.448C33.36 161.64 35.248 160.568 38.24 160.568ZM38.24 161.912C36.208 161.912 35.008 162.44 35.008 163.448C35.008 164.424 36.208 164.968 38.24 164.968C40.256 164.968 41.456 164.424 41.456 163.448C41.456 162.44 40.256 161.912 38.24 161.912ZM32.112 157.944H33.28C36.4 157.944 38.048 157.864 39.92 157.464L40.096 158.824C38.176 159.224 36.464 159.304 33.28 159.304H32.112V157.944ZM32.112 152.76H38.608V154.12H33.776V158.856H32.112V152.76Z" fill="white"/>
<rect x="2" y="196" width="90" height="34" rx="17" fill="#20C782"/>
<path d="M29.2505 206.688H30.9305V221.344H29.2505V206.688ZM19.6665 207.904H21.3305V211.632H25.0265V207.904H26.6905V217.872H19.6665V207.904ZM21.3305 212.944V216.512H25.0265V212.944H21.3305ZM43.6493 206.704H45.3293V217.456H43.6493V206.704ZM40.7693 211.104H43.9213V212.48H40.7693V211.104ZM39.0893 207.824H40.8493C40.8493 211.664 38.2893 214.544 34.1133 215.904L33.4093 214.56C36.8973 213.424 39.0893 211.248 39.0893 208.544V207.824ZM34.1453 207.824H40.1773V209.184H34.1453V207.824ZM35.9373 219.68H45.6973V221.04H35.9373V219.68ZM35.9373 216.384H37.6173V220.416H35.9373V216.384ZM54.128 206.896C57.344 206.896 59.344 207.888 59.344 209.616C59.344 211.328 57.344 212.336 54.128 212.336C50.928 212.336 48.928 211.328 48.928 209.616C48.928 207.888 50.928 206.896 54.128 206.896ZM54.128 208.16C51.936 208.16 50.656 208.672 50.656 209.616C50.656 210.528 51.936 211.056 54.128 211.056C56.32 211.056 57.616 210.528 57.616 209.616C57.616 208.672 56.32 208.16 54.128 208.16ZM49.136 215.6H50.8V216.992H57.44V215.6H59.104V221.152H49.136V215.6ZM50.8 218.272V219.808H57.44V218.272H50.8ZM47.52 213.472H60.736V214.832H47.52V213.472ZM53.28 211.872H54.944V214.096H53.28V211.872ZM69.5828 208.752H72.7028V210.112H69.5828V208.752ZM69.5828 211.664H72.7028V213.024H69.5828V211.664ZM65.3748 207.536H66.7188V209.312C66.7188 212.256 65.2948 214.768 62.7188 215.776L61.8228 214.464C64.1108 213.616 65.3748 211.536 65.3748 209.312V207.536ZM65.6948 207.536H67.0548V209.312C67.0548 211.392 68.2708 213.408 70.4628 214.256L69.5348 215.568C67.1028 214.576 65.6948 212.112 65.6948 209.312V207.536ZM72.2868 206.72H73.9668V217.584H72.2868V206.72ZM64.4468 219.68H74.3028V221.04H64.4468V219.68ZM64.4468 216.528H66.1268V220.48H64.4468V216.528Z" fill="white"/>
<rect x="104" y="221" width="104" height="34" rx="17" fill="#20C782"/>
<path d="M131.603 231.704H133.203V246.328H131.603V231.704ZM126.499 236.84H129.139V238.216H126.499V236.84ZM128.659 231.992H130.227V245.608H128.659V231.992ZM123.539 234.024H124.819V235.72C124.819 238.952 123.731 242.088 121.507 243.496L120.499 242.248C122.579 240.968 123.539 238.328 123.539 235.72V234.024ZM123.907 234.024H125.171V235.72C125.171 238.216 126.099 240.712 128.147 241.912L127.155 243.144C124.931 241.816 123.907 238.856 123.907 235.72V234.024ZM120.963 233.304H127.571V234.664H120.963V233.304ZM135.058 243.24H148.306V244.616H135.058V243.24ZM140.818 240.264H142.482V243.8H140.818V240.264ZM136.61 232.728H146.722V237.352H138.306V240.072H136.642V236.024H145.058V234.072H136.61V232.728ZM136.642 239.384H147.058V240.744H136.642V239.384ZM153.025 232.584C154.881 232.584 156.225 233.704 156.225 235.32C156.225 236.92 154.881 238.04 153.025 238.04C151.169 238.04 149.825 236.92 149.825 235.32C149.825 233.704 151.169 232.584 153.025 232.584ZM153.025 233.848C152.017 233.848 151.313 234.424 151.313 235.32C151.313 236.2 152.017 236.792 153.025 236.792C154.017 236.792 154.737 236.2 154.737 235.32C154.737 234.424 154.017 233.848 153.025 233.848ZM160.321 231.704H161.921V246.328H160.321V231.704ZM157.505 231.992H159.073V245.608H157.505V231.992ZM154.961 241.208H158.033V242.504H154.961V241.208ZM152.177 239.704H153.777V245.16H152.177V239.704ZM149.361 240.392L149.153 239.016C151.137 239.016 154.321 238.984 156.657 238.648L156.785 239.88C154.353 240.36 151.313 240.392 149.361 240.392ZM174.047 231.688H175.727V246.344H174.047V231.688ZM167.935 232.776C170.127 232.776 171.711 234.776 171.711 237.928C171.711 241.08 170.127 243.096 167.935 243.096C165.759 243.096 164.175 241.08 164.175 237.928C164.175 234.776 165.759 232.776 167.935 232.776ZM167.935 234.296C166.655 234.296 165.775 235.656 165.775 237.928C165.775 240.216 166.655 241.592 167.935 241.592C169.215 241.592 170.095 240.216 170.095 237.928C170.095 235.656 169.215 234.296 167.935 234.296ZM183.678 232.632H185.134V233.736C185.134 236.904 182.478 239.528 179.182 240.232L178.446 238.84C181.342 238.312 183.678 236.04 183.678 233.736V232.632ZM183.998 232.632H185.454V233.736C185.454 236.072 187.79 238.312 190.686 238.84L189.95 240.232C186.654 239.528 183.998 236.936 183.998 233.736V232.632ZM178.014 243.064H191.262V244.44H178.014V243.064Z" fill="white"/>
<rect x="325" y="54" width="90" height="34" rx="17" fill="#20C782"/>
<path d="M345.787 65.776C347.963 65.776 349.531 67.776 349.531 70.928C349.531 74.08 347.963 76.096 345.787 76.096C343.611 76.096 342.043 74.08 342.043 70.928C342.043 67.776 343.611 65.776 345.787 65.776ZM345.787 67.296C344.523 67.296 343.643 68.656 343.643 70.928C343.643 73.216 344.523 74.592 345.787 74.592C347.051 74.592 347.931 73.216 347.931 70.928C347.931 68.656 347.051 67.296 345.787 67.296ZM351.547 64.704H353.227V79.328H351.547V64.704ZM352.843 70.4H355.499V71.792H352.843V70.4ZM359.977 72.896H361.657V78.88H359.977V72.896ZM366.697 64.704H368.393V79.328H366.697V64.704ZM356.361 73.664L356.153 72.272C358.889 72.272 362.521 72.256 365.673 71.824L365.769 73.056C362.537 73.616 359.065 73.664 356.361 73.664ZM363.561 74.624H367.081V75.904H363.561V74.624ZM360.905 65.376C363.049 65.376 364.585 66.56 364.585 68.304C364.585 70.064 363.049 71.232 360.905 71.232C358.729 71.232 357.209 70.064 357.209 68.304C357.209 66.56 358.729 65.376 360.905 65.376ZM360.905 66.656C359.657 66.656 358.777 67.312 358.777 68.304C358.777 69.328 359.657 69.952 360.905 69.952C362.137 69.952 363.017 69.328 363.017 68.304C363.017 67.312 362.137 66.656 360.905 66.656ZM380.888 64.688H382.568V79.344H380.888V64.688ZM371.304 65.904H372.968V69.632H376.664V65.904H378.328V75.872H371.304V65.904ZM372.968 70.944V74.512H376.664V70.944H372.968ZM395.287 64.704H396.967V75.456H395.287V64.704ZM392.407 69.104H395.559V70.48H392.407V69.104ZM390.727 65.824H392.487C392.487 69.664 389.927 72.544 385.751 73.904L385.047 72.56C388.535 71.424 390.727 69.248 390.727 66.544V65.824ZM385.783 65.824H391.815V67.184H385.783V65.824ZM387.575 77.68H397.335V79.04H387.575V77.68ZM387.575 74.384H389.255V78.416H387.575V74.384Z" fill="white"/>
</svg>
