<svg width="1280" height="3418" viewBox="0 0 1280 3418" fill="none" xmlns="http://www.w3.org/2000/svg">
<path d="M-40.8522 0.999987C153.84 480.641 410.615 739.185 620.676 888.296C795.804 1012.59 867.443 1010.39 998.102 1142.38C1281.63 1428.8 1477.15 1977.48 1233.5 2243.4C1113.47 2374.39 961.369 2325.94 673.43 2388.59C414.409 2444.96 58.1647 2590.7 -329 2997.59" stroke="#D33B4D" stroke-opacity="0.15" stroke-miterlimit="10"/>
<path d="M21.9622 1.95915C189.285 468.49 430.848 724.448 627.437 873.48C792.898 998.878 859.063 1009.07 987.476 1149.27C1256.86 1443.36 1444.41 1958.64 1217.07 2224.94C1099.97 2362.1 950.473 2330.9 663.379 2404.32C410.624 2468.95 60.4708 2617.66 -323.222 3017.54" stroke="#D33B4D" stroke-opacity="0.15" stroke-miterlimit="10"/>
<path d="M84.7683 2.91835C224.73 456.33 451.143 709.901 634.199 858.691C790.148 985.447 850.691 1007.53 976.851 1156.19C1232.41 1457.3 1412.11 1940.63 1200.64 2206.52C1086.4 2350.15 939.726 2335.67 653.336 2420.07C406.908 2492.72 62.8033 2644.66 -317.399 3037.55" stroke="#D33B4D" stroke-opacity="0.15" stroke-miterlimit="10"/>
<path d="M147.583 3.87867C260.184 444.171 471.498 695.606 641.013 843.904C787.563 972.181 842.38 1005.74 966.216 1163.14C1208.3 1470.68 1380.29 1923.39 1184.21 2188.11C1072.82 2338.52 929.1 2340.22 643.285 2435.86C403.244 2516.17 65.1356 2671.69 -311.603 3057.52" stroke="#D33B4D" stroke-opacity="0.15" stroke-miterlimit="10"/>
<path d="M210.389 4.84126C295.612 432.058 491.853 681.607 647.732 829.118C785.118 959.142 834.148 1003.81 955.591 1170.01C1184.55 1483.44 1349 1906.78 1167.78 2169.63C1059.22 2327.12 918.544 2344.44 633.234 2451.56C399.598 2539.29 67.4592 2698.65 -305.764 3077.45" stroke="#D33B4D" stroke-opacity="0.15" stroke-miterlimit="10"/>
<path d="M273.195 5.80042C331.057 419.863 512.217 667.925 654.494 814.329C782.82 946.377 826.037 1001.56 944.956 1176.93C1161.2 1495.77 1318.23 1890.85 1151.36 2151.2C1045.7 2316.04 908.04 2348.37 623.182 2467.31C395.943 2562.15 69.7916 2725.64 -300.012 3097.43" stroke="#D33B4D" stroke-opacity="0.15" stroke-miterlimit="10"/>
<path d="M336 6.75959C366.459 407.703 532.493 654.624 661.255 799.54C780.645 933.906 818.065 999.164 934.33 1183.84C1138.22 1507.71 1288.03 1875.49 1134.93 2132.76C1032.29 2305.23 897.536 2352.13 613.139 2483.06C392.253 2584.75 72.1235 2752.66 -294.207 3117.4" stroke="#D33B4D" stroke-opacity="0.15" stroke-miterlimit="10"/>
<path d="M398.814 7.75281C401.939 395.577 552.674 641.771 668.017 784.785C778.539 921.814 810.268 996.663 923.705 1190.78C1115.64 1519.32 1258.37 1860.69 1118.5 2114.35C1019.06 2294.72 887.015 2355.57 603.088 2498.84C388.52 2607.07 74.4819 2779.62 -288.411 3137.37" stroke="#D33B4D" stroke-opacity="0.15" stroke-miterlimit="10"/>
<path d="M461.62 8.67911C437.384 383.384 572.664 629.302 674.788 769.963C776.467 910.062 802.714 993.88 913.07 1197.66C1093.44 1530.62 1229.27 1846.27 1102.08 2095.88C1006.04 2284.41 876.407 2358.67 593.037 2514.55C384.708 2629.16 76.7794 2806.61 -282.616 3157.39" stroke="#D33B4D" stroke-opacity="0.15" stroke-miterlimit="10"/>
<path d="M524.4 9.63827C472.803 371.233 592.366 617.323 681.523 755.174C774.326 898.672 795.247 991.025 902.418 1204.57C1071.58 1541.66 1200.67 1832.22 1085.62 2077.44C993.263 2274.32 865.668 2361.52 582.959 2530.3C380.774 2651.01 79.0854 2833.61 -276.846 3177.32" stroke="#D33B4D" stroke-opacity="0.15" stroke-miterlimit="10"/>
<path d="M587.24 10.6009C508.274 359.119 611.79 605.815 688.311 740.397C772.098 887.743 788.102 988.07 891.81 1211.49C1050.13 1552.56 1172.66 1818.5 1069.23 2059.01C980.871 2264.46 854.833 2364.1 572.934 2546.05C376.788 2672.65 81.4437 2860.6 -271.007 3197.3" stroke="#D33B4D" stroke-opacity="0.15" stroke-miterlimit="10"/>
<path d="M650.047 11.56C543.711 346.916 630.771 594.745 695.073 725.608C769.584 877.227 781.176 985.051 881.184 1218.4C1028.99 1563.32 1145.11 1805.02 1052.8 2040.57C968.845 2254.79 843.799 2366.4 562.891 2561.8C372.655 2694.12 83.7677 2887.59 -265.219 3217.27" stroke="#D33B4D" stroke-opacity="0.15" stroke-miterlimit="10"/>
<path d="M712.861 12.5192C579.156 334.756 649.263 584.055 701.844 710.819C766.668 867.108 774.483 981.885 870.558 1225.32C1008.17 1574 1118.06 1791.72 1036.37 2022.14C957.261 2245.26 832.563 2368.46 552.84 2577.55C368.391 2715.41 86.0996 2914.58 -259.424 3237.24" stroke="#D33B4D" stroke-opacity="0.15" stroke-miterlimit="10"/>
<path d="M775.667 13.4784C614.601 322.605 667.217 573.685 708.606 696.03C763.179 857.343 768.043 978.702 859.924 1232.21C987.642 1584.61 1091.41 1778.52 1019.95 2003.68C946.192 2235.91 821.085 2370.26 542.789 2593.28C363.979 2736.58 88.406 2941.57 -253.601 3257.21" stroke="#D33B4D" stroke-opacity="0.15" stroke-miterlimit="10"/>
<path d="M838.472 14.4387C650.037 310.446 684.586 563.524 715.367 681.208C758.931 847.805 761.847 975.451 849.298 1239.11C967.399 1595.2 1065.28 1765.38 1003.51 1985.23C935.696 2226.64 809.354 2371.85 532.711 2609.01C359.392 2757.6 90.7291 2968.54 -247.858 3277.15" stroke="#D33B4D" stroke-opacity="0.15" stroke-miterlimit="10"/>
<path d="M901.287 15.3979C685.483 298.329 701.365 553.448 722.129 666.453C753.736 838.464 755.903 972.241 838.664 1246.06C947.445 1605.82 1039.51 1752.28 987.094 1966.83C925.837 2217.49 797.38 2373.29 522.694 2624.79C354.702 2778.61 93.0879 2995.56 -242.027 3297.15" stroke="#D33B4D" stroke-opacity="0.15" stroke-miterlimit="10"/>
<path d="M964.093 16.4013C720.928 286.17 749.037 544.541 728.9 651.708C695.952 826.997 750.212 969.042 828.038 1253.02C927.673 1616.5 1014.12 1739.1 970.663 1948.39C916.708 2208.34 785.048 2374.52 512.643 2640.54C349.854 2799.5 95.4201 3022.55 -236.197 3317.13" stroke="#D33B4D" stroke-opacity="0.15" stroke-miterlimit="10"/>
<path d="M1026.9 17.3196C756.373 273.978 759.219 535.428 735.661 636.878C694.377 814.692 744.756 965.757 817.413 1259.89C908.179 1627.22 989.113 1725.77 954.233 1929.95C908.301 2199.17 772.456 2375.61 502.574 2656.29C344.824 2820.36 97.7262 3049.54 -230.453 3337.1" stroke="#D33B4D" stroke-opacity="0.15" stroke-miterlimit="10"/>
<path d="M1089.71 18.2788C791.809 261.818 768.4 525.118 742.423 622.089C693.941 803.103 739.542 962.531 806.821 1266.81C888.851 1637.99 964.388 1712.27 937.854 1911.51C900.773 2189.92 759.593 2376.58 492.583 2672.04C339.724 2841.18 100.102 3076.54 -224.597 3357.08" stroke="#D33B4D" stroke-opacity="0.15" stroke-miterlimit="10"/>
<path d="M1152.52 19.2391C827.255 249.659 763.518 510.495 749.185 607.31C721.015 798.01 734.547 959.357 796.178 1273.72C869.688 1648.88 939.917 1698.54 921.407 1893.08C894.029 2180.53 746.313 2377.45 482.489 2687.8C334.373 2862.03 102.408 3103.55 -218.844 3377.06" stroke="#D33B4D" stroke-opacity="0.15" stroke-miterlimit="10"/>
<path d="M1215.32 20.1983C862.7 237.499 778.295 498.438 755.956 592.513C710.033 785.927 729.778 956.2 785.544 1280.62C850.699 1659.84 915.716 1684.49 904.977 1874.64C888.251 2170.93 732.842 2378.24 472.464 2703.53C328.934 2882.84 104.758 3130.52 -213.022 3397.02" stroke="#D33B4D" stroke-opacity="0.15" stroke-miterlimit="10"/>
<path d="M1278.14 21.1575C898.145 225.348 793.089 485.561 762.717 577.724C698.423 772.738 725.218 953.103 774.901 1287.54C831.85 1670.92 891.705 1670.12 888.538 1856.21C883.316 2161.05 719.005 2378.98 462.404 2719.29C323.373 2903.69 107.064 3157.51 -207.244 3417" stroke="#D33B4D" stroke-opacity="0.15" stroke-miterlimit="10"/>
</svg>
