<svg width="1280" height="737" viewBox="0 0 1280 737" fill="none" xmlns="http://www.w3.org/2000/svg">
<path d="M-16 127.592C194.636 213.126 308.177 325.936 373.659 418.221C428.246 495.161 427.278 526.634 485.24 584.036C611.025 708.598 851.98 794.496 968.76 687.452C1026.29 634.722 1005.01 567.899 1032.52 441.398C1057.28 327.602 1121.28 171.093 1299.96 1" stroke="#D33B4D" stroke-opacity="0.2" stroke-miterlimit="10"/>
<path d="M-15.5786 155.189C189.3 228.698 301.705 334.825 367.154 421.192C422.222 493.884 426.7 522.952 488.267 579.368C617.42 697.718 843.708 780.113 960.651 680.234C1020.89 628.792 1007.19 563.112 1039.43 436.982C1067.81 325.939 1133.12 172.106 1308.72 3.5387" stroke="#D33B4D" stroke-opacity="0.2" stroke-miterlimit="10"/>
<path d="M-15.1577 182.781C183.96 244.271 295.317 343.74 360.659 424.163C416.324 492.676 426.023 519.274 491.305 574.7C623.542 686.974 835.796 765.921 952.561 673.019C1015.64 622.827 1009.28 558.39 1046.35 432.57C1078.25 324.307 1144.98 173.131 1317.51 6.09644" stroke="#D33B4D" stroke-opacity="0.2" stroke-miterlimit="10"/>
<path d="M-14.7358 210.377C178.62 259.847 289.039 352.683 354.165 427.156C410.498 491.54 425.238 515.623 494.358 570.028C629.418 676.384 828.227 751.943 944.48 665.801C1010.53 616.863 1011.28 553.722 1053.28 428.154C1088.55 322.697 1156.84 174.156 1326.29 8.6427" stroke="#D33B4D" stroke-opacity="0.2" stroke-miterlimit="10"/>
<path d="M-14.313 237.97C173.301 275.411 282.892 361.626 347.672 430.108C404.772 490.466 424.388 512.006 497.375 565.36C635.021 665.95 820.933 738.194 936.365 658.583C1005.52 610.887 1013.13 549.084 1060.17 423.738C1098.7 321.095 1168.68 175.177 1335.04 11.2081" stroke="#D33B4D" stroke-opacity="0.2" stroke-miterlimit="10"/>
<path d="M-13.8921 265.562C167.945 290.983 276.883 370.572 341.177 433.079C399.166 489.457 423.4 508.443 500.413 560.688C640.436 655.688 813.937 724.679 928.267 651.368C1000.66 604.946 1014.86 544.47 1067.09 419.323C1108.74 319.489 1180.54 176.201 1343.81 13.7354" stroke="#D33B4D" stroke-opacity="0.2" stroke-miterlimit="10"/>
<path d="M-13.4707 293.155C162.605 306.536 271.041 379.48 334.682 436.049C393.689 488.501 422.348 504.941 503.447 556.02C645.677 645.595 807.192 711.409 920.17 644.15C995.91 599.058 1016.51 539.855 1074.01 414.911C1118.66 317.868 1192.4 177.226 1352.58 16.2854" stroke="#D33B4D" stroke-opacity="0.2" stroke-miterlimit="10"/>
<path d="M-13.0347 320.751C157.28 322.124 265.397 388.346 328.202 439.02C388.379 487.575 421.249 501.515 506.496 551.351C650.776 635.673 800.689 698.379 912.087 636.931C991.295 593.243 1018.02 535.233 1080.94 410.495C1128.47 316.228 1204.24 178.262 1361.35 18.8317" stroke="#D33B4D" stroke-opacity="0.2" stroke-miterlimit="10"/>
<path d="M-12.6274 348.344C151.926 337.696 259.921 397.128 321.693 441.994C383.219 486.665 420.027 498.196 509.52 546.679C655.737 625.92 794.359 685.594 903.976 629.717C986.769 587.523 1019.38 530.572 1087.84 406.079C1138.17 314.554 1216.09 179.271 1370.14 21.3779" stroke="#D33B4D" stroke-opacity="0.2" stroke-miterlimit="10"/>
<path d="M-12.2065 375.925C146.589 353.257 254.661 405.784 315.199 444.954C378.216 485.725 418.773 494.916 512.554 542C660.586 616.316 788.187 673.031 895.878 622.487C982.336 581.911 1020.63 525.854 1094.75 401.651C1147.76 312.826 1227.95 180.284 1378.89 23.9128" stroke="#D33B4D" stroke-opacity="0.2" stroke-miterlimit="10"/>
<path d="M-11.7837 403.532C141.27 368.84 249.607 414.318 308.709 447.936C373.417 484.746 417.476 491.777 515.593 537.339C665.373 606.892 782.161 660.723 887.783 615.284C978.008 576.466 1021.76 521.094 1101.67 397.247C1157.27 311.074 1239.81 181.32 1387.67 26.4781" stroke="#D33B4D" stroke-opacity="0.2" stroke-miterlimit="10"/>
<path d="M-11.3623 431.125C135.911 384.409 244.746 422.656 302.215 450.907C368.799 483.641 416.15 488.734 518.628 532.671C670.101 597.605 776.244 648.623 879.686 608.066C973.762 571.183 1022.78 516.246 1108.59 392.835C1166.69 309.258 1251.66 182.341 1396.44 29.0208" stroke="#D33B4D" stroke-opacity="0.2" stroke-miterlimit="10"/>
<path d="M-10.9414 458.721C130.57 399.981 240.051 430.781 295.72 453.881C364.355 482.361 414.76 485.794 521.665 528.003C674.791 588.46 770.402 636.736 871.592 600.847C969.576 566.094 1023.68 511.31 1115.5 388.419C1176.05 307.385 1263.51 183.366 1405.21 31.567" stroke="#D33B4D" stroke-opacity="0.2" stroke-miterlimit="10"/>
<path d="M-10.52 486.314C125.234 415.553 235.497 438.668 289.225 456.852C360.067 480.828 413.362 482.965 524.692 523.331C679.447 579.441 764.606 625.03 863.487 593.633C965.47 561.231 1024.47 506.268 1122.41 384.003C1185.34 305.447 1275.36 184.379 1413.98 34.1249" stroke="#D33B4D" stroke-opacity="0.2" stroke-miterlimit="10"/>
<path d="M-10.0981 513.906C119.895 431.121 231.035 446.299 282.716 459.822C355.878 478.962 411.934 480.242 527.723 518.662C684.1 570.548 758.834 613.548 855.383 586.415C961.4 556.62 1025.17 501.114 1129.32 379.576C1194.57 303.432 1287.21 185.4 1422.74 36.6481" stroke="#D33B4D" stroke-opacity="0.2" stroke-miterlimit="10"/>
<path d="M-9.67725 541.503C114.573 446.693 226.61 453.671 276.236 462.793C351.776 476.679 410.525 477.631 530.772 513.991C688.763 561.781 753.083 602.228 847.3 579.2C957.381 552.288 1025.8 495.853 1136.25 375.175C1203.8 301.371 1299.07 186.436 1431.52 39.2098" stroke="#D33B4D" stroke-opacity="0.2" stroke-miterlimit="10"/>
<path d="M-9.23633 569.095C109.234 462.266 222.698 474.615 269.761 465.768C346.74 451.293 409.12 475.131 533.83 509.322C693.453 553.095 747.296 591.075 839.203 571.982C953.363 548.278 1026.34 490.435 1143.16 370.76C1212.97 299.242 1310.93 187.461 1440.29 41.7714" stroke="#D33B4D" stroke-opacity="0.2" stroke-miterlimit="10"/>
<path d="M-8.83301 596.688C103.88 477.838 218.696 479.088 263.249 468.738C341.336 450.601 407.677 472.733 536.846 504.654C698.16 544.531 741.44 580.087 831.107 564.763C949.334 544.584 1026.82 484.903 1150.08 366.336C1222.13 297.032 1322.78 188.474 1449.06 44.2946" stroke="#D33B4D" stroke-opacity="0.2" stroke-miterlimit="10"/>
<path d="M-8.41211 624.284C98.5391 493.406 214.169 483.121 256.754 471.709C336.247 450.41 406.26 470.443 539.884 500.001C702.891 536.039 735.511 569.225 823.01 557.568C945.274 541.277 1027.25 479.252 1157 361.947C1231.28 294.791 1334.64 189.518 1457.84 46.8677" stroke="#D33B4D" stroke-opacity="0.2" stroke-miterlimit="10"/>
<path d="M-7.99023 651.877C93.1997 508.978 207.747 480.977 250.264 474.68C334.01 462.304 404.866 468.249 542.922 495.325C707.673 527.62 729.48 558.474 814.917 550.342C941.15 538.314 1027.63 473.418 1163.92 357.512C1240.43 292.44 1346.5 190.531 1466.61 49.3949" stroke="#D33B4D" stroke-opacity="0.2" stroke-miterlimit="10"/>
<path d="M-7.56885 679.469C87.8597 524.55 202.452 487.468 243.765 477.654C328.704 457.479 403.48 466.154 545.953 490.653C712.485 519.278 723.312 547.842 806.816 543.124C936.934 535.775 1027.98 467.5 1170.83 353.107C1249.57 290.05 1358.34 191.563 1475.38 51.9526" stroke="#D33B4D" stroke-opacity="0.2" stroke-miterlimit="10"/>
<path d="M-7.14795 707.065C82.5231 540.122 196.797 493.968 237.27 480.625C322.912 452.378 402.12 464.15 548.99 485.977C717.353 510.997 717 537.293 798.722 535.902C932.596 533.608 1028.3 461.421 1177.75 348.688C1258.73 287.607 1370.2 192.576 1484.15 54.4913" stroke="#D33B4D" stroke-opacity="0.2" stroke-miterlimit="10"/>
</svg>
