<svg width="168" height="40" viewBox="0 0 168 40" fill="none" xmlns="http://www.w3.org/2000/svg">
<g id="Component 98">
<rect id="Rectangle 7767" y="-0.00195312" width="168" height="40" rx="6" fill="#D33B4D"/>
<path id="&#235;&#176;&#148;&#235;&#161;&#156; &#234;&#176;&#128;&#234;&#184;&#176;" d="M59.692 23.286V20.022H56.732V23.286H59.692ZM59.692 18.374V14.806H61.788V24.966H54.636V14.806H56.732V18.374H59.692ZM67.868 19.126V20.886H65.724V28.374H63.612V13.654H65.724V19.126H67.868ZM76.2188 25.03H81.8508V26.758H68.5068V25.03H74.1068V22.838H70.0428V17.846H78.2668V16.262H70.0268V14.582H80.3468V19.494H72.1388V21.142H80.6828V22.838H76.2188V25.03ZM86.7225 15.142H93.6665C93.6665 19.558 91.9865 23.35 87.0905 25.83L85.9065 24.214C89.3305 22.454 91.1545 20.118 91.5385 16.854H86.7225V15.142ZM99.6505 19.254V20.998H97.5865V28.342H95.4745V13.622H97.5865V19.254H99.6505ZM101.185 15.158H108.257C108.257 19.67 106.737 23.35 101.505 25.878L100.401 24.214C104.161 22.406 105.793 20.102 106.097 16.838H101.185V15.158ZM110.513 13.622H112.641V28.358H110.513V13.622Z" fill="white"/>
</g>
</svg>
