<svg xmlns="http://www.w3.org/2000/svg" width="52" height="75" viewBox="0 0 52 75" fill="none">
  <path d="M25.5423 6.96609C14.5684 6.96609 6.96609 14.8146 6.96609 24.3813C6.96609 28.9511 8.93518 31.9279 11.5359 35.0812L12.5297 36.2562C13.5653 37.4822 14.7124 38.8383 15.6551 40.1944C16.974 42.1031 18.149 44.3554 18.5391 47.114C18.6321 48.0101 18.3742 48.9074 17.8196 49.6175C17.265 50.3275 16.4569 50.795 15.5649 50.9218C14.673 51.0486 13.7666 50.8249 13.0361 50.2976C12.3056 49.7703 11.8078 48.9804 11.6473 48.0939C11.4615 46.7843 10.8903 45.5536 9.92901 44.1604C9.14469 43.0653 8.30456 42.0112 7.41192 41.0024C7.02182 40.538 6.6085 40.0504 6.16732 39.5163C3.25549 35.9915 0 31.4217 0 24.3813C0 10.7278 10.9739 0 25.5423 0C40.1108 0 51.0847 10.7278 51.0847 24.3813C51.0847 31.4217 47.8292 35.9915 44.9174 39.5163C44.4762 40.0504 44.0629 40.538 43.6728 40.9978C42.7114 42.1356 41.8941 43.1015 41.1603 44.1604C40.1944 45.5536 39.6278 46.7843 39.442 48.0939C39.2708 48.9716 38.7689 49.7501 38.0401 50.2683C37.3113 50.7866 36.4113 51.0051 35.526 50.8787C34.6407 50.7523 33.8377 50.2907 33.2831 49.5892C32.7284 48.8877 32.4644 48 32.5456 47.1094C32.9357 44.3554 34.1106 42.1031 35.4296 40.1944C36.3723 38.8383 37.5194 37.4822 38.555 36.2562C38.9033 35.8475 39.2377 35.4528 39.5442 35.0812C42.1495 31.9279 44.1186 28.9511 44.1186 24.3813C44.1186 14.8146 36.5163 6.96609 25.5423 6.96609ZM15.0932 55.7288H35.9915C36.9152 55.7288 37.8012 56.0957 38.4544 56.7489C39.1076 57.4021 39.4745 58.288 39.4745 59.2118C39.4745 60.1356 39.1076 61.0215 38.4544 61.6747C37.8012 62.3279 36.9152 62.6948 35.9915 62.6948H15.0932C14.1694 62.6948 13.2835 62.3279 12.6303 61.6747C11.9771 61.0215 11.6102 60.1356 11.6102 59.2118C11.6102 58.288 11.9771 57.4021 12.6303 56.7489C13.2835 56.0957 14.1694 55.7288 15.0932 55.7288ZM16.2542 70.822C16.2542 69.8982 16.6212 69.0123 17.2744 68.3591C17.9276 67.7059 18.8135 67.3389 19.7373 67.3389H31.3474C32.2712 67.3389 33.1571 67.7059 33.8103 68.3591C34.4635 69.0123 34.8305 69.8982 34.8305 70.822C34.8305 71.7457 34.4635 72.6316 33.8103 73.2848C33.1571 73.938 32.2712 74.305 31.3474 74.305H19.7373C18.8135 74.305 17.9276 73.938 17.2744 73.2848C16.6212 72.6316 16.2542 71.7457 16.2542 70.822Z" fill="#D33B4D"/>
</svg>