<svg xmlns="http://www.w3.org/2000/svg" width="74" height="74" viewBox="0 0 74 74" fill="none">
<path fill-rule="evenodd" clip-rule="evenodd" d="M29.3028 7.32569C23.4741 7.32569 17.8841 9.64113 13.7626 13.7626C9.64113 17.8841 7.32569 23.4741 7.32569 29.3028C7.32569 32.1889 7.89415 35.0467 8.9986 37.713C10.1031 40.3794 11.7219 42.8022 13.7626 44.8429C15.8034 46.8837 18.2261 48.5025 20.8925 49.607C23.5589 50.7114 26.4167 51.2799 29.3028 51.2799C32.1889 51.2799 35.0467 50.7114 37.713 49.607C40.3794 48.5025 42.8022 46.8837 44.8429 44.8429C46.8837 42.8022 48.5025 40.3794 49.607 37.713C50.7114 35.0467 51.2799 32.1889 51.2799 29.3028C51.2799 23.4741 48.9644 17.8841 44.8429 13.7626C40.7214 9.64113 35.1315 7.32569 29.3028 7.32569ZM8.58259 8.58259C14.0779 3.08725 21.5312 0 29.3028 0C37.0744 0 44.5276 3.08725 50.023 8.58259C55.5183 14.0779 58.6056 21.5312 58.6056 29.3028C58.6056 33.1509 57.8476 36.9613 56.375 40.5165C54.9024 44.0717 52.744 47.302 50.023 50.023C47.302 52.744 44.0717 54.9024 40.5165 56.375C36.9613 57.8476 33.1509 58.6056 29.3028 58.6056C25.4547 58.6056 21.6443 57.8476 18.0891 56.375C14.5339 54.9024 11.3036 52.744 8.58259 50.023C5.86157 47.302 3.70314 44.0716 2.23054 40.5165C0.757939 36.9613 0 33.1509 0 29.3028C0 21.5312 3.08725 14.0779 8.58259 8.58259ZM54.1841 54.1841C55.6145 52.7537 57.9337 52.7537 59.3642 54.1841L72.1841 67.0041C73.6146 68.4345 73.6146 70.7537 72.1841 72.1841C70.7537 73.6146 68.4345 73.6146 67.0041 72.1841L54.1841 59.3642C52.7537 57.9337 52.7537 55.6145 54.1841 54.1841Z" fill="#D33B4D"/>
</svg>