<svg xmlns="http://www.w3.org/2000/svg" width="77" height="67" viewBox="0 0 77 67" fill="none">
  <path d="M2.66125 38.2356L7.9088 39.5369L11.8589 33.3346L4.3514 31.4789C3.4554 31.2547 2.50706 31.3957 1.71501 31.8708C0.922963 32.3459 0.35208 33.1162 0.127952 34.0122C-0.0961755 34.9082 0.0448113 35.8565 0.519897 36.6486C0.994983 37.4406 1.76525 38.0115 2.66125 38.2356ZM71.1566 39.2405L53.974 54.7021L33.7731 39.0672C33.3876 38.7708 32.9443 38.5583 32.4718 38.4435L29.7845 37.7736L25.8306 43.976L30.0656 45.027L51.999 61.9978C52.6502 62.499 53.4561 62.7568 54.2773 62.7266C55.0985 62.6964 55.8832 62.38 56.4958 61.8323L75.8536 44.4033C76.1944 44.0978 76.4714 43.7279 76.6684 43.3147C76.8655 42.9016 76.9787 42.4536 77.0016 41.9964C77.0245 41.5393 76.9566 41.0822 76.8019 40.6514C76.6471 40.2207 76.4086 39.8249 76.1 39.4869C75.4755 38.8013 74.6052 38.3907 73.6791 38.3445C72.7529 38.2984 71.8461 38.6204 71.1566 39.2405ZM33.4381 22.2543L52.2531 34.3009C53.0173 34.7895 53.9408 34.9638 54.8305 34.7873C55.7202 34.6108 56.5073 34.0971 57.0271 33.3538L76.3811 5.47211C76.6431 5.09585 76.828 4.67142 76.9251 4.22332C77.0223 3.77522 77.0297 3.31232 76.9471 2.86132C76.8644 2.41033 76.6932 1.98017 76.4434 1.59567C76.1936 1.21118 75.8702 0.879953 75.4917 0.621114C74.7282 0.0935622 73.7865 -0.10949 72.8734 0.0565264C71.9603 0.222543 71.1504 0.744062 70.6214 1.50661L53.1887 26.6125L34.2621 14.4965C33.4766 13.9944 32.5241 13.8241 31.6133 14.023C30.7058 14.2257 29.9154 14.7793 29.4149 15.563L0.551452 60.8659C0.212991 61.3928 0.0231491 62.0014 0.001986 62.6273C-0.0191771 63.2532 0.129124 63.8732 0.431221 64.4218C0.733317 64.9704 1.17799 65.4272 1.71825 65.7439C2.25851 66.0607 2.8743 66.2256 3.50055 66.2213C4.08974 66.2227 4.66974 66.0753 5.18667 65.7926C5.7036 65.5099 6.1407 65.1011 6.45735 64.6043L33.4381 22.2543Z" fill="#D33B4D"/>
</svg>