<svg xmlns="http://www.w3.org/2000/svg" width="78" height="78" viewBox="0 0 78 78" fill="none">
  <path fill-rule="evenodd" clip-rule="evenodd" d="M10.5105 7.007C8.59158 7.007 7.007 8.59158 7.007 10.5105V45.5455C7.007 47.4644 8.59158 49.049 10.5105 49.049C12.4454 49.049 14.014 50.6176 14.014 52.5525C14.014 54.4874 12.4454 56.056 10.5105 56.056C4.72172 56.056 0 51.3343 0 45.5455V10.5105C0 4.72172 4.72172 0 10.5105 0H45.5455C51.3343 0 56.056 4.72172 56.056 10.5105C56.056 12.4454 54.4874 14.014 52.5525 14.014C50.6176 14.014 49.049 12.4454 49.049 10.5105C49.049 8.59158 47.4644 7.007 45.5455 7.007H10.5105ZM31.5315 28.028C29.5966 28.028 28.028 29.5966 28.028 31.5315V66.5665C28.028 68.5014 29.5966 70.07 31.5315 70.07H66.5665C68.5014 70.07 70.07 68.5014 70.07 66.5665V31.5315C70.07 29.5966 68.5014 28.028 66.5665 28.028H31.5315ZM21.021 31.5315C21.021 25.7267 25.7267 21.021 31.5315 21.021H66.5665C72.3713 21.021 77.077 25.7267 77.077 31.5315V66.5665C77.077 72.3713 72.3713 77.077 66.5665 77.077H31.5315C25.7267 77.077 21.021 72.3713 21.021 66.5665V31.5315Z" fill="#D33B4D"/>
</svg>