<svg width="307" height="240" viewBox="0 0 307 240" fill="none" xmlns="http://www.w3.org/2000/svg">
<rect x="75" y="21" width="135" height="135" rx="67.5" fill="#D33B4D"/>
<path d="M108.044 77.704H110.984V103.352H108.044V77.704ZM91.2718 79.832H94.1838V86.356H100.652V79.832H103.564V97.276H91.2718V79.832ZM94.1838 88.652V94.896H100.652V88.652H94.1838ZM133.542 77.732H136.482V96.548H133.542V77.732ZM128.502 85.432H134.018V87.84H128.502V85.432ZM125.562 79.692H128.642C128.642 86.412 124.162 91.452 116.854 93.832L115.622 91.48C121.726 89.492 125.562 85.684 125.562 80.952V79.692ZM116.91 79.692H127.466V82.072H116.91V79.692ZM120.046 100.44H137.126V102.82H120.046V100.44ZM120.046 94.672H122.986V101.728H120.046V94.672ZM156.865 80.308H159.721C159.721 87.924 157.509 94.616 148.185 99.292L146.589 97.052C154.625 93.048 156.865 87.7 156.865 80.644V80.308ZM148.073 80.308H158.601V82.66H148.073V80.308ZM156.697 86.608V88.876L147.177 89.8L146.757 87.252L156.697 86.608ZM163.417 77.704H166.357V103.296H163.417V77.704ZM165.573 87.84H170.193V90.248H165.573V87.84ZM191.07 77.732H193.87V103.324H191.07V77.732ZM183.062 87.28H186.926V89.856H183.062V87.28ZM186.058 78.292H188.83V102.036H186.058V78.292ZM172.086 80.812H183.762V83.192H172.086V80.812ZM171.946 97.248L171.61 94.812C174.886 94.812 180.346 94.728 184.238 94.196L184.434 96.324C180.43 97.136 175.166 97.248 171.946 97.248ZM173.962 82.324H176.622V95.484H173.962V82.324ZM179.198 82.324H181.858V95.484H179.198V82.324Z" fill="white"/>
<rect x="200" y="96" width="107" height="107" rx="53.5" fill="#FD929F"/>
<path d="M234.695 138.76H237.635V157.576H234.695V138.76ZM220.919 161.44H238.363V163.82H220.919V161.44ZM220.919 155.868H223.859V162.756H220.919V155.868ZM223.159 143.688H225.567V144.696C225.567 149.288 222.907 153.208 218.343 154.664L216.943 152.368C220.891 151.136 223.159 148 223.159 144.696V143.688ZM223.691 143.688H226.071V144.696C226.071 147.804 228.395 150.744 232.371 151.92L230.999 154.216C226.379 152.844 223.691 149.092 223.691 144.696V143.688ZM217.643 141.952H231.587V144.276H217.643V141.952ZM223.159 138.872H226.099V142.988H223.159V138.872ZM258.989 138.732H261.929V158.752H258.989V138.732ZM260.809 147.412H265.429V149.82H260.809V147.412ZM245.353 161.44H262.825V163.82H245.353V161.44ZM245.353 157.436H248.293V162.14H245.353V157.436ZM248.181 151.136H251.121V154.748H248.181V151.136ZM242.021 156.008L241.685 153.712C246.165 153.712 252.409 153.628 257.645 152.816L257.869 154.86C252.521 155.868 246.445 155.98 242.021 156.008ZM242.329 141.028H256.945V143.184H242.329V141.028ZM249.637 144.08C253.305 144.08 255.713 145.564 255.713 148.028C255.713 150.464 253.305 151.976 249.637 151.976C245.969 151.976 243.561 150.464 243.561 148.028C243.561 145.564 245.969 144.08 249.637 144.08ZM249.637 146.096C247.593 146.096 246.333 146.796 246.333 148.028C246.333 149.232 247.593 149.932 249.637 149.932C251.681 149.932 252.941 149.232 252.941 148.028C252.941 146.796 251.681 146.096 249.637 146.096ZM248.181 138.62H251.121V141.98H248.181V138.62ZM279.531 143.156H285.999V145.508H279.531V143.156ZM279.307 148.448H285.831V150.828H279.307V148.448ZM285.523 138.732H288.463V153.796H285.523V138.732ZM277.375 140.58H280.483C280.483 147.328 276.227 151.892 268.695 154.048L267.519 151.724C274.043 149.932 277.375 146.404 277.375 141.924V140.58ZM268.891 140.58H279.391V142.932H268.891V140.58ZM280.063 154.104C285.243 154.104 288.603 156.008 288.603 159.144C288.603 162.28 285.243 164.212 280.063 164.212C274.883 164.212 271.523 162.28 271.523 159.144C271.523 156.008 274.883 154.104 280.063 154.104ZM280.063 156.372C276.591 156.372 274.407 157.38 274.407 159.144C274.407 160.908 276.591 161.888 280.063 161.888C283.563 161.888 285.719 160.908 285.719 159.144C285.719 157.38 283.563 156.372 280.063 156.372Z" fill="white"/>
<rect x="210" y="8" width="80" height="80" rx="40" fill="#FD929F"/>
<path d="M228.305 42.352H229.775V55.176H228.305V42.352ZM219.919 43.416H221.375V46.678H224.609V43.416H226.065V52.138H219.919V43.416ZM221.375 47.826V50.948H224.609V47.826H221.375ZM240.854 42.366H242.324V51.774H240.854V42.366ZM238.334 46.216H241.092V47.42H238.334V46.216ZM236.864 43.346H238.404C238.404 46.706 236.164 49.226 232.51 50.416L231.894 49.24C234.946 48.246 236.864 46.342 236.864 43.976V43.346ZM232.538 43.346H237.816V44.536H232.538V43.346ZM234.106 53.72H242.646V54.91H234.106V53.72ZM234.106 50.836H235.576V54.364H234.106V50.836ZM247.355 49.968H248.825V52.04H247.355V49.968ZM252.731 42.366H254.201V55.162H252.731V42.366ZM253.711 47.7H256.021V48.918H253.711V47.7ZM244.247 52.866L244.051 51.662C246.305 51.662 249.399 51.648 252.017 51.27L252.129 52.348C249.399 52.852 246.445 52.866 244.247 52.866ZM244.275 43.85H251.877V45.012H244.275V43.85ZM248.083 45.656C249.889 45.656 251.149 46.608 251.149 48.036C251.149 49.478 249.889 50.416 248.083 50.416C246.277 50.416 245.031 49.478 245.031 48.036C245.031 46.608 246.277 45.656 248.083 45.656ZM248.083 46.776C247.075 46.776 246.417 47.266 246.417 48.036C246.417 48.82 247.075 49.296 248.083 49.296C249.091 49.296 249.763 48.82 249.763 48.036C249.763 47.266 249.091 46.776 248.083 46.776ZM247.355 42.408H248.825V44.676H247.355V42.408ZM259.693 43.766H260.897V44.69C260.897 47.084 259.595 49.156 257.299 49.94L256.571 48.778C258.573 48.092 259.693 46.44 259.693 44.69V43.766ZM259.973 43.766H261.163V44.69C261.163 46.272 262.227 47.756 264.187 48.386L263.487 49.534C261.219 48.806 259.973 46.902 259.973 44.69V43.766ZM256.977 43.276H263.851V44.452H256.977V43.276ZM265.195 42.366H266.665V50.024H265.195V42.366ZM266.259 45.474H268.471V46.692H266.259V45.474ZM262.549 50.318C265.167 50.318 266.805 51.214 266.805 52.726C266.805 54.252 265.167 55.148 262.549 55.148C259.917 55.148 258.279 54.252 258.279 52.726C258.279 51.214 259.917 50.318 262.549 50.318ZM262.549 51.48C260.771 51.48 259.735 51.914 259.735 52.726C259.735 53.552 260.771 54 262.549 54C264.327 54 265.349 53.552 265.349 52.726C265.349 51.914 264.327 51.48 262.549 51.48ZM274.202 49.268H275.658V51.354H274.202V49.268ZM269.148 48.456H280.712V49.632H269.148V48.456ZM270.198 42.744H279.648V43.934H270.198V42.744ZM270.268 46.272H279.578V47.448H270.268V46.272ZM271.99 43.22H273.46V47.042H271.99V43.22ZM276.386 43.22H277.856V47.042H276.386V43.22ZM270.534 50.934H279.312V55.008H270.534V50.934ZM277.884 52.082H271.976V53.832H277.884V52.082Z" fill="white"/>
<rect x="53.5" y="0.5" width="42" height="42" rx="21" fill="white"/>
<rect x="53.5" y="0.5" width="42" height="42" rx="21" stroke="#FFECEE"/>
<path d="M66.3009 19.932H67.2609V20.376C67.2609 22.596 66.4569 24.828 64.7889 25.8L64.0569 24.852C65.5809 23.964 66.3009 22.116 66.3009 20.376V19.932ZM66.5409 19.932H67.5009V20.376C67.5009 22.068 68.2449 23.808 69.7449 24.624L69.0489 25.56C67.3689 24.648 66.5409 22.548 66.5409 20.376V19.932ZM64.3809 18.984H69.4209V20.004H64.3809V18.984ZM66.3009 17.412H67.5009V19.776H66.3009V17.412ZM72.4209 17.028H73.6209V27.996H72.4209V17.028ZM70.8729 21.348H72.8529V22.392H70.8729V21.348ZM70.0449 17.232H71.2209V27.468H70.0449V17.232ZM77.576 17.544H78.62V18.6C78.62 20.676 77.48 22.5 75.5 23.196L74.876 22.2C76.616 21.6 77.576 20.124 77.576 18.6V17.544ZM77.816 17.544H78.848V18.6C78.848 20.076 79.808 21.456 81.512 22.008L80.888 23.004C78.932 22.332 77.816 20.628 77.816 18.6V17.544ZM76.496 24.12H83.888V27.996H82.628V25.14H76.496V24.12ZM82.628 17.028H83.888V23.604H82.628V17.028Z" fill="#FD929F"/>
<rect x="124" y="160" width="80" height="80" rx="40" fill="#FD929F"/>
<path d="M139.622 192.92H151.302V194.58H139.622V192.92ZM137.742 201.02H154.202V202.7H137.742V201.02ZM144.182 198.84H146.282V202.16H144.182V198.84ZM150.182 192.92H152.282V194.38C152.282 195.9 152.282 197.7 151.842 200.06L149.742 199.94C150.182 197.6 150.182 195.9 150.182 194.38V192.92ZM150.802 196.04V197.58L139.442 198.08L139.162 196.36L150.802 196.04ZM139.702 204.28H152.182V210.44H139.702V204.28ZM150.122 205.94H141.762V208.76H150.122V205.94ZM155.701 203.06H172.261V204.74H155.701V203.06ZM162.881 203.88H164.961V210.66H162.881V203.88ZM157.701 193.1H159.781V195.42H168.141V193.1H170.221V201.08H157.701V193.1ZM159.781 197.08V199.4H168.141V197.08H159.781ZM177.959 196.9H179.599V198.2C179.599 202.04 177.699 205.74 174.619 207.2L173.459 205.58C176.279 204.26 177.959 201.16 177.959 198.2V196.9ZM178.399 196.9H180.019V198.2C180.019 200.98 181.619 203.94 184.339 205.28L183.199 206.86C180.179 205.42 178.399 201.84 178.399 198.2V196.9ZM174.019 195.46H183.899V197.14H174.019V195.46ZM177.939 192.76H180.039V196.36H177.939V192.76ZM185.779 192.38H187.879V210.66H185.779V192.38ZM187.399 199.7H190.719V201.44H187.399V199.7Z" fill="white"/>
<rect y="102" width="80" height="80" rx="40" fill="#FD929F"/>
<path d="M17.0122 141.014H25.6642V142.204H17.0122V141.014ZM15.4722 143.688H27.0642V144.878H15.4722V143.688ZM20.4982 144.36H21.9542V149.134H20.4982V144.36ZM17.0122 137.08H25.5102V138.27H18.5102V141.588H17.0122V137.08ZM27.9511 143.842H39.5431V145.018H27.9511V143.842ZM32.9771 144.416H34.4331V149.162H32.9771V144.416ZM29.3511 136.87H30.8071V138.494H36.6591V136.87H38.1151V142.456H29.3511V136.87ZM30.8071 139.656V141.28H36.6591V139.656H30.8071ZM43.146 142.918H44.602V146.628H43.146V142.918ZM47.836 142.918H49.306V146.628H47.836V142.918ZM40.444 146.39H52.036V147.594H40.444V146.39ZM46.212 137.094C48.942 137.094 50.916 138.41 50.916 140.454C50.916 142.484 48.942 143.8 46.212 143.8C43.482 143.8 41.508 142.484 41.508 140.454C41.508 138.41 43.482 137.094 46.212 137.094ZM46.212 138.242C44.28 138.242 42.936 139.096 42.936 140.454C42.936 141.798 44.28 142.652 46.212 142.652C48.144 142.652 49.488 141.798 49.488 140.454C49.488 139.096 48.144 138.242 46.212 138.242ZM62.0089 136.352H63.4789V149.176H62.0089V136.352ZM53.6369 144.934H54.7289C56.9269 144.934 58.7889 144.85 60.9449 144.486L61.0989 145.676C58.8869 146.054 56.9829 146.138 54.7289 146.138H53.6369V144.934ZM53.6089 137.5H59.5729V142.246H55.1209V145.382H53.6369V141.07H58.0889V138.69H53.6089V137.5Z" fill="white"/>
<rect x="4" y="36" width="60" height="60" rx="30" fill="#FFECEE"/>
<path d="M24.8536 50.366H26.3236V59.774H24.8536V50.366ZM22.3336 54.216H25.0916V55.42H22.3336V54.216ZM20.8636 51.346H22.4036C22.4036 54.706 20.1636 57.226 16.5096 58.416L15.8936 57.24C18.9456 56.246 20.8636 54.342 20.8636 51.976V51.346ZM16.5376 51.346H21.8156V52.536H16.5376V51.346ZM18.1056 61.72H26.6456V62.91H18.1056V61.72ZM18.1056 58.836H19.5756V62.364H18.1056V58.836ZM36.7165 50.366H38.1865V57.912H36.7165V50.366ZM37.7805 53.53H39.9925V54.748H37.7805V53.53ZM33.1325 51.262H34.7005C34.7005 54.608 32.4885 57.002 28.7645 58.066L28.1625 56.89C31.3265 55.98 33.1325 54.174 33.1325 51.962V51.262ZM28.7365 51.262H33.9865V52.452H28.7365V51.262ZM34.1125 58.066C36.6745 58.066 38.3265 59.046 38.3265 60.614C38.3265 62.182 36.6745 63.148 34.1125 63.148C31.5645 63.148 29.8845 62.182 29.8845 60.614C29.8845 59.046 31.5645 58.066 34.1125 58.066ZM34.1125 59.214C32.4045 59.214 31.3405 59.732 31.3405 60.614C31.3405 61.496 32.4045 62 34.1125 62C35.8345 62 36.8985 61.496 36.8985 60.614C36.8985 59.732 35.8345 59.214 34.1125 59.214ZM49.1955 50.38H50.6655V59.956H49.1955V50.38ZM50.2315 54.44H52.4715V55.658H50.2315V54.44ZM40.6975 51.836H48.2295V52.998H40.6975V51.836ZM44.4635 53.586C46.2835 53.586 47.5575 54.566 47.5575 56.008C47.5575 57.464 46.2835 58.43 44.4635 58.43C42.6295 58.43 41.3555 57.464 41.3555 56.008C41.3555 54.566 42.6295 53.586 44.4635 53.586ZM44.4635 54.72C43.4555 54.72 42.7695 55.21 42.7695 56.008C42.7695 56.82 43.4555 57.296 44.4635 57.296C45.4715 57.296 46.1575 56.82 46.1575 56.008C46.1575 55.21 45.4715 54.72 44.4635 54.72ZM43.7355 50.366H45.1915V52.41H43.7355V50.366ZM42.5735 61.72H51.1835V62.91H42.5735V61.72ZM42.5735 59.214H44.0435V62.224H42.5735V59.214ZM27.7331 70.632C30.5331 70.632 32.2971 71.556 32.2971 73.082C32.2971 74.622 30.5331 75.532 27.7331 75.532C24.9471 75.532 23.1831 74.622 23.1831 73.082C23.1831 71.556 24.9471 70.632 27.7331 70.632ZM27.7331 71.78C25.8291 71.78 24.6951 72.228 24.6951 73.082C24.6951 73.922 25.8291 74.384 27.7331 74.384C29.6371 74.384 30.7851 73.922 30.7851 73.082C30.7851 72.228 29.6371 71.78 27.7331 71.78ZM23.3371 78.724H32.1151V83.008H23.3371V78.724ZM30.6871 79.9H24.7791V81.832H30.6871V79.9ZM21.9511 76.47H33.5151V77.632H21.9511V76.47ZM37.622 70.968H38.84V72.2C38.84 74.622 37.51 76.75 35.2 77.562L34.472 76.4C36.502 75.7 37.622 73.978 37.622 72.2V70.968ZM37.902 70.968H39.106V72.2C39.106 73.922 40.226 75.532 42.214 76.176L41.486 77.338C39.204 76.554 37.902 74.566 37.902 72.2V70.968ZM36.362 78.64H44.986V83.162H43.516V79.83H36.362V78.64ZM43.516 70.366H44.986V78.038H43.516V70.366Z" fill="#FD929F"/>
<rect x="80.5" y="156.5" width="42" height="42" rx="21" fill="white"/>
<rect x="80.5" y="156.5" width="42" height="42" rx="21" stroke="#FFECEE"/>
<path d="M98.9769 164.516H100.237V175.508H98.9769V164.516ZM91.7889 165.428H93.0369V168.224H95.8089V165.428H97.0569V172.904H91.7889V165.428ZM93.0369 169.208V171.884H95.8089V169.208H93.0369ZM109.676 164.528H110.936V172.592H109.676V164.528ZM107.516 167.828H109.88V168.86H107.516V167.828ZM106.256 165.368H107.576C107.576 168.248 105.656 170.408 102.524 171.428L101.996 170.42C104.612 169.568 106.256 167.936 106.256 165.908V165.368ZM102.548 165.368H107.072V166.388H102.548V165.368ZM103.892 174.26H111.212V175.28H103.892V174.26ZM103.892 171.788H105.152V174.812H103.892V171.788ZM93.9369 182.044H94.9809V183.1C94.9809 185.176 93.8409 187 91.8609 187.696L91.2369 186.7C92.9769 186.1 93.9369 184.624 93.9369 183.1V182.044ZM94.1769 182.044H95.2089V183.1C95.2089 184.576 96.1689 185.956 97.8729 186.508L97.2489 187.504C95.2929 186.832 94.1769 185.128 94.1769 183.1V182.044ZM92.8569 188.62H100.249V192.496H98.9889V189.64H92.8569V188.62ZM98.9889 181.528H100.249V188.104H98.9889V181.528ZM109.16 181.528H110.42V187.96H109.16V181.528ZM110.06 184.264H111.956V185.296H110.06V184.264ZM106.88 188.176C109.112 188.176 110.528 188.98 110.528 190.336C110.528 191.692 109.112 192.496 106.88 192.496C104.636 192.496 103.22 191.692 103.22 190.336C103.22 188.98 104.636 188.176 106.88 188.176ZM106.88 189.184C105.356 189.184 104.456 189.58 104.456 190.336C104.456 191.068 105.356 191.476 106.88 191.476C108.392 191.476 109.292 191.068 109.292 190.336C109.292 189.58 108.392 189.184 106.88 189.184ZM102.284 186.208H103.16C105.5 186.208 106.736 186.148 108.14 185.848L108.272 186.868C106.832 187.168 105.548 187.228 103.16 187.228H102.284V186.208ZM102.284 182.32H107.156V183.34H103.532V186.892H102.284V182.32Z" fill="#FD929F"/>
</svg>
