<svg width="1280" height="737" viewBox="0 0 1280 737" fill="none" xmlns="http://www.w3.org/2000/svg">
<path d="M-29 127.592C181.636 213.126 295.177 325.936 360.659 418.221C415.246 495.161 414.278 526.634 472.24 584.036C598.025 708.598 838.98 794.496 955.76 687.452C1013.29 634.722 992.007 567.899 1019.52 441.398C1044.28 327.602 1108.28 171.093 1286.96 1" stroke="#FDBDC3" stroke-miterlimit="10"/>
<path d="M-28.5786 155.189C176.3 228.698 288.705 334.825 354.154 421.192C409.222 493.884 413.7 522.952 475.267 579.368C604.42 697.718 830.708 780.113 947.651 680.234C1007.89 628.792 994.186 563.112 1026.43 436.982C1054.81 325.939 1120.12 172.106 1295.72 3.5387" stroke="#FDBDC3" stroke-miterlimit="10"/>
<path d="M-28.1577 182.781C170.96 244.271 282.317 343.74 347.659 424.163C403.324 492.676 413.023 519.274 478.305 574.7C610.542 686.974 822.796 765.921 939.561 673.019C1002.64 622.827 996.278 558.39 1033.35 432.57C1065.25 324.307 1131.98 173.131 1304.51 6.09644" stroke="#FDBDC3" stroke-miterlimit="10"/>
<path d="M-27.7358 210.377C165.62 259.847 276.039 352.683 341.165 427.156C397.498 491.54 412.238 515.623 481.358 570.028C616.418 676.384 815.227 751.943 931.48 665.801C997.532 616.863 998.276 553.722 1040.28 428.154C1075.55 322.697 1143.84 174.156 1313.29 8.6427" stroke="#FDBDC3" stroke-miterlimit="10"/>
<path d="M-27.313 237.97C160.301 275.411 269.892 361.626 334.672 430.108C391.772 490.466 411.388 512.006 484.375 565.36C622.021 665.95 807.933 738.194 923.365 658.583C992.524 610.887 1000.13 549.084 1047.17 423.738C1085.7 321.095 1155.68 175.177 1322.04 11.2081" stroke="#FDBDC3" stroke-miterlimit="10"/>
<path d="M-26.8921 265.562C154.945 290.983 263.883 370.572 328.177 433.079C386.166 489.457 410.4 508.443 487.413 560.688C627.436 655.688 800.937 724.679 915.267 651.368C987.658 604.946 1001.86 544.47 1054.09 419.323C1095.74 319.489 1167.54 176.201 1330.81 13.7354" stroke="#FDBDC3" stroke-miterlimit="10"/>
<path d="M-26.4707 293.155C149.605 306.536 258.041 379.48 321.682 436.049C380.689 488.501 409.348 504.941 490.447 556.02C632.677 645.595 794.192 711.409 907.17 644.15C982.91 599.058 1003.51 539.855 1061.01 414.911C1105.66 317.868 1179.4 177.226 1339.58 16.2854" stroke="#FDBDC3" stroke-miterlimit="10"/>
<path d="M-26.0347 320.751C144.28 322.124 252.397 388.346 315.202 439.02C375.379 487.575 408.249 501.515 493.496 551.351C637.776 635.673 787.689 698.379 899.087 636.931C978.295 593.243 1005.02 535.233 1067.94 410.495C1115.47 316.228 1191.24 178.262 1348.35 18.8317" stroke="#FDBDC3" stroke-miterlimit="10"/>
<path d="M-25.6274 348.344C138.926 337.696 246.921 397.128 308.693 441.994C370.219 486.665 407.027 498.196 496.52 546.679C642.737 625.92 781.359 685.594 890.976 629.717C973.769 587.523 1006.38 530.572 1074.84 406.079C1125.17 314.554 1203.09 179.271 1357.14 21.3779" stroke="#FDBDC3" stroke-miterlimit="10"/>
<path d="M-25.2065 375.925C133.589 353.257 241.661 405.784 302.199 444.954C365.216 485.725 405.773 494.916 499.554 542C647.586 616.316 775.187 673.031 882.878 622.487C969.336 581.911 1007.63 525.854 1081.75 401.651C1134.76 312.826 1214.95 180.284 1365.89 23.9128" stroke="#FDBDC3" stroke-miterlimit="10"/>
<path d="M-24.7837 403.532C128.27 368.84 236.607 414.318 295.709 447.936C360.417 484.746 404.476 491.777 502.593 537.339C652.373 606.892 769.161 660.723 874.783 615.284C965.008 576.466 1008.76 521.094 1088.67 397.247C1144.27 311.074 1226.81 181.32 1374.67 26.4781" stroke="#FDBDC3" stroke-miterlimit="10"/>
<path d="M-24.3623 431.125C122.911 384.409 231.746 422.656 289.215 450.907C355.799 483.641 403.15 488.734 505.628 532.671C657.101 597.605 763.244 648.623 866.686 608.066C960.762 571.183 1009.78 516.246 1095.59 392.835C1153.69 309.258 1238.66 182.341 1383.44 29.0208" stroke="#FDBDC3" stroke-miterlimit="10"/>
<path d="M-23.9414 458.721C117.57 399.981 227.051 430.781 282.72 453.881C351.355 482.361 401.76 485.794 508.665 528.003C661.791 588.46 757.402 636.736 858.592 600.847C956.576 566.094 1010.68 511.31 1102.5 388.419C1163.05 307.385 1250.51 183.366 1392.21 31.567" stroke="#FDBDC3" stroke-miterlimit="10"/>
<path d="M-23.52 486.314C112.234 415.553 222.497 438.668 276.225 456.852C347.067 480.828 400.362 482.965 511.692 523.331C666.447 579.441 751.606 625.03 850.487 593.633C952.47 561.231 1011.47 506.268 1109.41 384.003C1172.34 305.447 1262.36 184.379 1400.98 34.1249" stroke="#FDBDC3" stroke-miterlimit="10"/>
<path d="M-23.0981 513.906C106.895 431.121 218.035 446.299 269.716 459.822C342.878 478.962 398.934 480.242 514.723 518.662C671.1 570.548 745.834 613.548 842.383 586.415C948.4 556.62 1012.17 501.114 1116.32 379.576C1181.57 303.432 1274.21 185.4 1409.74 36.6481" stroke="#FDBDC3" stroke-miterlimit="10"/>
<path d="M-22.6772 541.503C101.573 446.693 213.61 453.671 263.236 462.793C338.776 476.679 397.525 477.631 517.772 513.991C675.763 561.781 740.083 602.228 834.3 579.2C944.381 552.288 1012.8 495.853 1123.25 375.175C1190.8 301.371 1286.07 186.436 1418.52 39.2098" stroke="#FDBDC3" stroke-miterlimit="10"/>
<path d="M-22.2363 569.095C96.2338 462.266 209.698 474.615 256.761 465.768C333.74 451.293 396.12 475.131 520.83 509.322C680.453 553.095 734.296 591.075 826.203 571.982C940.363 548.278 1013.34 490.435 1130.16 370.76C1199.97 299.242 1297.93 187.461 1427.29 41.7714" stroke="#FDBDC3" stroke-miterlimit="10"/>
<path d="M-21.833 596.688C90.8796 477.838 205.696 479.088 250.249 468.738C328.336 450.601 394.677 472.733 523.846 504.654C685.16 544.531 728.44 580.087 818.107 564.763C936.334 544.584 1013.82 484.903 1137.08 366.336C1209.13 297.032 1309.78 188.474 1436.06 44.2946" stroke="#FDBDC3" stroke-miterlimit="10"/>
<path d="M-21.4121 624.284C85.5391 493.406 201.169 483.121 243.754 471.709C323.247 450.41 393.26 470.443 526.884 500.001C689.891 536.039 722.511 569.225 810.01 557.568C932.274 541.277 1014.25 479.252 1144 361.947C1218.28 294.791 1321.64 189.518 1444.84 46.8677" stroke="#FDBDC3" stroke-miterlimit="10"/>
<path d="M-20.9902 651.877C80.1997 508.978 194.747 480.977 237.264 474.68C321.01 462.304 391.866 468.249 529.922 495.325C694.673 527.62 716.48 558.474 801.917 550.342C928.15 538.314 1014.63 473.418 1150.92 357.512C1227.43 292.44 1333.5 190.531 1453.61 49.3949" stroke="#FDBDC3" stroke-miterlimit="10"/>
<path d="M-20.5688 679.469C74.8597 524.55 189.452 487.468 230.765 477.654C315.704 457.479 390.48 466.154 532.953 490.653C699.485 519.278 710.312 547.842 793.816 543.124C923.934 535.775 1014.98 467.5 1157.83 353.107C1236.57 290.05 1345.34 191.563 1462.38 51.9526" stroke="#FDBDC3" stroke-miterlimit="10"/>
<path d="M-20.1479 707.065C69.5231 540.122 183.797 493.968 224.27 480.625C309.912 452.378 389.12 464.15 535.99 485.977C704.353 510.997 704 537.293 785.722 535.902C919.596 533.608 1015.3 461.421 1164.75 348.688C1245.73 287.607 1357.2 192.576 1471.15 54.4913" stroke="#FDBDC3" stroke-miterlimit="10"/>
</svg>
