<svg width="370" height="370" viewBox="0 0 370 370" fill="none" xmlns="http://www.w3.org/2000/svg">
<path fill-rule="evenodd" clip-rule="evenodd" d="M184.54 58.5713C200.781 58.5713 213.826 45.527 213.826 29.2857C213.826 13.0443 200.653 0 184.54 0C168.426 0 155.254 13.0443 155.254 29.2857C155.254 45.527 168.298 58.5713 184.54 58.5713ZM95.5303 95.5298C106.912 84.0202 106.912 65.4769 95.5303 54.0951C84.0207 42.7133 65.4774 42.7133 54.0956 54.0951C42.7139 65.4769 42.7139 84.0202 54.0956 95.5298C65.6053 107.039 84.1486 107.039 95.5303 95.5298ZM95.5303 273.219C106.912 284.601 106.912 303.144 95.5303 314.654C84.1486 326.164 65.6053 326.164 54.0956 314.654C42.7139 303.144 42.7139 284.601 54.0956 273.219C65.4774 261.838 84.0207 261.838 95.5303 273.219ZM58.5713 184.538C58.5713 168.297 45.5271 155.253 29.2857 155.253C13.1722 155.253 0 168.297 0 184.538C0 200.78 13.1722 213.824 29.2857 213.824C45.3992 213.824 58.5713 200.78 58.5713 184.538ZM155.379 339.791C155.379 323.677 168.551 310.505 184.665 310.505C200.778 310.505 213.95 323.677 213.95 339.791C213.95 355.904 200.906 369.076 184.665 369.076C168.423 369.076 155.379 356.032 155.379 339.791ZM273.673 273.545C262.291 285.055 262.291 303.47 273.673 314.98C285.055 326.49 303.726 326.49 315.108 314.98C326.489 303.47 326.489 285.055 315.108 273.545C303.598 262.164 285.055 262.164 273.673 273.545ZM339.919 213.824C323.677 213.824 310.633 200.78 310.633 184.538C310.633 168.297 323.805 155.253 339.919 155.253C356.032 155.253 369.204 168.297 369.204 184.538C369.204 200.78 356.032 213.824 339.919 213.824ZM273.673 95.4023C285.055 106.784 303.726 106.784 315.108 95.4023C326.489 83.8927 326.489 65.3494 315.108 53.9676C303.598 42.5858 285.055 42.5858 273.673 53.9676C262.291 65.4773 262.291 84.0206 273.673 95.4023Z" fill="#D33B4D"/>
</svg>
