<svg width="451" height="451" viewBox="0 0 451 451" fill="none" xmlns="http://www.w3.org/2000/svg">
<path d="M238.855 281.622C275.672 279.754 309.401 278.908 314.84 281.957C317.641 283.532 321.999 304.232 324.002 318.076C335.31 316.726 349.521 315.484 363.719 314.517C361.61 303.865 360.31 297.192 355.526 286.9C354.802 285.341 356.786 284.711 357.594 286.135C362.387 294.91 365.606 304.456 367.105 314.341C386.327 313.079 405.292 312.316 417.179 312.316C415.829 300.684 408.352 273.877 394.949 260.132C384.617 249.537 364.574 240.107 346.835 237.875C346.558 240.333 345.61 242.668 344.094 244.623C342.578 246.578 340.552 248.077 338.24 248.956C328.763 252.68 311.465 253.659 296.034 245.183C279.755 249.827 249.923 267.543 238.855 281.622Z" fill="#D33B4D"/>
<path d="M437.301 364.417C340.229 366.242 243.596 365.882 146.576 365.992C144.614 365.992 144.171 369.059 146.201 369.095C243.002 370.884 340.958 368.778 437.744 367.592C439.812 367.574 439.358 364.379 437.301 364.417Z" fill="#D33B4D"/>
<path d="M198.29 172.621C208.256 172.808 256.822 171.903 261.986 171.68C263.543 171.613 263.502 168.926 261.986 168.926C255.053 168.926 209.446 169.806 198.29 170.391C198.02 170.427 197.773 170.561 197.594 170.766C197.415 170.971 197.316 171.234 197.316 171.506C197.316 171.778 197.415 172.041 197.594 172.246C197.773 172.451 198.02 172.584 198.29 172.621Z" fill="#D33B4D"/>
<path d="M158.513 160.18C157.788 160.558 145.258 175.62 151.031 173.829C151.85 173.575 160.031 163.209 160.434 161.35C160.482 161.109 160.455 160.86 160.357 160.635C160.258 160.41 160.093 160.22 159.883 160.093C159.673 159.965 159.429 159.905 159.184 159.92C158.939 159.936 158.704 160.027 158.513 160.18Z" fill="#D33B4D"/>
<path d="M131.209 125.965C135.239 126.154 217.294 125.949 222.186 125.467C222.881 125.375 223.516 125.029 223.97 124.494C224.424 123.96 224.663 123.277 224.641 122.576C224.62 121.876 224.339 121.209 223.853 120.704C223.368 120.198 222.712 119.891 222.013 119.842C199.177 120.126 151.707 120.243 131.338 120.688C128.282 120.758 128.026 125.821 131.209 125.965Z" fill="#D33B4D"/>
<path d="M246.069 212.554C240.788 212.554 200.637 212.104 197.793 212.916C196.826 213.195 196.443 214.761 197.604 215.092C200.637 215.962 240.579 215.521 246.094 215.521C251.609 215.521 256.961 215.719 262.361 215.521C264.013 215.461 263.891 212.693 262.253 212.621C256.88 212.383 251.453 212.554 246.069 212.554Z" fill="#D33B4D"/>
<path d="M197.161 233.576C196.82 233.677 196.533 233.909 196.362 234.22C196.191 234.532 196.15 234.899 196.247 235.241C196.711 236.816 194.63 236.276 263.059 237.416C263.436 237.378 263.786 237.201 264.041 236.919C264.295 236.638 264.436 236.272 264.436 235.892C264.436 235.513 264.295 235.147 264.041 234.865C263.786 234.583 263.436 234.406 263.059 234.368C197.413 233.308 201.488 233.24 197.161 233.576Z" fill="#D33B4D"/>
<path d="M261.596 194.567C261.962 194.543 262.306 194.383 262.561 194.119C262.816 193.855 262.963 193.505 262.975 193.139C262.986 192.772 262.861 192.414 262.623 192.135C262.386 191.855 262.052 191.674 261.689 191.627C251.924 191.357 206.483 190.979 198.239 192.621C196.889 192.889 197.19 194.855 198.479 194.97C205.452 195.598 216.113 193.256 261.596 194.567Z" fill="#D33B4D"/>
<path d="M321.611 154.594C321.732 135.212 322.632 111.034 321.006 92.2281C320.961 91.9457 320.813 91.6899 320.591 91.51C320.369 91.3301 320.088 91.239 319.802 91.2541C319.517 91.2692 319.247 91.3895 319.045 91.5918C318.843 91.7941 318.723 92.0641 318.708 92.3496C318.18 101.372 318.677 143.294 318.708 154.81C318.713 156.702 321.6 156.488 321.611 154.594Z" fill="#D33B4D"/>
<path d="M151.814 244.387C154.602 247.441 157.567 250.33 160.692 253.038C162.042 254.309 164.121 252.282 162.762 251.013C159.849 248.082 156.786 245.303 153.587 242.688C152.612 242.065 151.062 243.34 151.814 244.387Z" fill="#D33B4D"/>
<path d="M27.1122 92.2279C27.1122 90.5359 24.4482 90.2276 24.4257 91.9601C23.5392 163.636 24.7227 247.005 28.1472 318.31C28.2417 320.286 31.2972 319.802 31.1959 317.84C27.5779 242.413 27.0087 167.718 27.1122 92.2279Z" fill="#D33B4D"/>
<path d="M60.9591 252.165C60.2031 253.29 61.9558 254.721 62.8401 253.67C63.9808 252.32 70.5958 244.654 70.2651 243.005C69.3538 238.635 62.2506 250.254 60.9591 252.165Z" fill="#D33B4D"/>
<path d="M110.458 215.805C109.303 215.591 101.982 222.089 100.504 223.5C86.6819 214.462 88.0567 216.687 88.2277 222.15C88.2797 225.887 88.5396 229.618 89.0062 233.326C89.1749 234.498 90.9569 234.293 91.0312 233.152C91.3124 228.974 90.7747 224.809 90.7072 220.633C102.877 228.058 99.1154 227.833 110.48 218.523C111.83 220.015 118.258 226.27 120.205 226.034C121.78 225.838 127.083 218.712 128.345 217.193C128.345 220.417 128.449 229.62 129.405 232.225C129.9 233.576 131.205 233.098 131.272 231.755C131.439 228.893 131.092 222.109 131.099 218.806C131.099 215.044 131.088 214.081 129.513 211.831C126.093 206.944 117.43 194.972 112.145 188.474C107.49 182.748 107.285 182.624 104.018 187.682C98.9849 195.487 90.5362 210.632 89.2447 213.512C88.6979 214.725 90.5677 215.296 91.2179 214.399C93.3824 211.408 98.2829 202.618 100.54 198.75C105.613 198.953 110.695 198.867 115.759 198.493C119.92 203.445 123.898 208.549 127.684 213.793L119.935 223.196C118.879 222.359 111.625 216.021 110.458 215.805Z" fill="#D33B4D"/>
<path d="M149.223 316.539C137.133 315.864 38.6891 316.393 34.8484 316.989C34.5643 317.081 34.3187 317.264 34.1498 317.511C33.981 317.757 33.8985 318.052 33.9152 318.35C33.9319 318.648 34.0469 318.932 34.2422 319.158C34.4375 319.383 34.7021 319.538 34.9946 319.597C72.2164 319.703 111.72 319.408 149.007 319.449C150.82 319.449 151.131 316.652 149.223 316.539Z" fill="#D33B4D"/>
<path d="M65.7028 177.226C67.0348 178.713 69.0778 176.85 67.9708 175.588C65.2843 172.539 59.5288 165.616 56.876 163.285C55.8253 162.36 54.401 163.807 55.1435 164.91C57.0515 167.756 63.0725 174.292 65.7028 177.226Z" fill="#D33B4D"/>
<path d="M109.013 163.989C109.182 158.15 108.836 152.306 107.98 146.527C107.862 146.319 107.685 146.15 107.473 146.041C107.26 145.931 107.02 145.885 106.782 145.909C106.544 145.933 106.318 146.025 106.131 146.175C105.945 146.324 105.805 146.525 105.73 146.752C105.548 152.585 105.831 158.424 106.576 164.212C106.644 164.503 106.815 164.758 107.056 164.933C107.298 165.107 107.595 165.189 107.892 165.161C108.188 165.134 108.466 165.001 108.672 164.785C108.878 164.57 108.999 164.287 109.013 163.989Z" fill="#D33B4D"/>
<path d="M110.982 251.103C110.982 252.97 110.484 265.368 111.155 266.995C111.273 267.2 111.444 267.37 111.649 267.488C111.854 267.607 112.087 267.669 112.324 267.669C112.561 267.669 112.793 267.607 112.999 267.488C113.204 267.37 113.374 267.2 113.493 266.995C114.192 265.208 113.398 253.562 113.306 251.103C113.184 249.787 110.982 249.76 110.982 251.103Z" fill="#D33B4D"/>
<path d="M54.6864 210.432C82.0126 159.039 144.302 164.439 167.209 206.267C140.146 247.57 87.1269 253.823 54.5626 214.11C53.5456 212.873 52.2879 214.455 53.2126 215.751C81.8416 255.576 143.012 250.378 168.271 210.126C169.094 209.103 169.574 207.847 169.644 206.536C169.714 205.225 169.37 203.925 168.66 202.82C140.884 155.25 71.3184 163.807 52.8054 209.214C52.2541 210.564 54.0271 211.674 54.6864 210.432Z" fill="#D33B4D"/>
<path d="M303.759 158.234C296.721 159.584 290.513 174.959 298.278 182.156C303.032 186.564 324.927 186.751 338.199 186.186C338.295 187.81 338.643 189.41 339.232 190.927C339.761 192.277 341.345 192.704 340.951 190.27C340.736 188.883 340.638 187.481 340.656 186.078C342.72 185.988 344.78 185.838 346.835 185.628C346.477 188.626 345.962 191.603 345.291 194.547C344.92 196.16 346.731 196.462 347.346 194.923C349.229 190.055 349.991 184.825 349.575 179.623C348.774 168.154 316.615 155.764 303.759 158.234ZM305.975 164.291C302.737 165.031 301.972 169.95 301.677 172.58C301.171 177.08 298.302 173.93 298.991 169.973C299.517 166.989 302.067 162.129 305.786 162.613C306.001 162.601 306.213 162.672 306.378 162.812C306.543 162.951 306.648 163.148 306.672 163.363C306.696 163.577 306.637 163.793 306.508 163.965C306.378 164.138 306.188 164.255 305.975 164.291Z" fill="#191919"/>
<path d="M330.073 204.535C331.866 201.497 333.099 198.162 333.713 194.689C336.736 195.236 339.618 196.384 342.189 198.064C343.719 198.723 344.3 196.714 343.539 196.09C340.778 193.84 337.402 192.473 333.853 192.169C332.215 189.066 319.763 188.344 317.842 191.617C317.372 191.353 316.851 191.192 316.314 191.143C315.777 191.095 315.236 191.161 314.726 191.336C313.747 188.65 302.704 187.977 299.952 191.08C296.782 190.731 295.466 193.658 299.655 193.631C299.81 196.539 300.348 199.414 301.255 202.181C302.339 204.4 310.138 204.366 311.69 203.243C313.538 201.909 314.377 196.084 314.901 193.84C315.662 193.601 316.484 193.649 317.212 193.975C317.196 196.983 317.538 199.981 318.231 202.908C319.424 205.279 328.343 206.578 330.073 204.535ZM310.838 200.665C310.471 201.549 310.14 201.76 307.184 201.643C302.189 201.448 303.235 202.53 301.705 192.47C305.224 191.275 309.038 191.275 312.557 192.47C312.508 195.286 311.925 198.067 310.838 200.665ZM320.24 201.684C319.683 198.918 319.484 196.092 319.649 193.276C323.507 191.898 327.743 192.027 331.511 193.638C331.3 195.85 330.732 198.014 329.83 200.046C328.552 202.843 328.34 203.209 324.311 202.881C322.376 202.723 320.513 202.294 320.24 201.686V201.684Z" fill="#191919"/>
<path d="M322.149 199.886C322.57 201.403 325.524 201.58 324.835 197.2C324.442 194.707 320.927 195.49 322.149 199.886Z" fill="#191919"/>
<path d="M347.668 198.073C339.959 198.718 336.154 212.839 332.059 214.192C329.197 215.139 322.778 211.021 316.291 210.578C309.805 210.135 306.11 212.875 304.9 212.297C303.689 211.719 304.524 206.656 304.524 205.475C304.524 204.294 303.88 203.648 302.737 206.254C301.594 208.859 290.448 233.87 295.297 240.6C302.227 250.216 330.507 252.253 339.286 245.638C350.293 237.344 340.927 210.708 343.638 203.769C344.148 202.778 344.961 201.974 345.959 201.477C346.957 200.979 348.087 200.813 349.186 201.002C352.894 202.609 351.875 213.602 345.949 211.881C344.459 211.451 344.122 213.323 345.499 214.045C349.524 216.163 353.475 212.862 354.001 207.329C354.395 203.139 352.973 197.629 347.668 198.073ZM316.975 223.048C311.389 223.048 310.259 220.831 309.789 217.198C314.625 218.237 319.635 218.15 324.432 216.943C323.921 220.264 323.212 223.056 316.975 223.056V223.048Z" fill="#191919"/>
<path d="M314.302 199.443C313.268 201.828 312.493 204.317 311.992 206.868C311.436 209.894 315.461 209.903 317.729 209.554C319.079 209.347 319.327 207.808 317.848 207.7C316.762 207.619 314.626 207.565 314.424 207.19C314.61 204.679 315.092 202.2 315.862 199.803C316.174 198.813 314.73 198.426 314.302 199.443Z" fill="#191919"/>
<path d="M307.913 199.989C309.164 199.512 309.263 196.144 308.194 195.516C305.496 193.914 305.121 201.042 307.913 199.989Z" fill="#191919"/>
<path d="M329.924 81.4819C225.866 81.5629 115.4 81.3222 12.9262 82.1952C11.1802 82.2087 11.1397 86.6952 12.8182 86.7064C116.554 87.3567 225.812 86.5467 329.816 86.4657C331.684 86.4634 331.724 81.4819 329.924 81.4819Z" fill="#191919"/>
<path d="M211.372 321.004C193.597 319.946 166.064 316.468 149.477 309.347C147.344 308.429 136.807 310.15 124.844 304.622C123.593 304.046 123.095 305.807 124.265 306.53C130.379 310.296 138.101 311.3 145.152 311.527C147.047 311.478 148.925 311.898 150.62 312.749C170.163 319.758 190.745 323.435 211.507 323.627C213.212 323.652 213.158 321.112 211.372 321.004Z" fill="#191919"/>
<path d="M413.461 315.9C413.114 314.006 410.56 314.674 410.88 316.557C411.979 323.318 411.543 330.239 409.604 336.807C405.012 352.812 391.498 350.244 377.971 349.621C363.774 348.969 344.221 347.607 331.954 347.043C331.683 347.007 331.409 347.078 331.19 347.241C330.971 347.404 330.824 347.647 330.781 347.917C330.738 348.186 330.802 348.462 330.959 348.686C331.117 348.909 331.355 349.062 331.624 349.113C343.425 350.987 368.634 352.096 378.455 352.562C391.888 353.201 406.873 354.992 411.874 339.44C414.335 331.844 414.88 323.758 413.461 315.9Z" fill="#191919"/>
<path d="M325.41 323.92C342.794 321.155 360.305 319.268 377.878 318.266C378.162 318.24 378.425 318.106 378.612 317.89C378.799 317.675 378.896 317.396 378.882 317.111C378.868 316.826 378.745 316.558 378.537 316.362C378.33 316.166 378.055 316.058 377.77 316.061C360.077 316.787 342.444 318.581 324.967 321.434C324.637 321.493 324.345 321.681 324.154 321.957C323.963 322.232 323.889 322.572 323.949 322.902C324.009 323.231 324.197 323.524 324.472 323.715C324.747 323.906 325.087 323.979 325.417 323.92H325.41Z" fill="#191919"/>
<path d="M140.343 304.457C140.531 304.456 140.716 304.417 140.887 304.342C141.059 304.268 141.214 304.16 141.343 304.024C141.472 303.888 141.572 303.728 141.638 303.553C141.703 303.378 141.733 303.191 141.725 303.004C141.717 302.817 141.671 302.633 141.59 302.465C141.51 302.296 141.396 302.145 141.255 302.021C141.115 301.897 140.951 301.803 140.774 301.743C140.596 301.684 140.409 301.661 140.222 301.676C131.87 301.944 127.656 299.573 122.143 295.658C121.27 295.039 120.343 296.13 121.018 297.008C124.942 302.194 134.097 304.7 140.343 304.457Z" fill="#191919"/>
<path d="M154.238 290.214C155.255 291.978 157.388 292.217 159.287 292.647C170.503 295.196 196.169 294.345 208.073 294.206C209.765 294.186 209.423 291.999 207.684 292.014C198.992 292.102 172.76 292.35 159.743 289.947C157.34 289.497 157.464 289.852 156.238 287.922C153.92 284.263 150.464 279.788 146.273 279.714C145.022 279.691 144.923 280.897 145.989 281.433C149.692 283.29 152.615 286.402 154.238 290.214Z" fill="#191919"/>
<path d="M146.813 290.714C141.003 289.008 132.793 286.272 128.277 280.438C126.927 278.688 125.78 280.049 126.45 281.46C129.263 287.382 139.559 292.71 145.469 292.935C148.739 293.072 147.83 291.011 146.813 290.714Z" fill="#191919"/>
<path d="M123.285 286.122C123.099 285.896 122.834 285.75 122.544 285.714C122.254 285.677 121.961 285.753 121.726 285.926C121.49 286.099 121.33 286.355 121.277 286.643C121.225 286.93 121.285 287.227 121.444 287.472C123.589 290.549 126.374 293.125 129.609 295.024C132.843 296.923 136.45 298.099 140.182 298.472C140.476 298.482 140.766 298.396 141.006 298.227C141.247 298.058 141.425 297.815 141.515 297.534C141.605 297.254 141.6 296.952 141.503 296.675C141.405 296.397 141.22 296.159 140.974 295.997C139.001 295.147 130.613 294.6 123.285 286.122Z" fill="#191919"/>
<path d="M382.312 354.961C378.282 354.436 331.538 355.471 329.374 354.585C327.209 353.698 316.013 289.936 313.088 285.746C310.163 281.557 218.028 284.214 213.838 286.633C209.649 289.051 223.484 361.884 227.068 363.358C230.266 364.669 377.508 362.847 382.318 362.593C387.129 362.338 386.341 355.485 382.312 354.961ZM266.23 334.006C253.659 335.053 249.719 314.431 262.281 312.382C268.243 311.407 273.497 316.695 274.611 323.206C274.842 324.476 274.804 325.779 274.498 327.032C274.191 328.285 273.624 329.46 272.833 330.479C272.042 331.498 271.045 332.339 269.908 332.947C268.77 333.555 267.516 333.916 266.23 334.006Z" fill="#191919"/>
</svg>
