<svg width="451" height="451" viewBox="0 0 451 451" fill="none" xmlns="http://www.w3.org/2000/svg">
<path d="M261.593 271.02C261.587 270.865 261.549 270.712 261.481 270.572C261.414 270.432 261.319 270.307 261.201 270.205C261.19 269.736 261.065 269.277 260.839 268.866C260.612 268.454 260.29 268.104 259.9 267.844C259.509 267.583 259.062 267.421 258.595 267.37C258.128 267.319 257.656 267.381 257.219 267.55C255.419 265.3 251.655 268.689 252.944 270.055C252.915 270.084 252.915 270.115 252.883 270.145C251.983 272.437 254.422 274.856 256.535 275.243C257.156 275.377 257.799 275.368 258.416 275.216C259.033 275.064 259.607 274.774 260.095 274.366C260.582 273.959 260.971 273.446 261.23 272.866C261.49 272.286 261.614 271.655 261.593 271.02Z" fill="#191919"/>
<path d="M195.884 293.889C195.64 293.485 195.277 293.167 194.846 292.977C194.414 292.788 193.934 292.737 193.472 292.832C193.248 292.894 193.045 293.013 192.881 293.177C192.717 293.341 192.598 293.544 192.536 293.768C191.802 295.937 193.987 298.268 195.492 297.298C196.496 296.841 196.406 294.715 195.884 293.889Z" fill="#191919"/>
<path d="M208.796 289.483C208.556 289.076 208.194 288.755 207.761 288.566C207.328 288.377 206.846 288.328 206.384 288.428C206.161 288.491 205.958 288.61 205.794 288.773C205.63 288.937 205.511 289.141 205.448 289.364C204.715 291.531 206.897 293.851 208.405 292.892C209.404 292.44 209.323 290.334 208.796 289.483Z" fill="#191919"/>
<path d="M209.733 302.698C208.16 299.401 206.282 296.26 204.121 293.315C203.573 292.339 202.797 291.51 201.858 290.901C201.761 290.849 201.652 290.827 201.543 290.836C201.434 290.845 201.33 290.886 201.244 290.953C201.158 291.02 201.093 291.111 201.057 291.214C201.022 291.318 201.017 291.429 201.043 291.535C201.187 292.469 201.468 292.602 203.82 296.393C205.654 299.383 207.277 302.498 208.677 305.715V305.805C207.228 305.776 203.307 305.778 202.884 305.866C201.86 306.091 202.069 307.441 202.884 307.735C204.123 308.061 205.409 308.173 206.686 308.068C207.816 308.21 208.963 308.128 210.061 307.828C212.228 306.865 210.367 304.025 209.733 302.698Z" fill="#191919"/>
<path d="M203.306 312.926C203.346 313.976 203.755 314.978 204.461 315.756C205.168 316.534 206.126 317.038 207.167 317.179C208.267 317.172 209.328 316.769 210.155 316.043C210.982 315.318 211.519 314.318 211.667 313.228C211.854 312.445 212.065 311.187 211.064 310.845C210.135 310.525 209.653 311.45 209.435 312.17C209.113 313.23 208.801 314.825 207.383 314.825C205.876 314.825 205.403 313.25 204.427 312.442C204.331 312.358 204.213 312.302 204.086 312.282C203.96 312.262 203.831 312.279 203.713 312.329C203.596 312.38 203.495 312.463 203.423 312.569C203.351 312.674 203.311 312.798 203.306 312.926Z" fill="#191919"/>
<path d="M172.081 334.765C169.651 335.132 167.272 335.78 164.991 336.695C148.607 342.435 131.538 349.099 116.931 359.533C114.707 361.078 112.581 362.76 110.566 364.57C108.49 366.239 106.974 368.502 106.221 371.057C106.041 371.872 107.121 372.72 107.76 371.957C109.147 370.162 110.627 368.44 112.195 366.8C117.723 362.05 123.74 357.902 130.145 354.425C141.266 348.538 152.838 343.545 164.75 339.492C167.421 338.69 169.991 337.586 172.412 336.202C173.107 335.824 172.925 334.677 172.081 334.765Z" fill="#191919"/>
<path d="M214.68 336.488C235.679 346.485 255.758 347.288 272.73 368.076C278.078 374.623 279.206 378.534 281.811 381.771C282.511 382.642 283.681 381.681 283.501 380.777C282.846 378.32 281.774 375.993 280.333 373.899C276.37 367.439 271.365 361.679 265.521 356.853C255.371 348.512 247.368 346.136 236.287 342.068C219.898 336.056 219.378 335.979 215.348 335.039C214.439 334.827 213.839 336.087 214.68 336.488Z" fill="#191919"/>
<path d="M318.524 279.527C317.98 280.427 317.462 282.274 318.373 283.147C318.536 283.295 318.727 283.408 318.934 283.481C319.142 283.553 319.362 283.583 319.581 283.569C319.8 283.555 320.014 283.497 320.211 283.399C320.407 283.3 320.582 283.164 320.725 282.997C321.189 282.4 321.454 281.671 321.481 280.915C321.739 278.429 319.458 277.993 318.524 279.527Z" fill="#191919"/>
<path d="M332.522 280.614C332.333 280.506 332.124 280.437 331.908 280.412C331.691 280.388 331.472 280.407 331.264 280.469C331.055 280.531 330.861 280.634 330.694 280.773C330.527 280.912 330.389 281.084 330.29 281.277C329.747 282.177 329.228 284.025 330.139 284.898C330.302 285.045 330.493 285.157 330.701 285.23C330.908 285.302 331.128 285.332 331.347 285.318C331.567 285.303 331.781 285.246 331.977 285.148C332.174 285.05 332.349 284.914 332.492 284.747C332.957 284.15 333.221 283.422 333.246 282.666C333.338 282.29 333.318 281.896 333.189 281.532C333.061 281.167 332.829 280.848 332.522 280.614Z" fill="#191919"/>
<path d="M320.785 292.24C322.215 291.28 323.411 290.012 324.286 288.529C325.502 286.432 326.243 284.095 326.458 281.68C326.514 280.987 325.524 280.807 325.191 281.35C323.616 283.906 322.896 287.384 320.092 289.706C319.483 290.212 318.43 290.55 317.98 291.245C317.008 292.748 319.217 294.321 320.243 295.138C321.571 296.193 323.47 297.669 325.252 297.248C325.378 297.212 325.495 297.147 325.593 297.059C325.69 296.971 325.767 296.862 325.816 296.74C325.866 296.618 325.887 296.486 325.878 296.355C325.869 296.223 325.83 296.096 325.765 295.981C324.856 294.49 322.736 294.265 320.785 292.24Z" fill="#191919"/>
<path d="M329.514 299.26C326.719 300.56 323.551 300.816 320.583 299.982C319.709 299.621 318.782 299.407 317.838 299.35C317.731 299.355 317.626 299.386 317.534 299.442C317.442 299.498 317.366 299.575 317.312 299.668C317.258 299.761 317.228 299.866 317.225 299.974C317.223 300.081 317.247 300.188 317.296 300.284C318.351 302.156 321.571 302.612 323.511 302.759C325.139 302.867 326.773 302.683 328.337 302.216C325.929 309.441 320.968 310.091 320.192 307.828C319.645 306.23 319.852 304.511 319.348 302.909C319.287 302.719 319.167 302.552 319.005 302.434C318.843 302.316 318.648 302.252 318.448 302.252C318.248 302.252 318.053 302.316 317.891 302.434C317.729 302.552 317.609 302.719 317.548 302.909C316.99 305.092 317.214 307.4 318.183 309.434C318.739 310.292 319.57 310.936 320.541 311.259C321.511 311.582 322.562 311.566 323.522 311.214C327.549 310.334 330.434 304.689 331.215 300.626C331.29 300.4 331.294 300.157 331.227 299.929C331.16 299.701 331.024 299.5 330.839 299.351C330.654 299.202 330.428 299.114 330.191 299.097C329.954 299.081 329.717 299.138 329.514 299.26Z" fill="#191919"/>
<path d="M342.901 338.365C341.953 338.117 340.947 338.213 340.064 338.637C334.821 340.099 329.217 339.494 324.406 336.947C322.449 335.946 320.784 334.488 318.887 333.417C318.792 333.362 318.686 333.33 318.577 333.324C318.468 333.318 318.359 333.337 318.259 333.381C318.159 333.425 318.071 333.492 318.002 333.576C317.933 333.661 317.884 333.76 317.861 333.867C316.837 333.575 316.761 333.894 311.948 334.29C303.119 335.017 284.048 332.585 272.364 344.276C269.445 346.866 267.507 350.381 266.874 354.232C266.878 354.475 266.96 354.71 267.109 354.902C267.258 355.094 267.465 355.233 267.699 355.298C267.934 355.362 268.183 355.349 268.409 355.261C268.635 355.172 268.827 355.012 268.955 354.806C270.237 351.875 271.945 349.15 274.024 346.719C284.905 335.262 302.73 337.991 312.157 336.884C313.998 336.659 316.925 336.554 318.232 335.044C318.261 335.015 318.261 335.015 318.261 334.983C321.535 340.187 330.362 342.741 336.997 341.983C338.838 341.774 342.561 341.553 343.423 339.539C343.476 339.429 343.504 339.309 343.505 339.187C343.507 339.065 343.482 338.944 343.432 338.832C343.383 338.72 343.31 338.621 343.218 338.54C343.126 338.46 343.018 338.4 342.901 338.365Z" fill="#191919"/>
<path d="M286.453 257.745C285.276 256.145 281.559 254.514 280.328 256.962C280.284 257.035 280.257 257.118 280.25 257.203C280.244 257.288 280.257 257.374 280.289 257.453C280.322 257.532 280.372 257.603 280.437 257.659C280.501 257.715 280.578 257.755 280.661 257.776C281.386 257.891 282.108 257.689 282.803 257.835C283.223 257.935 283.614 258.131 283.944 258.409C284.274 258.687 284.534 259.038 284.705 259.435C286.752 263.651 283.082 269.276 279.755 268.124C279.035 267.874 278.609 267.224 277.975 266.857C277.043 266.326 275.95 267.339 276.708 268.999C276.516 269.085 276.35 269.22 276.227 269.391C274.349 272.666 271.774 275.488 268.685 277.657C260.792 282.486 252.26 278.965 250.763 271.774C249.638 266.324 250.73 257.007 251.697 251.591C252.125 249.208 252.804 246.763 252.995 244.351C252.995 244.194 252.944 244.042 252.849 243.918C252.754 243.794 252.621 243.704 252.47 243.663C252.319 243.622 252.159 243.631 252.014 243.69C251.869 243.749 251.747 243.854 251.668 243.988C248.743 249.87 247.026 266.824 248.621 273.072C249.569 276.398 251.797 279.214 254.817 280.901C257.836 282.588 261.402 283.009 264.731 282.072C264.648 282.994 264.875 283.669 264.671 287.139C264.419 291.43 263.771 291.972 264.491 293.023C264.546 293.116 264.619 293.196 264.705 293.261C264.792 293.325 264.891 293.371 264.996 293.396C265.101 293.422 265.209 293.426 265.316 293.408C265.422 293.391 265.524 293.352 265.616 293.295C266.572 292.649 266.606 291.664 266.761 290.548C267.068 288.387 267.129 286.198 266.943 284.023C266.917 283.175 266.786 282.334 266.552 281.518C267.184 281.278 267.825 281.05 268.451 280.765C272.872 278.623 276.313 274.88 278.076 270.295C284.765 273.486 290.489 263.233 286.453 257.745Z" fill="#191919"/>
<path d="M282.713 271.956C281.593 274.788 281.11 277.831 281.297 280.871C281.485 283.911 282.338 286.872 283.798 289.544C284.403 290.539 286.235 289.88 285.76 288.701C282.997 281.822 283.112 279.498 283.919 272.287C283.922 272.144 283.876 272.004 283.79 271.889C283.704 271.775 283.583 271.692 283.444 271.654C283.306 271.616 283.16 271.626 283.027 271.68C282.895 271.735 282.785 271.832 282.713 271.956Z" fill="#191919"/>
<path d="M308.417 232.765C309.222 231.388 309.726 229.856 309.897 228.27C310.069 226.685 309.903 225.08 309.412 223.563C308.955 222.44 308.181 221.474 307.184 220.783C306.188 220.092 305.012 219.705 303.8 219.67C304.585 215.96 304.342 211.528 301.69 208.78C300.865 207.944 299.803 207.382 298.647 207.172C297.491 206.961 296.299 207.112 295.232 207.604C294.991 206.207 294.388 204.898 293.482 203.807C292.577 202.717 291.401 201.883 290.073 201.389C288.809 200.989 287.453 200.979 286.183 201.361C284.913 201.744 283.788 202.5 282.954 203.531C280.529 201.536 277.57 200.298 274.447 199.972C273.452 199.76 272.416 199.874 271.492 200.297C270.568 200.721 269.805 201.431 269.317 202.323C267.953 201.442 266.373 200.953 264.749 200.911C263.126 200.868 261.522 201.274 260.114 202.082C258.842 202.901 257.846 204.083 257.254 205.476C256.663 206.868 256.503 208.406 256.795 209.89C255.275 209.814 253.759 210.112 252.381 210.759C251.003 211.406 249.804 212.382 248.891 213.6C248.041 214.851 247.559 216.316 247.5 217.828C247.442 219.339 247.809 220.837 248.56 222.15C247.294 222.51 246.177 223.267 245.373 224.31C244.569 225.352 244.121 226.625 244.094 227.941C244.147 228.767 244.383 229.57 244.785 230.292C245.187 231.015 245.745 231.639 246.418 232.119C247.092 232.599 247.864 232.922 248.678 233.066C249.492 233.21 250.328 233.17 251.125 232.95C251.284 232.906 251.432 232.831 251.561 232.729C251.691 232.627 251.799 232.501 251.879 232.358C251.96 232.215 252.012 232.057 252.031 231.894C252.051 231.73 252.038 231.565 251.994 231.406C251.95 231.248 251.875 231.1 251.773 230.971C251.671 230.841 251.545 230.733 251.402 230.653C251.259 230.572 251.101 230.52 250.938 230.501C250.774 230.481 250.609 230.494 250.45 230.538C250.011 230.632 249.557 230.628 249.12 230.527C248.682 230.426 248.272 230.231 247.918 229.955C247.565 229.679 247.275 229.328 247.072 228.928C246.868 228.528 246.754 228.089 246.738 227.64C246.921 226.68 247.448 225.819 248.22 225.219C248.992 224.62 249.956 224.322 250.932 224.382C251.189 224.379 251.44 224.301 251.654 224.157C251.867 224.014 252.034 223.811 252.133 223.573C252.233 223.336 252.261 223.075 252.213 222.822C252.166 222.569 252.046 222.335 251.868 222.15C250.884 221.241 250.265 220.004 250.126 218.672C249.987 217.339 250.339 216.002 251.114 214.909C251.999 213.855 253.176 213.086 254.498 212.699C255.819 212.312 257.225 212.325 258.539 212.736C259.534 213.013 260.661 211.795 259.988 210.837C259.631 210.293 259.39 209.682 259.28 209.041C259.17 208.4 259.194 207.743 259.349 207.111C259.505 206.48 259.789 205.887 260.185 205.371C260.58 204.854 261.078 204.425 261.646 204.109C262.98 203.486 264.48 203.317 265.918 203.628C267.357 203.938 268.654 204.711 269.611 205.828C270.547 206.852 272.365 205.54 271.573 204.319C270.952 203.365 272.176 202.638 273.02 202.519C274.777 202.512 276.517 202.855 278.14 203.529C279.762 204.202 281.235 205.192 282.47 206.44C282.626 206.589 282.818 206.694 283.026 206.748C283.235 206.802 283.453 206.801 283.661 206.747C283.87 206.693 284.061 206.587 284.216 206.438C284.372 206.289 284.487 206.104 284.551 205.898C284.755 205.425 285.051 204.998 285.423 204.642C285.795 204.286 286.234 204.008 286.716 203.825C287.197 203.642 287.71 203.557 288.225 203.576C288.739 203.596 289.244 203.718 289.711 203.936C290.835 204.589 291.749 205.551 292.343 206.707C292.937 207.864 293.186 209.167 293.061 210.461C293.071 210.756 293.185 211.038 293.383 211.257C293.581 211.476 293.85 211.618 294.142 211.658C294.435 211.698 294.732 211.633 294.981 211.475C295.23 211.317 295.416 211.076 295.504 210.794C295.736 210.358 296.102 210.008 296.547 209.796C296.993 209.584 297.495 209.522 297.979 209.617C298.592 209.741 299.164 210.016 299.643 210.416C300.123 210.816 300.495 211.33 300.727 211.91C301.925 214.825 301.945 218.091 300.785 221.02C300.371 222.202 301.723 222.868 302.657 222.469C304.954 221.488 307.029 223.736 307.362 225.817C307.476 228.442 306.793 231.04 305.402 233.269C305.282 233.49 305.228 233.74 305.248 233.99C305.268 234.241 305.36 234.48 305.514 234.678C305.667 234.877 305.875 235.026 306.112 235.109C306.35 235.191 306.606 235.202 306.849 235.141C308.118 234.901 309.027 236.226 309.144 237.313C309.167 238.772 308.769 240.207 307.996 241.446C307.565 242.552 306.869 243.536 305.969 244.311C305.069 245.086 303.993 245.628 302.835 245.89C301.901 246.011 301.71 247.336 302.293 247.915C302.875 248.493 302.551 250.691 302.533 251.474C302.548 252.816 302.239 254.141 301.633 255.337C301.208 256.258 300.463 256.993 299.536 257.407C298.61 257.82 297.566 257.885 296.596 257.587C296.368 257.463 296.106 257.416 295.849 257.452C295.592 257.489 295.354 257.608 295.171 257.792C294.987 257.975 294.868 258.213 294.831 258.47C294.793 258.727 294.84 258.989 294.965 259.216C295.264 259.893 295.388 260.633 295.326 261.37C295.263 262.107 295.017 262.816 294.608 263.433C294.199 264.049 293.642 264.552 292.987 264.896C292.333 265.241 291.602 265.414 290.863 265.402C290.582 265.412 290.313 265.521 290.105 265.711C289.898 265.9 289.764 266.157 289.727 266.436C289.691 266.715 289.755 266.998 289.908 267.234C290.061 267.47 290.292 267.644 290.561 267.726C290.878 267.896 291.149 268.137 291.355 268.432C291.56 268.726 291.693 269.065 291.743 269.421C291.793 269.776 291.759 270.138 291.642 270.478C291.526 270.818 291.332 271.125 291.074 271.375C289.598 272.797 286.988 271.902 285.643 270.772C285.004 270.235 283.867 270.921 284.376 271.706C284.822 272.404 285.417 272.994 286.118 273.434C286.82 273.874 287.61 274.153 288.432 274.251C289.254 274.349 290.088 274.264 290.873 274.001C291.658 273.739 292.376 273.305 292.973 272.732C293.615 271.979 294.002 271.042 294.078 270.056C294.154 269.07 293.915 268.085 293.396 267.242C294.786 266.701 295.957 265.714 296.727 264.437C297.496 263.16 297.821 261.663 297.651 260.182C298.836 260.188 300.002 259.886 301.034 259.304C302.066 258.722 302.928 257.88 303.535 256.863C304.452 255.199 304.939 253.333 304.952 251.434C305.085 250.228 305.054 249.01 304.86 247.813C306.356 247.065 307.682 246.018 308.757 244.736C309.831 243.454 310.631 241.965 311.106 240.361C312.557 236.489 310.852 233.575 308.417 232.765Z" fill="#191919"/>
<path d="M257.34 250.655C257.242 250.493 257.107 250.356 256.946 250.257C256.785 250.158 256.602 250.098 256.414 250.083C256.225 250.068 256.035 250.099 255.861 250.172C255.686 250.245 255.531 250.359 255.41 250.504C255.032 250.878 254.767 251.351 254.645 251.868C254.522 252.384 254.546 252.925 254.714 253.429C254.759 253.597 254.843 253.752 254.958 253.882C255.073 254.012 255.216 254.114 255.377 254.179C255.538 254.244 255.712 254.272 255.885 254.259C256.058 254.246 256.226 254.193 256.375 254.104C256.932 253.749 257.338 253.2 257.516 252.564C257.694 251.928 257.631 251.248 257.34 250.655Z" fill="#191919"/>
<path d="M265.636 251.74C265.539 251.577 265.404 251.44 265.242 251.34C265.081 251.241 264.899 251.181 264.71 251.166C264.521 251.151 264.331 251.182 264.156 251.256C263.982 251.329 263.827 251.443 263.706 251.589C263.328 251.963 263.063 252.435 262.94 252.952C262.818 253.469 262.843 254.01 263.013 254.514C263.058 254.681 263.141 254.836 263.256 254.966C263.371 255.095 263.514 255.197 263.674 255.262C263.835 255.328 264.008 255.355 264.181 255.342C264.354 255.33 264.522 255.277 264.671 255.189C265.225 254.831 265.63 254.283 265.808 253.647C265.986 253.012 265.925 252.333 265.636 251.74Z" fill="#191919"/>
<path d="M259.241 252.586C258.085 253.956 257.14 255.491 256.436 257.14C255.578 258.796 254.919 260.548 254.474 262.36C253.729 266.313 258.821 265.593 261.082 264.652C262.018 264.263 261.473 262.873 260.598 262.873C259.174 262.873 257.507 263.408 256.978 263.143C256.676 263.354 256.618 263.235 256.766 262.841C256.859 262.6 256.919 262.299 257.007 262.058C259.073 256.361 259.622 255.731 260.297 253.218C260.459 252.619 259.667 252.109 259.241 252.586Z" fill="#191919"/>
<path d="M283.467 239.916C280.405 231.753 271.992 228.497 263.645 229.899C259.281 230.422 255.231 232.436 252.181 235.601C251.969 235.54 251.994 235.839 252.181 235.601L252.152 235.691C252.059 235.661 252.03 235.691 251.969 235.783C251.335 236.928 250.608 238.532 251.578 239.705C252.629 240.976 254.597 240.467 255.952 240.128C260.101 239.081 264.169 236.528 269.981 238.166C275.736 239.797 278.756 244.589 280.268 250.354C280.695 251.985 280.76 254.197 282.502 254.789C282.67 254.84 282.848 254.856 283.023 254.837C283.198 254.817 283.367 254.761 283.519 254.674C283.672 254.586 283.805 254.468 283.91 254.327C284.015 254.185 284.091 254.024 284.131 253.853C284.95 249.216 284.724 244.454 283.467 239.916Z" fill="#D33B4D"/>
<path d="M261.624 294.069C262.427 296.265 265.278 297.408 267.357 298.022C269.898 298.688 272.514 299.022 275.14 299.017C278.052 299.218 280.975 298.836 283.737 297.892C285.731 297.111 288.635 295.57 288.928 293.216C288.966 293.042 288.954 292.861 288.893 292.693C288.831 292.526 288.723 292.379 288.581 292.271C288.439 292.163 288.269 292.098 288.091 292.084C287.913 292.07 287.735 292.107 287.578 292.19C285.431 293.464 284.653 296.819 274.877 296.445C265.46 296.083 264.617 293.862 262.326 293.295C262.222 293.265 262.111 293.265 262.006 293.295C261.902 293.325 261.808 293.383 261.735 293.464C261.662 293.544 261.613 293.644 261.593 293.751C261.573 293.858 261.584 293.968 261.624 294.069Z" fill="#191919"/>
<path d="M260.663 294.219C252.903 295.116 245.252 296.784 237.824 299.199C232.676 300.734 227.866 303.232 223.649 306.558C223.066 307.072 222.567 307.673 222.17 308.34C221.738 309.067 221.539 309.909 221.599 310.752C221.605 310.914 221.656 311.071 221.748 311.204C221.839 311.337 221.967 311.441 222.116 311.505C222.265 311.568 222.428 311.587 222.588 311.561C222.747 311.535 222.896 311.463 223.016 311.355C223.988 310.307 224.974 309.092 226.033 308.158C230.198 305.109 234.863 302.812 239.819 301.37C246.729 299.169 254.03 298.051 260.818 295.547C261.473 295.245 261.444 294.163 260.663 294.219Z" fill="#191919"/>
<path d="M290.256 294.159C292.915 295.639 295.783 296.708 298.763 297.327C300.032 297.741 301.323 298.09 302.563 298.596C303.677 299.297 304.901 299.806 306.183 300.103C306.307 300.103 306.43 300.074 306.54 300.018C306.651 299.962 306.747 299.881 306.82 299.781C306.894 299.681 306.943 299.566 306.964 299.443C306.984 299.321 306.976 299.196 306.939 299.077C306.375 296.614 302.214 295.689 300.151 295.095C294.301 293.405 292.62 292.726 290.618 292.802C290.46 292.807 290.309 292.863 290.186 292.961C290.062 293.059 289.974 293.194 289.933 293.346C289.892 293.498 289.902 293.659 289.96 293.806C290.018 293.952 290.122 294.076 290.256 294.159Z" fill="#191919"/>
<path d="M148.427 238.649C145.713 236.474 143.604 233.637 142.302 230.412C142.063 229.365 141.751 228.337 141.369 227.334C141.31 227.244 141.227 227.173 141.13 227.128C141.032 227.083 140.925 227.066 140.818 227.078C140.712 227.091 140.611 227.133 140.527 227.199C140.443 227.266 140.379 227.354 140.343 227.455C140.002 229.371 140.31 231.346 141.218 233.067C141.959 234.791 142.978 236.381 144.235 237.774C145.755 239.388 147.455 240.823 149.302 242.049C149.545 242.199 149.545 242.319 149.212 242.469C148.971 242.919 148.132 243.412 147.734 243.738C146.901 244.413 145.734 244.974 145.531 246.121C145.485 246.308 145.512 246.506 145.608 246.674C145.703 246.841 145.859 246.966 146.044 247.021C147.192 247.203 147.916 246.51 148.821 245.815C149.936 245.155 150.894 244.259 151.626 243.189C152.664 240.975 149.781 239.74 148.427 238.649Z" fill="#191919"/>
<path d="M140.705 254.336C140.549 254.635 140.279 255.265 139.951 255.391C139.433 255.591 138.954 254.941 138.713 254.608C138.038 253.582 138.07 252.241 137.386 251.258C137.161 250.923 136.504 250.808 136.299 251.258C135.956 252.337 136.009 253.504 136.45 254.547C136.706 255.625 137.337 256.576 138.23 257.232C138.668 257.522 139.175 257.692 139.699 257.724C140.224 257.756 140.747 257.649 141.218 257.414C141.647 257.143 142.003 256.772 142.255 256.332C142.507 255.892 142.648 255.396 142.664 254.889C142.802 253.821 141.175 253.425 140.705 254.336Z" fill="#191919"/>
<path d="M133.734 231.65C133.387 231.738 133.077 231.935 132.849 232.212C132.621 232.489 132.488 232.831 132.467 233.189C132.657 234.086 133.061 234.924 133.644 235.632C134.544 236.496 135.998 236.154 135.998 234.122C135.998 232.916 135.185 231.326 133.734 231.65Z" fill="#191919"/>
<path d="M114.366 247.73C114.276 247.582 114.132 247.474 113.965 247.428C113.797 247.383 113.618 247.404 113.466 247.487C112.404 248.081 112.201 249.24 111.475 250.113C110.682 251.085 109.55 251.721 108.307 251.893C106.917 251.852 105.562 251.453 104.373 250.734C103.183 250.015 102.2 249 101.518 247.789C98.4495 242.465 103.584 234.658 107.553 237.774C107.712 237.935 107.924 238.033 108.15 238.048C108.375 238.063 108.599 237.995 108.777 237.856C108.956 237.717 109.077 237.517 109.118 237.295C109.159 237.072 109.117 236.842 109 236.649C108.566 235.962 107.941 235.416 107.201 235.079C106.462 234.742 105.641 234.627 104.837 234.75C100.477 235.218 96.2692 242.175 98.9242 248.205C99.7389 249.984 101.029 251.502 102.653 252.594C104.276 253.685 106.17 254.307 108.124 254.39C109.9 254.288 111.577 253.539 112.838 252.284C113.95 251.175 115.43 249.265 114.366 247.73Z" fill="#191919"/>
<path d="M109.358 255.09C111.05 260.231 111.513 265.697 110.708 271.049C110.201 273.668 109.412 273.749 109.439 275.275C109.441 275.395 109.47 275.513 109.525 275.621C109.579 275.728 109.658 275.821 109.754 275.894C109.85 275.967 109.961 276.016 110.079 276.04C110.197 276.063 110.319 276.059 110.435 276.028C112.217 275.803 112.757 273.643 113.09 272.136C114.419 266.161 113.551 259.907 110.647 254.518C110.551 254.384 110.411 254.286 110.251 254.243C110.091 254.199 109.921 254.212 109.77 254.279C109.618 254.346 109.494 254.464 109.419 254.611C109.344 254.759 109.323 254.928 109.358 255.09Z" fill="#191919"/>
<path d="M104.923 214.209C105.393 213.544 105.588 212.722 105.465 211.917C105.411 211.731 105.287 211.574 105.119 211.478C104.951 211.382 104.752 211.356 104.565 211.404C102.965 211.64 102.254 214.394 101.849 215.748C100.286 222.008 101.082 228.623 104.084 234.333C104.439 235.008 105.344 234.516 105.229 233.852C104.108 227.343 101.717 221.274 104.923 214.209Z" fill="#191919"/>
<path d="M121.667 198.734C119.691 199.658 118.024 201.135 116.87 202.987C112.663 208.162 108.977 214.936 109.268 221.603C109.301 222.357 110.471 222.598 110.618 221.783C111.725 215.42 114.52 209.471 118.711 204.557C120.264 203.136 121.534 201.434 122.453 199.54C122.484 199.43 122.486 199.314 122.458 199.203C122.43 199.092 122.373 198.991 122.293 198.909C122.214 198.827 122.114 198.768 122.004 198.737C121.894 198.707 121.778 198.705 121.667 198.734Z" fill="#191919"/>
<path d="M137.235 193.69C137.231 193.581 137.204 193.475 137.154 193.378C137.105 193.282 137.035 193.197 136.949 193.131C136.863 193.064 136.763 193.018 136.657 192.994C136.551 192.971 136.441 192.971 136.335 192.995C134.935 193.445 135.113 194.311 132.285 197.249C128.086 201.621 122.871 205.232 121.453 211.368C121.307 212.003 122.272 212.493 122.578 211.818C126.248 203.59 137.701 197.45 137.235 193.69Z" fill="#191919"/>
<path d="M143.328 200.122C144.377 199.162 145.042 197.854 145.2 196.441C145.176 195.991 144.714 195.501 144.235 195.688C142.482 196.363 142.46 197.683 138.502 201.931C136.493 204.142 134.303 206.181 131.955 208.027C131.356 208.477 132.105 209.352 132.711 209.021C136.818 206.808 140.431 203.78 143.328 200.122Z" fill="#191919"/>
<path d="M149.032 204.939C149.747 203.967 150.773 202.739 150.449 201.47C150.428 201.385 150.389 201.306 150.336 201.237C150.282 201.168 150.216 201.111 150.139 201.069C150.063 201.027 149.979 201.001 149.892 200.992C149.805 200.984 149.718 200.993 149.635 201.02C148.548 201.261 147.968 202.401 147.371 203.252C144.986 206.532 142.244 209.537 139.195 212.211C138.628 212.702 139.341 213.591 139.951 213.208C143.512 211.103 146.603 208.288 149.032 204.939Z" fill="#191919"/>
<path d="M153.563 210.589C154.326 209.662 155.258 208.447 154.801 207.214C154.762 207.09 154.68 206.985 154.568 206.918C154.457 206.851 154.325 206.828 154.198 206.852C152.497 207.257 152.506 209.165 148.827 212.07C146.419 213.848 143.9 215.47 141.285 216.927C140.716 217.269 141.076 218.23 141.735 218.014C146.33 216.773 150.449 214.188 153.563 210.589Z" fill="#191919"/>
<path d="M156.09 210.23C156.019 210.1 155.905 209.999 155.767 209.944C155.63 209.888 155.478 209.882 155.337 209.926C154.131 210.349 153.595 211.892 153.015 212.914C152.241 214.214 151.33 215.428 150.299 216.534C148.23 218.724 145.814 220.559 143.148 221.963C143.015 222.045 142.915 222.172 142.868 222.321C142.821 222.47 142.83 222.632 142.892 222.775C142.955 222.918 143.067 223.034 143.208 223.101C143.35 223.169 143.511 223.182 143.661 223.14C148.381 221.634 152.406 218.488 155.006 214.271C155.665 213.17 156.714 211.544 156.09 210.23Z" fill="#191919"/>
<path d="M103.233 329.88C104.151 333.212 105.522 336.43 106.674 339.717C108.795 345.778 109.014 347.592 110.294 348.917C110.373 348.997 110.472 349.055 110.581 349.085C110.69 349.116 110.804 349.117 110.914 349.09C111.023 349.063 111.124 349.008 111.206 348.93C111.287 348.853 111.348 348.755 111.381 348.647C111.52 347.052 111.272 345.447 110.656 343.969C109.136 338.899 107.083 334.004 104.532 329.367C104.451 329.213 104.317 329.095 104.154 329.035C103.992 328.975 103.813 328.977 103.652 329.04C103.491 329.104 103.359 329.225 103.282 329.38C103.205 329.535 103.187 329.713 103.233 329.88Z" fill="#191919"/>
<path d="M134.641 280.281C134.429 280.332 134.226 280.414 134.038 280.524C134.348 279.564 134.359 278.533 134.067 277.567C133.14 271.308 133.86 267.388 133.252 265.642C133.224 265.546 133.168 265.461 133.092 265.396C133.016 265.331 132.923 265.29 132.823 265.277C132.724 265.264 132.623 265.281 132.533 265.325C132.443 265.368 132.368 265.437 132.316 265.523C131.83 266.594 131.573 267.755 131.563 268.932C131.351 271.752 131.432 274.586 131.803 277.39C131.959 278.566 131.925 279.955 132.928 280.765C133.026 280.847 133.139 280.909 133.261 280.947C132.658 281.278 132.112 281.622 131.482 281.941C127.741 283.422 123.618 283.634 119.746 282.544C112.71 280.886 110.044 276.348 107.195 273.252C107.097 273.162 106.972 273.107 106.84 273.093C106.708 273.08 106.575 273.109 106.46 273.176C106.346 273.243 106.256 273.345 106.203 273.468C106.151 273.59 106.139 273.725 106.169 273.855C107.319 278.222 112.55 283.53 119.505 285.078C122.487 285.796 125.579 285.94 128.615 285.501C131.122 285.089 134.731 284.02 135.615 281.338C135.659 281.199 135.666 281.051 135.634 280.908C135.602 280.766 135.534 280.634 135.435 280.527C135.336 280.42 135.21 280.34 135.071 280.297C134.931 280.254 134.783 280.248 134.641 280.281Z" fill="#191919"/>
<path d="M103.566 273.886C99.96 274.122 96.42 274.969 93.0971 276.39C71.5533 283.989 60.7758 298.51 58.8543 312.503C56.5908 329 63.9326 349.853 71.2833 357.879C71.9763 358.632 73.0586 357.669 72.6333 356.821C69.0375 350.639 66.1239 344.085 63.9438 337.273C61.8893 330.409 60.972 323.255 61.2281 316.094C61.8603 302.486 70.7658 291.18 82.1058 284.324C91.6908 278.53 101.085 276.746 103.888 275.124C104.015 275.052 104.115 274.94 104.172 274.806C104.229 274.672 104.24 274.522 104.203 274.381C104.166 274.24 104.084 274.115 103.969 274.025C103.854 273.936 103.712 273.887 103.566 273.886Z" fill="#191919"/>
<path d="M151.806 281.971C151.491 280.767 150.085 280.105 149.032 279.617C145.147 277.763 140.812 277.06 136.54 277.592C136.409 277.634 136.295 277.717 136.214 277.828C136.133 277.939 136.089 278.073 136.089 278.211C136.089 278.348 136.133 278.482 136.214 278.594C136.295 278.705 136.409 278.787 136.54 278.83C140.427 279.369 144.23 280.403 147.855 281.908C148.881 282.358 150.154 283.141 151.324 282.781C151.493 282.732 151.636 282.621 151.725 282.471C151.815 282.321 151.844 282.142 151.806 281.971Z" fill="#191919"/>
<path d="M225.601 193.24C224.089 188.629 218.971 188.31 217.123 192.668C215.53 196.424 217.756 199.933 222.193 211.433C222.208 211.495 222.238 211.552 222.28 211.599C222.321 211.647 222.374 211.684 222.433 211.708C222.492 211.731 222.555 211.74 222.618 211.735C222.681 211.729 222.742 211.708 222.796 211.674C225.825 209.603 228.547 207.115 230.88 204.283C232.849 201.808 235.38 198.55 235.436 195.231C235.54 189.822 228.592 188.62 225.601 193.24Z" fill="#D33B4D"/>
<path d="M278.369 160.66C279.142 160.823 279.933 160.884 280.722 160.842C281.066 160.842 281.397 160.705 281.64 160.462C281.884 160.218 282.02 159.888 282.02 159.544C282.02 159.199 281.884 158.869 281.64 158.626C281.397 158.382 281.066 158.245 280.722 158.245C279.933 158.179 279.138 158.241 278.369 158.428C278.132 158.504 277.926 158.653 277.78 158.853C277.634 159.054 277.555 159.296 277.555 159.544C277.555 159.792 277.634 160.034 277.78 160.234C277.926 160.435 278.132 160.584 278.369 160.66Z" fill="#191919"/>
<path d="M280.78 171.219C279.991 171.162 279.198 171.223 278.427 171.401C278.186 171.472 277.974 171.619 277.824 171.82C277.673 172.021 277.592 172.266 277.592 172.517C277.592 172.768 277.673 173.013 277.824 173.214C277.974 173.415 278.186 173.562 278.427 173.633C279.199 173.8 279.991 173.861 280.78 173.813C281.123 173.81 281.452 173.673 281.694 173.43C281.937 173.188 282.075 172.86 282.079 172.517C282.08 172.346 282.047 172.177 281.982 172.019C281.917 171.861 281.822 171.717 281.701 171.596C281.58 171.476 281.437 171.38 281.279 171.315C281.121 171.25 280.951 171.218 280.78 171.219Z" fill="#191919"/>
<path d="M286.847 152.665C286.724 152.601 286.585 152.577 286.448 152.598C286.311 152.619 286.185 152.683 286.087 152.781C285.989 152.878 285.925 153.005 285.904 153.142C285.884 153.278 285.907 153.418 285.972 153.541C287.385 155.457 288.57 157.532 289.5 159.724C291.099 164.748 290.876 170.175 288.867 175.051C287.306 179.339 285.789 180.478 286.514 181.929C286.556 182.003 286.618 182.065 286.692 182.107C286.767 182.149 286.851 182.171 286.937 182.17C288.204 182.08 288.777 180.662 289.29 179.636C291.414 175.604 292.629 171.156 292.85 166.604C292.951 161.836 291.309 155.215 286.847 152.665Z" fill="#191919"/>
<path d="M228.264 106.446C212.703 77.4973 172.43 76.2958 151.271 90.4843C135.692 100.936 129.032 119.811 129.367 137.941C129.759 158.981 144.865 175.996 162.766 178.972C165.27 179.389 167.804 179.575 170.337 179.758C170.646 182.838 174.77 189.14 181.29 192.488C182.766 193.246 184.969 194.569 186.659 193.755C188.151 193.755 187.17 190.562 187.109 189.804C186.76 185.245 187.696 181.668 187.532 178.219C198.228 178.039 208.488 173.95 216.375 166.723C224.436 159.523 229.299 148.987 231.942 138.697C234.822 127.867 233.509 116.349 228.264 106.446ZM230.55 128.89C229.6 139.601 225.864 149.877 219.714 158.698C212.05 169.205 199.392 174.963 186.436 175.926C186.21 175.936 185.991 176.012 185.808 176.145C185.624 176.278 185.484 176.461 185.403 176.673C185.323 176.885 185.307 177.116 185.356 177.337C185.406 177.558 185.519 177.76 185.682 177.917C184.642 182.168 184.256 186.553 184.537 190.92C183.878 190.699 183.233 190.437 182.607 190.135C178.173 187.648 174.557 183.927 172.198 179.425C172.263 179.325 172.303 179.211 172.315 179.093C172.326 178.975 172.309 178.855 172.265 178.745C172.221 178.635 172.151 178.537 172.061 178.459C171.971 178.382 171.864 178.327 171.748 178.3C166.374 177.804 161.09 176.59 156.038 174.688C149.931 171.981 144.58 167.816 140.457 162.56C136.333 157.303 133.562 151.115 132.387 144.538C131.072 134.857 132.032 125.002 135.192 115.756C140.878 99.5968 153.332 88.4075 172.632 85.2553C182.003 83.6984 191.608 84.3385 200.69 87.125C209.531 89.8935 217.229 95.4682 222.617 103.005C228.005 110.541 230.79 119.628 230.55 128.89Z" fill="#191919"/>
<path d="M157.753 130.015C157.136 130.442 156.634 131.015 156.29 131.682C155.947 132.349 155.772 133.09 155.782 133.84C155.814 134.885 156.236 135.879 156.965 136.629C157.693 137.378 158.676 137.828 159.719 137.89C160.594 137.849 161.425 137.498 162.064 136.9C162.704 136.302 163.109 135.495 163.207 134.625C163.828 130.667 160.259 128.44 157.753 130.015Z" fill="#D33B4D"/>
<path d="M177.879 130.033C177.249 130.454 176.735 131.027 176.384 131.7C176.034 132.372 175.859 133.122 175.875 133.88C175.906 134.926 176.329 135.921 177.058 136.67C177.787 137.42 178.77 137.87 179.814 137.93C180.689 137.89 181.52 137.539 182.159 136.941C182.798 136.342 183.202 135.536 183.3 134.666C183.914 130.746 180.456 128.53 177.879 130.033Z" fill="#D33B4D"/>
<path d="M200.743 130.478C200.211 129.786 199.442 129.314 198.583 129.152C197.725 128.99 196.837 129.15 196.088 129.601C195.473 130.029 194.971 130.602 194.628 131.268C194.285 131.935 194.11 132.676 194.119 133.426C194.151 134.471 194.573 135.466 195.301 136.216C196.03 136.965 197.013 137.415 198.057 137.476C201.502 137.489 202.613 132.785 200.743 130.478Z" fill="#D33B4D"/>
<path d="M73.7288 93.7738C73.2608 92.543 72.9031 90.5765 71.5261 90.0928C71.3883 90.0535 71.2425 90.0524 71.1041 90.0897C70.9658 90.1269 70.8402 90.2011 70.7408 90.3043C69.6631 91.5485 70.6396 93.6275 71.1638 94.9505C72.5768 98.5123 77.2253 106.945 80.1638 107.168C80.3632 107.166 80.5539 107.086 80.6949 106.945C80.8358 106.804 80.9158 106.614 80.9176 106.414C80.8523 103.69 77.6191 104.041 73.7288 93.7738Z" fill="#191919"/>
<path d="M98.8298 79.2324C98.0521 80.7205 97.5924 82.3541 97.4798 84.0294C96.8813 88.2166 96.6001 95.4864 98.1548 99.4756C98.2082 99.6607 98.3262 99.8205 98.4875 99.9258C98.6489 100.031 98.8426 100.075 99.0335 100.049C99.2244 100.024 99.3998 99.9302 99.5276 99.7861C99.6554 99.642 99.7272 99.4567 99.7298 99.2641C100.202 94.0734 99.1111 93.3736 100.124 84.2701C100.413 82.6681 100.494 81.0352 100.364 79.4124C100.187 78.6901 99.165 78.6924 98.8298 79.2324Z" fill="#191919"/>
<path d="M130.296 70.1513C130.242 69.6068 129.72 68.9655 129.088 69.2153C127.693 69.771 127.144 71.1255 126.464 72.354C124.147 76.3041 122.285 80.5038 120.914 84.873C120.874 85.0436 120.896 85.2226 120.976 85.3787C121.055 85.5347 121.187 85.6578 121.348 85.7263C121.509 85.7948 121.689 85.8043 121.857 85.7532C122.024 85.702 122.168 85.5936 122.264 85.4468C125.072 80.7218 125.951 78.7845 128.721 73.9223C129.362 72.8063 130.433 71.5373 130.296 70.1513Z" fill="#191919"/>
<path d="M355.692 204.314C353.947 203.948 352.165 203.786 350.382 203.833C346.805 203.653 340.412 203.128 336.293 202.656C338.709 199.083 343.324 191.246 343.805 187.781C343.907 187.059 342.962 186.184 342.359 186.967C340.674 189.555 339.171 192.257 337.859 195.053C336.274 197.813 334.552 200.491 332.699 203.079C332.036 204.013 332.94 205.003 333.845 205.104C336.871 205.43 352.637 207.181 355.627 206.492C355.864 206.43 356.074 206.292 356.227 206.1C356.379 205.908 356.465 205.672 356.473 205.428C356.48 205.183 356.408 204.942 356.267 204.741C356.127 204.541 355.925 204.391 355.692 204.314Z" fill="#191919"/>
<path d="M439.957 169.439C439.674 151.518 430.811 132.728 414.307 124.486C395.319 115 363.781 117.457 349.595 135.831C339.13 149.38 337.582 175.687 342.444 184.705C342.962 185.666 344.4 184.978 344.163 183.981C342.238 175.382 342.094 166.481 343.74 157.825C345.435 148.26 348.904 139.125 356.412 132.625C369.336 121.449 391.301 119.35 407.006 124.45C424.198 130.035 434.184 145.252 436.753 162.977C438.202 172.976 436.562 181.076 433.223 190.612C429.987 199.855 425.625 206.515 416.298 211.942C403.415 219.181 388.206 221.076 373.94 217.22C367.769 215.765 362.139 212.584 357.708 208.049C357.069 207.455 355.816 208.274 356.412 209.046C371.451 228.279 417.934 225.696 432.168 199.693C437.055 190.341 439.721 179.988 439.957 169.439Z" fill="#191919"/>
<path d="M415.76 156.286C413.869 155.686 411.894 155.391 409.91 155.41C407.858 155.302 371.384 154.144 370.358 154.144C369.245 154.196 368.137 154.317 367.039 154.506C366.166 154.607 365.77 155.957 366.798 156.196C370.315 157.006 366.517 156.832 409.667 158.428C411.71 158.602 413.768 158.45 415.763 157.978C415.936 157.914 416.086 157.799 416.192 157.648C416.298 157.496 416.355 157.316 416.354 157.131C416.354 156.946 416.297 156.766 416.191 156.614C416.084 156.463 415.934 156.348 415.76 156.286Z" fill="#191919"/>
<path d="M413.587 170.857C411.755 170.384 409.866 170.171 407.975 170.224C405.642 170.096 380.707 168.746 373.775 168.746C371.835 168.624 369.887 168.756 367.981 169.138C367.817 169.189 367.673 169.291 367.571 169.429C367.469 169.568 367.414 169.735 367.414 169.907C367.414 170.079 367.469 170.247 367.571 170.385C367.673 170.524 367.817 170.626 367.981 170.677C369.789 171.11 371.644 171.313 373.503 171.28C413.26 173.174 411.393 173.509 413.598 173.059C414.763 172.819 414.588 171.208 413.587 170.857Z" fill="#191919"/>
<path d="M411.567 183.166C407.951 182.535 404.285 182.242 400.616 182.291C396.987 182.129 393.356 182.008 389.724 181.929C382.468 181.574 375.195 181.775 367.971 182.532C367.037 182.656 367.368 184.019 368.182 184.107C377.049 184.991 383.464 184.21 400.344 185.072C403.96 185.47 407.6 185.61 411.236 185.493C412.503 185.365 412.955 183.499 411.567 183.166Z" fill="#191919"/>
<path d="M307.688 99.2346C304.365 98.2992 300.9 97.9722 297.46 98.2693C294.607 91.8231 294.893 86.7943 296.56 80.0758C297.128 78.3843 297.414 76.6109 297.406 74.8266C297.31 74.0821 297.042 73.3702 296.624 72.7469C296.205 72.1237 295.648 71.6062 294.995 71.2353C294.343 70.8644 293.613 70.6502 292.863 70.6096C292.114 70.5691 291.365 70.7033 290.676 71.0016C287.555 72.4499 285.108 75.0396 283.838 78.2376C282.458 81.4418 281.641 84.8602 281.424 88.3423C278.329 87.7913 275.177 87.6295 272.042 87.8608C268.791 87.8865 265.594 88.6937 262.72 90.2143C258.656 92.7928 257.444 98.1591 261.572 101.136C260.642 101.679 259.918 102.516 259.514 103.516C259.11 104.515 259.049 105.62 259.34 106.657C259.644 107.484 260.134 108.23 260.773 108.836C261.411 109.443 262.18 109.895 263.021 110.156C262.46 110.467 262.034 110.976 261.827 111.583C261.619 112.191 261.644 112.853 261.896 113.443C262.607 115.381 264.371 115.828 266.21 116.098C265.9 116.487 265.714 116.959 265.676 117.454C265.639 117.949 265.751 118.444 265.998 118.875C267.479 121.516 271.911 122.011 274.598 122.374C277.978 122.885 281.423 122.773 284.763 122.043C286.001 121.862 287.149 121.29 288.039 120.411C288.93 119.532 289.516 118.391 289.713 117.156C293.385 116.481 294.087 116.463 294.359 115.918C294.962 117.367 296.834 117.667 298.373 118C299.508 118.23 300.656 118.38 301.811 118.45C302.838 118.647 303.9 118.532 304.86 118.119C306.512 117.142 306.532 114.53 306.82 112.899C307.27 110.399 307.641 107.852 308.118 105.325C308.44 103.602 309.749 100.279 307.688 99.2346ZM262.238 106.777C260.801 105.202 262.081 102.367 265.134 102.675C269.654 103.125 273.115 104.025 278.229 102.826C278.499 102.733 278.832 102.675 279.102 102.583C279.922 102.833 280.69 103.232 281.366 103.759C281.508 103.864 281.627 103.997 281.716 104.149C281.805 104.301 281.863 104.469 281.885 104.644C281.908 104.819 281.895 104.997 281.847 105.166C281.799 105.336 281.717 105.494 281.606 105.631C281.035 106.507 279.62 106.756 278.65 107.078C276.292 107.832 273.867 108.359 271.409 108.653C270.088 108.909 268.735 108.96 267.398 108.804C265.511 108.673 263.71 107.965 262.238 106.777ZM264.923 113.234C262.783 111.963 266.459 111.259 267.368 111.061C270.524 110.919 273.662 110.516 276.751 109.855C278.178 109.589 279.573 109.174 280.913 108.617C281.939 109.067 283.163 109.702 282.875 110.971C282.279 113.518 272.467 115.21 269.931 114.26C268.223 114.121 266.537 113.776 264.911 113.234H264.923ZM276.848 120.209C274.628 120.062 272.436 119.637 270.323 118.942C269.778 118.762 268.219 118.337 268.12 117.676C268.037 117.131 269.245 116.65 269.598 116.65C274.593 116.65 278.148 116.683 282.569 114.267C283.402 114.784 285.931 114.17 287.398 115.864C287.337 116.061 287.337 116.271 287.398 116.467C288.325 120.715 279.113 120.355 276.83 120.202L276.848 120.209ZM294.195 114.447C294.053 114.298 293.875 114.186 293.679 114.123C293.482 114.06 293.273 114.047 293.07 114.085C291.592 114.357 290.082 114.627 288.57 114.899C288.284 114.201 287.774 113.618 287.121 113.241C286.319 112.799 285.437 112.522 284.527 112.426C285.465 110.971 285.242 108.973 283.049 107.236C283.504 106.803 283.833 106.254 283.998 105.648C284.163 105.041 284.158 104.401 283.985 103.798C283.795 103.241 283.494 102.729 283.1 102.293C282.705 101.857 282.226 101.506 281.692 101.262C281.782 101.172 281.843 101.143 281.933 101.053C284.408 98.6001 281.807 95.6908 279.428 94.5951C276.564 93.0965 273.223 92.7931 270.136 93.7513C269.11 94.2013 269.713 95.7134 270.678 95.7426C272.987 95.3783 275.349 95.5854 277.559 96.3456C278.522 96.7078 279.991 97.2861 280.454 98.3053C281.073 99.6711 279.008 100.155 278.13 100.418C273.915 101.282 269.564 101.23 265.37 100.267C263.267 99.5923 261.026 98.2761 261.478 95.7426C261.784 94.6331 262.387 93.6279 263.221 92.8351C264.056 92.0423 265.09 91.4917 266.214 91.2426C271.409 89.794 276.88 89.6487 282.144 90.8196C282.317 90.8624 282.498 90.8658 282.672 90.8297C282.847 90.7936 283.011 90.7188 283.153 90.6109C283.294 90.503 283.41 90.3647 283.492 90.2061C283.573 90.0475 283.618 89.8727 283.622 89.6946C283.645 85.6837 284.583 81.731 286.367 78.1386C289.781 71.9758 294.258 71.8274 295.268 74.3384C296.342 77.0069 293.81 79.5538 293.457 87.1903C293.167 91.4326 294.154 95.6646 296.292 99.3403C296.127 99.7093 295.996 100.093 295.901 100.486C294.574 105.013 293.995 109.726 294.188 114.44L294.195 114.447ZM306.172 104.218C305.96 105.395 304.811 112.123 304.421 114.296C304.239 115.322 304.302 116.148 303.125 116.287C301.914 116.338 300.702 116.216 299.525 115.925C298.742 115.774 296.744 115.626 296.389 114.838C296.338 110.384 296.867 105.942 297.964 101.624C298.047 101.352 298.115 100.499 298.387 100.387C298.598 100.306 298.825 100.275 299.051 100.297C299.726 100.297 306.453 101.131 306.503 101.172C306.93 101.536 306.275 103.69 306.154 104.212L306.172 104.218Z" fill="#191919"/>
<path d="M144.626 250.264C145.127 252.202 145.46 254.181 145.621 256.177C145.938 257.89 145.65 259.66 144.806 261.185C141.206 266.135 130.197 261.041 124.957 257.896C123.399 257.09 122.033 255.96 120.95 254.58C119.867 253.201 119.092 251.606 118.679 249.901C118.412 248.452 116.204 249.058 116.447 250.504C116.933 252.503 117.841 254.375 119.111 255.994C120.381 257.612 121.983 258.94 123.809 259.887C127.764 262.211 132.017 263.988 136.45 265.168C140.014 265.876 144.55 265.672 146.829 262.33C147.817 260.648 148.23 258.689 148.006 256.75C147.846 254.338 147.47 251.945 146.881 249.6C146.767 249.334 146.559 249.119 146.297 248.996C146.035 248.873 145.737 248.85 145.459 248.931C145.181 249.013 144.943 249.194 144.79 249.439C144.636 249.685 144.578 249.978 144.626 250.264Z" fill="#191919"/>
<path d="M397.868 355.706C389.993 345.313 379.594 343.279 371.562 340.984C371.139 340.894 370.779 340.741 370.356 340.622C372.948 340.051 375.4 338.97 377.57 337.441C379.741 335.913 381.585 333.969 382.996 331.721C383.127 331.48 383.177 331.203 383.139 330.932C383.101 330.66 382.977 330.408 382.785 330.213C370.938 319.721 371.676 302.367 371.17 287.825C370.682 273.855 368.335 257.833 355.512 249.69C352.466 247.633 348.92 246.437 345.25 246.23C341.58 246.023 337.922 246.812 334.664 248.513C328.139 242.751 307.387 259.313 311.554 276.692C311.693 277.305 311.961 277.881 312.339 278.382C310.983 282.644 310.122 287.047 309.774 291.506C309.149 296.499 309.404 301.564 310.528 306.469C311.001 308.499 311.878 310.414 313.107 312.098C314.335 313.783 315.89 315.203 317.678 316.274C319.821 317.368 322.217 317.868 324.617 317.723C324.7 320.815 324.398 323.906 323.718 326.924C323.332 328.644 322.775 330.322 322.057 331.932C321.67 332.778 320.871 334.47 322.269 334.828C323.902 335.249 324.773 331.984 325.317 330.393C326.728 326.264 327.121 321.855 326.463 317.541C332.313 316.625 339.414 313.028 342.03 307.866C342.138 307.665 342.17 307.432 342.122 307.209C342.073 306.986 341.947 306.788 341.765 306.65C341.584 306.512 341.359 306.443 341.131 306.456C340.903 306.469 340.688 306.563 340.523 306.721C338.089 309.623 335.051 311.959 331.622 313.568C327.99 315.143 323.202 316.198 319.472 314.443C311.532 310.715 311.763 299.843 312.202 292.449C312.633 287.561 313.369 282.704 314.405 277.907C324.255 266.995 328.974 265.865 330.726 263.336C333.536 271.36 338.685 278.358 345.509 283.429C347.235 284.621 349.125 285.557 351.12 286.205C351.21 286.205 351.3 286.235 351.361 286.205C351.556 286.349 351.739 286.511 351.906 286.687C352.101 286.879 352.353 287.003 352.624 287.041C352.896 287.08 353.172 287.029 353.413 286.898C354.333 286.404 355.398 286.251 356.419 286.467C357.441 286.682 358.353 287.252 358.995 288.075C359.648 288.943 360.08 289.957 360.253 291.029C360.426 292.101 360.336 293.199 359.99 294.229C359.66 295.254 359.115 296.197 358.392 296.995C357.669 297.793 356.784 298.427 355.796 298.856C354.808 299.284 353.74 299.497 352.663 299.48C351.586 299.462 350.526 299.216 349.552 298.756C349.311 298.624 349.034 298.573 348.762 298.611C348.49 298.649 348.238 298.774 348.042 298.967C347.315 300.03 346.811 301.231 346.564 302.495C343.038 314.681 343.448 328.037 343.819 339.877C343.838 340.097 343.911 340.31 344.032 340.496C344.153 340.682 344.317 340.835 344.511 340.942C344.705 341.049 344.922 341.107 345.144 341.11C345.365 341.114 345.584 341.063 345.781 340.961C348.601 342.121 351.632 342.676 354.68 342.59C358.591 342.531 362.493 342.189 366.355 341.567C371.397 344.087 379.63 345.218 386.027 348.836C390.226 351.209 393.829 354.507 396.563 358.48C399.297 362.453 401.09 366.997 401.806 371.766C402.11 373.589 402.362 377.272 402.8 378.494C402.832 378.599 402.894 378.692 402.978 378.763C403.062 378.833 403.165 378.878 403.274 378.89C403.383 378.903 403.494 378.884 403.592 378.834C403.69 378.785 403.772 378.708 403.827 378.613C405.35 374.995 404.461 364.395 397.868 355.706ZM345.736 276.812C345.563 276.916 345.365 276.972 345.163 276.972C344.961 276.972 344.763 276.916 344.591 276.812C340.41 274.187 337.217 270.252 335.51 265.62C334.805 264.201 334.543 262.604 334.756 261.035C334.783 260.934 334.837 260.842 334.912 260.769C334.987 260.696 335.08 260.645 335.182 260.62C335.283 260.595 335.389 260.598 335.489 260.628C335.59 260.658 335.68 260.715 335.751 260.792C336.686 262.241 337.436 263.802 337.983 265.438C339.533 268.642 341.759 271.473 344.508 273.736C345.34 274.436 347.25 275.795 345.736 276.812ZM352.585 252.014C351.276 252.255 350.756 251.157 347.878 250.293C346.078 249.751 344.217 249.857 342.388 249.449C342.307 249.426 342.234 249.379 342.179 249.315C342.124 249.25 342.09 249.171 342.08 249.087C342.071 249.003 342.086 248.918 342.125 248.842C342.164 248.767 342.224 248.705 342.298 248.664C344.179 247.982 346.229 247.919 348.148 248.484C349.597 248.81 352.648 249.569 353.006 251.29C353.037 251.621 352.887 251.983 352.585 252.014Z" fill="#191919"/>
<path d="M222.764 261.153C223.804 255.36 224.006 248.844 220.985 243.565C219.801 241.335 217.998 239.494 215.793 238.263C213.589 237.032 211.075 236.464 208.556 236.626C203.126 237.301 199.556 241.707 195.251 244.62C184.433 251.964 171.748 249.37 164.026 258.53C155.476 268.655 157.116 283.055 162.397 294.305C160.334 295.229 158.635 296.812 157.568 298.805C156.818 300.276 156.447 301.91 156.489 303.561C156.532 305.211 156.986 306.825 157.811 308.255C158.766 309.813 160.083 311.118 161.65 312.058C163.217 312.998 164.987 313.546 166.811 313.655C168.722 313.959 170.679 313.751 172.484 313.052C174.965 319.495 175.886 326.435 175.17 333.302C175.088 333.842 175.068 334.389 175.109 334.933C174.898 334.722 174.691 334.537 174.475 334.328C174.366 334.228 174.228 334.165 174.081 334.149C173.934 334.133 173.786 334.164 173.658 334.238C173.53 334.312 173.429 334.425 173.37 334.561C173.311 334.697 173.297 334.848 173.33 334.992C174.349 338.704 178.19 341.049 181.565 342.383C188.825 345.097 196.802 345.204 204.132 342.687C207.548 341.499 211.852 339.697 213.967 336.652C214.66 335.656 213.364 334.749 212.459 335.143C211.488 335.603 210.559 336.148 209.683 336.771C209.622 335.14 208.04 334.598 207.752 328.296C207.712 327.421 207.842 326.516 207.752 325.67C209.672 325.428 211.526 324.816 213.213 323.87C215.133 322.609 216.734 320.921 217.891 318.937C219.048 316.953 219.729 314.727 219.88 312.436C220.128 306.648 219.285 300.866 217.396 295.39C215.821 289.425 213.626 283.641 210.848 278.132C217.463 273.889 221.306 269.289 222.764 261.153ZM217.396 307.765C217.729 309.98 217.584 312.241 216.969 314.396C216.355 316.55 215.286 318.548 213.834 320.254C210.637 323.483 205.448 323.665 201.164 323.301C196.577 322.968 192.234 321.11 188.825 318.022C188.695 317.902 188.527 317.831 188.35 317.822C188.173 317.814 187.998 317.868 187.857 317.976C187.717 318.084 187.618 318.238 187.58 318.411C187.542 318.584 187.566 318.765 187.649 318.922C188.681 320.872 190.293 322.453 192.263 323.447C196.475 325.44 201.133 326.303 205.779 325.951C205.023 329.165 205.266 332.533 206.474 335.606C206.821 336.474 207.107 337.476 207.921 337.928C204.163 340.02 200.003 341.288 195.717 341.647C191.43 342.006 187.117 341.449 183.063 340.012C180.677 339.104 178.463 337.798 176.516 336.148C178.091 335.093 178.01 332.346 178.174 330.658C178.874 323.47 176.612 314.782 174.554 311.923C175.007 311.632 175.384 311.236 175.652 310.769C175.919 310.301 176.071 309.776 176.093 309.238C176.091 309.041 176.038 308.848 175.939 308.678C175.839 308.508 175.697 308.367 175.526 308.269C175.355 308.171 175.161 308.12 174.964 308.121C174.767 308.122 174.573 308.174 174.403 308.273C172.571 309.146 172.115 311.614 166.8 310.777C165.458 310.671 164.162 310.246 163.017 309.538C161.873 308.829 160.915 307.857 160.223 306.702C159.675 305.702 159.37 304.587 159.333 303.447C159.295 302.307 159.527 301.174 160.009 300.14C160.491 299.106 161.21 298.2 162.107 297.496C163.004 296.791 164.055 296.308 165.173 296.085C167.141 295.526 169.239 295.649 171.128 296.431C173.017 297.214 174.586 298.612 175.582 300.398C176.273 301.667 178.57 301.152 178.419 299.644C177.829 293.953 178.68 288.205 180.894 282.929C193.35 285.591 201.621 283.723 209.314 279.19C210.245 281.923 216.543 297.03 217.396 307.765ZM212.567 265.617C215.124 261.944 216.551 257.602 216.671 253.128C216.73 251.74 216.491 250.351 216.55 248.963C216.554 248.804 216.605 248.65 216.695 248.519C216.785 248.388 216.911 248.286 217.058 248.226C217.205 248.165 217.367 248.149 217.523 248.178C217.679 248.208 217.823 248.282 217.938 248.392C220.235 250.558 219.513 254.968 219.115 257.803C218.677 261.221 217.38 264.473 215.344 267.253C214.12 268.858 211.332 267.249 212.567 265.62V265.617Z" fill="#191919"/>
<path d="M51.7036 178.581C52.6833 178.732 53.6804 178.732 54.6601 178.581C55.7323 178.453 56.7575 178.067 57.6481 177.456C58.4516 176.862 59.0774 176.059 59.4579 175.135C59.8384 174.211 59.9591 173.2 59.8069 172.212C59.6547 171.225 59.2354 170.297 58.5944 169.53C57.9534 168.764 57.115 168.187 56.1699 167.862C54.8613 167.479 53.5157 167.237 52.1559 167.14C52.2444 170.959 52.0934 174.78 51.7036 178.581Z" fill="#D33B4D"/>
<path d="M92.0416 201.299C89.8274 200.316 87.8741 198.828 86.3379 196.954C85.6629 196.279 83.8629 194.403 83.2914 193.636C87.8241 187.103 90.1856 179.31 90.0414 171.361C90.4171 155.275 78.6991 135.943 60.3234 132.26C52.083 130.843 43.6058 132.015 36.0593 135.615C28.5127 139.215 22.2681 145.067 18.1854 152.364C11.6896 163.99 10.0449 180.448 16.8894 193.363C20.7534 200.451 26.4401 206.377 33.3616 210.531C42.2761 215.071 55.1326 215.197 62.7466 213.035C67.7799 211.604 70.9456 208.891 75.2971 204.71C75.3181 204.738 75.3453 204.761 75.3765 204.776C75.4077 204.792 75.4422 204.8 75.4771 204.8C78.3245 205.871 81.3969 206.204 84.4074 205.765C86.4909 205.475 91.0179 204.19 92.2824 202.629C92.4021 202.549 92.496 202.437 92.5523 202.304C92.6087 202.172 92.6251 202.026 92.5995 201.885C92.5739 201.743 92.5074 201.613 92.4082 201.509C92.3091 201.404 92.1816 201.332 92.0416 201.299ZM39.3916 166.604C39.4583 166.116 39.6959 165.667 40.0622 165.338C40.4285 165.009 40.8998 164.82 41.3922 164.805C41.8846 164.791 42.3662 164.951 42.7514 165.258C43.1365 165.566 43.4002 165.999 43.4956 166.483C44.1234 170.152 38.7774 169.268 39.3939 166.604H39.3916ZM40.5166 177.555C40.7346 177.204 41.0539 176.928 41.4323 176.763C41.8108 176.597 42.2305 176.551 42.6359 176.629C43.0413 176.708 43.4133 176.908 43.7026 177.202C43.9919 177.497 44.185 177.873 44.2561 178.279C44.9379 182.233 38.4579 180.833 40.5121 177.555H40.5166ZM53.9401 181.929C52.0411 182.028 48.7651 182.019 48.5109 179.575C48.426 177.11 48.6078 174.642 49.0531 172.216C49.3659 169.711 49.7034 167.18 50.1781 164.642C50.2046 164.534 50.2565 164.434 50.3295 164.35C50.4025 164.265 50.4946 164.2 50.598 164.159C50.7015 164.117 50.8133 164.101 50.9242 164.112C51.0351 164.122 51.1418 164.159 51.2356 164.219C51.3886 164.037 52.2841 163.33 55.3374 163.978C66.0136 166.251 65.9934 181.297 53.9356 181.929H53.9401Z" fill="#D33B4D"/>
</svg>
