<svg width="451" height="451" viewBox="0 0 451 451" fill="none" xmlns="http://www.w3.org/2000/svg">
<path d="M358.73 253.961C360.534 253.866 362.276 253.271 363.762 252.244C365.247 251.216 366.419 249.797 367.145 248.143C367.764 246.039 365.536 245.297 364.792 247.648C364.169 248.935 363.23 250.042 362.061 250.865C360.892 251.689 359.533 252.2 358.111 252.353C357.616 252.476 356.626 254.002 358.73 253.961Z" fill="#191919"/>
<path d="M362.442 236.139C361.713 233.412 357.985 235.892 360.214 238.49C360.833 239.233 363.2 238.981 362.442 236.139Z" fill="#191919"/>
<path d="M357.121 224.63C355.387 225.119 355.389 227.105 357.614 227.105C360.102 226.922 362.6 227.307 364.918 228.23C365.077 228.284 365.25 228.281 365.408 228.223C365.566 228.165 365.7 228.054 365.786 227.91C365.872 227.765 365.907 227.595 365.884 227.429C365.86 227.262 365.781 227.108 365.658 226.993C364.49 226.007 363.122 225.285 361.648 224.877C360.175 224.469 358.63 224.385 357.121 224.63Z" fill="#191919"/>
<path d="M350.438 230.809C348.785 229.874 346.836 229.609 344.993 230.067C343.868 230.438 344.003 231.675 345.117 231.799C346.571 231.849 348.001 232.186 349.325 232.789C350.807 233.417 351.172 231.446 350.438 230.809Z" fill="#191919"/>
<path d="M352.416 239.359C352.065 242.11 352.023 244.892 352.293 247.652C352.79 250.87 360.089 248.518 358.977 246.786C358.359 245.796 355.884 247.911 354.273 247.157C353.843 244.581 353.678 241.968 353.78 239.359C353.78 239.178 353.708 239.005 353.58 238.877C353.452 238.749 353.279 238.677 353.098 238.677C352.917 238.677 352.744 238.749 352.616 238.877C352.488 239.005 352.416 239.178 352.416 239.359Z" fill="#191919"/>
<path d="M349.941 240.223C351.793 239.098 350.067 235.273 348.458 236.51C347.219 237.253 347.707 241.575 349.941 240.223Z" fill="#191919"/>
<path d="M337.442 250.249C339.175 255.941 343.382 263.366 348.208 266.831C350.436 268.44 351.55 266.831 349.333 264.728C344.576 260.719 340.985 255.503 338.938 249.628C338.856 249.43 338.698 249.272 338.5 249.19C338.301 249.108 338.078 249.108 337.88 249.19C337.681 249.273 337.524 249.43 337.442 249.629C337.36 249.828 337.36 250.051 337.442 250.249Z" fill="#191919"/>
<path d="M377.663 256.189C378.268 255.678 377.787 254.704 377.044 255.064C370.114 258.034 365.288 268.8 368.629 276.475C369.124 277.465 370.486 277.094 370.238 275.978C368.382 266.46 370.828 261.954 377.663 256.189Z" fill="#191919"/>
<path d="M336.329 258.54C337.301 261.634 338.886 264.5 340.992 266.966C343.097 269.433 345.678 271.449 348.58 272.895C350.189 273.638 351.798 272.4 349.323 270.791C344.23 267.873 340.199 263.409 337.814 258.045C337.195 257.055 336.055 257.433 336.329 258.54Z" fill="#191919"/>
<path d="M341.65 250.001C344.435 255.759 349.108 260.389 354.891 263.119C362.935 266.708 364.546 261.139 371.476 256.56C372.219 256.065 371.845 255.075 370.979 255.323C364.792 256.808 364.173 264.975 355.51 260.768C350.457 257.959 346.199 253.914 343.135 249.011C342.992 248.847 342.793 248.74 342.576 248.711C342.36 248.683 342.14 248.734 341.958 248.855C341.777 248.976 341.645 249.159 341.588 249.37C341.532 249.581 341.554 249.805 341.65 250.001Z" fill="#191919"/>
<path d="M352.416 282.559C353.037 283.547 354.646 282.683 354.149 281.693C351.797 275.379 342.392 274.018 339.051 268.449C338.432 267.459 337.319 268.449 337.701 269.439C341.155 275.989 348.22 275.858 352.416 282.559Z" fill="#191919"/>
<path d="M340.784 230.694C341.238 236.761 342.444 242.747 344.373 248.516C344.62 249.383 346.229 249.011 345.981 248.021C343.372 239.659 342.323 230.888 342.888 222.146C343.763 222.465 344.696 222.598 345.625 222.536C346.555 222.475 347.462 222.221 348.288 221.79C349.115 221.36 349.842 220.762 350.425 220.035C351.008 219.308 351.433 218.468 351.674 217.568C355.017 222.518 364.917 222.023 368.011 217.568C367.145 224.374 375.065 236.378 376.674 234.15C377.416 233.025 378.159 231.799 379.52 231.428C384.594 229.819 385.46 239.471 382.366 240.833C381.016 241.451 378.282 239.708 379.891 244.05C382.028 249.719 383.846 255.503 385.336 261.375C385.584 262.489 386.945 261.994 386.945 260.88C385.856 254.878 384.198 248.994 381.995 243.305C383.146 243.159 384.213 242.626 385.022 241.794C385.831 240.963 386.335 239.881 386.45 238.727C387.897 238.201 389.19 237.321 390.21 236.167C391.231 235.013 391.946 233.622 392.29 232.121C392.635 230.62 392.599 229.057 392.184 227.573C391.769 226.09 390.99 224.734 389.917 223.629C396.6 216.947 395.362 205.931 385.089 206.054C385.726 204.028 385.735 201.856 385.115 199.824C384.494 197.792 383.274 195.995 381.613 194.669C379.953 193.344 377.93 192.552 375.812 192.397C373.693 192.243 371.577 192.733 369.741 193.803C366.029 183.779 350.808 186.749 350.436 195.659C340.784 187.739 328.283 200.114 335.708 209.643C327.295 209.778 326.553 229.828 340.784 230.694Z" fill="#191919"/>
<path d="M357.74 289.48C358.481 290.309 359.457 290.893 360.539 291.152C361.621 291.411 362.756 291.333 363.792 290.93C364.828 290.526 365.717 289.815 366.338 288.893C366.959 287.97 367.284 286.88 367.268 285.768C369.316 284.967 371.302 284.016 373.208 282.921C372.931 281.24 372.298 279.636 371.352 278.219C369.425 278.717 367.558 279.423 365.783 280.322C365.068 279.436 364.089 278.8 362.988 278.507C361.887 278.214 360.721 278.279 359.66 278.693C358.598 279.106 357.696 279.847 357.083 280.807C356.471 281.768 356.18 282.898 356.252 284.035C355.015 284.777 353.654 285.644 353.159 286.015C353.097 287.725 353.569 289.411 354.509 290.841C355.51 290.47 356.738 289.984 357.74 289.48ZM358.851 284.035C359.243 279.704 364.926 280.199 364.422 285.644C364.051 290.099 358.383 289.235 358.851 284.035Z" fill="#191919"/>
<path d="M330.639 331.31C330.268 325.122 330.02 310.518 331.629 305.073C331.876 304.083 333.114 303.835 332.979 305.939C332.563 314.352 332.645 322.783 333.226 331.186C342.571 330.885 351.925 331.34 361.196 332.547C357.234 322.152 351.665 289.851 351.046 285.644C350.428 281.436 342.013 278.588 337.546 274.257C327.151 277.969 312.67 289.604 301.409 305.444C305.552 314.474 308.946 323.828 311.557 333.414C317.873 332.359 324.244 331.656 330.639 331.31Z" fill="#191919"/>
<path d="M388.925 263.614C383.851 268.935 379.52 271.534 371.848 271.658C373.456 282.683 383.111 298.761 391.526 310.52C392.841 307.722 393.797 304.769 394.37 301.731C394.62 299.999 395.72 300.617 395.72 301.607C395.518 305.512 394.682 309.358 393.245 312.995C403.395 326.855 416.645 340.22 421.595 357.052C427.164 349.998 448.946 311.377 433.849 285.767C424.941 270.296 405.51 262.376 388.925 263.614Z" fill="#191919"/>
<path d="M407.118 375.484C415.907 375.608 419.988 375.608 427.413 375.608C431.252 366.079 435.212 347.393 436.573 331.922C428.651 357.547 416.647 369.674 407.118 375.484Z" fill="#191919"/>
<path d="M373.332 367.818C359.362 369.141 345.532 371.666 331.997 375.367C340.041 375.243 369.001 374.996 379.148 375.243C376.521 373.394 374.498 370.812 373.332 367.818Z" fill="#191919"/>
<path d="M371.364 364.724C372.851 364.499 372.601 362.249 371.116 362.497C335.316 367.521 329.37 371.81 314.063 373.139C311.959 373.263 310.238 375.491 313.073 375.491C322.233 375.491 337.33 370.788 347.23 368.932C355.884 367.199 362.703 366.063 371.364 364.724Z" fill="#191919"/>
<path d="M316.031 335.022C310.582 336.111 311.948 337.868 313.928 337.373C328.037 334.403 347.095 335.022 361.205 337.373C362.566 337.621 363.185 335.517 361.823 335.27C347.837 332.918 330.004 332.234 316.031 335.022Z" fill="#191919"/>
<path d="M403.159 331.805C403.773 332.307 405.015 331.557 404.509 330.68C392.814 316.765 382.417 301.811 373.445 286.004C372.95 285.138 371.465 286.004 371.836 286.87C376.55 296.284 395.052 325.197 403.159 331.805Z" fill="#191919"/>
<path d="M418.504 358.042C418.999 356.804 417.379 355.814 416.771 356.917C413.059 363.476 408.604 370.034 401.426 373.252C394.125 376.593 386.079 375.603 380.758 369.292C369.249 355.679 360.834 312.367 357.738 292.686C357.491 291.449 355.758 291.944 356.006 293.181C358.604 311.991 367.031 356.298 379.273 370.777C388.649 381.95 408.435 379.187 418.504 358.042Z" fill="#191919"/>
<path d="M233.981 308.659C234.847 308.169 234.228 307.174 233.238 307.309C228.783 308.175 225.813 309.413 224.45 313.87C223.075 317.93 222.735 322.268 223.46 326.493C223.707 327.618 225.316 327.359 225.44 326.245C225.564 321.419 224.821 320.429 226.43 315.108C227.791 310.146 230.028 310.909 233.981 308.659Z" fill="#191919"/>
<path d="M235.59 289.727C235.454 292.411 235.537 295.101 235.837 297.771C235.961 298.761 237.693 298.637 237.817 297.771C237.873 295.085 237.749 292.397 237.446 289.727C237.32 288.859 235.61 288.859 235.59 289.727Z" fill="#191919"/>
<path d="M244.995 288.737C248.3 286.937 253.545 283.416 255.761 279.083C256.38 277.845 256.258 277.474 255.39 276.36C254.296 275.123 253.003 274.078 251.565 273.266C250.082 272.524 249.956 273.019 248.845 273.761C241.541 278.835 230.395 277.845 222.729 273.885C222.11 273.514 220.378 274.504 221.986 275.37C231.517 280.199 241.786 281.065 250.575 274.875C251.991 275.773 253.282 276.855 254.413 278.093C251.482 282.258 247.514 285.586 242.902 287.747C241.17 285.644 239.437 283.664 237.705 281.56C235.093 278.66 234.022 283.88 229.783 288.119C225.493 286 221.394 283.516 217.531 280.694C218.769 279.454 219.883 278.219 221.12 276.979C221.863 276.36 220.873 275.123 219.995 275.629C218.691 276.574 217.488 277.652 216.406 278.846C215.963 279.357 215.74 280.023 215.786 280.698C215.833 281.372 216.145 282.001 216.654 282.446C218.634 284.303 228.658 290.738 230.269 289.995C232.991 288.645 234.476 285.045 236.332 282.818C238.065 284.55 240.416 288.015 241.777 289.376C242.644 290.346 244.12 289.214 244.995 288.737Z" fill="#191919"/>
<path d="M258.114 238.985C258.563 237.081 258.729 235.122 258.607 233.169C258.36 231.065 256.382 230.942 256.503 233.293C256.751 236.387 255.639 239.975 256.011 240.718C256.877 242.824 259.97 239.368 261.453 241.586C263.557 245.051 258.978 251.61 256.132 249.878C255.392 249.383 254.782 249.754 254.276 251.363C253.519 253.529 252.523 255.605 251.306 257.55C244.623 267.326 231.134 269.801 223.709 261.375C221.092 257.985 219.387 253.98 218.759 249.743C218.74 249.464 218.648 249.195 218.493 248.963C218.338 248.73 218.125 248.542 217.875 248.417C217.625 248.292 217.347 248.235 217.068 248.25C216.789 248.266 216.519 248.353 216.284 248.505C213.686 250.485 211.334 247.515 211.087 243.803C210.716 238.727 213.809 238.355 216.037 240.088C216.176 240.2 216.346 240.266 216.524 240.277C216.702 240.287 216.879 240.241 217.03 240.145C217.18 240.049 217.297 239.909 217.363 239.743C217.429 239.577 217.441 239.395 217.398 239.222C217.274 238.097 216.656 231.797 216.656 230.435C216.532 229.198 215.047 229.693 215.047 230.807C215.171 233.034 215.295 235.385 215.542 237.489C214.859 237.158 214.106 236.998 213.348 237.024C212.59 237.05 211.849 237.261 211.191 237.637C210.532 238.014 209.976 238.546 209.57 239.187C209.163 239.828 208.92 240.558 208.859 241.314C207.869 247.999 212.572 253.196 216.903 250.721C218.141 256.166 220.244 261.735 224.826 265.076C224.576 267.304 224.454 269.531 224.207 271.759C224.083 273.739 225.444 273.986 225.939 272.996C226.274 270.741 226.48 268.469 226.558 266.19C229.591 267.771 232.991 268.512 236.407 268.338C239.823 268.164 243.13 267.081 245.987 265.2C246.11 267.428 245.987 269.779 246.234 272.006C246.237 272.147 246.269 272.286 246.328 272.414C246.388 272.541 246.473 272.655 246.58 272.747C246.686 272.84 246.811 272.909 246.946 272.95C247.08 272.991 247.222 273.003 247.362 272.985C247.502 272.968 247.636 272.921 247.757 272.848C247.877 272.775 247.981 272.678 248.062 272.562C248.142 272.446 248.197 272.315 248.223 272.177C248.25 272.038 248.247 271.896 248.214 271.759C247.843 268.046 248.09 265.695 247.967 263.839C251.714 260.868 254.44 256.801 255.765 252.206C256.515 252.385 257.295 252.388 258.046 252.217C258.797 252.045 259.499 251.703 260.096 251.216C265.91 247.279 265.413 236.758 258.114 238.985Z" fill="#191919"/>
<path d="M227.299 228.095C226.047 228.071 224.804 228.312 223.652 228.803C222.5 229.293 221.464 230.022 220.614 230.942C219.872 231.684 220.367 233.293 221.852 232.55C223.451 231.402 225.336 230.717 227.299 230.57C229.526 230.323 229.164 228.228 227.299 228.095Z" fill="#191919"/>
<path d="M257.37 305.691C257.023 302.684 255.891 299.82 254.088 297.387C252.285 294.955 249.875 293.039 247.098 291.831C245.748 291.336 245.613 292.698 246.603 293.181C252.915 296.523 255.39 302.958 255.639 309.766C255.885 315.335 253.286 323.997 259.845 327.091C260.97 327.586 261.827 325.741 260.711 325.235C255.142 322.647 258.679 314.115 257.37 305.691Z" fill="#191919"/>
<path d="M228.905 293.935C229.51 293.181 228.781 292.202 227.915 292.81C223.107 296.926 219.584 302.339 217.768 308.402C216.901 311.622 217.149 314.963 216.406 318.057C215.54 321.646 212.446 323.007 209.6 324.987C208.61 325.606 209.476 327.338 210.59 326.843C213.365 325.709 215.735 323.77 217.396 321.275C219.995 316.82 217.396 311.251 222.717 301.967C224.576 299.139 226.645 296.454 228.905 293.935Z" fill="#191919"/>
<path d="M221.48 320.791C221.905 316.966 221.603 312.992 223.707 309.527C224.655 308.096 225.895 306.882 227.346 305.965C228.796 305.048 230.425 304.448 232.124 304.206C233.609 303.959 233.474 302.474 232.124 302.474C230.162 302.538 228.243 303.065 226.523 304.011C224.803 304.958 223.33 306.296 222.224 307.919C220.089 311.804 219.265 316.275 219.873 320.667C219.871 321.533 221.369 321.781 221.48 320.791Z" fill="#191919"/>
<path d="M236.588 319.684C236.138 322.908 236.836 370.795 236.96 373.394C236.96 374.755 239.187 374.631 239.187 373.27C239.187 359.545 238.568 334.782 238.321 319.808C238.188 319.059 236.717 318.687 236.588 319.684Z" fill="#191919"/>
<path d="M249.821 342.447C248.402 341.913 247.138 341.034 246.144 339.889C245.15 338.744 244.457 337.369 244.128 335.888C242.767 329.33 249.573 323.018 246.108 316.212C245.502 314.939 244.497 313.899 243.246 313.249C241.995 312.599 240.566 312.376 239.176 312.612C238.996 312.612 238.823 312.684 238.695 312.812C238.567 312.939 238.496 313.112 238.496 313.293C238.496 313.473 238.567 313.646 238.695 313.774C238.823 313.902 238.996 313.973 239.176 313.973C239.979 314.004 240.767 314.197 241.494 314.54C242.22 314.884 242.869 315.372 243.401 315.973C243.933 316.575 244.338 317.279 244.591 318.041C244.844 318.804 244.939 319.61 244.871 320.411C244.871 323.999 242.891 327.341 242.148 330.806C241.393 333.53 241.686 336.439 242.969 338.958C244.251 341.478 246.431 343.426 249.078 344.418C250.44 345.046 251.178 342.96 249.821 342.447Z" fill="#191919"/>
<path d="M208.61 327.968C208.479 326.978 208.61 323.637 206.877 324.143C205.359 324.424 203.868 324.838 202.422 325.381C200.442 326.247 199.452 328.475 202.175 327.732C203.412 327.361 204.773 326.99 206 326.607C206.63 334.627 209.843 342.226 215.157 348.266C207.907 354.459 200.07 359.93 191.757 364.601C189.406 365.962 190.025 368.066 192.005 366.952C200.999 362.257 209.359 356.436 216.881 349.627C217.252 349.256 217.747 348.761 217.252 348.018C212.817 341.086 209.67 336.019 208.61 327.968Z" fill="#191919"/>
<path d="M313.928 355.567C312.558 342.573 303.286 317.202 298.088 305.939C290.166 288.985 277.667 282.797 260.095 278.959C259.865 278.909 259.624 278.953 259.427 279.081C259.229 279.208 259.09 279.409 259.041 279.639C258.991 279.87 259.035 280.11 259.163 280.307C259.29 280.505 259.491 280.644 259.721 280.694C274.945 286.015 286.206 287.995 294.499 303.711C300.439 314.975 313.557 349.503 311.701 362.744C310.216 373.016 304.771 372.521 297.593 373.016C284.721 373.882 262.693 356.681 253.534 348.266C259.721 343.932 263.683 334.032 264.797 327.102C274.65 329.806 284.161 333.626 293.147 338.487C294.387 339.106 295.377 337.497 294.139 336.878C288.417 333.668 282.459 330.897 276.317 328.587C275.783 325.634 274.505 322.866 272.605 320.543C271.615 319.677 271.12 320.791 271.491 321.41C272.699 323.37 273.617 325.496 274.213 327.721C271.282 326.599 268.26 325.729 265.18 325.122C262.828 324.751 262.828 325.122 262.457 327.102C258.371 346.781 249.09 346.283 251.689 349.132C260.848 359.403 282.876 374.872 297.233 375.119C310.711 375.484 315.404 369.553 313.928 355.567Z" fill="#191919"/>
<path d="M251.058 316.212C250.905 314.404 250.227 312.679 249.108 311.25C247.989 309.821 246.477 308.749 244.758 308.166C242.639 307.756 240.48 307.59 238.323 307.671C237.331 307.671 237.331 308.909 238.2 309.159C241.788 310.149 244.758 308.785 247.357 312.5C250.203 316.46 248.595 320.296 249.09 322.647C249.157 322.832 249.277 322.994 249.435 323.112C249.592 323.231 249.781 323.301 249.977 323.314C250.174 323.327 250.37 323.282 250.542 323.186C250.714 323.09 250.854 322.946 250.946 322.771C251.363 320.608 251.401 318.389 251.058 316.212Z" fill="#191919"/>
<path d="M235.094 311.881C233.668 312.334 232.355 313.087 231.245 314.091C230.134 315.094 229.252 316.324 228.657 317.697C223.46 328.587 237.693 336.631 217.148 344.182C216.896 344.257 216.683 344.427 216.553 344.655C216.423 344.884 216.386 345.153 216.449 345.409C216.513 345.664 216.673 345.884 216.895 346.025C217.118 346.165 217.386 346.214 217.643 346.162C220.92 345.39 223.971 343.864 226.553 341.705C238.064 332.052 221.603 322.771 235.713 313.242C236.456 312.623 236.087 311.647 235.094 311.881Z" fill="#191919"/>
<path d="M224.327 239.109C225.92 240.49 227.927 236.139 225.814 235.025C223.955 234.035 223.202 238.132 224.327 239.109Z" fill="#191919"/>
<path d="M249.326 307.424C252.514 310.43 252.296 314.849 252.42 318.935C252.42 319.925 253.905 319.801 254.152 318.935C254.771 314.48 254.276 309.156 250.811 305.815C247.098 302.35 241.406 301.855 236.703 302.598C236.596 302.602 236.491 302.63 236.396 302.678C236.3 302.727 236.215 302.795 236.148 302.878C236.08 302.961 236.031 303.058 236.004 303.162C235.977 303.266 235.972 303.374 235.989 303.48C236.007 303.586 236.047 303.687 236.106 303.776C236.166 303.865 236.244 303.941 236.335 303.998C236.425 304.055 236.527 304.092 236.634 304.106C236.74 304.121 236.848 304.113 236.951 304.083C241.158 304.083 245.951 304.242 249.326 307.424Z" fill="#191919"/>
<path d="M207.001 236.015C208.113 237.008 209.352 235.273 208.362 234.283C201.185 227.105 201.185 216.213 206.135 207.798C220.366 183.293 262.693 188.246 271.479 213.491C273.003 217.526 273.162 221.95 271.933 226.085C270.703 230.22 268.154 233.838 264.673 236.387C263.931 237.005 264.549 238.367 265.539 237.872C275.439 232.922 277.172 219.928 273.088 210.647C260.961 183.048 213.807 181.563 202.299 210.647C198.834 219.185 199.936 229.715 207.001 236.015Z" fill="#191919"/>
<path d="M210.837 228.59C218.377 229.432 227.67 224.135 231.382 217.7C231.495 217.519 231.535 217.302 231.494 217.093C231.453 216.883 231.335 216.697 231.162 216.572C230.99 216.446 230.776 216.391 230.564 216.417C230.352 216.442 230.158 216.547 230.021 216.71C224.452 223.517 219.376 225.744 210.837 226.734C210.617 226.77 210.417 226.883 210.273 227.053C210.128 227.223 210.049 227.439 210.049 227.662C210.049 227.885 210.128 228.101 210.273 228.271C210.417 228.441 210.617 228.554 210.837 228.59Z" fill="#191919"/>
<path d="M234.599 247.65C235.468 247.034 235.465 246.165 234.599 245.794C233.98 245.546 230.639 246.413 230.392 245.794C229.897 244.556 231.753 239.233 232.124 236.634C232.372 234.778 231.505 234.778 230.639 236.263C229.773 237.748 227.039 245.299 228.286 247.526C229.525 249.383 233.366 248.521 234.599 247.65Z" fill="#191919"/>
<path d="M184.476 299.503C192.014 288.976 200.319 284.653 212.694 280.817C213.931 280.446 213.56 278.466 212.322 278.837C198.091 283.045 190.788 287.005 182.125 299.008C180.888 300.493 183.237 301.234 184.476 299.503Z" fill="#191919"/>
<path d="M261.338 229.704C261.519 229.65 261.675 229.536 261.782 229.38C261.889 229.225 261.939 229.038 261.924 228.85C261.91 228.662 261.832 228.485 261.703 228.347C261.573 228.21 261.401 228.121 261.215 228.095C253.54 227.972 244.259 226.858 238.442 221.289C232.997 216.092 230.275 207.056 229.892 199.754C229.769 198.517 227.912 198.404 228.036 199.631C228.16 207.303 231.636 217.329 237.194 222.65C242.751 227.972 253.769 230.865 261.338 229.704Z" fill="#191919"/>
<path d="M231.258 254.704C235.27 256.835 240.292 255.57 241.653 251.734C241.901 250.868 240.911 250.125 240.292 250.868C236.692 255.075 233.609 253.343 231.742 253.467C230.763 253.343 230.525 254.315 231.258 254.704Z" fill="#191919"/>
<path d="M247.222 233.788C246.286 231.088 241.035 228.095 238.56 228.962C237.57 229.333 237.199 231.313 238.56 231.56C241.31 231.918 243.893 233.081 245.985 234.902C246.604 235.397 247.569 234.787 247.222 233.788Z" fill="#191919"/>
<path d="M239.302 239.975C241.658 239.507 241.53 235.149 239.674 235.644C237.939 236.015 237.325 240.369 239.302 239.975Z" fill="#191919"/>
<path d="M307.617 161.761C308.857 161.396 310.092 161.018 311.33 160.636C310.587 163.73 309.721 166.823 308.978 169.917C307.741 174.372 309.473 174.743 310.463 173.135C313.557 168.308 316.775 163.358 320.116 158.656C324.697 152.097 325.808 152.716 317.393 152.963C318.878 150.115 320.363 147.269 321.725 144.413C323.086 141.558 313.928 144.785 313.062 145.527C312.888 145.638 312.762 145.81 312.707 146.009C312.652 146.207 312.673 146.419 312.765 146.604C312.857 146.788 313.015 146.932 313.207 147.007C313.398 147.083 313.612 147.085 313.805 147.012C314.795 146.765 316.898 145.775 319.25 145.28L315.166 153.449C314.918 154.068 315.166 154.811 315.908 154.811C317.517 154.811 319.25 154.687 320.858 154.687C317.765 159.142 314.671 163.721 311.577 168.176L314.176 159.266C314.241 159.088 314.257 158.895 314.221 158.709C314.184 158.523 314.098 158.35 313.97 158.21C313.842 158.069 313.679 157.967 313.497 157.913C313.315 157.859 313.122 157.856 312.938 157.904C311.701 158.276 310.34 158.771 309.113 159.142C309.856 155.553 310.846 151.964 311.712 148.25C311.96 147.26 310.475 147.012 310.103 147.878C308.663 151.918 307.505 156.053 306.638 160.253C306.256 161.018 306.753 162.013 307.617 161.761Z" fill="#191919"/>
<path d="M158.115 255.334C158.736 255.829 159.726 255.334 159.355 254.591C158.487 252.116 157.744 249.641 159.603 247.042C160.363 246.023 161.387 245.231 162.565 244.751C163.743 244.271 165.029 244.121 166.285 244.318C166.488 244.317 166.686 244.25 166.847 244.127C167.009 244.004 167.127 243.833 167.183 243.637C167.239 243.442 167.23 243.234 167.157 243.044C167.084 242.854 166.952 242.693 166.78 242.585C163.315 240.976 156.507 243.946 156.507 250.507C156.41 251.38 156.504 252.264 156.781 253.097C157.059 253.93 157.514 254.693 158.115 255.334Z" fill="#191919"/>
<path d="M153.413 269.925C153.425 270.196 153.542 270.451 153.738 270.638C153.933 270.825 154.194 270.93 154.465 270.93C154.736 270.93 154.996 270.825 155.192 270.638C155.388 270.451 155.504 270.196 155.517 269.925C155.784 267.646 155.616 265.336 155.022 263.119C153.784 258.788 149.7 257.179 149.824 252.848C149.948 250.249 150.443 247.65 150.567 245.175C150.564 244.973 150.486 244.779 150.347 244.632C150.209 244.484 150.021 244.394 149.819 244.378C149.617 244.363 149.417 244.423 149.258 244.548C149.098 244.672 148.991 244.852 148.958 245.052C148.463 247.527 147.968 250.002 147.72 252.477C147.225 257.922 150.938 259.407 152.423 262.872C153.422 265.079 153.766 267.528 153.413 269.925Z" fill="#191919"/>
<path d="M154.774 223.764L156.63 241.955C156.754 242.698 158.115 242.698 158.239 241.832C158.858 237.253 157.249 228.219 156.259 223.382C156.135 222.65 154.65 222.898 154.774 223.764Z" fill="#191919"/>
<path d="M167.274 257.179C167.756 258.176 169.007 257.427 168.759 256.56C168.388 254.457 167.522 251.982 171.606 251.982C174.947 251.982 175.431 254.952 175.318 257.674C175.071 262.748 170.739 267.079 170.739 271.658C170.744 271.916 170.842 272.165 171.015 272.356C171.189 272.548 171.426 272.671 171.683 272.701C171.94 272.731 172.199 272.667 172.412 272.521C172.626 272.375 172.779 272.156 172.843 271.905C174.081 266.832 174.576 267.327 176.308 263.119C177.805 259.984 178.027 256.391 176.927 253.095C174.452 247.527 163.337 249.059 167.274 257.179Z" fill="#191919"/>
<path d="M161.707 250.744C161.468 252.578 161.814 254.44 162.697 256.065C162.797 256.211 162.946 256.317 163.117 256.364C163.288 256.412 163.471 256.397 163.632 256.323C163.793 256.249 163.923 256.121 163.999 255.96C164.075 255.8 164.092 255.618 164.047 255.446C163.552 252.848 163.057 249.754 165.532 248.393C166.621 247.726 167.86 247.343 169.135 247.278C170.411 247.213 171.682 247.469 172.833 248.021C173.699 248.516 174.442 247.155 173.823 246.536C171.731 243.938 162.449 244.928 161.707 250.744Z" fill="#191919"/>
<path d="M105.767 229.952C105.024 230.076 104.282 230.199 103.663 230.323C102.549 226.858 99.2079 223.269 95.1242 224.754C90.7929 226.363 90.6669 231.066 90.9167 233.169C87.3167 233.541 83.6132 234.036 80.0244 234.407C79.821 234.455 79.6414 234.574 79.5176 234.742C79.3938 234.91 79.334 235.117 79.3489 235.326C79.3638 235.534 79.4524 235.731 79.5988 235.88C79.7453 236.029 79.94 236.121 80.1482 236.139C83.8607 235.892 87.5732 235.644 91.2879 235.521C93.4659 246.656 106.046 243.634 104.282 232.551C104.9 232.427 105.519 232.427 106.014 232.303C107.389 241.933 118.585 242.23 117.523 230.818C118.513 230.818 120.617 230.323 119.627 228.838C119.132 228.096 118.018 228.591 117.275 228.714C115.295 220.547 106.138 221.537 105.767 229.952ZM92.8967 234.159C92.5254 231.313 93.1441 228.343 95.0004 227.229C98.0942 225.249 101.188 228.343 102.178 232.303C104.225 241.778 94.0982 243.785 92.8967 234.159ZM113.068 237.377C108.523 238.952 105.47 228.627 109.479 225.621C114.805 221.451 118.292 235.557 113.063 237.377H113.068Z" fill="#191919"/>
<path d="M106.015 243.938C103.168 244.185 103.416 245.423 105.272 245.67C106.51 245.794 108.49 245.546 109.097 244.433C110.087 242.7 108.726 239.852 106.993 238.243C105.756 237.005 105.137 238.119 105.643 238.738C106.764 240.47 109.48 243.319 106.015 243.938Z" fill="#191919"/>
<path d="M115.048 240.594C114.931 239.357 113.698 239.357 113.698 240.594C113.946 249.011 113.079 262.5 101.076 263.49C96.3708 263.861 91.297 261.634 87.2133 259.283C86.4708 258.788 85.4808 260.025 86.347 260.644C90.436 263.587 95.2991 265.265 100.333 265.47C100.581 267.45 101.076 269.554 101.323 271.534C101.942 275.37 103.427 273.514 103.179 272.276C102.919 269.957 102.589 267.646 102.189 265.346C113.811 263.49 115.964 250.244 115.048 240.594Z" fill="#191919"/>
<path d="M98.0942 255.075C98.7792 255.402 99.5253 255.581 100.284 255.6C101.043 255.619 101.797 255.478 102.498 255.187C103.198 254.895 103.83 254.458 104.35 253.906C104.871 253.354 105.269 252.698 105.519 251.981C106.385 250.125 105.89 249.754 104.282 249.754C102.717 249.871 101.146 249.632 99.6883 249.053C98.23 248.474 96.9225 247.571 95.8645 246.413C93.826 244.712 93.3265 253.259 98.0942 255.075ZM104.034 251.61C102.054 255.435 96.112 253.59 95.9905 249.135C98.3377 250.8 101.157 251.667 104.034 251.61Z" fill="#191919"/>
<path d="M97.7233 233.788C97.4646 234.528 97.8448 236.51 99.0846 236.263C100.075 236.139 100.075 234.778 99.7033 233.912C99.2083 232.674 98.1981 232.42 97.7233 233.788Z" fill="#191919"/>
<path d="M111.459 231.56C111.193 232.422 111.582 234.654 112.809 234.159C113.427 233.912 113.675 233.293 113.551 232.179C113.315 230.809 111.922 230.066 111.459 231.56Z" fill="#191919"/>
<path d="M89.9242 226.487C91.7995 224.327 94.3943 222.92 97.2277 222.527C97.5215 222.467 97.7841 222.304 97.9679 222.067C98.1517 221.83 98.2446 221.535 98.2296 221.236C98.2146 220.937 98.0928 220.653 97.8863 220.435C97.6798 220.218 97.4022 220.082 97.104 220.052C95.6721 220.064 94.259 220.379 92.9576 220.976C91.6562 221.573 90.4959 222.439 89.553 223.517C86.8305 226.487 89.1615 227.333 89.9242 226.487Z" fill="#191919"/>
<path d="M57.0049 224.878C56.8018 228.718 57.6946 232.537 59.5793 235.89C61.464 239.242 64.2629 241.99 67.6496 243.812C68.2684 247.401 70.6196 251.61 75.0746 251.61C76.4054 258.224 77.2737 264.923 77.6734 271.658C77.6648 271.777 77.6808 271.896 77.7205 272.009C77.7601 272.121 77.8225 272.224 77.9038 272.312C77.9851 272.399 78.0835 272.469 78.1929 272.517C78.3023 272.564 78.4203 272.589 78.5396 272.589C78.659 272.589 78.777 272.564 78.8864 272.517C78.9958 272.469 79.0942 272.399 79.1755 272.312C79.2567 272.224 79.3191 272.121 79.3588 272.009C79.3984 271.896 79.4145 271.777 79.4059 271.658C79.2778 265.214 78.5738 258.795 77.3021 252.476C77.0546 251.363 77.0546 249.133 75.8171 249.257C73.3421 249.504 70.8671 247.401 70.1246 243.441C69.2584 239.233 71.6096 235.768 74.9509 237.366C75.4459 237.613 75.8171 237.242 76.0646 236.994C80.8909 232.292 86.9546 223.629 86.9546 214.098C93.3896 216.947 108.861 218.061 115.914 215.707C115.419 206.302 106.386 191.823 86.3359 193.803C63.9371 196.042 57.2254 213.12 57.0049 224.878Z" fill="#191919"/>
<path d="M108.489 221.042C110.062 220.562 111.743 220.562 113.316 221.042C114.553 221.413 114.429 220.175 113.439 219.309C112.591 218.861 111.661 218.586 110.705 218.501C109.749 218.416 108.785 218.522 107.871 218.814C106.014 219.68 106.651 221.827 108.489 221.042Z" fill="#191919"/>
<path d="M61.2122 204.086C62.6086 201.013 65.0715 198.551 68.1444 197.156C65.5457 177.849 38.5659 175.621 30.2634 194.809C21.9609 213.997 38.6807 223.159 42.1457 230.204C45.4869 237.258 47.4669 248.15 45.2394 252.479C43.0119 256.686 45.7344 256.934 48.8282 251.129C51.3032 246.426 55.7582 232.679 52.1694 221.303C48.3422 209.531 57.8709 203.22 61.2122 204.086Z" fill="#191919"/>
<path d="M188.808 302.473C173.091 302.235 147.102 301.607 132.87 302.845C121.731 303.835 119.008 307.3 116.409 316.954C112.697 331.062 106.757 354.7 104.777 368.189C89.8226 367.968 74.8672 368.546 59.9748 369.922C54.406 370.664 54.0348 374.748 55.7673 376.48C56.6335 377.347 57.7473 376.109 57.1173 375.243C56.9947 375.024 56.9166 374.782 56.8876 374.533C56.8586 374.283 56.8792 374.031 56.9482 373.789C57.0172 373.548 57.1332 373.322 57.2897 373.126C57.4461 372.929 57.6399 372.766 57.8598 372.644C60.9535 370.54 98.4543 370.169 103.776 370.169C105.756 370.169 106.374 369.922 106.869 367.818C110.582 350.369 115.419 330.319 119.863 313.861C121.213 308.537 125.308 305.691 131.869 305.196C148.452 303.835 171.843 304.577 189.415 304.825C195.605 304.948 199.315 307.423 198.822 314.356C198.204 323.637 190.034 352.102 187.064 362.62C186.122 366.746 184.667 370.737 182.733 374.5C181.99 375.738 183.846 377.101 184.589 375.85C186.812 371.201 188.594 366.354 189.91 361.372C193.87 347.512 199.441 327.462 201.174 315.211C201.939 306.805 197.225 302.602 188.808 302.473Z" fill="#191919"/>
<path d="M155.021 332.176C154.519 332.914 155.392 334.032 156.259 333.413C157.129 332.705 158.211 332.307 159.332 332.285C160.454 332.263 161.551 332.616 162.449 333.29C164.057 334.775 164.428 337.868 161.458 343.19C157.744 349.998 152.67 350.988 150.433 348.266C147.711 344.924 150.31 338.116 152.908 335.393C153.527 334.651 152.413 333.537 151.783 334.156C146.338 339.106 145.348 346.41 148.442 349.751C153.392 355.196 160.572 350.741 163.292 344.924C164.901 341.457 167.376 336.755 165.148 333.166C164.688 332.263 164.008 331.49 163.17 330.919C162.333 330.348 161.365 329.997 160.356 329.899C159.347 329.8 158.33 329.957 157.397 330.355C156.465 330.753 155.648 331.379 155.021 332.176Z" fill="#191919"/>
<path d="M169.873 180.078C172.733 178.242 169.007 173.394 166.048 176.364C163.562 178.717 167.533 181.579 169.873 180.078Z" fill="#191919"/>
<path d="M139.676 182.18C142.903 183.393 145.369 179.829 143.389 177.972C140.666 175.374 135.975 180.789 139.676 182.18Z" fill="#191919"/>
<path d="M153.413 181.439C157.746 182.789 159.353 177.232 155.145 176.242C152.423 175.623 149.826 180.319 153.413 181.439Z" fill="#191919"/>
<path d="M317.764 203.467C317.159 202.222 315.662 202.6 315.784 203.714C316.281 207.539 323.951 208.169 326.181 203.962C330.139 196.289 317.631 194.062 316.034 199.012C315.415 200.868 317.021 200.744 317.89 199.383C319.001 197.527 326.303 198.258 324.325 202.724C323.459 204.952 318.779 205.559 317.764 203.467Z" fill="#D33B4D"/>
<path d="M296.603 177.603C296.479 184.41 303.657 186.885 309.102 187.998C329.028 192.082 338.062 181.44 335.587 174.012C335.573 173.912 335.539 173.816 335.485 173.731C335.432 173.646 335.36 173.573 335.276 173.517C335.192 173.461 335.097 173.424 334.998 173.408C334.898 173.393 334.796 173.398 334.699 173.425C334.602 173.452 334.511 173.499 334.434 173.563C334.357 173.628 334.294 173.708 334.25 173.799C334.206 173.89 334.182 173.989 334.18 174.09C334.178 174.191 334.197 174.291 334.237 174.384C334.979 183.42 324.458 186.759 317.157 186.885C311.464 187.008 295.748 184.038 299.089 175.374C299.708 173.889 298.594 173.022 297.739 173.889C292.666 179.212 284.991 177.727 281.278 171.29C277.318 164.36 279.422 154.584 288.085 155.697C288.348 155.712 288.607 155.631 288.814 155.467C289.02 155.304 289.16 155.07 289.206 154.81C289.251 154.551 289.2 154.284 289.062 154.059C288.924 153.835 288.708 153.669 288.456 153.594C281.155 150.624 279.906 139.236 288.703 133.915C297.121 128.841 304.174 131.688 309.867 138.37C310.857 139.608 312.094 139.36 312.218 136.885C312.837 130.45 321.004 126.738 326.823 128.223C328.366 128.723 329.795 129.526 331.025 130.584C332.255 131.642 333.262 132.934 333.988 134.385C334.714 135.837 335.143 137.418 335.252 139.037C335.36 140.656 335.145 142.28 334.619 143.815C334.248 144.94 335.362 145.302 336.228 145.055C343.9 143.073 352.068 151.49 352.81 158.791C354.048 170.671 343.405 171.042 336.97 169.681C335.733 169.434 335.98 170.806 336.97 171.166C346.252 174.26 355.904 169.929 354.79 158.791C354.048 150.624 345.509 141.711 336.847 143.073C337.449 140.366 337.269 137.544 336.326 134.936C335.384 132.328 333.719 130.043 331.525 128.346C323.603 122.53 311.847 127.604 310.238 135.648C307.735 132.541 304.224 130.408 300.314 129.617C296.404 128.826 292.341 129.427 288.827 131.316C280.412 135.648 276.452 146.911 284.374 153.346C278.556 154.707 275.957 160.524 276.7 166.464C278.533 177.108 289.3 182.677 296.603 177.603Z" fill="#D33B4D"/>
<path d="M430.764 379.7C325.027 378.614 150.601 376.55 17.6639 382.547C16.7976 382.547 16.9214 385.269 17.7876 385.269C145.617 382.036 262.459 379.552 430.888 383.289C431.995 383.289 431.869 379.712 430.764 379.7Z" fill="#D33B4D"/>
<path d="M144.008 299.884C150.195 299.884 162.325 299.884 170.616 299.76C172.429 291.31 173.706 282.753 174.441 274.142C167.883 275.008 155.505 274.389 150.06 272.285C148.778 281.631 146.754 290.859 144.008 299.884Z" fill="#D33B4D"/>
<path d="M52.3131 375.484C51.9599 373.956 52.1347 372.354 52.8089 370.938C53.483 369.522 54.6169 368.377 56.0256 367.688C59.3668 366.079 93.65 365.831 101.701 365.46C102.072 363.48 103.186 358.159 104.794 351.229C84.5358 347.163 63.9464 344.967 43.2861 344.67C41.4298 344.67 42.1723 342.935 43.2861 342.935C46.2561 342.812 49.2261 342.812 52.1961 342.812C54.4847 333.761 57.8943 325.031 62.3458 316.824C62.8408 315.958 63.9546 316.453 63.5833 317.319C59.7488 325.558 56.6825 334.133 54.4236 342.935C71.5422 343.589 88.5871 345.534 105.413 348.754C108.136 336.995 111.848 321.898 115.313 311.75C118.283 302.714 122.986 300.487 129.299 300.116C133.422 299.937 137.549 299.896 141.674 299.992C142.169 298.507 142.664 297.022 143.159 295.166C137.095 285.266 124.099 276.477 106.403 275.116C100.339 282.296 83.3833 281.553 74.1021 272.765C68.6571 273.383 50.7021 277.343 39.9448 289.473C24.8451 306.798 4.30256 346.526 14.2026 367.44C19.1346 378.092 46.7331 376.109 52.3131 375.484Z" fill="#D33B4D"/>
<path d="M222.841 85.6503C223.221 82.5565 221.108 66.838 219.5 65.353C219.405 65.2538 219.287 65.1795 219.157 65.1371C219.026 65.0946 218.887 65.0853 218.752 65.1098C218.617 65.1343 218.491 65.192 218.384 65.2777C218.276 65.3633 218.192 65.4743 218.138 65.6005C217.643 66.7143 220.613 83.668 220.985 85.6503C221.033 85.8607 221.15 86.0487 221.319 86.1833C221.488 86.318 221.697 86.3913 221.913 86.3913C222.129 86.3913 222.338 86.318 222.507 86.1833C222.675 86.0487 222.793 85.8607 222.841 85.6503Z" fill="#D33B4D"/>
<path d="M240.292 148.765C240.384 148.578 240.425 148.371 240.413 148.163C240.4 147.955 240.334 147.754 240.221 147.58C240.108 147.405 239.951 147.263 239.766 147.167C239.582 147.071 239.375 147.025 239.167 147.032C237.064 147.032 234.217 151.118 223.82 149.631C222.695 149.507 221.964 151.118 223.078 151.613C229.65 154.084 239.289 151.114 240.292 148.765Z" fill="#D33B4D"/>
<path d="M252.915 126.985C257.376 129.576 262.056 131.771 266.901 133.544C267.113 133.577 267.331 133.541 267.523 133.442C267.714 133.343 267.869 133.186 267.966 132.994C268.062 132.801 268.095 132.582 268.059 132.37C268.023 132.158 267.921 131.962 267.767 131.811C263.324 129.219 258.64 127.064 253.781 125.376C253.567 125.261 253.317 125.236 253.085 125.306C252.853 125.375 252.658 125.534 252.543 125.748C252.428 125.961 252.403 126.211 252.473 126.443C252.542 126.675 252.701 126.87 252.915 126.985Z" fill="#D33B4D"/>
<path d="M229.279 154.336C229.025 154.282 228.76 154.324 228.536 154.455C228.312 154.586 228.145 154.796 228.068 155.044C227.991 155.292 228.008 155.559 228.118 155.795C228.227 156.03 228.421 156.216 228.66 156.316C231.754 158.048 237.21 156.068 235.095 154.212C234.114 153.346 232.616 154.984 229.279 154.336Z" fill="#D33B4D"/>
<path d="M250.192 97.9016C252.04 97.1366 261.951 85.5265 263.56 83.299C264.178 82.4328 262.817 81.5665 262.075 82.1853C257.976 86.1405 254.092 90.3128 250.44 94.6841C248.089 97.2828 249.322 98.2616 250.192 97.9016Z" fill="#D33B4D"/>
<path d="M219.004 137.009C219.104 137.23 219.279 137.409 219.498 137.515C219.716 137.62 219.965 137.646 220.201 137.587C220.436 137.528 220.644 137.388 220.787 137.192C220.93 136.996 221 136.756 220.984 136.514C220.118 131.069 215.168 127.964 212.434 123.52C206.742 114.236 214.291 103.594 223.943 101.119C231.865 99.0151 240.775 101.861 242.879 111.39C244.735 119.56 241.023 125.5 238.424 132.925C237.929 134.534 239.549 135.029 240.28 133.544C243.622 127.244 246.839 119.684 245.849 112.504C244.117 100.995 234.464 95.9213 223.696 98.5201C214.291 100.871 206.247 109.039 207.856 119.312C209.228 127.727 216.604 130.052 219.004 137.009Z" fill="#D33B4D"/>
<path d="M221.739 146.414C224.587 147.426 227.628 147.775 230.631 147.431C233.634 147.088 236.518 146.063 239.064 144.434C240.178 143.567 239.683 141.711 238.074 142.33C231.515 144.681 228.916 145.3 222.479 144.434C221.356 144.31 220.614 145.93 221.739 146.414Z" fill="#D33B4D"/>
<path d="M187.694 137.38C186.832 138.505 187.694 139.979 190.169 138.246C193.606 136.107 196.875 133.707 199.947 131.069C200.112 130.925 200.218 130.726 200.247 130.51C200.276 130.293 200.225 130.073 200.104 129.892C199.982 129.71 199.799 129.578 199.588 129.522C199.377 129.465 199.153 129.487 198.957 129.584C194.98 131.845 191.211 134.454 187.694 137.38Z" fill="#D33B4D"/>
<path d="M196.989 104.336C197.193 104.39 197.41 104.369 197.601 104.279C197.792 104.189 197.945 104.034 198.033 103.843C198.122 103.651 198.14 103.434 198.085 103.23C198.03 103.026 197.904 102.848 197.731 102.727C192.781 99.5178 187.612 96.6608 182.26 94.1775C182.038 94.1078 181.798 94.1195 181.583 94.2106C181.369 94.3018 181.194 94.4664 181.089 94.6749C180.985 94.8834 180.959 95.1222 181.014 95.3485C181.07 95.5748 181.205 95.7739 181.394 95.91C186.387 99.0839 191.598 101.9 196.989 104.336Z" fill="#D33B4D"/>
<path d="M221.738 141.709C225.847 142.998 236.219 140.966 238.447 139.234C239.932 137.996 238.571 136.264 236.714 137.006C232.096 138.76 227.17 139.56 222.233 139.358C219.995 139.234 219.635 141.056 221.738 141.709Z" fill="#D33B4D"/>
<path d="M231.753 134.534C231.594 128.012 232.176 121.493 233.485 115.103C233.516 114.896 233.469 114.686 233.351 114.514C233.234 114.341 233.056 114.219 232.853 114.173C232.65 114.126 232.436 114.157 232.255 114.261C232.074 114.364 231.939 114.532 231.877 114.731C230.249 121.197 229.664 127.881 230.144 134.531C230.138 134.64 230.155 134.75 230.192 134.852C230.23 134.955 230.288 135.049 230.363 135.128C230.438 135.208 230.529 135.271 230.629 135.315C230.73 135.358 230.838 135.38 230.947 135.38C231.057 135.381 231.165 135.358 231.266 135.315C231.366 135.272 231.457 135.209 231.532 135.13C231.608 135.051 231.666 134.957 231.704 134.855C231.742 134.752 231.759 134.643 231.753 134.534Z" fill="#D33B4D"/>
<path d="M228.783 113.991C225.512 114.865 222.142 115.318 218.757 115.341C218.57 115.342 218.387 115.394 218.227 115.49C218.067 115.587 217.936 115.724 217.847 115.889C217.759 116.053 217.716 116.239 217.724 116.425C217.731 116.612 217.789 116.793 217.89 116.95C220.428 122.685 222.659 128.551 224.575 134.522C224.947 135.647 226.06 135.389 225.813 134.275C224.656 128.433 222.828 122.744 220.365 117.321C223.444 117.176 226.487 116.592 229.401 115.589C229.59 115.491 229.735 115.327 229.81 115.128C229.885 114.93 229.884 114.711 229.808 114.513C229.731 114.315 229.584 114.152 229.395 114.056C229.206 113.96 228.988 113.937 228.783 113.991Z" fill="#D33B4D"/>
<path d="M139.058 200.249C139.364 206.169 138.432 212.088 136.323 217.628C134.213 223.168 130.973 228.207 126.807 232.424C124.456 234.776 126.436 235.271 128.787 234.404C139.924 230.073 149.937 217.327 152.794 205.94C153.289 203.96 151.557 204.083 151.309 205.321C149.79 210.919 147.14 216.147 143.521 220.681C139.903 225.215 135.394 228.959 130.272 231.682C137.848 223.156 141.803 212.013 141.297 200.618C141.173 198.762 140.926 198.638 138.698 198.267C119.638 195.297 112.585 167.946 142.658 156.932C169.514 147.154 190.183 165.347 185.478 183.665C182.013 197.401 167.41 199.505 155.404 199.505C153.796 199.505 153.919 201.485 155.528 201.485C167.903 201.732 182.013 200 186.592 187.625C196.492 161.264 168.772 146.9 145.381 153.467C107.5 164.36 117.028 199.383 139.058 200.249Z" fill="#D33B4D"/>
</svg>
