<svg width="451" height="451" viewBox="0 0 451 451" fill="none" xmlns="http://www.w3.org/2000/svg">
<path d="M207.087 108.253C206.921 108.008 206.707 107.799 206.459 107.637C206.211 107.476 205.933 107.365 205.641 107.312C205.35 107.258 205.051 107.263 204.761 107.326C204.472 107.39 204.198 107.51 203.955 107.679C203.208 108.28 203.37 108.955 204.315 108.854C205.084 108.762 205.86 108.951 206.5 109.387C207.18 109.855 207.596 109.029 207.087 108.253Z" fill="#191919"/>
<path d="M191.93 109.425C191.645 110.132 191.798 110.775 192.83 110.159C193.327 109.847 193.896 109.673 194.482 109.652C195.643 109.907 195.989 109.027 195.11 108.494C194.849 108.311 194.551 108.189 194.237 108.137C193.923 108.085 193.601 108.105 193.296 108.194C192.99 108.284 192.709 108.441 192.473 108.654C192.236 108.867 192.051 109.131 191.93 109.425Z" fill="#191919"/>
<path d="M209.208 104.239C208.81 103.215 208.076 102.357 207.126 101.805C206.177 101.253 205.068 101.039 203.981 101.199C202.113 101.481 202.221 103.256 204.129 103.281C205.684 103.294 207.187 103.845 208.382 104.84C208.476 104.893 208.583 104.918 208.69 104.912C208.798 104.906 208.902 104.869 208.989 104.806C209.076 104.743 209.143 104.655 209.182 104.555C209.221 104.454 209.23 104.345 209.208 104.239Z" fill="#191919"/>
<path d="M204.514 122.14C207.702 120.34 207.167 111.909 205.355 115.129C203.571 118.295 199.141 117.795 198.461 118.088C197.782 118.38 198.09 118.988 198.569 119.769C199.584 121.411 202.255 123.425 204.514 122.14ZM205.261 117.435C204.795 120.608 203.087 122.221 200.234 119.368C202.084 119.334 203.863 118.651 205.261 117.44V117.435Z" fill="#191919"/>
<path d="M198.05 109.907C197.847 111.306 197.339 114.857 198.929 115.372C199.793 115.658 202.511 114.96 201.942 113.718C201.539 112.841 199.715 113.799 199.622 113.718C199.446 112.427 199.446 111.117 199.622 109.826C199.643 107.29 198.338 107.893 198.05 109.907Z" fill="#191919"/>
<path d="M194.637 100.961C193.423 101.192 192.295 101.748 191.372 102.57C190.449 103.392 189.766 104.449 189.397 105.627C189.36 105.758 189.37 105.898 189.427 106.022C189.484 106.146 189.583 106.245 189.706 106.303C189.829 106.36 189.969 106.372 190.1 106.336C190.232 106.301 190.346 106.219 190.423 106.107C191.679 104.603 193.362 103.515 195.249 102.986C197.627 102.286 196.142 100.664 194.637 100.961Z" fill="#191919"/>
<path d="M221.661 293.352C223.094 293.988 224.713 294.06 226.196 293.553C227.68 293.046 228.917 291.998 229.66 290.618C230.039 289.416 230.039 288.127 229.66 286.926C229.567 286.779 229.441 286.656 229.292 286.568C229.142 286.48 228.974 286.429 228.801 286.418C228.627 286.408 228.454 286.439 228.295 286.509C228.136 286.579 227.996 286.685 227.887 286.82C225.675 290.047 223.016 290.312 221.315 291.246C220.106 291.91 220.599 292.771 221.661 293.352ZM228.22 288.899C228.22 291.979 224.035 292.58 222.888 292.258C224.895 291.554 226.718 290.406 228.22 288.899Z" fill="#191919"/>
<path d="M221.434 280.381C220.847 281.506 221.515 281.713 222.062 281.339C222.778 280.915 223.591 280.683 224.422 280.664C227.624 280.601 223.288 277.696 221.434 280.381Z" fill="#191919"/>
<path d="M217.395 282.487C216.221 282.455 216.061 286.699 215.996 287.752C215.742 289.752 216.421 290.677 218.662 290.299C223.139 289.558 222.154 287.232 220.822 287.632C219.715 287.965 218.781 288.739 217.542 288.593C217.715 286.615 218.689 282.52 217.395 282.487Z" fill="#191919"/>
<path d="M225.981 273.619C223.569 272.098 217.806 271.34 218.713 274.312C219.163 275.793 220.83 274.222 224.7 275.212C227.587 275.939 227.288 274.445 225.981 273.619Z" fill="#191919"/>
<path d="M212.396 274.087C211.375 274.332 210.431 274.825 209.646 275.523C208.861 276.22 208.26 277.1 207.896 278.085C207.496 279.525 208.504 279.854 209.082 279.086C210.066 277.761 211.48 276.818 213.083 276.42C213.929 276.112 214.248 273.956 212.396 274.087Z" fill="#191919"/>
<path d="M210.674 282.552C210.26 283.285 210.757 283.89 211.394 283.526C212.159 283.087 213.034 282.879 213.914 282.925C214.702 282.925 214.861 282.365 214.155 281.78C213.582 281.456 212.909 281.356 212.267 281.499C211.624 281.641 211.057 282.016 210.674 282.552Z" fill="#191919"/>
<path d="M292.817 304.525C292.666 304.682 292.575 304.887 292.559 305.104C292.543 305.321 292.604 305.537 292.731 305.715C292.857 305.892 293.042 306.019 293.252 306.075C293.463 306.131 293.686 306.111 293.884 306.019C297.884 303.873 302.042 306.3 304.137 309.898C309.281 318.734 311.562 346.83 301.552 346.83C303.617 336.563 303.352 317.665 292.579 307.646C291.872 306.989 290.882 307.752 291.551 308.658C300.413 320.671 300.512 331.674 299.27 345.99C299.088 348.096 298.022 349.66 301.52 349.404C303.118 349.256 304.646 348.684 305.947 347.746C307.249 346.808 308.275 345.539 308.921 344.071C312.788 335.663 311.396 312.74 303.986 305.738C301.084 303.006 296.098 301.69 292.817 304.525Z" fill="#191919"/>
<path d="M295.659 350.497C292.604 352.343 289.222 353.582 285.699 354.149C285.774 351.193 285.641 348.235 285.298 345.298C285.183 344.337 283.59 344.204 283.62 345.298C283.645 360.841 282.212 376.352 279.338 391.627C278.456 396.483 281.379 394.669 281.813 392.642C284.004 380.757 285.283 368.722 285.638 356.642C289.265 355.742 294.068 354.689 296.744 351.71C298.107 350.187 296.4 350.041 295.659 350.497Z" fill="#191919"/>
<path d="M217.488 317.764C212.254 314.749 209.388 312.519 207.608 309.765C206.467 307.988 205.329 307.898 203.333 308.764C201.864 309.58 200.437 310.47 199.058 311.43C194.938 308.941 190.338 307.354 185.56 306.773C180.782 306.191 175.935 306.629 171.338 308.058C169.394 308.706 170.276 310.281 171.338 309.925C175.555 308.655 179.988 308.261 184.363 308.767C188.738 309.274 192.963 310.67 196.779 312.87C200.379 314.895 199.517 312.751 205.297 310.204C208.114 314.292 211.879 317.636 216.271 319.951C214.462 322.141 212.97 324.573 211.838 327.178C207.77 323.469 204.031 319.413 200.665 315.057C200.559 314.913 200.402 314.815 200.226 314.782C200.05 314.75 199.869 314.786 199.719 314.883C199.569 314.981 199.462 315.132 199.42 315.306C199.377 315.479 199.403 315.663 199.492 315.818C202.415 320.668 206.05 325.05 210.277 328.818C211.827 330.168 212.965 329.455 213.89 327.671C215.073 325.36 216.495 323.179 218.131 321.164C219.691 332.794 222.08 344.299 225.277 355.589C225.761 357.029 227.172 356.601 226.877 355.215C218.883 317.816 221.079 319.834 217.488 317.764Z" fill="#191919"/>
<path d="M236.154 352.057C234.901 351.258 232.453 353.134 234.075 355.337C235.438 357.187 238.127 353.312 236.154 352.057Z" fill="#191919"/>
<path d="M233.287 372.163C235.036 372.64 236.156 370.216 235.537 368.882C234.469 366.553 230.689 371.452 233.287 372.163Z" fill="#191919"/>
<path d="M167.864 312.619C168.343 311.719 167.252 310.819 166.676 311.644C157.199 325.221 159.489 338.991 160.504 350.857C155.73 352.95 153.192 348.657 152.652 344.47C151.425 334.65 152.857 324.682 156.796 315.604C158.729 311.611 162.518 305.965 167.664 308.152C167.777 308.215 167.901 308.253 168.03 308.266C168.159 308.278 168.288 308.264 168.411 308.225C168.534 308.185 168.648 308.121 168.745 308.036C168.842 307.951 168.921 307.846 168.977 307.73C169.032 307.613 169.063 307.486 169.068 307.357C169.073 307.228 169.051 307.099 169.004 306.979C168.957 306.859 168.886 306.749 168.795 306.657C168.704 306.565 168.596 306.493 168.476 306.445C164.57 304.033 160.081 306.458 157.557 309.725C151.257 317.89 148.44 335.058 150.291 345.43C151.052 349.705 154.292 354.577 159.17 353.857C161.478 353.517 162.889 352.525 162.691 350.284C161.33 334.871 161.303 324.832 167.864 312.619Z" fill="#191919"/>
<path d="M232.462 388.389C232.439 391.242 236.181 389.802 235.461 387.402C234.86 385.401 232.482 385.775 232.462 388.389Z" fill="#191919"/>
<path d="M237.58 334.576C236.356 333.96 234.102 337.096 236.005 338.23C238.249 339.562 238.89 335.238 237.58 334.576Z" fill="#191919"/>
<path d="M177.849 349.098C177.73 348.07 176.218 348.229 176.263 349.39C176.377 352.247 176.648 355.095 177.075 357.922C170.662 355.803 168.075 353.296 165.557 352.27C165.397 352.189 162.889 352.203 165.289 354.403C168.897 357.285 173.045 359.415 177.489 360.67C178.317 365.656 183.215 391.663 185.755 394.854C186.624 395.947 188.197 395.979 187.355 393.655C183.305 382.481 179.212 360.865 177.849 349.098Z" fill="#191919"/>
<path d="M288.819 304.912C279.126 300.912 261.779 303.7 253.967 308.978C252.182 307.063 250.081 305.471 247.754 304.271C246.02 303.387 246.697 305.68 235.127 314.952C234.186 315.644 233.423 316.55 232.901 317.595C232.38 318.641 232.115 319.796 232.128 320.964C228.947 343.914 226.152 368.623 227.927 394.361C228.029 395.828 229.66 395.761 229.595 394.255C228.506 369.15 231.86 343.444 235.141 318.538C241.371 324.073 240.818 328.047 243.954 325.471C247.745 322.35 250.708 318.343 252.581 313.804C253.127 312.477 251.669 311.91 251.06 313.129C248.973 317.196 246.115 320.819 242.647 323.797C241.125 320.96 238.977 318.507 236.367 316.624C240.426 313.674 244.134 310.269 247.419 306.476C253.321 309.802 252.277 312.038 255.294 310.623C265.53 305.345 277.322 303.925 288.518 306.622C289.771 306.865 289.924 305.446 288.819 304.912Z" fill="#191919"/>
<path d="M345.909 230.527C347.236 229.823 345.909 228.131 344.696 228.581C343.402 229.281 342.397 230.415 341.856 231.783C341.315 233.151 341.273 234.666 341.737 236.062C342.111 236.928 343.776 237.248 343.603 235.342C343.429 234.399 343.559 233.425 343.973 232.56C344.388 231.695 345.065 230.983 345.909 230.527Z" fill="#191919"/>
<path d="M334.688 229.742C332.888 230.959 331.074 234.501 333.034 239.541C333.502 240.74 335.473 240.101 335.129 238.888C334.485 236.622 333.993 233.085 336.234 231.821C338.243 230.687 336.902 228.237 334.688 229.742Z" fill="#191919"/>
<path d="M339.35 228.727C338.208 229.936 337.399 231.421 337.005 233.036C336.61 234.652 336.643 236.342 337.1 237.941C337.775 240.256 339.274 239.008 339.168 238.22C338.736 234.996 339.701 231.274 341.418 230.345C343.135 229.416 341.312 226.666 339.35 228.727Z" fill="#191919"/>
<path d="M332.323 255.833C332.592 254.993 332.652 254.1 332.499 253.231C332.346 252.363 331.983 251.544 331.443 250.847C326.493 245.515 325.096 247.648 325.096 243.382C325.267 241.397 325.182 239.398 324.844 237.435C324.781 237.239 324.657 237.068 324.49 236.947C324.324 236.826 324.123 236.76 323.917 236.76C323.711 236.76 323.51 236.826 323.344 236.947C323.177 237.068 323.053 237.239 322.99 237.435C322.619 239.285 322.507 241.178 322.657 243.06C322.569 248.716 324.617 248.055 329.15 252.231C330.197 253.196 330.467 253.761 329.936 255.925C326.216 271.144 315.954 286.26 319.698 301.825C315.857 300.653 308.36 301.288 305.577 304.278C304.808 305.108 305.417 306.249 306.443 305.799C312.266 303.241 319.462 302.633 324.324 307.318C325.334 308.294 326.601 307.205 325.764 305.986C324.895 304.733 323.75 303.698 322.416 302.959C318.161 289.102 328.138 272.303 332.323 255.833Z" fill="#191919"/>
<path d="M336.576 247.087C336.709 247.325 336.921 247.508 337.176 247.605C337.43 247.702 337.711 247.706 337.968 247.617C338.226 247.528 338.443 247.351 338.584 247.118C338.724 246.885 338.778 246.609 338.736 246.34C337.818 242.702 333.403 241.008 329.976 241.221C331.511 240.546 327.641 236.046 330.964 233.835C333.961 231.83 330.964 230.606 329.191 232.167C328.066 233.313 327.404 234.834 327.33 236.438C327.256 238.042 327.776 239.617 328.791 240.861C328.883 240.995 329.006 241.105 329.15 241.182C329.294 241.258 329.454 241.299 329.616 241.3C329.426 241.382 329.269 241.525 329.169 241.707C329.069 241.888 329.032 242.098 329.065 242.302C329.097 242.507 329.196 242.695 329.347 242.837C329.498 242.979 329.691 243.067 329.898 243.087C332.996 243.435 335.376 244.261 336.576 247.087Z" fill="#191919"/>
<path d="M350.888 240.074C350.663 239.008 348.876 239.273 348.993 240.355C350.64 255.615 348.482 303.884 345.38 322.255C345.006 324.469 345.26 324.148 343.555 325.576C333.376 334.09 326.61 336.761 312.516 339.828C310.916 340.177 310.266 342.328 312.676 342.078C325.25 341.196 337.085 335.808 346.007 326.904C347.04 326.107 347.723 324.941 347.913 323.65C350.087 310.164 353.536 253.196 350.888 240.074Z" fill="#191919"/>
<path d="M146.929 341.23C138.727 339.152 130.83 336.014 123.437 331.897C118.105 328.927 116.431 328.225 114.104 322.447C107.372 305.707 103.079 277.447 102.251 267.983C101.959 264.676 101.036 260.108 98.1067 258.196C96.5565 257.185 95.2447 258.511 96.5047 259.89C97.6156 260.952 98.4984 262.229 99.0992 263.643C99.7 265.057 100.006 266.579 99.999 268.116C101.178 278.581 106.411 310.328 111.998 323.808C114.291 329.341 115.612 330.058 122.146 334.045C129.707 338.348 137.87 341.493 146.362 343.376C146.511 343.443 146.673 343.476 146.835 343.474C146.998 343.472 147.159 343.434 147.306 343.364C147.453 343.294 147.583 343.193 147.687 343.068C147.791 342.942 147.867 342.796 147.909 342.638C147.95 342.481 147.958 342.316 147.93 342.156C147.902 341.995 147.839 341.843 147.747 341.709C147.654 341.575 147.533 341.463 147.393 341.38C147.253 341.297 147.096 341.246 146.934 341.23H146.929Z" fill="#191919"/>
<path d="M95.0406 242.488C94.8921 242.642 94.8019 242.843 94.7855 243.056C94.769 243.269 94.8272 243.481 94.9502 243.656C95.0732 243.831 95.2532 243.958 95.4594 244.014C95.6656 244.071 95.885 244.054 96.0801 243.966C99.8421 242.211 103.093 247.528 103.955 248.1C104.817 248.671 105.364 247.794 105.289 246.941C105.04 244.101 99.0793 239.021 95.0406 242.488Z" fill="#191919"/>
<path d="M134.811 308.325C140.253 304.235 149.904 304.111 154.597 309.378C155.569 310.472 156.584 309.477 155.929 308.204C152.849 302.219 143.678 301.404 138.224 303.992C137.691 283.22 126.299 275.541 120.318 261.766C118.88 259.392 118.301 256.596 118.678 253.846C119.187 250.741 120.168 247.823 120.744 244.794C121.137 242.729 119.394 241.419 118.372 239.86C117.209 238.018 116.14 236.118 115.17 234.168C114.637 233.139 111.159 233.337 115.845 240.58C117.798 243.597 118.856 243.006 118.005 245.447C117.132 248.013 116.529 250.662 116.205 253.353C115.861 256.549 116.543 259.771 118.152 262.554C124.296 276.648 135.63 284.073 135.605 305.218C131.717 307.459 133.638 309.205 134.811 308.325Z" fill="#191919"/>
<path d="M108.986 244.14C108.597 242.279 107.506 240.64 105.938 239.565C104.371 238.49 102.449 238.061 100.573 238.368C98.7461 238.818 98.4806 240.65 100.573 240.542C104.88 240.317 105.836 242.137 107.098 244.954C107.764 246.459 109.29 245.508 108.986 244.14Z" fill="#191919"/>
<path d="M111.386 243.035C114.052 245.307 113.6 235.873 106.812 235.261C105.025 235.261 104.146 236.755 106.238 237.367C111.584 238.931 110.081 241.923 111.386 243.035Z" fill="#191919"/>
<path d="M93.9869 249.342C94.3041 248.154 94.9319 247.317 96.4619 247.674C98.3541 248.102 98.9369 249.877 100.46 250.581C100.622 250.659 100.803 250.69 100.982 250.669C101.16 250.648 101.329 250.577 101.469 250.464C101.609 250.351 101.714 250.2 101.771 250.03C101.829 249.859 101.837 249.676 101.794 249.501C101.169 246.765 95.8386 243.516 93.1004 246.327C90.7874 248.705 93.4626 251.29 93.9869 249.342Z" fill="#191919"/>
<path d="M108.985 255.459C108.884 248.793 113.186 247.584 113.958 246.126C114.017 246.008 114.053 245.88 114.063 245.748C114.072 245.616 114.055 245.483 114.014 245.358C113.972 245.232 113.906 245.116 113.819 245.017C113.732 244.917 113.626 244.835 113.508 244.776C111.391 243.717 105.961 249.933 107.041 255.855C107.233 256.915 109.012 256.539 108.985 255.459Z" fill="#191919"/>
<path d="M192.636 160.451C193.581 160.602 194.328 159.411 193.311 158.97C183.978 154.97 182.077 155.087 183.35 144.064C184.128 137.153 183.994 130.169 182.952 123.292C185.459 127.945 185.812 136.212 186.417 140.358C187.079 144.876 189.432 149.19 194.418 149.691C195.858 149.835 195.752 147.948 194.418 147.824C193.198 147.597 192.061 147.049 191.124 146.235C190.186 145.422 189.483 144.374 189.086 143.198C186.91 137.685 188.368 127.596 184.284 122.079C182.153 119.197 180.761 120.813 181.098 123.931C181.879 131.598 181.66 139.334 180.446 146.944C179.163 155.274 185.243 159.265 192.636 160.451Z" fill="#191919"/>
<path d="M109.625 185.971C110.455 186.929 112.037 185.678 111.173 184.744C104.225 177.236 93.1415 159.97 93.9875 157.877C95.1733 154.952 101.1 172.378 116.373 179.718C117.201 180.114 117.703 178.818 116.933 178.384C104.473 171.431 99.9185 161.059 96.44 157.234C93.8525 154.394 91.3753 155.904 92.4395 159.326C95.3015 168.526 103.28 178.627 109.625 185.971Z" fill="#191919"/>
<path d="M111.826 187.957C110.188 189.276 110.959 190.345 112.386 191.303C124.311 199.311 143.557 204.475 157.597 205.17C164.998 205.534 168.793 203.833 173.93 198.769C178.49 193.993 182.444 188.674 185.702 182.931C191.516 194.703 206.341 210.05 219.938 219.302C220.138 219.412 220.372 219.445 220.595 219.395C220.818 219.344 221.014 219.214 221.148 219.028C221.281 218.842 221.341 218.614 221.317 218.387C221.293 218.159 221.187 217.949 221.018 217.795C209.728 207.802 192.488 195.443 184.163 174.091C183.79 173.13 182.275 173.836 182.536 174.797C183.09 176.845 183.812 178.843 184.696 180.771C170.665 202.544 167.014 203.485 157.645 203.01C144.955 202.294 132.536 199.049 121.118 193.465C123.187 192.069 124.878 190.182 126.039 187.973C126.759 186.16 126.118 185.048 124.331 187.278C122.901 189.335 121.047 191.061 118.893 192.34C116.933 191.44 115.068 190.435 113.268 189.433C116.241 187.386 118.831 184.832 120.918 181.887C130.413 184.742 151.678 186.875 161.371 184.648C161.636 184.571 161.86 184.393 161.994 184.152C162.127 183.91 162.16 183.626 162.084 183.361C162.008 183.095 161.829 182.871 161.588 182.737C161.347 182.604 161.062 182.571 160.797 182.647C161.49 181.747 165.898 174.862 165.891 173.623C165.891 173.263 165.4 171.676 163.85 174.221C162.079 177.13 160.304 180.049 158.423 182.875C145.306 184.209 135.16 182.182 122.423 179.968C119.57 179.473 119.431 179.644 118.344 181.142C116.481 183.691 114.289 185.983 111.826 187.957Z" fill="#191919"/>
<path d="M233.663 180.19C232.752 179.599 230.677 180.483 232.263 181.95C233.528 183.115 234.723 180.865 233.663 180.19Z" fill="#191919"/>
<path d="M220.163 130.279C219.511 129.667 215.391 128.092 214.525 128.587C213.658 129.082 210.151 135.611 204.577 138.426C199.935 137.839 195.328 136.998 190.778 135.906C190.565 135.877 190.349 135.925 190.168 136.041C189.988 136.158 189.855 136.335 189.794 136.541C189.732 136.747 189.747 136.969 189.835 137.165C189.923 137.361 190.078 137.519 190.272 137.611C194.223 138.882 198.295 139.745 202.422 140.185C201.972 141.146 200.746 144.312 201.209 145.025C201.376 145.27 201.633 145.439 201.925 145.496C202.216 145.552 202.517 145.491 202.764 145.327C203.502 144.829 203.09 144.109 204.49 140.586C206.18 141.526 207.968 142.277 209.822 142.825C216.541 144.901 216.014 145.162 218.372 140.066C219.2 138.253 219.784 136.338 220.107 134.371C220.26 133.471 219.146 133.039 218.773 133.825C217.691 136.634 216.399 139.357 214.907 141.972C212.095 141.33 209.346 140.438 206.692 139.306C210.111 136.923 213.067 133.936 215.413 130.492C216.941 131.06 218.499 131.54 220.08 131.932C222.933 132.382 235.533 127.088 244.411 134.466C252.286 141.011 252.138 153.366 249.238 162.366C247.03 169.222 244.038 169.048 237.36 169.033C227.618 168.997 217.904 167.997 208.36 166.047C208.68 162.262 208.68 158.457 208.36 154.673C208.135 152.137 206.454 152.556 206.6 154.14C206.982 157.961 206.892 161.815 206.332 165.615L196.455 163.176C198.561 158.462 199.635 153.352 199.605 148.189C208.938 149.336 227.955 152.882 236.111 149.255C236.306 149.159 236.459 148.995 236.542 148.795C236.626 148.595 236.634 148.372 236.566 148.166C236.498 147.96 236.358 147.785 236.171 147.675C235.985 147.564 235.764 147.524 235.551 147.563C234.147 147.772 232.79 148.042 231.431 148.256C231.812 146.225 231.651 144.13 230.963 142.181C230.857 142.019 228.884 140.435 229.336 144.206L229.496 148.537C221.11 149.512 205.885 146.332 199.778 146.085C197.645 145.999 197.528 145.909 197.377 147.912C196.356 162.238 192.774 163.356 195.886 165.111C198.912 166.816 211.885 168.844 215.764 169.611C217.711 175.438 225.568 184.956 230.763 188.182C231.593 188.7 232.482 187.863 231.629 187.143C225.985 182.461 221.434 176.6 218.298 169.971C225.466 170.968 232.7 171.414 239.936 171.305C244.27 171.233 247.789 170.758 250.03 166.825C251.174 168.205 252.626 169.296 254.269 170.011C256.125 170.819 256.465 169.336 255.394 168.677C253.727 167.64 252.252 166.323 251.033 164.785C253.544 158.182 254.108 150.998 252.66 144.085C249.244 128.749 233.515 125.905 220.163 130.279Z" fill="#191919"/>
<path d="M226.888 174.743C226.618 174.556 226.284 174.483 225.96 174.542C225.637 174.601 225.35 174.785 225.162 175.056C224.975 175.326 224.903 175.66 224.961 175.983C225.02 176.307 225.205 176.594 225.475 176.781C226.953 177.805 228.364 176.012 226.888 174.743Z" fill="#191919"/>
<path d="M287.699 142.372C290.385 139.726 296.602 134.589 303.352 137.492C309.096 139.967 312.593 146.024 315.898 150.992C327.598 168.612 336.218 185.988 350.802 202.188C351.536 203.003 353.147 201.817 352.362 201.003C338.562 186.688 329.063 165.853 317.178 148.24C313.776 143.2 310.185 137.555 304.311 135.147C297.759 132.461 291.009 135.924 286.486 140.748C285.73 141.549 286.853 143.205 287.699 142.372Z" fill="#191919"/>
<path d="M335.587 203.05C326.927 192.545 313.312 189.789 302.722 177.011C299.725 173.467 297.317 169.465 295.589 165.158C295.211 164.186 293.656 164.638 293.816 165.77C294.336 169.451 298.388 175.636 300.895 178.77C311.562 192.104 325.645 193.976 334.228 204.463C335.221 205.687 336.595 204.285 335.587 203.05Z" fill="#191919"/>
<path d="M394.509 174.169C377.843 174.41 351.309 169.386 334.405 172.437C334.171 172.499 333.967 172.643 333.831 172.844C333.696 173.044 333.637 173.287 333.666 173.527C333.695 173.767 333.81 173.989 333.99 174.151C334.169 174.314 334.401 174.405 334.643 174.41C352.713 172.275 381.027 176.73 394.642 176.037C396.242 175.956 396.174 174.147 394.509 174.169Z" fill="#191919"/>
<path d="M388.913 189.435C382.872 189.471 356.911 193.058 351.581 194.876C350.607 195.209 350.715 196.901 351.847 196.757C364.01 195.162 376.513 192.356 388.9 191.582C389.175 191.571 389.435 191.455 389.626 191.257C389.817 191.059 389.925 190.796 389.927 190.521C389.928 190.246 389.824 189.98 389.635 189.78C389.446 189.58 389.188 189.461 388.913 189.447V189.435Z" fill="#191919"/>
<path d="M237.394 289.205C238.849 294.027 240.847 301.366 241.621 304.206C242.395 307.045 244.036 305.992 243.487 303.551C242.465 299.004 239.488 288.633 239.074 286.806C242.274 284.538 244.886 275.766 239.848 272.953C241.18 251.315 235.555 250.82 234.514 254.278C223.207 245.971 199.85 241.572 211.435 250.572C198.982 248.385 194.263 250.919 204.769 255.212C202.876 255.131 191.57 257.505 192.355 261.024C193.784 267.425 215.182 267.585 227.23 266.077C227.954 269.891 229.622 273.462 232.084 276.463C233.659 278.038 234.268 277.17 234.991 276.29C238.838 271.594 243.151 278.389 237.722 285.371C236.903 286.424 236.827 287.324 237.394 289.205Z" fill="#191919"/>
<path d="M211.13 310.897C212.655 311.489 213.422 307.324 213.796 305.947C217.049 307.72 226.355 306.721 230.048 305.468C233.74 304.215 235.504 301.576 236.181 296.401C236.209 296.207 236.163 296.01 236.052 295.849C235.941 295.689 235.773 295.576 235.582 295.534C235.391 295.492 235.192 295.523 235.023 295.622C234.854 295.721 234.73 295.88 234.674 296.068C233.249 301.256 230.673 303.281 225.275 303.961C222.515 304.309 219.727 304.389 216.95 304.201C214.151 304.01 213.472 302.467 212 299.668C208.2 292.414 206.229 280.736 204.814 269.95C204.638 268.615 203.063 268.883 203.12 270.188C203.888 279.567 205.676 288.835 208.452 297.827C209.332 300.11 210.487 302.277 211.892 304.28C211.476 305.698 209.789 310.38 211.13 310.897Z" fill="#191919"/>
<path d="M117.599 347.35C104.211 342.978 100.708 331.352 99.7855 321.538C99.502 318.525 97.2385 319.312 97.4388 322.325C98.4063 336.79 105.912 346.4 116.998 349.282C118.103 349.57 118.701 347.71 117.599 347.35Z" fill="#191919"/>
<path d="M362.455 310.724C361.688 324.631 360.516 333.854 347.589 344.058C347.422 344.19 347.312 344.382 347.284 344.594C347.255 344.806 347.31 345.02 347.436 345.192C347.562 345.365 347.75 345.481 347.96 345.518C348.17 345.555 348.386 345.509 348.564 345.39C362.628 338.057 364.831 323.565 364.228 310.884C364.185 309.966 362.522 309.511 362.455 310.724Z" fill="#191919"/>
<path d="M100.506 352.376C92.0276 349.676 88.2993 334.457 88.2656 326.19C88.2455 325.936 88.1353 325.698 87.9547 325.518C87.7742 325.338 87.5352 325.228 87.281 325.209C87.0268 325.19 86.774 325.262 86.5684 325.413C86.3627 325.563 86.2178 325.782 86.1596 326.031C84.3596 333.861 90.5538 352.268 100.092 354.322C101.374 354.599 101.696 352.765 100.506 352.376Z" fill="#191919"/>
<path d="M373.761 320.484C373.428 330.483 370.892 336.842 365.641 342.669C365.042 343.344 365.976 344.312 366.815 343.763C373.066 339.672 377.095 327.538 375.334 320.403C375.32 320.197 375.226 320.004 375.071 319.867C374.916 319.729 374.714 319.658 374.507 319.669C374.301 319.679 374.107 319.771 373.967 319.924C373.827 320.076 373.753 320.278 373.761 320.484Z" fill="#191919"/>
<path d="M187.715 119.505C188.571 122.114 189.93 124.529 191.716 126.613C191.788 128.979 191.619 131.346 191.209 133.678C191.043 134.601 193.648 136.905 193.876 128.625C199.622 132.999 205.78 131.399 209.875 125.839C211.408 131.439 213.453 129.162 212.954 128.118C212.254 126.632 211.726 125.071 211.378 123.465C212.5 121.323 213.332 119.041 213.854 116.679C219.267 118.011 219.944 108.168 218.509 104.88C217.78 103.211 216.457 104.318 216.761 105.2C217.271 106.678 218.187 115.266 214.335 114.425C214.967 111.871 215.138 109.225 214.841 106.611C214.681 105.837 213.266 105.636 213.174 106.518C212.584 112.263 212.787 116.583 209.176 123.038C202.97 134.119 190.188 129.633 187.776 111.464C187.654 110.564 186.109 110.478 186.176 111.558C186.296 113.543 186.601 115.512 187.087 117.44C184.837 117.732 183.085 113.185 183.166 108.89C183.156 108.699 183.078 108.518 182.946 108.38C182.814 108.241 182.637 108.154 182.447 108.135C182.256 108.116 182.066 108.165 181.909 108.274C181.752 108.383 181.639 108.545 181.591 108.73C180.835 113.239 183.262 120.252 187.715 119.505Z" fill="#191919"/>
<path d="M205.234 78.9066C207.484 73.2546 216.34 72.9216 220.687 77.5746C225.862 83.1231 221.634 95.3496 225.795 99.7461C229.955 104.143 225.57 97.8538 229.17 88.6536C232.77 79.4533 234.583 57.7746 216.196 55.8823C197.809 53.9901 192.396 67.8816 196.313 78.2811C199.292 77.7274 202.362 77.9427 205.234 78.9066Z" fill="#191919"/>
<path d="M188.276 97.4126C194.946 95.4454 201.909 94.6648 208.848 95.1064C209.368 100.907 214.178 105.171 214.698 104.439C216.948 101.204 220.125 78.9874 199.218 79.9999C178.311 81.0124 180.318 103.033 185.392 109.187C186.611 110.679 188.729 105.306 188.276 97.4126Z" fill="#191919"/>
<path d="M336.11 206.997C330.773 212.847 349.336 227.114 350.949 226.448C352.562 225.782 350.51 219.781 348.989 216.928C351.856 216.85 377.963 215.353 377.963 211.596C377.963 205.316 343.184 199.243 336.11 206.997Z" fill="#191919"/>
<path d="M408.787 183.25C412.067 180.21 426.384 158.752 420.572 157.571C412.812 155.996 384.943 184.242 394.294 191.409C398.439 194.586 418.547 188.049 419.044 186.459C419.541 184.868 415.773 183.916 408.787 183.25Z" fill="#191919"/>
<path d="M257.063 171.19C239.738 180.696 222.798 207.082 223.651 222.148C240.076 238.053 256.424 239.484 270.995 232.694C284.009 226.619 291.434 205.311 294.994 192.617C295.248 191.717 296.308 192.225 296.087 193.123C293.387 204.092 286.754 221.201 279.034 229.202C297.286 220.215 314.359 205.269 329.884 203.068C326.098 197.893 309.504 192.212 299.899 181.349C292.609 173.107 281.498 154.257 285.098 139.618C265.1 156.43 257.914 169.914 248.86 195.15C248.554 196.003 247.606 195.657 247.766 194.829C249.817 186.576 252.943 178.629 257.063 171.19Z" fill="#191919"/>
<path d="M133.313 135.705C133.934 134.369 121.129 90.845 119.588 91.1555C111.164 93.0569 103.629 97.7458 98.2012 104.463C92.774 111.18 89.7726 119.533 89.6831 128.168C89.6809 129.279 132.672 137.103 133.313 135.705Z" fill="#D33B4D"/>
<path d="M156.836 174.369C169.965 168.715 185.303 141.771 177.556 119.706C169.81 97.6398 142.891 88.2798 125.172 93.4931C129.557 109.493 136.624 131.226 137.637 140.599C122.752 139.059 107.965 136.686 93.3457 133.491C95.1997 184.276 143.698 180.039 156.836 174.369Z" fill="#D33B4D"/>
<path d="M25.63 312.51C25.5152 315.458 24.37 374.016 24.883 379.002C25.027 380.415 27.1082 380.161 27.268 378.87C27.8552 374.145 27.9205 315.366 27.8687 312.672C27.8417 311.244 25.6862 311.046 25.63 312.51Z" fill="#D33B4D"/>
<path d="M278.366 252.953C278.366 247.621 278.258 242.171 278.152 236.782C278.123 235.261 276.165 235.608 276.046 236.528C275.657 239.514 275.805 249.353 275.805 252.994C275.891 253.269 276.063 253.509 276.297 253.679C276.53 253.848 276.812 253.937 277.101 253.932C277.389 253.928 277.668 253.83 277.896 253.653C278.124 253.477 278.289 253.231 278.366 252.953Z" fill="#D33B4D"/>
<path d="M273.326 139.598C273.418 141.078 275.758 140.559 275.726 139.305C275.148 116.463 275.139 86.9322 274.779 69.0672C274.779 68.8178 274.68 68.5786 274.504 68.4022C274.327 68.2258 274.088 68.1267 273.839 68.1267C273.589 68.1267 273.35 68.2258 273.174 68.4022C272.997 68.5786 272.898 68.8178 272.898 69.0672C273.233 93.9882 272.18 121.04 273.326 139.598Z" fill="#D33B4D"/>
<path d="M153.304 88.3069C153.304 85.7734 153.567 72.3027 152.89 71.1754C152.81 71.0416 152.697 70.9309 152.561 70.8539C152.426 70.777 152.273 70.7366 152.117 70.7366C151.961 70.7366 151.808 70.777 151.673 70.8539C151.537 70.9309 151.424 71.0416 151.344 71.1754C150.563 72.4962 150.838 85.8409 150.838 88.2754C150.838 89.8009 153.304 89.9067 153.304 88.3069Z" fill="#D33B4D"/>
<path d="M28.4021 271.7C28.4494 205.775 28.9691 138.192 28.4021 71.108C28.3909 69.7738 26.3051 69.641 26.2961 71.0135C25.8461 137.224 26.2376 205.678 25.6954 271.581C25.6819 273.354 28.4021 273.487 28.4021 271.7Z" fill="#D33B4D"/>
<path d="M275.063 287.792C274.926 290.665 274.855 293.542 274.851 296.418C274.84 298.443 277.326 299.926 277.304 295.365C277.289 292.778 277.208 290.191 277.063 287.605C277.006 287.368 276.865 287.159 276.667 287.017C276.468 286.875 276.225 286.809 275.982 286.832C275.739 286.854 275.512 286.964 275.343 287.14C275.174 287.317 275.075 287.548 275.063 287.792Z" fill="#D33B4D"/>
<path d="M401.468 160.21C401.243 133.264 401.693 102.534 401.72 74.5346C401.72 73.4546 399.828 73.3466 399.801 74.5346C399.112 105.492 398.628 132.625 398.921 160.197C398.934 161.571 401.481 161.691 401.468 160.21Z" fill="#D33B4D"/>
<path d="M400.907 234.701C400.907 233.369 398.932 233.607 398.907 234.86C398.052 279.617 398.754 333.334 399.04 384.443C399.04 385.775 401.564 386.042 401.546 384.562C400.894 328.494 401.274 283.357 400.907 234.701Z" fill="#D33B4D"/>
<path d="M151.744 360.523C151.409 363.642 151.744 379.522 151.744 387.575C151.744 388.549 153.742 388.828 153.769 387.708C153.96 380.028 154.073 363.718 153.769 360.377C153.659 359.153 151.863 359.403 151.744 360.523Z" fill="#D33B4D"/>
<path d="M152.757 208.929C152.63 211.336 152.63 213.747 152.757 216.154C152.817 216.413 152.965 216.642 153.177 216.802C153.389 216.961 153.65 217.041 153.915 217.027C154.179 217.012 154.431 216.905 154.624 216.724C154.817 216.542 154.94 216.298 154.971 216.035C155.076 213.631 155.049 211.223 154.89 208.821C154.889 208.677 154.859 208.535 154.801 208.403C154.743 208.271 154.659 208.152 154.554 208.054C154.449 207.955 154.326 207.879 154.191 207.829C154.055 207.779 153.912 207.757 153.768 207.765C153.624 207.772 153.483 207.808 153.354 207.871C153.224 207.934 153.109 208.023 153.014 208.132C152.92 208.24 152.849 208.367 152.804 208.504C152.76 208.641 152.744 208.786 152.757 208.929Z" fill="#D33B4D"/>
<path d="M153.423 232.555C153.549 255.221 152.662 279.447 152.597 299.672C152.597 301.738 154.584 302.1 154.771 299.94C155.173 295.233 156.019 239.939 155.423 232.714C155.333 231.621 153.416 231.355 153.423 232.555Z" fill="#D33B4D"/>
<path d="M319.817 245.821C308.511 251.074 297.245 256.753 285.899 261.593C284.819 260.218 283.446 259.101 281.88 258.323C280.314 257.545 278.594 257.126 276.845 257.097C275.097 257.067 273.364 257.428 271.773 258.153C270.182 258.878 268.772 259.949 267.647 261.287C245.167 243.674 220.982 225.737 196.981 210.023C197.69 202.222 192.355 196.84 184.606 196.69C182.942 196.69 181.295 197.035 179.771 197.703C178.247 198.371 176.878 199.348 175.75 200.572C174.623 201.796 173.761 203.24 173.219 204.814C172.678 206.387 172.468 208.056 172.604 209.715C154.784 218.89 136.913 228.595 119.079 237.941C120.463 239.439 121.62 241.132 122.513 242.965C140.137 234.19 157.536 225.166 174.697 215.713C179.404 222.513 190.602 220.846 194.695 215.9C219.589 232.872 240.921 248.392 264.92 266.899C264.507 268.629 264.505 270.432 264.912 272.163C265.32 273.894 266.126 275.507 267.267 276.871C268.407 278.236 269.851 279.315 271.483 280.024C273.114 280.732 274.889 281.049 276.665 280.95C285.532 280.95 290.345 274.099 288.731 267.031C300.731 262.005 311.958 256.164 323.57 250.726C322.61 250.251 321.772 249.562 321.121 248.711C320.471 247.861 320.024 246.872 319.817 245.821Z" fill="#D33B4D"/>
<path d="M438.933 190.824C436.262 188.977 389.05 194.694 388.267 198.235C388.008 199.412 390.175 204.355 393.093 209.956C377.888 218.463 361.913 225.568 346.23 233.182C345.278 235.403 344.991 237.853 345.402 240.234C362.255 231.909 378.896 224.315 395.96 215.223C400.028 222.461 404.454 229.238 405.774 229.247C408.441 229.267 441.621 192.682 438.933 190.824Z" fill="#D33B4D"/>
<path d="M95.6788 250.194C76.0521 259.701 56.5468 270.474 37.2013 280.713C35.4787 278.966 33.3512 277.672 31.0079 276.945C28.6646 276.218 26.178 276.082 23.7691 276.547C21.3602 277.013 19.1036 278.066 17.1998 279.614C15.2961 281.161 13.804 283.155 12.8563 285.418C9.25635 294.056 13.2028 305.767 26.1876 306.118C28.6821 306.265 31.1733 305.78 33.4305 304.708C35.6876 303.636 37.6378 302.011 39.1003 299.985C40.5628 297.959 41.4904 295.597 41.7972 293.117C42.104 290.637 41.7801 288.12 40.8553 285.798C60.6396 275.412 80.1066 264.707 100.24 254.64C99.3675 252.613 97.7275 251.014 95.6788 250.194Z" fill="#D33B4D"/>
</svg>
