<svg xmlns="http://www.w3.org/2000/svg" width="30" height="30" viewBox="0 0 30 30" fill="none">
<g clip-path="url(#clip0_387_1680)">
<path d="M15 8.75C14.3125 8.75 13.75 9.3125 13.75 10V13.75H10C9.3125 13.75 8.75 14.3125 8.75 15C8.75 15.6875 9.3125 16.25 10 16.25H13.75V20C13.75 20.6875 14.3125 21.25 15 21.25C15.6875 21.25 16.25 20.6875 16.25 20V16.25H20C20.6875 16.25 21.25 15.6875 21.25 15C21.25 14.3125 20.6875 13.75 20 13.75H16.25V10C16.25 9.3125 15.6875 8.75 15 8.75ZM15 2.5C8.1125 2.5 2.5 8.1125 2.5 15C2.5 21.8875 8.1125 27.5 15 27.5C21.8875 27.5 27.5 21.8875 27.5 15C27.5 8.1125 21.8875 2.5 15 2.5ZM15 25C9.4875 25 5 20.5125 5 15C5 9.4875 9.4875 5 15 5C20.5125 5 25 9.4875 25 15C25 20.5125 20.5125 25 15 25Z" fill="white"/>
</g>
<defs>
<clipPath id="clip0_387_1680">
<rect width="30" height="30" fill="white"/>
</clipPath>
</defs>
</svg>