<svg width="46" height="46" viewBox="0 0 46 46" fill="none" xmlns="http://www.w3.org/2000/svg">
<circle cx="23" cy="23" r="23" fill="#F4F6F6"/>
<g clip-path="url(#clip0_364_5316)">
<path d="M15.5 31.75C15.5 33.125 16.625 34.25 18 34.25H28C29.375 34.25 30.5 33.125 30.5 31.75V19.25C30.5 17.875 29.375 16.75 28 16.75H18C16.625 16.75 15.5 17.875 15.5 19.25V31.75ZM30.5 13H27.375L26.4875 12.1125C26.2625 11.8875 25.9375 11.75 25.6125 11.75H20.3875C20.0625 11.75 19.7375 11.8875 19.5125 12.1125L18.625 13H15.5C14.8125 13 14.25 13.5625 14.25 14.25C14.25 14.9375 14.8125 15.5 15.5 15.5H30.5C31.1875 15.5 31.75 14.9375 31.75 14.25C31.75 13.5625 31.1875 13 30.5 13Z" fill="#373D49"/>
</g>
<defs>
<clipPath id="clip0_364_5316">
<rect width="30" height="30" fill="white" transform="translate(8 8)"/>
</clipPath>
</defs>
</svg>
