<svg xmlns="http://www.w3.org/2000/svg" width="80" height="80" viewBox="0 0 80 80" fill="none">
<path d="M39.9998 23.3333C41.8332 23.3333 43.3332 24.8333 43.3332 26.6666V40C43.3332 41.8333 41.8332 43.3333 39.9998 43.3333C38.1665 43.3333 36.6665 41.8333 36.6665 40V26.6666C36.6665 24.8333 38.1665 23.3333 39.9998 23.3333ZM39.9665 6.66663C21.5665 6.66663 6.6665 21.6 6.6665 40C6.6665 58.4 21.5665 73.3333 39.9665 73.3333C58.3998 73.3333 73.3332 58.4 73.3332 40C73.3332 21.6 58.3998 6.66663 39.9665 6.66663ZM39.9998 66.6666C25.2665 66.6666 13.3332 54.7333 13.3332 40C13.3332 25.2666 25.2665 13.3333 39.9998 13.3333C54.7332 13.3333 66.6665 25.2666 66.6665 40C66.6665 54.7333 54.7332 66.6666 39.9998 66.6666ZM43.3332 56.6666H36.6665V50H43.3332V56.6666Z" fill="#D33B4D"/>
</svg>