<svg width="46" height="46" viewBox="0 0 46 46" fill="none" xmlns="http://www.w3.org/2000/svg">
<circle cx="23" cy="23" r="23" fill="#F4F6F6"/>
<g clip-path="url(#clip0_427_8247)">
<path d="M33.5002 12.5169C32.8502 11.8669 31.8002 11.8669 31.1502 12.5169L23.0002 20.6502L14.8502 12.5002C14.2002 11.8502 13.1502 11.8502 12.5002 12.5002C11.8502 13.1502 11.8502 14.2002 12.5002 14.8502L20.6502 23.0002L12.5002 31.1502C11.8502 31.8002 11.8502 32.8502 12.5002 33.5002C13.1502 34.1502 14.2002 34.1502 14.8502 33.5002L23.0002 25.3502L31.1502 33.5002C31.8002 34.1502 32.8502 34.1502 33.5002 33.5002C34.1502 32.8502 34.1502 31.8002 33.5002 31.1502L25.3502 23.0002L33.5002 14.8502C34.1335 14.2169 34.1335 13.1502 33.5002 12.5169Z" fill="#323232"/>
</g>
<defs>
<clipPath id="clip0_427_8247">
<rect width="40" height="40" fill="white" transform="translate(3 3)"/>
</clipPath>
</defs>
</svg>
