<svg width="325" height="148" viewBox="0 0 325 148" fill="none" xmlns="http://www.w3.org/2000/svg">
<rect y="124" width="75" height="44" rx="8" transform="rotate(-90 0 124)" fill="#FFECEE"/>
<path d="M8.52295 144V143.048H10.819V135.208H8.99895V134.466C9.89495 134.312 10.539 134.074 11.071 133.752H11.953V143.048H14.039V144H8.52295ZM18.4105 144.196C16.4785 144.196 15.2605 142.432 15.2605 138.848C15.2605 135.292 16.4785 133.57 18.4105 133.57C20.3145 133.57 21.5325 135.292 21.5325 138.848C21.5325 142.432 20.3145 144.196 18.4105 144.196ZM18.4105 143.258C19.6145 143.258 20.4265 141.886 20.4265 138.848C20.4265 135.838 19.6145 134.494 18.4105 134.494C17.1925 134.494 16.3665 135.838 16.3665 138.848C16.3665 141.886 17.1925 143.258 18.4105 143.258ZM32.2321 132.464H33.2401V145.064H32.2321V132.464ZM30.0201 137.546H32.5121V138.414H30.0201V137.546ZM29.3761 132.744H30.3421V144.406H29.3761V132.744ZM23.0341 141.032H23.8461C25.7361 141.032 26.9961 140.976 28.4381 140.668L28.5501 141.536C27.0381 141.858 25.7781 141.914 23.8461 141.914H23.0341V141.032ZM23.0341 134.004H27.7241V134.858H24.0561V141.424H23.0341V134.004Z" fill="#BEBEBE"/>
<path d="M10.944 41.196C9.33397 41.196 8.38197 40.51 7.69597 39.838L8.28397 39.082C8.85797 39.67 9.61397 40.23 10.846 40.23C12.078 40.23 13.086 39.264 13.086 37.724C13.086 36.212 12.218 35.302 10.902 35.302C10.202 35.302 9.75397 35.526 9.16597 35.918L8.52197 35.512L8.85797 30.752H13.744V31.746H9.85197L9.58597 34.84C10.048 34.574 10.538 34.42 11.168 34.42C12.876 34.42 14.248 35.428 14.248 37.682C14.248 39.922 12.624 41.196 10.944 41.196ZM18.2276 41.196C16.6176 41.196 15.6656 40.51 14.9796 39.838L15.5676 39.082C16.1416 39.67 16.8976 40.23 18.1296 40.23C19.3616 40.23 20.3696 39.264 20.3696 37.724C20.3696 36.212 19.5016 35.302 18.1856 35.302C17.4856 35.302 17.0376 35.526 16.4496 35.918L15.8056 35.512L16.1416 30.752H21.0276V31.746H17.1356L16.8696 34.84C17.3316 34.574 17.8216 34.42 18.4516 34.42C20.1596 34.42 21.5316 35.428 21.5316 37.682C21.5316 39.922 19.9076 41.196 18.2276 41.196ZM24.7272 37.024C23.3412 37.024 22.4452 35.862 22.4452 33.776C22.4452 31.732 23.3412 30.57 24.7272 30.57C26.1272 30.57 27.0372 31.732 27.0372 33.776C27.0372 35.862 26.1272 37.024 24.7272 37.024ZM24.7272 36.31C25.5812 36.31 26.1412 35.442 26.1412 33.776C26.1412 32.124 25.5812 31.284 24.7272 31.284C23.8872 31.284 23.3132 32.124 23.3132 33.776C23.3132 35.442 23.8872 36.31 24.7272 36.31ZM25.0212 41.196L30.6912 30.57H31.4892L25.8332 41.196H25.0212ZM31.8252 41.196C30.4252 41.196 29.5152 40.02 29.5152 37.948C29.5152 35.904 30.4252 34.742 31.8252 34.742C33.1972 34.742 34.1072 35.904 34.1072 37.948C34.1072 40.02 33.1972 41.196 31.8252 41.196ZM31.8252 40.468C32.6512 40.468 33.2392 39.6 33.2392 37.948C33.2392 36.282 32.6512 35.456 31.8252 35.456C30.9712 35.456 30.3972 36.282 30.3972 37.948C30.3972 39.6 30.9712 40.468 31.8252 40.468Z" fill="#A0A0A0"/>
<rect x="56" y="124" width="100" height="44" rx="8" transform="rotate(-90 56 124)" fill="#D33B4D"/>
<path d="M64.0922 144V143.062C67.1302 140.374 68.6982 138.372 68.6982 136.678C68.6982 135.558 68.1102 134.788 66.9482 134.788C66.1362 134.788 65.4642 135.306 64.9182 135.936L64.0082 135.04C64.8902 134.074 65.8002 133.5 67.1442 133.5C69.0342 133.5 70.2522 134.732 70.2522 136.594C70.2522 138.582 68.6702 140.64 66.4862 142.726C67.0182 142.67 67.6622 142.628 68.1662 142.628H70.7422V144H64.0922ZM75.0505 144.182C73.0345 144.182 71.7185 142.39 71.7185 138.806C71.7185 135.236 73.0345 133.5 75.0505 133.5C77.0665 133.5 78.3825 135.25 78.3825 138.806C78.3825 142.39 77.0665 144.182 75.0505 144.182ZM75.0505 142.908C76.1005 142.908 76.8425 141.788 76.8425 138.806C76.8425 135.852 76.1005 134.774 75.0505 134.774C74.0005 134.774 73.2585 135.852 73.2585 138.806C73.2585 141.788 74.0005 142.908 75.0505 142.908ZM81.1929 135.11V140.878C82.6489 140.864 83.7969 140.794 85.0989 140.528L85.2249 141.718C83.6989 142.012 82.3969 142.068 80.6189 142.068H79.7789V133.934H84.4549V135.11H81.1929ZM88.7669 132.422H90.1389V145.064H88.7669V138.596H87.2689V144.448H85.9109V132.688H87.2689V137.42H88.7669V132.422Z" fill="#D33B4D"/>
<path d="M66.0275 16C66.2095 12.248 66.8675 9.84 68.8695 7.068L64.0255 7.068V5.696L70.6475 5.696V6.676C68.2395 9.7 67.8615 11.982 67.6795 16H66.0275ZM74.9138 16.196C72.8838 16.196 71.5818 14.39 71.5818 10.806C71.5818 7.25 72.8838 5.514 74.9138 5.514C76.9298 5.514 78.2458 7.25 78.2458 10.806C78.2458 14.39 76.9298 16.196 74.9138 16.196ZM74.9138 14.908C75.9638 14.908 76.6918 13.788 76.6918 10.806C76.6918 7.866 75.9638 6.774 74.9138 6.774C73.8638 6.774 73.1218 7.866 73.1218 10.806C73.1218 13.788 73.8638 14.908 74.9138 14.908ZM81.4202 12.024C79.9782 12.024 78.9982 10.82 78.9982 8.748C78.9982 6.69 79.9782 5.514 81.4202 5.514C82.8622 5.514 83.8422 6.69 83.8422 8.748C83.8422 10.82 82.8622 12.024 81.4202 12.024ZM81.4202 11.072C82.1342 11.072 82.6522 10.33 82.6522 8.748C82.6522 7.166 82.1342 6.452 81.4202 6.452C80.6922 6.452 80.1742 7.166 80.1742 8.748C80.1742 10.33 80.6922 11.072 81.4202 11.072ZM81.7282 16.196L87.3842 5.514H88.4062L82.7502 16.196H81.7282ZM88.7422 16.196C87.3002 16.196 86.3202 15.006 86.3202 12.92C86.3202 10.862 87.3002 9.672 88.7422 9.672C90.1702 9.672 91.1502 10.862 91.1502 12.92C91.1502 15.006 90.1702 16.196 88.7422 16.196ZM88.7422 15.244C89.4562 15.244 89.9742 14.502 89.9742 12.92C89.9742 11.324 89.4562 10.638 88.7422 10.638C88.0142 10.638 87.4962 11.324 87.4962 12.92C87.4962 14.502 88.0142 15.244 88.7422 15.244Z" fill="#D33B4D"/>
<rect x="112" y="124" width="80" height="44" rx="8" transform="rotate(-90 112 124)" fill="#FFECEE"/>
<path d="M123.931 144.196C122.335 144.196 121.355 143.51 120.697 142.782L121.285 142.04C121.873 142.656 122.657 143.23 123.861 143.23C125.121 143.23 126.003 142.46 126.003 141.242C126.003 139.968 125.149 139.128 122.755 139.128V138.218C124.911 138.218 125.639 137.336 125.639 136.188C125.639 135.18 124.953 134.508 123.861 134.508C123.007 134.508 122.265 134.942 121.705 135.53L121.075 134.788C121.817 134.102 122.713 133.57 123.889 133.57C125.569 133.57 126.815 134.508 126.815 136.118C126.815 137.392 126.059 138.218 124.981 138.596V138.666C126.185 138.946 127.165 139.856 127.165 141.284C127.165 143.09 125.737 144.196 123.931 144.196ZM131.411 144.196C129.479 144.196 128.261 142.432 128.261 138.848C128.261 135.292 129.479 133.57 131.411 133.57C133.315 133.57 134.533 135.292 134.533 138.848C134.533 142.432 133.315 144.196 131.411 144.196ZM131.411 143.258C132.615 143.258 133.427 141.886 133.427 138.848C133.427 135.838 132.615 134.494 131.411 134.494C130.193 134.494 129.367 135.838 129.367 138.848C129.367 141.886 130.193 143.258 131.411 143.258ZM145.232 132.464H146.24V145.064H145.232V132.464ZM143.02 137.546H145.512V138.414H143.02V137.546ZM142.376 132.744H143.342V144.406H142.376V132.744ZM136.034 141.032H136.846C138.736 141.032 139.996 140.976 141.438 140.668L141.55 141.536C140.038 141.858 138.778 141.914 136.846 141.914H136.034V141.032ZM136.034 134.004H140.724V134.858H137.056V141.424H136.034V134.004Z" fill="#BEBEBE"/>
<path d="M125.078 36V28.902C125.078 28.412 125.12 27.586 125.148 27.082H125.092C124.84 27.572 124.56 28.076 124.28 28.566L121.802 32.234H127.556V33.144H120.584V32.416L124.924 25.752H126.156V36H125.078ZM131.452 36.196C129.52 36.196 128.302 34.432 128.302 30.848C128.302 27.292 129.52 25.57 131.452 25.57C133.356 25.57 134.574 27.292 134.574 30.848C134.574 34.432 133.356 36.196 131.452 36.196ZM131.452 35.258C132.656 35.258 133.468 33.886 133.468 30.848C133.468 27.838 132.656 26.494 131.452 26.494C130.234 26.494 129.408 27.838 129.408 30.848C129.408 33.886 130.234 35.258 131.452 35.258ZM137.727 32.024C136.341 32.024 135.445 30.862 135.445 28.776C135.445 26.732 136.341 25.57 137.727 25.57C139.127 25.57 140.037 26.732 140.037 28.776C140.037 30.862 139.127 32.024 137.727 32.024ZM137.727 31.31C138.581 31.31 139.141 30.442 139.141 28.776C139.141 27.124 138.581 26.284 137.727 26.284C136.887 26.284 136.313 27.124 136.313 28.776C136.313 30.442 136.887 31.31 137.727 31.31ZM138.021 36.196L143.691 25.57H144.489L138.833 36.196H138.021ZM144.825 36.196C143.425 36.196 142.515 35.02 142.515 32.948C142.515 30.904 143.425 29.742 144.825 29.742C146.197 29.742 147.107 30.904 147.107 32.948C147.107 35.02 146.197 36.196 144.825 36.196ZM144.825 35.468C145.651 35.468 146.239 34.6 146.239 32.948C146.239 31.282 145.651 30.456 144.825 30.456C143.971 30.456 143.397 31.282 143.397 32.948C143.397 34.6 143.971 35.468 144.825 35.468Z" fill="#A0A0A0"/>
<rect x="168" y="124" width="45" height="44" rx="8" transform="rotate(-90 168 124)" fill="#FFECEE"/>
<path d="M180.037 144V136.902C180.037 136.412 180.079 135.586 180.107 135.082H180.051C179.799 135.572 179.519 136.076 179.239 136.566L176.761 140.234H182.515V141.144H175.543V140.416L179.883 133.752H181.115V144H180.037ZM186.411 144.196C184.479 144.196 183.261 142.432 183.261 138.848C183.261 135.292 184.479 133.57 186.411 133.57C188.315 133.57 189.533 135.292 189.533 138.848C189.533 142.432 188.315 144.196 186.411 144.196ZM186.411 143.258C187.615 143.258 188.427 141.886 188.427 138.848C188.427 135.838 187.615 134.494 186.411 134.494C185.193 134.494 184.367 135.838 184.367 138.848C184.367 141.886 185.193 143.258 186.411 143.258ZM200.232 132.464H201.24V145.064H200.232V132.464ZM198.02 137.546H200.512V138.414H198.02V137.546ZM197.376 132.744H198.342V144.406H197.376V132.744ZM191.034 141.032H191.846C193.736 141.032 194.996 140.976 196.438 140.668L196.55 141.536C195.038 141.858 193.778 141.914 191.846 141.914H191.034V141.032ZM191.034 134.004H195.724V134.858H192.056V141.424H191.034V134.004Z" fill="#BEBEBE"/>
<path d="M176.564 71V70.048H178.86V62.208H177.04V61.466C177.936 61.312 178.58 61.074 179.112 60.752H179.994V70.048H182.08V71H176.564ZM186.452 71.196C184.52 71.196 183.302 69.432 183.302 65.848C183.302 62.292 184.52 60.57 186.452 60.57C188.356 60.57 189.574 62.292 189.574 65.848C189.574 69.432 188.356 71.196 186.452 71.196ZM186.452 70.258C187.656 70.258 188.468 68.886 188.468 65.848C188.468 62.838 187.656 61.494 186.452 61.494C185.234 61.494 184.408 62.838 184.408 65.848C184.408 68.886 185.234 70.258 186.452 70.258ZM192.727 67.024C191.341 67.024 190.445 65.862 190.445 63.776C190.445 61.732 191.341 60.57 192.727 60.57C194.127 60.57 195.037 61.732 195.037 63.776C195.037 65.862 194.127 67.024 192.727 67.024ZM192.727 66.31C193.581 66.31 194.141 65.442 194.141 63.776C194.141 62.124 193.581 61.284 192.727 61.284C191.887 61.284 191.313 62.124 191.313 63.776C191.313 65.442 191.887 66.31 192.727 66.31ZM193.021 71.196L198.691 60.57H199.489L193.833 71.196H193.021ZM199.825 71.196C198.425 71.196 197.515 70.02 197.515 67.948C197.515 65.904 198.425 64.742 199.825 64.742C201.197 64.742 202.107 65.904 202.107 67.948C202.107 70.02 201.197 71.196 199.825 71.196ZM199.825 70.468C200.651 70.468 201.239 69.6 201.239 67.948C201.239 66.282 200.651 65.456 199.825 65.456C198.971 65.456 198.397 66.282 198.397 67.948C198.397 69.6 198.971 70.468 199.825 70.468Z" fill="#A0A0A0"/>
<rect x="224" y="124" width="45" height="44" rx="8" transform="rotate(-90 224 124)" fill="#FFECEE"/>
<path d="M234.903 144.196C233.293 144.196 232.341 143.51 231.655 142.838L232.243 142.082C232.817 142.67 233.573 143.23 234.805 143.23C236.037 143.23 237.045 142.264 237.045 140.724C237.045 139.212 236.177 138.302 234.861 138.302C234.161 138.302 233.713 138.526 233.125 138.918L232.481 138.512L232.817 133.752H237.703V134.746H233.811L233.545 137.84C234.007 137.574 234.497 137.42 235.127 137.42C236.835 137.42 238.207 138.428 238.207 140.682C238.207 142.922 236.583 144.196 234.903 144.196ZM242.411 144.196C240.479 144.196 239.261 142.432 239.261 138.848C239.261 135.292 240.479 133.57 242.411 133.57C244.315 133.57 245.533 135.292 245.533 138.848C245.533 142.432 244.315 144.196 242.411 144.196ZM242.411 143.258C243.615 143.258 244.427 141.886 244.427 138.848C244.427 135.838 243.615 134.494 242.411 134.494C241.193 134.494 240.367 135.838 240.367 138.848C240.367 141.886 241.193 143.258 242.411 143.258ZM256.232 132.464H257.24V145.064H256.232V132.464ZM254.02 137.546H256.512V138.414H254.02V137.546ZM253.376 132.744H254.342V144.406H253.376V132.744ZM247.034 141.032H247.846C249.736 141.032 250.996 140.976 252.438 140.668L252.55 141.536C251.038 141.858 249.778 141.914 247.846 141.914H247.034V141.032ZM247.034 134.004H251.724V134.858H248.056V141.424H247.034V134.004Z" fill="#BEBEBE"/>
<path d="M232.564 71V70.048H234.86V62.208H233.04V61.466C233.936 61.312 234.58 61.074 235.112 60.752H235.994V70.048H238.08V71H232.564ZM242.452 71.196C240.52 71.196 239.302 69.432 239.302 65.848C239.302 62.292 240.52 60.57 242.452 60.57C244.356 60.57 245.574 62.292 245.574 65.848C245.574 69.432 244.356 71.196 242.452 71.196ZM242.452 70.258C243.656 70.258 244.468 68.886 244.468 65.848C244.468 62.838 243.656 61.494 242.452 61.494C241.234 61.494 240.408 62.838 240.408 65.848C240.408 68.886 241.234 70.258 242.452 70.258ZM248.727 67.024C247.341 67.024 246.445 65.862 246.445 63.776C246.445 61.732 247.341 60.57 248.727 60.57C250.127 60.57 251.037 61.732 251.037 63.776C251.037 65.862 250.127 67.024 248.727 67.024ZM248.727 66.31C249.581 66.31 250.141 65.442 250.141 63.776C250.141 62.124 249.581 61.284 248.727 61.284C247.887 61.284 247.313 62.124 247.313 63.776C247.313 65.442 247.887 66.31 248.727 66.31ZM249.021 71.196L254.691 60.57H255.489L249.833 71.196H249.021ZM255.825 71.196C254.425 71.196 253.515 70.02 253.515 67.948C253.515 65.904 254.425 64.742 255.825 64.742C257.197 64.742 258.107 65.904 258.107 67.948C258.107 70.02 257.197 71.196 255.825 71.196ZM255.825 70.468C256.651 70.468 257.239 69.6 257.239 67.948C257.239 66.282 256.651 65.456 255.825 65.456C254.971 65.456 254.397 66.282 254.397 67.948C254.397 69.6 254.971 70.468 255.825 70.468Z" fill="#A0A0A0"/>
<rect x="280" y="124" width="45" height="45" rx="8" transform="rotate(-90 280 124)" fill="#FFECEE"/>
<path d="M292.449 144.196C290.489 144.196 289.061 142.474 289.061 139.142C289.061 135.082 290.853 133.57 292.827 133.57C293.849 133.57 294.605 134.004 295.151 134.606L294.507 135.306C294.101 134.83 293.485 134.522 292.869 134.522C291.385 134.522 290.139 135.698 290.139 139.142C290.139 141.76 290.937 143.286 292.449 143.286C293.471 143.286 294.255 142.292 294.255 140.878C294.255 139.464 293.639 138.526 292.337 138.526C291.665 138.526 290.811 138.918 290.097 139.968L290.069 139.03C290.713 138.176 291.651 137.672 292.505 137.672C294.241 137.672 295.347 138.736 295.347 140.878C295.347 142.838 294.017 144.196 292.449 144.196ZM299.411 144.196C297.479 144.196 296.261 142.432 296.261 138.848C296.261 135.292 297.479 133.57 299.411 133.57C301.315 133.57 302.533 135.292 302.533 138.848C302.533 142.432 301.315 144.196 299.411 144.196ZM299.411 143.258C300.615 143.258 301.427 141.886 301.427 138.848C301.427 135.838 300.615 134.494 299.411 134.494C298.193 134.494 297.367 135.838 297.367 138.848C297.367 141.886 298.193 143.258 299.411 143.258ZM313.232 132.464H314.24V145.064H313.232V132.464ZM311.02 137.546H313.512V138.414H311.02V137.546ZM310.376 132.744H311.342V144.406H310.376V132.744ZM304.034 141.032H304.846C306.736 141.032 307.996 140.976 309.438 140.668L309.55 141.536C308.038 141.858 306.778 141.914 304.846 141.914H304.034V141.032ZM304.034 134.004H308.724V134.858H305.056V141.424H304.034V134.004Z" fill="#BEBEBE"/>
<path d="M289.564 71V70.048H291.86V62.208H290.04V61.466C290.936 61.312 291.58 61.074 292.112 60.752H292.994V70.048H295.08V71H289.564ZM299.452 71.196C297.52 71.196 296.302 69.432 296.302 65.848C296.302 62.292 297.52 60.57 299.452 60.57C301.356 60.57 302.574 62.292 302.574 65.848C302.574 69.432 301.356 71.196 299.452 71.196ZM299.452 70.258C300.656 70.258 301.468 68.886 301.468 65.848C301.468 62.838 300.656 61.494 299.452 61.494C298.234 61.494 297.408 62.838 297.408 65.848C297.408 68.886 298.234 70.258 299.452 70.258ZM305.727 67.024C304.341 67.024 303.445 65.862 303.445 63.776C303.445 61.732 304.341 60.57 305.727 60.57C307.127 60.57 308.037 61.732 308.037 63.776C308.037 65.862 307.127 67.024 305.727 67.024ZM305.727 66.31C306.581 66.31 307.141 65.442 307.141 63.776C307.141 62.124 306.581 61.284 305.727 61.284C304.887 61.284 304.313 62.124 304.313 63.776C304.313 65.442 304.887 66.31 305.727 66.31ZM306.021 71.196L311.691 60.57H312.489L306.833 71.196H306.021ZM312.825 71.196C311.425 71.196 310.515 70.02 310.515 67.948C310.515 65.904 311.425 64.742 312.825 64.742C314.197 64.742 315.107 65.904 315.107 67.948C315.107 70.02 314.197 71.196 312.825 71.196ZM312.825 70.468C313.651 70.468 314.239 69.6 314.239 67.948C314.239 66.282 313.651 65.456 312.825 65.456C311.971 65.456 311.397 66.282 311.397 67.948C311.397 69.6 311.971 70.468 312.825 70.468Z" fill="#A0A0A0"/>
</svg>
