<svg width="296" height="99" viewBox="0 0 296 99" fill="none" xmlns="http://www.w3.org/2000/svg">
<path d="M8 75C3.58172 75 0 71.4183 0 67L0 50H36V67C36 71.4183 32.4183 75 28 75H8Z" fill="#F9F3F3"/>
<path d="M0 50L0 45C0 40.5817 3.58172 37 8 37H28C32.4183 37 36 40.5817 36 45V50H0Z" fill="#FD929F"/>
<path d="M5.52295 95V94.048H7.81895V86.208H5.99895V85.466C6.89495 85.312 7.53895 85.074 8.07095 84.752H8.95295V94.048H11.039V95H5.52295ZM15.4105 95.196C13.4785 95.196 12.2605 93.432 12.2605 89.848C12.2605 86.292 13.4785 84.57 15.4105 84.57C17.3145 84.57 18.5325 86.292 18.5325 89.848C18.5325 93.432 17.3145 95.196 15.4105 95.196ZM15.4105 94.258C16.6145 94.258 17.4265 92.886 17.4265 89.848C17.4265 86.838 16.6145 85.494 15.4105 85.494C14.1925 85.494 13.3665 86.838 13.3665 89.848C13.3665 92.886 14.1925 94.258 15.4105 94.258ZM29.2321 83.464H30.2401V96.064H29.2321V83.464ZM27.0201 88.546H29.5121V89.414H27.0201V88.546ZM26.3761 83.744H27.3421V95.406H26.3761V83.744ZM20.0341 92.032H20.8461C22.7361 92.032 23.9961 91.976 25.4381 91.668L25.5501 92.536C24.0381 92.858 22.7781 92.914 20.8461 92.914H20.0341V92.032ZM20.0341 85.004H24.7241V85.858H21.0561V92.424H20.0341V85.004Z" fill="#BEBEBE"/>
<path d="M60 76C55.5817 76 52 72.4183 52 68V50H88V68C88 72.4183 84.4183 76 80 76H60Z" fill="#F9F3F3"/>
<path d="M52 50V8C52 3.58172 55.5817 0 60 0H80C84.4183 0 88 3.58172 88 8V50H52Z" fill="#D33B4D"/>
<path d="M56.0782 95V94.062C59.1302 91.374 60.6842 89.372 60.6842 87.678C60.6842 86.572 60.0962 85.802 58.9482 85.802C58.1362 85.802 57.4642 86.306 56.9182 86.936L55.9942 86.054C56.8902 85.088 57.8002 84.514 59.1442 84.514C61.0342 84.514 62.2522 85.732 62.2522 87.608C62.2522 89.582 60.6562 91.64 58.4722 93.74C59.0042 93.684 59.6622 93.628 60.1662 93.628H62.7422V95H56.0782ZM67.0505 95.196C65.0205 95.196 63.7185 93.39 63.7185 89.806C63.7185 86.25 65.0205 84.514 67.0505 84.514C69.0665 84.514 70.3825 86.25 70.3825 89.806C70.3825 93.39 69.0665 95.196 67.0505 95.196ZM67.0505 93.908C68.1005 93.908 68.8285 92.788 68.8285 89.806C68.8285 86.866 68.1005 85.774 67.0505 85.774C66.0005 85.774 65.2585 86.866 65.2585 89.806C65.2585 92.788 66.0005 93.908 67.0505 93.908ZM80.7949 83.366H82.1949V96.162H80.7949V83.366ZM78.8349 88.406H81.1449V89.596H78.8349V88.406ZM77.9109 83.618H79.2689V95.532H77.9109V83.618ZM71.6949 91.906H72.5629C74.2989 91.906 75.5869 91.85 77.0849 91.556L77.2109 92.76C75.6709 93.068 74.3549 93.124 72.5629 93.124H71.6949V91.906ZM71.6949 84.892H76.4409V86.082H73.1509V92.48H71.6949V84.892Z" fill="#D33B4D"/>
<path d="M112 75C107.582 75 104 71.4183 104 67V62H140V67C140 71.4183 136.418 75 132 75H112Z" fill="#F9F3F3"/>
<path d="M104 62V36C104 31.5817 107.582 28 112 28H132C136.418 28 140 31.5817 140 36V62H104Z" fill="#FD929F"/>
<path d="M111.931 95.196C110.335 95.196 109.355 94.51 108.697 93.782L109.285 93.04C109.873 93.656 110.657 94.23 111.861 94.23C113.121 94.23 114.003 93.46 114.003 92.242C114.003 90.968 113.149 90.128 110.755 90.128V89.218C112.911 89.218 113.639 88.336 113.639 87.188C113.639 86.18 112.953 85.508 111.861 85.508C111.007 85.508 110.265 85.942 109.705 86.53L109.075 85.788C109.817 85.102 110.713 84.57 111.889 84.57C113.569 84.57 114.815 85.508 114.815 87.118C114.815 88.392 114.059 89.218 112.981 89.596V89.666C114.185 89.946 115.165 90.856 115.165 92.284C115.165 94.09 113.737 95.196 111.931 95.196ZM119.411 95.196C117.479 95.196 116.261 93.432 116.261 89.848C116.261 86.292 117.479 84.57 119.411 84.57C121.315 84.57 122.533 86.292 122.533 89.848C122.533 93.432 121.315 95.196 119.411 95.196ZM119.411 94.258C120.615 94.258 121.427 92.886 121.427 89.848C121.427 86.838 120.615 85.494 119.411 85.494C118.193 85.494 117.367 86.838 117.367 89.848C117.367 92.886 118.193 94.258 119.411 94.258ZM133.232 83.464H134.24V96.064H133.232V83.464ZM131.02 88.546H133.512V89.414H131.02V88.546ZM130.376 83.744H131.342V95.406H130.376V83.744ZM124.034 92.032H124.846C126.736 92.032 127.996 91.976 129.438 91.668L129.55 92.536C128.038 92.858 126.778 92.914 124.846 92.914H124.034V92.032ZM124.034 85.004H128.724V85.858H125.056V92.424H124.034V85.004Z" fill="#BEBEBE"/>
<path d="M156 46V42C156 37.5817 159.582 34 164 34H184C188.418 34 192 37.5817 192 42V46H156Z" fill="#F9F3F3"/>
<path d="M164 75C159.582 75 156 71.4183 156 67V46H192V67C192 71.4183 188.418 75 184 75H164Z" fill="#FD929F"/>
<path d="M165.037 95V87.902C165.037 87.412 165.079 86.586 165.107 86.082H165.051C164.799 86.572 164.519 87.076 164.239 87.566L161.761 91.234H167.515V92.144H160.543V91.416L164.883 84.752H166.115V95H165.037ZM171.411 95.196C169.479 95.196 168.261 93.432 168.261 89.848C168.261 86.292 169.479 84.57 171.411 84.57C173.315 84.57 174.533 86.292 174.533 89.848C174.533 93.432 173.315 95.196 171.411 95.196ZM171.411 94.258C172.615 94.258 173.427 92.886 173.427 89.848C173.427 86.838 172.615 85.494 171.411 85.494C170.193 85.494 169.367 86.838 169.367 89.848C169.367 92.886 170.193 94.258 171.411 94.258ZM185.232 83.464H186.24V96.064H185.232V83.464ZM183.02 88.546H185.512V89.414H183.02V88.546ZM182.376 83.744H183.342V95.406H182.376V83.744ZM176.034 92.032H176.846C178.736 92.032 179.996 91.976 181.438 91.668L181.55 92.536C180.038 92.858 178.778 92.914 176.846 92.914H176.034V92.032ZM176.034 85.004H180.724V85.858H177.056V92.424H176.034V85.004Z" fill="#BEBEBE"/>
<rect x="208" y="75" width="41" height="36" rx="8" transform="rotate(-90 208 75)" fill="#F9F3F3"/>
<path d="M215.903 95.196C214.293 95.196 213.341 94.51 212.655 93.838L213.243 93.082C213.817 93.67 214.573 94.23 215.805 94.23C217.037 94.23 218.045 93.264 218.045 91.724C218.045 90.212 217.177 89.302 215.861 89.302C215.161 89.302 214.713 89.526 214.125 89.918L213.481 89.512L213.817 84.752H218.703V85.746H214.811L214.545 88.84C215.007 88.574 215.497 88.42 216.127 88.42C217.835 88.42 219.207 89.428 219.207 91.682C219.207 93.922 217.583 95.196 215.903 95.196ZM223.411 95.196C221.479 95.196 220.261 93.432 220.261 89.848C220.261 86.292 221.479 84.57 223.411 84.57C225.315 84.57 226.533 86.292 226.533 89.848C226.533 93.432 225.315 95.196 223.411 95.196ZM223.411 94.258C224.615 94.258 225.427 92.886 225.427 89.848C225.427 86.838 224.615 85.494 223.411 85.494C222.193 85.494 221.367 86.838 221.367 89.848C221.367 92.886 222.193 94.258 223.411 94.258ZM237.232 83.464H238.24V96.064H237.232V83.464ZM235.02 88.546H237.512V89.414H235.02V88.546ZM234.376 83.744H235.342V95.406H234.376V83.744ZM228.034 92.032H228.846C230.736 92.032 231.996 91.976 233.438 91.668L233.55 92.536C232.038 92.858 230.778 92.914 228.846 92.914H228.034V92.032ZM228.034 85.004H232.724V85.858H229.056V92.424H228.034V85.004Z" fill="#BEBEBE"/>
<rect x="260" y="75" width="32" height="36" rx="8" transform="rotate(-90 260 75)" fill="#F9F3F3"/>
<path d="M268.449 95.196C266.489 95.196 265.061 93.474 265.061 90.142C265.061 86.082 266.853 84.57 268.827 84.57C269.849 84.57 270.605 85.004 271.151 85.606L270.507 86.306C270.101 85.83 269.485 85.522 268.869 85.522C267.385 85.522 266.139 86.698 266.139 90.142C266.139 92.76 266.937 94.286 268.449 94.286C269.471 94.286 270.255 93.292 270.255 91.878C270.255 90.464 269.639 89.526 268.337 89.526C267.665 89.526 266.811 89.918 266.097 90.968L266.069 90.03C266.713 89.176 267.651 88.672 268.505 88.672C270.241 88.672 271.347 89.736 271.347 91.878C271.347 93.838 270.017 95.196 268.449 95.196ZM275.411 95.196C273.479 95.196 272.261 93.432 272.261 89.848C272.261 86.292 273.479 84.57 275.411 84.57C277.315 84.57 278.533 86.292 278.533 89.848C278.533 93.432 277.315 95.196 275.411 95.196ZM275.411 94.258C276.615 94.258 277.427 92.886 277.427 89.848C277.427 86.838 276.615 85.494 275.411 85.494C274.193 85.494 273.367 86.838 273.367 89.848C273.367 92.886 274.193 94.258 275.411 94.258ZM289.232 83.464H290.24V96.064H289.232V83.464ZM287.02 88.546H289.512V89.414H287.02V88.546ZM286.376 83.744H287.342V95.406H286.376V83.744ZM280.034 92.032H280.846C282.736 92.032 283.996 91.976 285.438 91.668L285.55 92.536C284.038 92.858 282.778 92.914 280.846 92.914H280.034V92.032ZM280.034 85.004H284.724V85.858H281.056V92.424H280.034V85.004Z" fill="#BEBEBE"/>
</svg>
