<svg width="425" height="246" viewBox="0 0 425 246" fill="none" xmlns="http://www.w3.org/2000/svg">
<rect x="145" y="40" width="135" height="135" rx="67.5" fill="#D33B4D"/>
<path d="M191.679 105.72V111.6H188.963V97.348H191.679V103.368H194.339V96.9H197.083V112.412H194.339V105.72H191.679ZM188.375 108.464L186.835 110.62C184.595 109.752 183.027 108.072 182.075 106.056C181.151 108.38 179.499 110.34 177.063 111.404L175.551 109.192C178.939 107.652 180.647 104.488 180.647 101.604V98.412H183.447V101.604C183.447 104.404 185.099 107.176 188.375 108.464ZM188.655 119.944C192.211 119.944 194.339 119.076 194.339 117.536C194.339 115.968 192.211 115.1 188.655 115.1C185.099 115.1 182.971 115.968 182.971 117.536C182.971 119.076 185.099 119.944 188.655 119.944ZM188.655 112.888C193.919 112.888 197.223 114.624 197.223 117.536C197.223 120.42 193.919 122.156 188.655 122.156C183.391 122.156 180.087 120.42 180.087 117.536C180.087 114.624 183.391 112.888 188.655 112.888ZM203.009 106.84L218.437 106.252C218.493 104.908 218.493 103.62 218.493 102.332V101.604H203.709V99.28H221.321V102.332C221.321 106 221.321 109.472 220.201 114.792L217.345 114.54C217.877 112.272 218.157 110.284 218.297 108.436L203.373 109.192L203.009 106.84ZM201.049 116.5H223.897V118.88H201.049V116.5ZM241.723 107.708L242.059 110.06C238.083 110.704 234.667 110.816 229.823 110.816H227.695V103.368H236.375V100.652H227.639V98.328H239.203V105.58H230.551V108.464C234.891 108.464 238.055 108.324 241.723 107.708ZM233.519 115.436V119.552H244.411V115.436H233.519ZM230.691 121.848V113.14H247.239V121.848H230.691ZM244.355 96.844H247.239V111.88H244.355V96.844Z" fill="white"/>
<rect x="262" y="139" width="107" height="107" rx="53.5" fill="#FD929F"/>
<path d="M280.791 197.272L279.699 194.948C285.019 194.22 288.491 191.336 288.659 187.948H280.735V185.596H288.687V182.32H291.571V185.596H299.495V187.948H291.599C291.767 191.336 295.239 194.22 300.559 194.948L299.467 197.272C295.211 196.6 291.795 194.64 290.143 191.784C288.463 194.64 285.047 196.6 280.791 197.272ZM291.571 201.752H301.595V204.104H278.691V201.752H288.687V196.376H291.571V201.752ZM306.065 186.856L321.297 186.436C321.325 185.82 321.325 185.26 321.325 184.728H306.709V182.516H324.181V184.112C324.181 185.876 324.181 188.228 323.593 191.308L320.793 191.14C320.961 190.16 321.073 189.264 321.157 188.452L306.429 189.096L306.065 186.856ZM309.649 202.704V204.58H324.769V206.764H306.793V200.66H321.213V198.784H306.737V196.628H324.041V202.704H309.649ZM315.893 192.568H326.897V194.864H304.077V192.568H313.009V189.908H315.893V192.568ZM350.799 181.872V199.12H348.055V181.872H350.799ZM343.071 197.02V190.356H340.299V188.004H343.071V182.404H345.787V197.02H343.071ZM341.167 193.632L341.447 195.9C338.395 196.488 335.819 196.6 332.179 196.6H330.471V188.956H336.575V186.044H330.415V183.748H339.375V191.112H333.271V194.276C336.239 194.248 338.535 194.108 341.167 193.632ZM343.715 197.944V198.504C343.715 201.472 347.159 204.16 352.031 204.86L350.939 207.072C347.019 206.456 343.855 204.664 342.287 202.116C340.719 204.664 337.527 206.456 333.607 207.072L332.487 204.86C337.359 204.16 340.831 201.472 340.831 198.504V197.944H343.715Z" fill="white"/>
<rect x="290" y="49" width="80" height="80" rx="40" fill="#FD929F"/>
<path d="M306.704 89.624L306.186 88.49C308.594 88.168 310.372 86.782 310.456 85.312H306.606V84.15H315.916V85.312H312.094C312.178 86.782 313.956 88.168 316.364 88.49L315.846 89.624C313.76 89.316 312.038 88.28 311.268 86.88C310.498 88.28 308.79 89.316 306.704 89.624ZM316.994 90.548L316.98 91.71H311.954V96.092H310.512V91.71H305.556V90.548H316.994ZM326.589 87.412V85.144H320.891V87.412H326.589ZM328.003 83.996V88.56H319.477V83.996H328.003ZM320.863 92.186V94.664H328.213V95.84H319.421V92.186H320.863ZM318.021 89.806H329.487V90.968H324.587V93.334H323.145V90.968H318.021V89.806ZM334.35 85.998V86.908C334.35 89.064 335.162 91.248 336.926 92.27L336.086 93.32C334.896 92.62 334.112 91.374 333.664 89.904C333.216 91.5 332.404 92.858 331.186 93.628L330.318 92.564C332.11 91.444 332.95 89.162 332.95 86.908V85.998H330.724V84.808H336.436V85.998H334.35ZM337.374 87.874V83.674H338.732V95.462H337.374V89.05H335.512V87.874H337.374ZM339.922 83.422H341.294V96.064H339.922V83.422ZM350.427 89.442L349.685 90.548C348.271 90.086 347.263 89.12 346.717 87.916C346.157 89.246 345.107 90.282 343.623 90.8L342.867 89.666C344.869 88.994 345.975 87.384 345.975 85.648V85.424H343.287V84.248H350.077V85.424H347.431V85.648C347.431 87.244 348.495 88.798 350.427 89.442ZM344.547 92.83V91.668H352.863V96.078H351.421V92.83H344.547ZM354.655 86.656V87.846H352.863V91.052H351.421V83.422H352.863V86.656H354.655Z" fill="white"/>
<rect x="365" y="109" width="60" height="60" rx="30" fill="#FFECEE"/>
<path d="M382.917 145V134.682H384.541V145H382.917ZM388.937 145V136.054H385.913V134.682H393.599V136.054H390.561V145H388.937ZM393.489 145V144.02L398.655 136.054H393.965V134.682H400.657V135.662L395.505 143.628H400.713V145H393.489ZM403.755 145V141.094L400.661 134.682H402.397L403.587 137.426C403.909 138.196 404.203 138.91 404.553 139.694H404.609C404.945 138.91 405.281 138.196 405.589 137.426L406.793 134.682H408.487L405.379 141.094V145H403.755Z" fill="#FD929F"/>
<rect x="262.5" y="16.5" width="42" height="42" rx="21" fill="white"/>
<rect x="262.5" y="16.5" width="42" height="42" rx="21" stroke="#FFECEE"/>
<path d="M281.013 41.152V36.544H278.817V35.524H281.013V33.088H282.249V41.152H281.013ZM279.669 38.488L279.009 39.448C277.845 39.016 276.993 38.14 276.537 37.048C276.057 38.26 275.157 39.22 273.909 39.7L273.249 38.74C274.941 38.14 275.877 36.616 275.877 35.008V33.748H277.137V35.032C277.137 36.496 278.049 37.9 279.669 38.488ZM276.441 42.712H282.501V43.72H275.193V40.3H276.441V42.712ZM291.232 35.8V34.384H286.372V35.8H291.232ZM292.444 33.424V36.772H285.148V33.424H292.444ZM293.716 38.512H289.42V39.412H292.48V41.992H286.312V42.88H292.792V43.828H285.088V41.116H291.268V40.348H285.064V39.412H288.172V38.512H283.9V37.528H293.716V38.512Z" fill="#FD929F"/>
<rect x="88" y="152" width="80" height="80" rx="40" fill="#FD929F"/>
<path d="M121.05 189.76V194.8H118.722V182.584H121.05V187.744H123.33V182.2H125.682V195.496H123.33V189.76H121.05ZM118.218 192.112L116.898 193.96C114.978 193.216 113.634 191.776 112.818 190.048C112.026 192.04 110.61 193.72 108.522 194.632L107.226 192.736C110.13 191.416 111.594 188.704 111.594 186.232V183.496H113.994V186.232C113.994 188.632 115.41 191.008 118.218 192.112ZM118.458 201.952C121.506 201.952 123.33 201.208 123.33 199.888C123.33 198.544 121.506 197.8 118.458 197.8C115.41 197.8 113.586 198.544 113.586 199.888C113.586 201.208 115.41 201.952 118.458 201.952ZM118.458 195.904C122.97 195.904 125.802 197.392 125.802 199.888C125.802 202.36 122.97 203.848 118.458 203.848C113.946 203.848 111.114 202.36 111.114 199.888C111.114 197.392 113.946 195.904 118.458 195.904ZM146.88 182.152V193.168H144.408V182.152H146.88ZM131.832 187.768C131.832 189.496 133.224 190.624 135.096 190.624C136.992 190.624 138.408 189.496 138.408 187.768C138.408 186.04 136.992 184.912 135.096 184.912C133.224 184.912 131.832 186.04 131.832 187.768ZM140.808 187.768C140.808 190.624 138.384 192.64 135.096 192.64C131.832 192.64 129.432 190.624 129.432 187.768C129.432 184.912 131.832 182.872 135.096 182.872C138.384 182.872 140.808 184.912 140.808 187.768ZM135.144 201.64H147.528V203.584H132.72V197.896H144.432V196.096H132.672V194.152H146.88V199.72H135.144V201.64Z" fill="white"/>
<rect y="128" width="80" height="80" rx="40" fill="#FD929F"/>
<path d="M23.4242 166.804V169.618H22.0802V162.674H23.4242V165.628H24.8802V162.422H26.2522V170.038H24.8802V166.804H23.4242ZM21.2822 167.476L21.4362 168.652C19.8262 168.974 18.4822 169.044 16.9562 169.044H16.1162V163.43H17.5582V167.854C18.7902 167.826 19.9662 167.742 21.2822 167.476ZM22.0522 173.944C23.8162 173.944 24.8802 173.468 24.8802 172.642C24.8802 171.816 23.8162 171.34 22.0522 171.34C20.2742 171.34 19.1962 171.816 19.1962 172.642C19.1962 173.468 20.2742 173.944 22.0522 173.944ZM22.0522 170.206C24.6562 170.206 26.3222 171.13 26.3222 172.642C26.3222 174.154 24.6562 175.078 22.0522 175.078C19.4342 175.078 17.7542 174.154 17.7542 172.642C17.7542 171.13 19.4342 170.206 22.0522 170.206ZM35.4551 168.386L34.7551 169.506C33.3411 169.058 32.3331 168.148 31.7871 166.972C31.2271 168.316 30.1631 169.394 28.6511 169.912L27.9231 168.778C29.9111 168.092 31.0171 166.468 31.0171 164.746V164.494H28.3291V163.332H35.1191V164.494H32.4731V164.732C32.4731 166.3 33.5231 167.77 35.4551 168.386ZM33.8311 173.944C35.5951 173.944 36.6171 173.496 36.6171 172.684C36.6171 171.858 35.5951 171.424 33.8311 171.424C32.0671 171.424 31.0451 171.858 31.0451 172.684C31.0451 173.496 32.0671 173.944 33.8311 173.944ZM33.8311 170.29C36.4351 170.29 38.0451 171.172 38.0451 172.684C38.0451 174.182 36.4351 175.078 33.8311 175.078C31.2271 175.078 29.6171 174.182 29.6171 172.684C29.6171 171.172 31.2271 170.29 33.8311 170.29ZM37.9051 165.516H39.6971V166.706H37.9051V169.996H36.4631V162.436H37.9051V165.516ZM43.23 166.566V168.638H49.222V166.566H43.23ZM46.94 172.348H51.966V173.538H40.514V172.348H45.498V169.8H41.802V163.276H43.23V165.404H49.222V163.276H50.65V169.8H46.94V172.348ZM59.6709 167.854L58.2569 167.7C58.5089 166.342 58.5509 165.348 58.5649 164.564H53.6229V163.388H59.9789V164.116C59.9789 164.97 59.9789 166.216 59.6709 167.854ZM60.7209 168.484L60.8189 169.534C58.1869 169.996 55.2049 170.066 53.0069 170.066L52.8529 168.89C53.6089 168.89 54.4769 168.89 55.3729 168.862V166.272H56.8009V168.82C58.1169 168.764 59.4749 168.68 60.7209 168.484ZM56.2129 171.088V173.664H63.3529V174.84H54.7569V171.088H56.2129ZM62.9469 166.44H64.6269V167.63H62.9469V171.928H61.4909V162.436H62.9469V166.44Z" fill="white"/>
<rect x="75" y="88" width="60" height="60" rx="30" fill="#FFECEE"/>
<path d="M95.5316 114.858V114.788H87.9856V113.612H96.9876V114.858C96.9876 116.426 96.9876 118.176 96.4976 120.794L95.0416 120.64C95.5316 118.162 95.5316 116.37 95.5316 114.858ZM92.5076 122.236H98.2196V123.426H86.7956V122.236H91.0516V117.784H92.5076V122.236ZM110.713 118.61V119.8H105.673V125.078H104.217V119.8H99.2745V118.61H107.493C107.857 116.846 107.857 115.53 107.857 114.368H100.647V113.206H109.271V114.312C109.271 115.502 109.271 116.818 108.949 118.61H110.713ZM113.615 114.816V120.78H116.681V114.816H113.615ZM112.187 121.928V113.668H118.109V121.928H112.187ZM123.513 117.378V118.568H121.539V125.092H120.097V112.436H121.539V117.378H123.513Z" fill="#FD929F"/>
<rect x="37.5" y="59.5" width="42" height="42" rx="21" fill="white"/>
<rect x="37.5" y="59.5" width="42" height="42" rx="21" stroke="#FFECEE"/>
<path d="M49.1489 80.984L48.7769 80.048C50.9729 79.88 52.3409 79.076 52.4609 78.092H49.2329V77.12H52.5449V76.052H53.7809V77.12H57.0809V78.092H53.8649C53.9849 79.076 55.3409 79.88 57.5489 80.048L57.1649 80.984C55.2809 80.828 53.8289 80.204 53.1569 79.232C52.4849 80.204 51.0329 80.828 49.1489 80.984ZM58.0649 82.484H53.7809V83.576H56.8649V86.912H55.6289V84.56H49.3529V83.576H52.5449V82.484H48.2609V81.488H58.0649V82.484ZM62.068 83.576C62.944 83.576 63.58 82.976 63.58 82.064C63.58 81.152 62.944 80.552 62.068 80.552C61.192 80.552 60.556 81.152 60.556 82.064C60.556 82.976 61.192 83.576 62.068 83.576ZM62.068 79.532C63.616 79.532 64.756 80.588 64.756 82.064C64.756 83.552 63.616 84.596 62.068 84.596C60.508 84.596 59.38 83.552 59.38 82.064C59.38 80.588 60.508 79.532 62.068 79.532ZM62.668 76.256V77.756H65.2V78.764H58.852V77.756H61.432V76.256H62.668ZM68.992 80.444V81.476H67.324V86.936H66.076V76.088H67.324V80.444H68.992Z" fill="#FD929F"/>
<rect x="77" width="80" height="80" rx="40" fill="#FD929F"/>
<path d="M100.574 40.358V42.85C101.904 42.836 103.15 42.766 104.634 42.514L104.76 43.704C103.052 43.998 101.638 44.04 100.056 44.04H99.1876V39.196H102.268V36.928H99.1596V35.766H103.654V40.358H100.574ZM105.642 38.86V34.716H106.986V46.448H105.642V40.05H104.214V38.86H105.642ZM108.204 34.436H109.576V47.078H108.204V34.436ZM113.277 40.232V42.962C115.293 42.948 116.735 42.878 118.387 42.598L118.513 43.76C116.707 44.082 115.125 44.138 112.829 44.138H111.835V35.528H117.701V36.718H113.277V39.084H117.183V40.232H113.277ZM120.319 34.408H121.775V47.092H120.319V40.246H117.897V39.056H120.319V34.408ZM134.169 34.436V42.178H132.727V34.436H134.169ZM131.411 39.952L131.579 41.128C129.591 41.45 127.883 41.506 125.461 41.506H124.397V37.768H128.737V36.368H124.369V35.206H130.151V38.86H125.825V40.33C127.995 40.33 129.577 40.26 131.411 39.952ZM129.969 45.944C131.789 45.944 132.811 45.524 132.811 44.754C132.811 43.97 131.789 43.55 129.969 43.55C128.163 43.55 127.127 43.97 127.127 44.754C127.127 45.524 128.163 45.944 129.969 45.944ZM129.969 42.416C132.629 42.416 134.253 43.284 134.253 44.754C134.253 46.224 132.629 47.092 129.969 47.092C127.309 47.092 125.699 46.224 125.699 44.754C125.699 43.284 127.309 42.416 129.969 42.416Z" fill="white"/>
</svg>
