<svg width="345" height="233" viewBox="0 0 345 233" fill="none" xmlns="http://www.w3.org/2000/svg">
<rect x="123.482" y="53.2942" width="114.671" height="114.671" rx="57.3353" fill="#4285F4"/>
<path d="M166.06 109.43V113.63H164.12V103.45H166.06V107.75H167.96V103.13H169.92V114.21H167.96V109.43H166.06ZM163.7 111.39L162.6 112.93C161 112.31 159.88 111.11 159.2 109.67C158.54 111.33 157.36 112.73 155.62 113.49L154.54 111.91C156.96 110.81 158.18 108.55 158.18 106.49V104.21H160.18V106.49C160.18 108.49 161.36 110.47 163.7 111.39ZM163.9 119.59C166.44 119.59 167.96 118.97 167.96 117.87C167.96 116.75 166.44 116.13 163.9 116.13C161.36 116.13 159.84 116.75 159.84 117.87C159.84 118.97 161.36 119.59 163.9 119.59ZM163.9 114.55C167.66 114.55 170.02 115.79 170.02 117.87C170.02 119.93 167.66 121.17 163.9 121.17C160.14 121.17 157.78 119.93 157.78 117.87C157.78 115.79 160.14 114.55 163.9 114.55ZM174.039 110.23L185.059 109.81C185.099 108.85 185.099 107.93 185.099 107.01V106.49H174.539V104.83H187.119V107.01C187.119 109.63 187.119 112.11 186.319 115.91L184.279 115.73C184.659 114.11 184.859 112.69 184.959 111.37L174.299 111.91L174.039 110.23ZM172.639 117.13H188.959V118.83H172.639V117.13ZM201.577 110.85L201.817 112.53C198.977 112.99 196.537 113.07 193.077 113.07H191.557V107.75H197.757V105.81H191.517V104.15H199.777V109.33H193.597V111.39C196.697 111.39 198.957 111.29 201.577 110.85ZM195.717 116.37V119.31H203.497V116.37H195.717ZM193.697 120.95V114.73H205.517V120.95H193.697ZM203.457 103.09H205.517V113.83H203.457V103.09Z" fill="white"/>
<rect x="212" y="142" width="90.8871" height="90.8871" rx="45.4435" fill="#89B2F6"/>
<path d="M232.766 190.923L231.986 189.263C235.786 188.743 238.266 186.683 238.386 184.263H232.726V182.583H238.406V180.243H240.466V182.583H246.126V184.263H240.486C240.606 186.683 243.086 188.743 246.886 189.263L246.106 190.923C243.066 190.443 240.626 189.043 239.446 187.003C238.246 189.043 235.806 190.443 232.766 190.923ZM240.466 194.123H247.626V195.803H231.266V194.123H238.406V190.283H240.466V194.123ZM250.704 183.483L261.584 183.183C261.604 182.743 261.604 182.343 261.604 181.963H251.164V180.383H263.644V181.523C263.644 182.783 263.644 184.463 263.224 186.663L261.224 186.543C261.344 185.843 261.424 185.203 261.484 184.623L250.964 185.083L250.704 183.483ZM253.264 194.803V196.143H264.064V197.703H251.224V193.343H261.524V192.003H251.184V190.463H263.544V194.803H253.264ZM257.724 187.563H265.584V189.203H249.284V187.563H255.664V185.663H257.724V187.563ZM282.543 179.923V192.243H280.583V179.923H282.543ZM277.023 190.743V185.983H275.043V184.303H277.023V180.303H278.963V190.743H277.023ZM275.663 188.323L275.863 189.943C273.683 190.363 271.843 190.443 269.243 190.443H268.023V184.983H272.383V182.903H267.983V181.263H274.383V186.523H270.023V188.783C272.143 188.763 273.783 188.663 275.663 188.323ZM277.483 191.403V191.803C277.483 193.923 279.943 195.843 283.423 196.343L282.643 197.923C279.843 197.483 277.583 196.203 276.463 194.383C275.343 196.203 273.063 197.483 270.263 197.923L269.463 196.343C272.943 195.843 275.423 193.923 275.423 191.803V191.403H277.483Z" fill="white"/>
<rect x="223" y="12" width="67.9529" height="67.9529" rx="33.9765" fill="#89B2F6"/>
<path d="M237.094 46.8686L236.65 45.8966C238.714 45.6206 240.238 44.4326 240.31 43.1726H237.01V42.1766H244.99V43.1726H241.714C241.786 44.4326 243.31 45.6206 245.374 45.8966L244.93 46.8686C243.142 46.6046 241.666 45.7166 241.006 44.5166C240.346 45.7166 238.882 46.6046 237.094 46.8686ZM245.914 47.6606L245.902 48.6566H241.594V52.4126H240.358V48.6566H236.11V47.6606H245.914ZM254.081 44.9726V43.0286H249.197V44.9726H254.081ZM255.293 42.0446V45.9566H247.985V42.0446H255.293ZM249.173 49.0646V51.1886H255.473V52.1966H247.937V49.0646H249.173ZM246.737 47.0246H256.565V48.0206H252.365V50.0486H251.129V48.0206H246.737V47.0246ZM260.676 43.7606V44.5406C260.676 46.3886 261.372 48.2606 262.884 49.1366L262.164 50.0366C261.144 49.4366 260.472 48.3686 260.088 47.1086C259.704 48.4766 259.008 49.6406 257.964 50.3006L257.22 49.3886C258.756 48.4286 259.476 46.4726 259.476 44.5406V43.7606H257.568V42.7406H262.464V43.7606H260.676ZM263.268 45.3686V41.7686H264.432V51.8726H263.268V46.3766H261.672V45.3686H263.268ZM265.452 41.5526H266.628V52.3886H265.452V41.5526ZM274.399 46.7126L273.763 47.6606C272.551 47.2646 271.687 46.4366 271.219 45.4046C270.739 46.5446 269.839 47.4326 268.567 47.8766L267.919 46.9046C269.635 46.3286 270.583 44.9486 270.583 43.4606V43.2686H268.279V42.2606H274.099V43.2686H271.831V43.4606C271.831 44.8286 272.743 46.1606 274.399 46.7126ZM269.359 49.6166V48.6206H276.487V52.4006H275.251V49.6166H269.359ZM278.023 44.3246V45.3446H276.487V48.0926H275.251V41.5526H276.487V44.3246H278.023Z" fill="white"/>
<rect x="246" y="85" width="50.9647" height="50.9647" rx="25.4824" fill="#BBD1F4"/>
<path d="M261.211 115.982V107.138H262.603V115.982H261.211ZM266.314 115.982V108.314H263.722V107.138H270.31V108.314H267.706V115.982H266.314ZM270.159 115.982V115.142L274.587 108.314H270.567V107.138H276.303V107.978L271.887 114.806H276.351V115.982H270.159ZM278.901 115.982V112.634L276.249 107.138H277.737L278.757 109.49C279.033 110.15 279.285 110.762 279.585 111.434H279.633C279.921 110.762 280.209 110.15 280.473 109.49L281.505 107.138H282.957L280.293 112.634V115.982H278.901Z" fill="white"/>
<rect x="294" y="117" width="50.9647" height="50.9647" rx="25.4824" fill="#BBD1F4"/>
<path d="M309.211 147.982V139.138H310.603V147.982H309.211ZM314.314 147.982V140.314H311.722V139.138H318.31V140.314H315.706V147.982H314.314ZM318.159 147.982V147.142L322.587 140.314H318.567V139.138H324.303V139.978L319.887 146.806H324.351V147.982H318.159ZM326.901 147.982V144.634L324.249 139.138H325.737L326.757 141.49C327.033 142.15 327.285 142.762 327.585 143.434H327.633C327.921 142.762 328.209 142.15 328.473 141.49L329.505 139.138H330.957L328.293 144.634V147.982H326.901Z" fill="white"/>
<rect x="34.4247" y="67.4247" width="35.6753" height="35.6753" rx="17.8376" fill="white"/>
<rect x="34.4247" y="67.4247" width="35.6753" height="35.6753" rx="17.8376" stroke="#BBD1F4" stroke-width="0.849412"/>
<path d="M49.7754 88.9143V84.3063H47.5794V83.2863H49.7754V80.8503H51.0114V88.9143H49.7754ZM48.4314 86.2503L47.7714 87.2103C46.6074 86.7783 45.7554 85.9023 45.2994 84.8103C44.8194 86.0223 43.9194 86.9823 42.6714 87.4623L42.0114 86.5023C43.7034 85.9023 44.6394 84.3783 44.6394 82.7703V81.5103H45.8994V82.7943C45.8994 84.2583 46.8114 85.6623 48.4314 86.2503ZM45.2034 90.4743H51.2634V91.4823H43.9554V88.0623H45.2034V90.4743ZM59.9945 83.5623V82.1463H55.1345V83.5623H59.9945ZM61.2065 81.1863V84.5343H53.9105V81.1863H61.2065ZM62.4785 86.2743H58.1825V87.1743H61.2425V89.7543H55.0745V90.6423H61.5545V91.5903H53.8505V88.8783H60.0305V88.1103H53.8265V87.1743H56.9345V86.2743H52.6625V85.2903H62.4785V86.2743Z" fill="#BBD1F4"/>
<rect x="74.748" y="148.111" width="67.9529" height="67.9529" rx="33.9765" fill="#89B2F6"/>
<path d="M103.833 180.423V183.991H102.185V175.344H103.833V178.996H105.447V175.072H107.112V184.483H105.447V180.423H103.833ZM101.828 182.088L100.894 183.396C99.535 182.869 98.5837 181.85 98.0061 180.627C97.4455 182.037 96.4432 183.226 94.9652 183.872L94.0478 182.53C96.1034 181.595 97.1397 179.676 97.1397 177.926V175.989H98.8385V177.926C98.8385 179.625 99.8408 181.306 101.828 182.088ZM101.998 189.053C104.156 189.053 105.447 188.526 105.447 187.592C105.447 186.641 104.156 186.114 101.998 186.114C99.8408 186.114 98.5497 186.641 98.5497 187.592C98.5497 188.526 99.8408 189.053 101.998 189.053ZM101.998 184.772C105.192 184.772 107.197 185.825 107.197 187.592C107.197 189.342 105.192 190.395 101.998 190.395C98.8045 190.395 96.7999 189.342 96.7999 187.592C96.7999 185.825 98.8045 184.772 101.998 184.772ZM122.06 175.038V182.835H120.31V175.038H122.06ZM111.408 179.013C111.408 180.236 112.394 181.035 113.719 181.035C115.061 181.035 116.063 180.236 116.063 179.013C116.063 177.79 115.061 176.991 113.719 176.991C112.394 176.991 111.408 177.79 111.408 179.013ZM117.762 179.013C117.762 181.035 116.046 182.462 113.719 182.462C111.408 182.462 109.71 181.035 109.71 179.013C109.71 176.991 111.408 175.547 113.719 175.547C116.046 175.547 117.762 176.991 117.762 179.013ZM113.753 188.832H122.519V190.208H112.037V186.182H120.327V184.908H112.003V183.532H122.06V187.473H113.753V188.832Z" fill="white"/>
<rect y="124" width="67.9529" height="67.9529" rx="33.9765" fill="#89B2F6"/>
<path d="M19.8543 157.308V159.72H18.7023V153.768H19.8543V156.3H21.1023V153.552H22.2783V160.08H21.1023V157.308H19.8543ZM18.0183 157.884L18.1503 158.892C16.7703 159.168 15.6183 159.228 14.3103 159.228H13.5903V154.416H14.8263V158.208C15.8823 158.184 16.8903 158.112 18.0183 157.884ZM18.6783 163.428C20.1903 163.428 21.1023 163.02 21.1023 162.312C21.1023 161.604 20.1903 161.196 18.6783 161.196C17.1543 161.196 16.2303 161.604 16.2303 162.312C16.2303 163.02 17.1543 163.428 18.6783 163.428ZM18.6783 160.224C20.9103 160.224 22.3383 161.016 22.3383 162.312C22.3383 163.608 20.9103 164.4 18.6783 164.4C16.4343 164.4 14.9943 163.608 14.9943 162.312C14.9943 161.016 16.4343 160.224 18.6783 160.224ZM30.1093 158.664L29.5093 159.624C28.2973 159.24 27.4333 158.46 26.9653 157.452C26.4853 158.604 25.5733 159.528 24.2773 159.972L23.6533 159C25.3573 158.412 26.3053 157.02 26.3053 155.544V155.328H24.0013V154.332H29.8213V155.328H27.5533V155.532C27.5533 156.876 28.4533 158.136 30.1093 158.664ZM28.7173 163.428C30.2293 163.428 31.1053 163.044 31.1053 162.348C31.1053 161.64 30.2293 161.268 28.7173 161.268C27.2053 161.268 26.3293 161.64 26.3293 162.348C26.3293 163.044 27.2053 163.428 28.7173 163.428ZM28.7173 160.296C30.9493 160.296 32.3293 161.052 32.3293 162.348C32.3293 163.632 30.9493 164.4 28.7173 164.4C26.4853 164.4 25.1053 163.632 25.1053 162.348C25.1053 161.052 26.4853 160.296 28.7173 160.296ZM32.2093 156.204H33.7453V157.224H32.2093V160.044H30.9733V153.564H32.2093V156.204ZM36.7164 157.104V158.88H41.8524V157.104H36.7164ZM39.8964 162.06H44.2044V163.08H34.3884V162.06H38.6604V159.876H35.4924V154.284H36.7164V156.108H41.8524V154.284H43.0764V159.876H39.8964V162.06ZM50.7514 158.208L49.5394 158.076C49.7554 156.912 49.7914 156.06 49.8034 155.388H45.5674V154.38H51.0154V155.004C51.0154 155.736 51.0154 156.804 50.7514 158.208ZM51.6514 158.748L51.7354 159.648C49.4794 160.044 46.9234 160.104 45.0394 160.104L44.9074 159.096C45.5554 159.096 46.2994 159.096 47.0674 159.072V156.852H48.2914V159.036C49.4194 158.988 50.5834 158.916 51.6514 158.748ZM47.7874 160.98V163.188H53.9074V164.196H46.5394V160.98H47.7874ZM53.5594 156.996H54.9994V158.016H53.5594V161.7H52.3114V153.564H53.5594V156.996Z" fill="white"/>
<rect x="63.7061" y="93.7483" width="50.9647" height="50.9647" rx="25.4824" fill="#BBD1F4"/>
<path d="M81.1297 116.895V116.835H74.6617V115.827H82.3777V116.895C82.3777 118.239 82.3777 119.739 81.9577 121.983L80.7097 121.851C81.1297 119.727 81.1297 118.191 81.1297 116.895ZM78.5377 123.219H83.4337V124.239H73.6417V123.219H77.2897V119.403H78.5377V123.219ZM94.0848 120.111V121.131H89.7648V125.655H88.5168V121.131H84.2808V120.111H91.3248C91.6368 118.599 91.6368 117.471 91.6368 116.475H85.4568V115.479H92.8488V116.427C92.8488 117.447 92.8488 118.575 92.5728 120.111H94.0848ZM96.5158 116.859V121.971H99.1438V116.859H96.5158ZM95.2918 122.955V115.875H100.368V122.955H95.2918ZM105 119.055V120.075H103.308V125.667H102.072V114.819H103.308V119.055H105Z" fill="white"/>
<rect x="168" width="50.9647" height="50.9647" rx="25.4824" fill="#BBD1F4"/>
<path d="M185.424 23.1464V23.0864H178.956V22.0784H186.672V23.1464C186.672 24.4904 186.672 25.9904 186.252 28.2344L185.004 28.1024C185.424 25.9784 185.424 24.4424 185.424 23.1464ZM182.832 29.4704H187.728V30.4904H177.936V29.4704H181.584V25.6544H182.832V29.4704ZM198.379 26.3624V27.3824H194.059V31.9064H192.811V27.3824H188.575V26.3624H195.619C195.931 24.8504 195.931 23.7224 195.931 22.7264H189.751V21.7304H197.143V22.6784C197.143 23.6984 197.143 24.8264 196.867 26.3624H198.379ZM200.81 23.1104V28.2224H203.438V23.1104H200.81ZM199.586 29.2064V22.1264H204.662V29.2064H199.586ZM209.294 25.3064V26.3264H207.602V31.9184H206.366V21.0704H207.602V25.3064H209.294Z" fill="white"/>
<rect x="152.425" y="173.425" width="35.6753" height="35.6753" rx="17.8376" fill="white"/>
<rect x="152.425" y="173.425" width="35.6753" height="35.6753" rx="17.8376" stroke="#BBD1F4" stroke-width="0.849412"/>
<path d="M160.911 191.746L160.539 190.81C162.735 190.642 164.103 189.838 164.223 188.854H160.995V187.882H164.307V186.814H165.543V187.882H168.843V188.854H165.627C165.747 189.838 167.103 190.642 169.311 190.81L168.927 191.746C167.043 191.59 165.591 190.966 164.919 189.994C164.247 190.966 162.795 191.59 160.911 191.746ZM169.827 193.246H165.543V194.338H168.627V197.674H167.391V195.322H161.115V194.338H164.307V193.246H160.023V192.25H169.827V193.246ZM173.83 194.338C174.706 194.338 175.342 193.738 175.342 192.826C175.342 191.914 174.706 191.314 173.83 191.314C172.954 191.314 172.318 191.914 172.318 192.826C172.318 193.738 172.954 194.338 173.83 194.338ZM173.83 190.294C175.378 190.294 176.518 191.35 176.518 192.826C176.518 194.314 175.378 195.358 173.83 195.358C172.27 195.358 171.142 194.314 171.142 192.826C171.142 191.35 172.27 190.294 173.83 190.294ZM174.43 187.018V188.518H176.962V189.526H170.614V188.518H173.194V187.018H174.43ZM180.754 191.206V192.238H179.086V197.698H177.838V186.85H179.086V191.206H180.754Z" fill="#BBD1F4"/>
<rect x="65.4048" y="19" width="67.9529" height="67.9529" rx="33.9765" fill="#89B2F6"/>
<path d="M82.9548 53.3346V55.8266C84.2848 55.8126 85.5308 55.7426 87.0148 55.4906L87.1408 56.6806C85.4328 56.9746 84.0188 57.0166 82.4368 57.0166H81.5688V52.1726H84.6488V49.9046H81.5408V48.7426H86.0348V53.3346H82.9548ZM88.0228 51.8366V47.6926H89.3668V59.4246H88.0228V53.0266H86.5948V51.8366H88.0228ZM90.5848 47.4126H91.9568V60.0546H90.5848V47.4126ZM95.6577 53.2086V55.9386C97.6737 55.9246 99.1157 55.8546 100.768 55.5746L100.894 56.7366C99.0877 57.0586 97.5057 57.1146 95.2097 57.1146H94.2157V48.5046H100.082V49.6946H95.6577V52.0606H99.5637V53.2086H95.6577ZM102.7 47.3846H104.156V60.0686H102.7V53.2226H100.278V52.0326H102.7V47.3846ZM116.551 47.4126V55.1546H115.109V47.4126H116.551ZM113.793 52.9286L113.961 54.1046C111.973 54.4266 110.265 54.4826 107.843 54.4826H106.779V50.7446H111.119V49.3446H106.751V48.1826H112.533V51.8366H108.207V53.3066C110.377 53.3066 111.959 53.2366 113.793 52.9286ZM112.351 58.9206C114.171 58.9206 115.193 58.5006 115.193 57.7306C115.193 56.9466 114.171 56.5266 112.351 56.5266C110.545 56.5266 109.509 56.9466 109.509 57.7306C109.509 58.5006 110.545 58.9206 112.351 58.9206ZM112.351 55.3926C115.011 55.3926 116.635 56.2606 116.635 57.7306C116.635 59.2006 115.011 60.0686 112.351 60.0686C109.691 60.0686 108.081 59.2006 108.081 57.7306C108.081 56.2606 109.691 55.3926 112.351 55.3926Z" fill="white"/>
</svg>
