<svg width="368" height="217" viewBox="0 0 368 217" fill="none" xmlns="http://www.w3.org/2000/svg">
<rect x="123.482" y="53.2942" width="114.671" height="114.671" rx="57.3353" fill="#4CC764"/>
<path d="M158.12 104.13H159.76V106.43C159.76 109.33 158.34 112.29 155.52 113.51L154.42 111.89C156.88 110.81 158.12 108.49 158.12 106.43V104.13ZM158.48 104.13H160.14V106.43C160.14 108.43 161.34 110.45 163.7 111.37L162.58 112.97C159.86 111.89 158.48 109.25 158.48 106.43V104.13ZM168.02 103.03H170V114.25H168.02V103.03ZM165.42 107.71H168.62V109.41H165.42V107.71ZM164.12 103.37H166.08V113.67H164.12V103.37ZM163.92 114.59C167.7 114.59 170.1 115.83 170.1 117.93C170.1 120.03 167.7 121.27 163.92 121.27C160.1 121.27 157.74 120.03 157.74 117.93C157.74 115.83 160.1 114.59 163.92 114.59ZM163.92 116.19C161.34 116.19 159.8 116.81 159.8 117.93C159.8 119.05 161.34 119.67 163.92 119.67C166.48 119.67 168 119.05 168 117.93C168 116.81 166.48 116.19 163.92 116.19ZM174.459 104.75H186.019V106.45H174.459V104.75ZM172.539 117.19H189.059V118.93H172.539V117.19ZM185.119 104.75H187.179V106.95C187.179 109.61 187.179 112.13 186.379 115.97L184.299 115.77C185.119 112.19 185.119 109.55 185.119 106.95V104.75ZM185.599 109.79V111.35L174.219 111.93L173.939 110.23L185.599 109.79ZM203.497 103.01H205.597V113.85H203.497V103.01ZM191.477 111.39H192.997C196.417 111.39 198.797 111.31 201.597 110.85L201.837 112.53C198.957 113.01 196.497 113.11 192.997 113.11H191.477V111.39ZM191.437 104.09H199.777V109.31H193.517V112.41H191.477V107.71H197.717V105.77H191.437V104.09ZM193.637 114.77H205.597V121.07H193.637V114.77ZM203.537 116.43H195.697V119.39H203.537V116.43Z" fill="white"/>
<rect x="277" y="125" width="90.8871" height="90.8871" rx="45.4435" fill="#20C782"/>
<path d="M296.166 177.183H312.726V178.903H296.166V177.183ZM303.386 173.323H305.466V178.083H303.386V173.323ZM303.366 166.643H305.226V167.043C305.226 170.663 302.106 173.263 297.666 173.943L296.886 172.283C300.846 171.743 303.366 169.543 303.366 167.043V166.643ZM303.646 166.643H305.486V167.043C305.486 169.543 308.006 171.743 311.966 172.283L311.186 173.943C306.766 173.263 303.646 170.663 303.646 167.043V166.643ZM297.626 165.523H311.206V167.223H297.626V165.523ZM303.386 163.143H305.466V166.183H303.386V163.143ZM316.064 163.283H327.744V164.903H316.064V163.283ZM314.184 170.563H330.644V172.203H314.184V170.563ZM320.624 168.623H322.724V171.343H320.624V168.623ZM326.624 163.283H328.704V164.443C328.704 165.723 328.704 167.423 328.304 169.643L326.224 169.523C326.624 167.283 326.624 165.703 326.624 164.443V163.283ZM327.244 166.103V167.543L315.864 168.063L315.604 166.403L327.244 166.103ZM316.104 173.483H328.604V177.883H318.204V179.803H316.124V176.403H326.544V175.043H316.104V173.483ZM316.124 179.223H329.124V180.823H316.124V179.223ZM332.943 171.803H334.143C336.723 171.803 338.523 171.723 340.643 171.323L340.843 172.983C338.663 173.383 336.803 173.463 334.143 173.463H332.943V171.803ZM332.903 164.163H339.363V169.503H334.963V172.903H332.943V167.963H337.343V165.843H332.903V164.163ZM340.043 167.263H343.423V168.943H340.043V167.263ZM345.643 162.823H347.623V175.303H345.643V162.823ZM342.003 163.203H343.983V173.783H342.003V163.203ZM340.423 174.443H342.203V174.843C342.203 178.023 339.243 180.403 335.203 181.043L334.383 179.423C337.923 178.923 340.423 176.983 340.423 174.843V174.443ZM340.703 174.443H342.503V174.843C342.503 176.983 344.983 178.923 348.523 179.423L347.723 181.043C343.683 180.403 340.703 178.023 340.703 174.843V174.443Z" fill="white"/>
<rect x="223" y="12" width="67.9529" height="67.9529" rx="33.9765" fill="#20C782"/>
<path d="M240.286 42.6446H241.378V43.0526C241.378 44.9966 239.518 46.4966 237.058 46.8686L236.578 45.8846C238.726 45.5966 240.286 44.3486 240.286 43.0526V42.6446ZM240.634 42.6446H241.714V43.0526C241.714 44.3486 243.286 45.5966 245.422 45.8846L244.954 46.8686C242.482 46.4966 240.634 44.9966 240.634 43.0526V42.6446ZM240.346 48.3686H241.594V52.4726H240.346V48.3686ZM236.05 47.6606H245.962V48.6806H236.05V47.6606ZM236.95 42.1286H245.026V43.1366H236.95V42.1286ZM246.677 47.0246H256.613V48.0326H246.677V47.0246ZM251.117 47.6606H252.365V50.0846H251.117V47.6606ZM247.925 41.9966H255.329V45.9446H247.925V41.9966ZM254.093 42.9926H249.161V44.9486H254.093V42.9926ZM247.889 51.2366H255.509V52.2566H247.889V51.2366ZM247.889 49.0886H249.137V51.5846H247.889V49.0886ZM265.476 41.5046H266.676V52.4726H265.476V41.5046ZM261.648 45.3566H263.628V46.3886H261.648V45.3566ZM263.268 41.7206H264.444V51.9326H263.268V41.7206ZM259.428 43.2446H260.388V44.5166C260.388 46.9406 259.572 49.2926 257.904 50.3486L257.148 49.4126C258.708 48.4526 259.428 46.4726 259.428 44.5166V43.2446ZM259.704 43.2446H260.652V44.5166C260.652 46.3886 261.348 48.2606 262.884 49.1606L262.14 50.0846C260.472 49.0886 259.704 46.8686 259.704 44.5166V43.2446ZM257.496 42.7046H262.452V43.7246H257.496V42.7046ZM270.547 42.6326H271.579V43.4246C271.579 45.4646 270.463 47.2286 268.519 47.8886L267.859 46.9166C269.587 46.3286 270.547 44.9126 270.547 43.4246V42.6326ZM270.787 42.6326H271.807V43.4246C271.807 44.8046 272.731 46.1486 274.411 46.7006L273.775 47.6846C271.855 47.0366 270.787 45.3446 270.787 43.4246V42.6326ZM268.219 42.2126H274.111V43.2326H268.219V42.2126ZM275.263 41.5046H276.523V48.1046H275.263V41.5046ZM276.175 44.2886H278.071V45.3326H276.175V44.2886ZM269.311 48.6446H276.523V52.4726H275.263V49.6646H269.311V48.6446Z" fill="white"/>
<rect x="246" y="85" width="50.9647" height="50.9647" rx="25.4824" fill="#1FBBBA"/>
<path d="M261.211 115.982V107.138H262.603V115.982H261.211ZM266.314 115.982V108.314H263.722V107.138H270.31V108.314H267.706V115.982H266.314ZM270.159 115.982V115.142L274.587 108.314H270.567V107.138H276.303V107.978L271.887 114.806H276.351V115.982H270.159ZM278.901 115.982V112.634L276.249 107.138H277.737L278.757 109.49C279.033 110.15 279.285 110.762 279.585 111.434H279.633C279.921 110.762 280.209 110.15 280.473 109.49L281.505 107.138H282.957L280.293 112.634V115.982H278.901Z" fill="white"/>
<rect x="194" y="165" width="50.9647" height="50.9647" rx="25.4824" fill="#1FBBBA"/>
<path d="M209.211 195.982V187.138H210.603V195.982H209.211ZM214.314 195.982V188.314H211.722V187.138H218.31V188.314H215.706V195.982H214.314ZM218.159 195.982V195.142L222.587 188.314H218.567V187.138H224.303V187.978L219.887 194.806H224.351V195.982H218.159ZM226.901 195.982V192.634L224.249 187.138H225.737L226.757 189.49C227.033 190.15 227.285 190.762 227.585 191.434H227.633C227.921 190.762 228.209 190.15 228.473 189.49L229.505 187.138H230.957L228.293 192.634V195.982H226.901Z" fill="white"/>
<rect x="234.425" y="136.425" width="35.6753" height="35.6753" rx="17.8376" fill="white"/>
<rect x="234.425" y="136.425" width="35.6753" height="35.6753" rx="17.8376" stroke="#1FBBBA" stroke-width="0.849412"/>
<path d="M247.579 152.262H250.243V153.294H247.579V152.262ZM244.615 150.462H245.623V151.734C245.623 153.906 244.543 155.742 242.611 156.486L241.951 155.502C243.655 154.89 244.615 153.354 244.615 151.734V150.462ZM244.867 150.462H245.875V151.758C245.875 153.234 246.799 154.662 248.443 155.25L247.771 156.222C245.923 155.526 244.867 153.774 244.867 151.758V150.462ZM249.799 149.802H251.059V157.95H249.799V149.802ZM243.919 159.522H251.311V160.542H243.919V159.522ZM243.919 157.086H245.179V160.05H243.919V157.086ZM256.922 155.01H258.17V156.63H256.922V155.01ZM252.602 154.29H262.514V155.286H252.602V154.29ZM253.862 150.138H261.242V153.522H253.862V150.138ZM260.006 151.122H255.098V152.538H260.006V151.122ZM253.778 156.186H261.278V158.814H255.038V159.978H253.79V157.914H260.042V157.134H253.778V156.186ZM253.79 159.69H261.59V160.662H253.79V159.69Z" fill="#1FBBBA"/>
<rect x="74.748" y="148.111" width="67.9529" height="67.9529" rx="33.9765" fill="#20C782"/>
<path d="M103.833 180.423V183.991H102.185V175.344H103.833V178.996H105.447V175.072H107.112V184.483H105.447V180.423H103.833ZM101.828 182.088L100.894 183.396C99.535 182.869 98.5837 181.85 98.0061 180.627C97.4455 182.037 96.4432 183.226 94.9652 183.872L94.0478 182.53C96.1034 181.595 97.1397 179.676 97.1397 177.926V175.989H98.8385V177.926C98.8385 179.625 99.8408 181.306 101.828 182.088ZM101.998 189.053C104.156 189.053 105.447 188.526 105.447 187.592C105.447 186.641 104.156 186.114 101.998 186.114C99.8408 186.114 98.5497 186.641 98.5497 187.592C98.5497 188.526 99.8408 189.053 101.998 189.053ZM101.998 184.772C105.192 184.772 107.197 185.825 107.197 187.592C107.197 189.342 105.192 190.395 101.998 190.395C98.8045 190.395 96.7999 189.342 96.7999 187.592C96.7999 185.825 98.8045 184.772 101.998 184.772ZM122.06 175.038V182.835H120.31V175.038H122.06ZM111.408 179.013C111.408 180.236 112.394 181.035 113.719 181.035C115.061 181.035 116.063 180.236 116.063 179.013C116.063 177.79 115.061 176.991 113.719 176.991C112.394 176.991 111.408 177.79 111.408 179.013ZM117.762 179.013C117.762 181.035 116.046 182.462 113.719 182.462C111.408 182.462 109.71 181.035 109.71 179.013C109.71 176.991 111.408 175.547 113.719 175.547C116.046 175.547 117.762 176.991 117.762 179.013ZM113.753 188.832H122.519V190.208H112.037V186.182H120.327V184.908H112.003V183.532H122.06V187.473H113.753V188.832Z" fill="white"/>
<rect y="124" width="67.9529" height="67.9529" rx="33.9765" fill="#20C782"/>
<path d="M21.1383 153.504H22.3263V160.104H21.1383V153.504ZM19.5303 156.264H21.4623V157.296H19.5303V156.264ZM18.6903 153.708H19.8663V159.72H18.6903V153.708ZM18.6783 160.236C20.9343 160.236 22.3863 161.04 22.3863 162.36C22.3863 163.668 20.9343 164.46 18.6783 164.46C16.4103 164.46 14.9703 163.668 14.9703 162.36C14.9703 161.04 16.4103 160.236 18.6783 160.236ZM18.6783 161.232C17.1423 161.232 16.2063 161.628 16.2063 162.36C16.2063 163.068 17.1423 163.476 18.6783 163.476C20.2023 163.476 21.1263 163.068 21.1263 162.36C21.1263 161.628 20.2023 161.232 18.6783 161.232ZM13.5303 154.368H14.7903V158.556H13.5303V154.368ZM13.5303 158.208H14.2503C15.5223 158.208 16.6743 158.148 18.0063 157.872L18.1383 158.904C16.7583 159.18 15.5823 159.24 14.2503 159.24H13.5303V158.208ZM26.2693 154.704H27.3013V155.496C27.3013 157.548 26.1853 159.324 24.2173 159.996L23.5933 159C25.3093 158.412 26.2693 156.996 26.2693 155.496V154.704ZM26.5093 154.704H27.5293V155.496C27.5293 156.852 28.4413 158.124 30.1213 158.664L29.5213 159.648C27.5773 159.024 26.5093 157.392 26.5093 155.496V154.704ZM23.9413 154.284H29.8333V155.292H23.9413V154.284ZM30.9853 153.504H32.2453V160.068H30.9853V153.504ZM31.8973 156.168H33.7933V157.212H31.8973V156.168ZM28.7173 160.32C30.9613 160.32 32.3653 161.088 32.3653 162.384C32.3653 163.692 30.9613 164.46 28.7173 164.46C26.4613 164.46 25.0573 163.692 25.0573 162.384C25.0573 161.088 26.4613 160.32 28.7173 160.32ZM28.7173 161.316C27.1933 161.316 26.3053 161.688 26.3053 162.384C26.3053 163.092 27.1933 163.476 28.7173 163.476C30.2413 163.476 31.1173 163.092 31.1173 162.384C31.1173 161.688 30.2413 161.316 28.7173 161.316ZM34.3284 162.096H44.2644V163.128H34.3284V162.096ZM38.6484 159.6H39.8964V162.372H38.6484V159.6ZM35.4324 154.248H36.6924V156.084H41.8644V154.248H43.1124V159.9H35.4324V154.248ZM36.6924 157.08V158.88H41.8644V157.08H36.6924ZM45.5074 154.332H50.2834V155.352H45.5074V154.332ZM47.0314 156.828H48.2674V159.564H47.0314V156.828ZM49.7914 154.332H51.0274V154.956C51.0274 155.7 51.0274 156.792 50.7514 158.196L49.5274 158.064C49.7914 156.66 49.7914 155.688 49.7914 154.956V154.332ZM52.3234 153.504H53.5954V161.736H52.3234V153.504ZM53.0554 156.972H55.0474V158.016H53.0554V156.972ZM46.4914 163.236H53.9434V164.256H46.4914V163.236ZM46.4914 160.992H47.7514V163.548H46.4914V160.992ZM44.9674 160.116L44.8474 159.108C46.7794 159.108 49.4434 159.072 51.6514 158.76L51.7354 159.66C49.4674 160.068 46.8754 160.116 44.9674 160.116Z" fill="white"/>
<rect x="63.7061" y="93.7483" width="50.9647" height="50.9647" rx="25.4824" fill="#1FBBBA"/>
<path d="M81.1297 116.895V116.835H74.6617V115.827H82.3777V116.895C82.3777 118.239 82.3777 119.739 81.9577 121.983L80.7097 121.851C81.1297 119.727 81.1297 118.191 81.1297 116.895ZM78.5377 123.219H83.4337V124.239H73.6417V123.219H77.2897V119.403H78.5377V123.219ZM94.0848 120.111V121.131H89.7648V125.655H88.5168V121.131H84.2808V120.111H91.3248C91.6368 118.599 91.6368 117.471 91.6368 116.475H85.4568V115.479H92.8488V116.427C92.8488 117.447 92.8488 118.575 92.5728 120.111H94.0848ZM96.5158 116.859V121.971H99.1438V116.859H96.5158ZM95.2918 122.955V115.875H100.368V122.955H95.2918ZM105 119.055V120.075H103.308V125.667H102.072V114.819H103.308V119.055H105Z" fill="white"/>
<rect x="168" width="50.9647" height="50.9647" rx="25.4824" fill="#1FBBBA"/>
<path d="M185.424 23.1464V23.0864H178.956V22.0784H186.672V23.1464C186.672 24.4904 186.672 25.9904 186.252 28.2344L185.004 28.1024C185.424 25.9784 185.424 24.4424 185.424 23.1464ZM182.832 29.4704H187.728V30.4904H177.936V29.4704H181.584V25.6544H182.832V29.4704ZM198.379 26.3624V27.3824H194.059V31.9064H192.811V27.3824H188.575V26.3624H195.619C195.931 24.8504 195.931 23.7224 195.931 22.7264H189.751V21.7304H197.143V22.6784C197.143 23.6984 197.143 24.8264 196.867 26.3624H198.379ZM200.81 23.1104V28.2224H203.438V23.1104H200.81ZM199.586 29.2064V22.1264H204.662V29.2064H199.586ZM209.294 25.3064V26.3264H207.602V31.9184H206.366V21.0704H207.602V25.3064H209.294Z" fill="white"/>
<rect x="31.8529" y="69.5399" width="35.6753" height="35.6753" rx="17.8376" fill="white"/>
<rect x="31.8529" y="69.5399" width="35.6753" height="35.6753" rx="17.8376" stroke="#1FBBBA" stroke-width="0.849412"/>
<path d="M43.7236 89.0856H44.9716V90.7656H43.7236V89.0856ZM39.3916 88.3656H49.3036V89.3736H39.3916V88.3656ZM40.4956 90.4776H48.0916V93.8496H46.8436V91.4856H40.4956V90.4776ZM43.7236 82.8816H44.9716V84.4416H43.7236V82.8816ZM43.6516 84.5736H44.7556V84.7656C44.7556 86.5176 42.9436 87.6216 40.2916 87.8616L39.9076 86.9136C42.2596 86.7336 43.6516 85.8456 43.6516 84.7656V84.5736ZM43.9396 84.5736H45.0436V84.7656C45.0436 85.8456 46.4356 86.7336 48.7876 86.9136L48.4036 87.8616C45.7396 87.6216 43.9396 86.5176 43.9396 84.7656V84.5736ZM40.3756 83.9496H48.3196V84.9336H40.3756V83.9496ZM57.2907 82.9056H58.5387V93.8736H57.2907V82.9056ZM58.2507 87.3096H60.2427V88.3536H58.2507V87.3096ZM49.9827 84.5976H56.4147V85.6056H49.9827V84.5976ZM53.2347 86.3976C54.7947 86.3976 55.9467 87.4536 55.9467 88.9536C55.9467 90.4656 54.7947 91.5216 53.2347 91.5216C51.6627 91.5216 50.5107 90.4656 50.5107 88.9536C50.5107 87.4536 51.6627 86.3976 53.2347 86.3976ZM53.2347 87.4296C52.3467 87.4296 51.7107 88.0296 51.7107 88.9536C51.7107 89.8776 52.3467 90.4896 53.2347 90.4896C54.1107 90.4896 54.7467 89.8776 54.7467 88.9536C54.7467 88.0296 54.1107 87.4296 53.2347 87.4296ZM52.5867 83.0616H53.8467V85.0176H52.5867V83.0616Z" fill="#1FBBBA"/>
<rect x="65.4048" y="19" width="67.9529" height="67.9529" rx="33.9765" fill="#20C782"/>
<path d="M82.9548 53.3346V55.8266C84.2848 55.8126 85.5308 55.7426 87.0148 55.4906L87.1408 56.6806C85.4328 56.9746 84.0188 57.0166 82.4368 57.0166H81.5688V52.1726H84.6488V49.9046H81.5408V48.7426H86.0348V53.3346H82.9548ZM88.0228 51.8366V47.6926H89.3668V59.4246H88.0228V53.0266H86.5948V51.8366H88.0228ZM90.5848 47.4126H91.9568V60.0546H90.5848V47.4126ZM95.6577 53.2086V55.9386C97.6737 55.9246 99.1157 55.8546 100.768 55.5746L100.894 56.7366C99.0877 57.0586 97.5057 57.1146 95.2097 57.1146H94.2157V48.5046H100.082V49.6946H95.6577V52.0606H99.5637V53.2086H95.6577ZM102.7 47.3846H104.156V60.0686H102.7V53.2226H100.278V52.0326H102.7V47.3846ZM116.551 47.4126V55.1546H115.109V47.4126H116.551ZM113.793 52.9286L113.961 54.1046C111.973 54.4266 110.265 54.4826 107.843 54.4826H106.779V50.7446H111.119V49.3446H106.751V48.1826H112.533V51.8366H108.207V53.3066C110.377 53.3066 111.959 53.2366 113.793 52.9286ZM112.351 58.9206C114.171 58.9206 115.193 58.5006 115.193 57.7306C115.193 56.9466 114.171 56.5266 112.351 56.5266C110.545 56.5266 109.509 56.9466 109.509 57.7306C109.509 58.5006 110.545 58.9206 112.351 58.9206ZM112.351 55.3926C115.011 55.3926 116.635 56.2606 116.635 57.7306C116.635 59.2006 115.011 60.0686 112.351 60.0686C109.691 60.0686 108.081 59.2006 108.081 57.7306C108.081 56.2606 109.691 55.3926 112.351 55.3926Z" fill="white"/>
</svg>
