<svg width="292" height="170" viewBox="0 0 292 170" fill="none" xmlns="http://www.w3.org/2000/svg">
<path d="M231 85C231 131.944 192.944 170 146 170C99.0558 170 61 131.944 61 85C61 38.0558 99.0558 0 146 0C192.944 0 231 38.0558 231 85ZM95 85C95 113.167 117.833 136 146 136C174.167 136 197 113.167 197 85C197 56.8335 174.167 34 146 34C117.833 34 95 56.8335 95 85Z" fill="#D33B4D"/>
<mask id="path-2-inside-1_346_8324" fill="white">
<path d="M146 0C124.98 -2.50661e-07 104.706 7.78854 89.0918 21.8616C73.4781 35.9346 63.6326 55.2939 61.4567 76.2009C59.2807 97.108 64.9286 118.08 77.3097 135.066C89.6909 152.053 107.927 163.85 128.496 168.178L135.498 134.907C123.156 132.31 112.215 125.232 104.786 115.04C97.3572 104.848 93.9684 92.2648 95.274 79.7206C96.5796 67.1763 102.487 55.5608 111.855 47.1169C121.223 38.6731 133.388 34 146 34V0Z"/>
</mask>
<path d="M146 0C124.98 -2.50661e-07 104.706 7.78854 89.0918 21.8616C73.4781 35.9346 63.6326 55.2939 61.4567 76.2009C59.2807 97.108 64.9286 118.08 77.3097 135.066C89.6909 152.053 107.927 163.85 128.496 168.178L135.498 134.907C123.156 132.31 112.215 125.232 104.786 115.04C97.3572 104.848 93.9684 92.2648 95.274 79.7206C96.5796 67.1763 102.487 55.5608 111.855 47.1169C121.223 38.6731 133.388 34 146 34V0Z" fill="#F9F3F3" stroke="#E6E6E6" stroke-width="2.86058" mask="url(#path-2-inside-1_346_8324)"/>
<path d="M259.176 60.608H261.304V68.96H259.176V60.608ZM260.728 63.728H263.272V65.456H260.728V63.728ZM251.656 69.632H261.304V75.264H251.656V69.632ZM259.224 71.296H253.752V73.584H259.224V71.296ZM250.232 61.312H252.36V67.376H250.232V61.312ZM250.232 66.464H251.48C253.496 66.464 255.688 66.32 258.024 65.872L258.264 67.584C255.848 68.08 253.576 68.208 251.48 68.208H250.232V66.464ZM267.399 61.376H269.175V62.704C269.175 65.68 267.847 68.288 264.935 69.264L263.831 67.552C266.359 66.736 267.399 64.736 267.399 62.704V61.376ZM267.847 61.376H269.559V62.608C269.559 64.576 270.519 66.4 272.871 67.152L271.767 68.816C269.031 67.872 267.847 65.488 267.847 62.608V61.376ZM274.231 60.608H276.359V69.28H274.231V60.608ZM271.335 69.664C274.471 69.664 276.407 70.736 276.407 72.544C276.407 74.368 274.471 75.424 271.335 75.424C268.199 75.424 266.263 74.368 266.263 72.544C266.263 70.736 268.199 69.664 271.335 69.664ZM271.335 71.312C269.415 71.312 268.391 71.712 268.391 72.544C268.391 73.376 269.415 73.792 271.335 73.792C273.271 73.792 274.295 73.376 274.295 72.544C274.295 71.712 273.271 71.312 271.335 71.312ZM271.527 63.296H274.535V65.024H271.527V63.296ZM254.52 102.28C252.18 102.28 250.62 101.36 249.5 100.26L250.88 98.4C251.7 99.22 252.76 99.9 254.12 99.9C255.68 99.9 256.74 98.92 256.74 97.16C256.74 95.44 255.74 94.48 254.26 94.48C253.38 94.48 252.9 94.7 252.04 95.26L250.68 94.38L251.1 87.2H259.02V89.66H253.64L253.36 92.8C253.94 92.54 254.46 92.4 255.14 92.4C257.62 92.4 259.7 93.86 259.7 97.1C259.7 100.38 257.24 102.28 254.52 102.28ZM265.857 102.28C263.517 102.28 261.937 101.42 260.897 100.22L262.297 98.36C263.177 99.22 264.237 99.9 265.577 99.9C267.097 99.9 268.117 99.14 268.117 97.82C268.117 96.36 267.257 95.46 264.037 95.46V93.34C266.757 93.34 267.637 92.42 267.637 91.1C267.637 89.94 266.917 89.24 265.657 89.24C264.597 89.24 263.737 89.74 262.857 90.56L261.357 88.74C262.637 87.64 264.057 86.94 265.777 86.94C268.637 86.94 270.577 88.34 270.577 90.88C270.577 92.46 269.697 93.64 268.117 94.24V94.34C269.797 94.82 271.077 96.04 271.077 98C271.077 100.72 268.697 102.28 265.857 102.28ZM276.034 96.32C273.914 96.32 272.414 94.56 272.414 91.6C272.414 88.64 273.914 86.94 276.034 86.94C278.154 86.94 279.654 88.64 279.654 91.6C279.654 94.56 278.154 96.32 276.034 96.32ZM276.034 94.66C276.894 94.66 277.554 93.76 277.554 91.6C277.554 89.42 276.894 88.6 276.034 88.6C275.154 88.6 274.494 89.42 274.494 91.6C274.494 93.76 275.154 94.66 276.034 94.66ZM276.514 102.28L284.554 86.94H286.314L278.254 102.28H276.514ZM286.794 102.28C284.694 102.28 283.194 100.54 283.194 97.56C283.194 94.6 284.694 92.88 286.794 92.88C288.894 92.88 290.394 94.6 290.394 97.56C290.394 100.54 288.894 102.28 286.794 102.28ZM286.794 100.62C287.654 100.62 288.334 99.74 288.334 97.56C288.334 95.38 287.654 94.56 286.794 94.56C285.934 94.56 285.254 95.38 285.254 97.56C285.254 99.74 285.934 100.62 286.794 100.62Z" fill="#D33B4D"/>
<path d="M22.3945 68.224H24.9065V65.344H22.3465C22.4425 65.824 22.4905 66.352 22.4905 66.912C22.4905 67.376 22.4585 67.824 22.3945 68.224ZM18.6825 70.272C19.7705 70.272 20.5065 69.104 20.5065 66.912C20.5065 64.736 19.7705 63.568 18.6825 63.568C17.6105 63.568 16.8745 64.736 16.8745 66.912C16.8745 69.104 17.6105 70.272 18.6825 70.272ZM24.9065 60.624H27.0185V75.408H24.9065V69.936H21.8985C21.2425 71.376 20.1065 72.208 18.6825 72.192C16.4905 72.192 14.8745 70.16 14.8745 66.912C14.8745 63.68 16.4905 61.664 18.6825 61.664C20.0105 61.664 21.1145 62.384 21.7705 63.648H24.9065V60.624ZM39.1773 69.28V65.04H36.4893V63.328H39.1773V60.64H41.2893V69.28H39.1773ZM37.8333 67.152L36.7292 68.816C35.1773 68.288 34.1373 67.28 33.5133 65.968C32.8573 67.472 31.6893 68.656 29.9453 69.248L28.8413 67.552C31.3533 66.752 32.3932 64.752 32.3932 62.72V61.408H34.5373V62.624C34.5373 64.608 35.4973 66.4 37.8333 67.152ZM36.3133 73.76C38.2333 73.76 39.2413 73.36 39.2413 72.528C39.2413 71.68 38.2333 71.28 36.3133 71.28C34.3773 71.28 33.3693 71.68 33.3693 72.528C33.3693 73.36 34.3773 73.76 36.3133 73.76ZM36.3133 69.648C39.4333 69.648 41.3533 70.704 41.3533 72.528C41.3533 74.32 39.4333 75.376 36.3133 75.376C33.1773 75.376 31.2573 74.32 31.2573 72.528C31.2573 70.704 33.1773 69.648 36.3133 69.648ZM4.2675 95.92H7.7275V92.9C7.7275 92.04 7.7875 90.7 7.8275 89.82H7.7475C7.3875 90.62 6.9875 91.44 6.5675 92.24L4.2675 95.92ZM7.7275 102V98.16H1.4075V96.16L6.9275 87.18H10.4675V95.92H12.2075V98.16H10.4675V102H7.7275ZM16.0848 102C16.3448 96.86 17.2048 93.58 20.0248 89.66H13.3648V87.18H23.2048V88.98C19.7648 93.18 19.3048 96.2 19.0648 102H16.0848ZM27.9822 96.3C25.8622 96.3 24.3822 94.56 24.3822 91.58C24.3822 88.62 25.8622 86.92 27.9822 86.92C30.1022 86.92 31.6022 88.62 31.6022 91.58C31.6022 94.56 30.1022 96.3 27.9822 96.3ZM27.9822 94.64C28.8422 94.64 29.5222 93.76 29.5222 91.58C29.5222 89.4 28.8422 88.58 27.9822 88.58C27.1222 88.58 26.4622 89.4 26.4622 91.58C26.4622 93.76 27.1222 94.64 27.9822 94.64ZM28.4822 102.28L36.5222 86.92H38.2622L30.2222 102.28H28.4822ZM38.7422 102.28C36.6422 102.28 35.1422 100.52 35.1422 97.56C35.1422 94.58 36.6422 92.88 38.7422 92.88C40.8422 92.88 42.3622 94.58 42.3622 97.56C42.3622 100.52 40.8422 102.28 38.7422 102.28ZM38.7422 100.6C39.6022 100.6 40.2822 99.74 40.2822 97.56C40.2822 95.38 39.6022 94.54 38.7422 94.54C37.8822 94.54 37.2222 95.38 37.2222 97.56C37.2222 99.74 37.8822 100.6 38.7422 100.6Z" fill="#BEBEBE"/>
</svg>
