<svg width="367" height="87" viewBox="0 0 367 87" fill="none" xmlns="http://www.w3.org/2000/svg">
<path d="M10 86.5C4.7533 86.5 0.5 82.2467 0.5 77V0.5H366.5V86.5H10Z" fill="white" stroke="#E6E6E6"/>
<mask id="path-2-inside-1_346_8323" fill="white">
<path d="M0 67H367V87H0V67Z"/>
</mask>
<path d="M367 66.5H366.003V67.5H367V66.5ZM364.008 66.5H362.014V67.5H364.008V66.5ZM360.019 66.5H358.024V67.5H360.019V66.5ZM356.03 66.5H354.035V67.5H356.03V66.5ZM352.041 66.5H350.046V67.5H352.041V66.5ZM348.052 66.5H346.057V67.5H348.052V66.5ZM344.062 66.5H342.068V67.5H344.062V66.5ZM340.073 66.5H338.079V67.5H340.073V66.5ZM336.084 66.5H334.09V67.5H336.084V66.5ZM332.095 66.5H330.101V67.5H332.095V66.5ZM328.106 66.5H326.111V67.5H328.106V66.5ZM324.117 66.5H322.122V67.5H324.117V66.5ZM320.128 66.5H318.133V67.5H320.128V66.5ZM316.139 66.5H314.144V67.5H316.139V66.5ZM312.149 66.5H310.155V67.5H312.149V66.5ZM308.16 66.5H306.166V67.5H308.16V66.5ZM304.171 66.5H302.177V67.5H304.171V66.5ZM300.182 66.5H298.188V67.5H300.182V66.5ZM296.193 66.5H294.198V67.5H296.193V66.5ZM292.204 66.5H290.209V67.5H292.204V66.5ZM288.215 66.5H286.22V67.5H288.215V66.5ZM284.226 66.5H282.231V67.5H284.226V66.5ZM280.236 66.5H278.242V67.5H280.236V66.5ZM276.247 66.5H274.253V67.5H276.247V66.5ZM272.258 66.5H270.264V67.5H272.258V66.5ZM268.269 66.5H266.274V67.5H268.269V66.5ZM264.28 66.5H262.285V67.5H264.28V66.5ZM260.291 66.5H258.296V67.5H260.291V66.5ZM256.302 66.5H254.307V67.5H256.302V66.5ZM252.312 66.5H250.318V67.5H252.312V66.5ZM248.323 66.5H246.329V67.5H248.323V66.5ZM244.334 66.5H242.34V67.5H244.334V66.5ZM240.345 66.5H238.35V67.5H240.345V66.5ZM236.356 66.5H234.361V67.5H236.356V66.5ZM232.367 66.5H230.372V67.5H232.367V66.5ZM228.378 66.5H226.383V67.5H228.378V66.5ZM224.389 66.5H222.394V67.5H224.389V66.5ZM220.399 66.5H218.405V67.5H220.399V66.5ZM216.41 66.5H214.416V67.5H216.41V66.5ZM212.421 66.5H210.427V67.5H212.421V66.5ZM208.432 66.5H206.437V67.5H208.432V66.5ZM204.443 66.5H202.448V67.5H204.443V66.5ZM200.454 66.5H198.459V67.5H200.454V66.5ZM196.465 66.5H194.47V67.5H196.465V66.5ZM192.475 66.5H190.481V67.5H192.475V66.5ZM188.486 66.5H186.492V67.5H188.486V66.5ZM184.497 66.5H182.503V67.5H184.497V66.5ZM180.508 66.5H178.513V67.5H180.508V66.5ZM176.519 66.5H174.524V67.5H176.519V66.5ZM172.53 66.5H170.535V67.5H172.53V66.5ZM168.541 66.5H166.546V67.5H168.541V66.5ZM164.551 66.5H162.557V67.5H164.551V66.5ZM160.562 66.5H158.568V67.5H160.562V66.5ZM156.573 66.5H154.579V67.5H156.573V66.5ZM152.584 66.5H150.589V67.5H152.584V66.5ZM148.595 66.5H146.6V67.5H148.595V66.5ZM144.606 66.5H142.611V67.5H144.606V66.5ZM140.617 66.5H138.622V67.5H140.617V66.5ZM136.628 66.5H134.633V67.5H136.628V66.5ZM132.638 66.5H130.644V67.5H132.638V66.5ZM128.649 66.5H126.655V67.5H128.649V66.5ZM124.66 66.5H122.666V67.5H124.66V66.5ZM120.671 66.5H118.676V67.5H120.671V66.5ZM116.682 66.5H114.687V67.5H116.682V66.5ZM112.693 66.5H110.698V67.5H112.693V66.5ZM108.704 66.5H106.709V67.5H108.704V66.5ZM104.714 66.5H102.72V67.5H104.714V66.5ZM100.725 66.5H98.7307V67.5H100.725V66.5ZM96.7362 66.5H94.7416V67.5H96.7362V66.5ZM92.747 66.5H90.7525V67.5H92.747V66.5ZM88.7579 66.5H86.7633V67.5H88.7579V66.5ZM84.7688 66.5H82.7742V67.5H84.7688V66.5ZM80.7796 66.5H78.7851V67.5H80.7796V66.5ZM76.7905 66.5H74.7959V67.5H76.7905V66.5ZM72.8014 66.5H70.8068V67.5H72.8014V66.5ZM68.8122 66.5H66.8177V67.5H68.8122V66.5ZM64.8231 66.5H62.8285V67.5H64.8231V66.5ZM60.834 66.5H58.8394V67.5H60.834V66.5ZM56.8448 66.5H54.8503V67.5H56.8448V66.5ZM52.8557 66.5H50.8611V67.5H52.8557V66.5ZM48.8665 66.5H46.872V67.5H48.8665V66.5ZM44.8774 66.5H42.8828V67.5H44.8774V66.5ZM40.8883 66.5H38.8937V67.5H40.8883V66.5ZM36.8991 66.5H34.9046V67.5H36.8991V66.5ZM32.91 66.5H30.9154V67.5H32.91V66.5ZM28.9209 66.5H26.9263V67.5H28.9209V66.5ZM24.9317 66.5H22.9372V67.5H24.9317V66.5ZM20.9426 66.5H18.948V67.5H20.9426V66.5ZM16.9535 66.5H14.9589V67.5H16.9535V66.5ZM12.9643 66.5H10.9698V67.5H12.9643V66.5ZM8.97519 66.5H6.98063V67.5H8.97519V66.5ZM4.98606 66.5H2.99148V67.5H4.98606V66.5ZM0.996927 66.5H0V67.5H0.996927V66.5ZM367 66H366.003V68H367V66ZM364.008 66H362.014V68H364.008V66ZM360.019 66H358.024V68H360.019V66ZM356.03 66H354.035V68H356.03V66ZM352.041 66H350.046V68H352.041V66ZM348.052 66H346.057V68H348.052V66ZM344.062 66H342.068V68H344.062V66ZM340.073 66H338.079V68H340.073V66ZM336.084 66H334.09V68H336.084V66ZM332.095 66H330.101V68H332.095V66ZM328.106 66H326.111V68H328.106V66ZM324.117 66H322.122V68H324.117V66ZM320.128 66H318.133V68H320.128V66ZM316.139 66H314.144V68H316.139V66ZM312.149 66H310.155V68H312.149V66ZM308.16 66H306.166V68H308.16V66ZM304.171 66H302.177V68H304.171V66ZM300.182 66H298.188V68H300.182V66ZM296.193 66H294.198V68H296.193V66ZM292.204 66H290.209V68H292.204V66ZM288.215 66H286.22V68H288.215V66ZM284.226 66H282.231V68H284.226V66ZM280.236 66H278.242V68H280.236V66ZM276.247 66H274.253V68H276.247V66ZM272.258 66H270.264V68H272.258V66ZM268.269 66H266.274V68H268.269V66ZM264.28 66H262.285V68H264.28V66ZM260.291 66H258.296V68H260.291V66ZM256.302 66H254.307V68H256.302V66ZM252.312 66H250.318V68H252.312V66ZM248.323 66H246.329V68H248.323V66ZM244.334 66H242.34V68H244.334V66ZM240.345 66H238.35V68H240.345V66ZM236.356 66H234.361V68H236.356V66ZM232.367 66H230.372V68H232.367V66ZM228.378 66H226.383V68H228.378V66ZM224.389 66H222.394V68H224.389V66ZM220.399 66H218.405V68H220.399V66ZM216.41 66H214.416V68H216.41V66ZM212.421 66H210.427V68H212.421V66ZM208.432 66H206.437V68H208.432V66ZM204.443 66H202.448V68H204.443V66ZM200.454 66H198.459V68H200.454V66ZM196.465 66H194.47V68H196.465V66ZM192.475 66H190.481V68H192.475V66ZM188.486 66H186.492V68H188.486V66ZM184.497 66H182.503V68H184.497V66ZM180.508 66H178.513V68H180.508V66ZM176.519 66H174.524V68H176.519V66ZM172.53 66H170.535V68H172.53V66ZM168.541 66H166.546V68H168.541V66ZM164.551 66H162.557V68H164.551V66ZM160.562 66H158.568V68H160.562V66ZM156.573 66H154.579V68H156.573V66ZM152.584 66H150.589V68H152.584V66ZM148.595 66H146.6V68H148.595V66ZM144.606 66H142.611V68H144.606V66ZM140.617 66H138.622V68H140.617V66ZM136.628 66H134.633V68H136.628V66ZM132.638 66H130.644V68H132.638V66ZM128.649 66H126.655V68H128.649V66ZM124.66 66H122.666V68H124.66V66ZM120.671 66H118.676V68H120.671V66ZM116.682 66H114.687V68H116.682V66ZM112.693 66H110.698V68H112.693V66ZM108.704 66H106.709V68H108.704V66ZM104.714 66H102.72V68H104.714V66ZM100.725 66H98.7307V68H100.725V66ZM96.7362 66H94.7416V68H96.7362V66ZM92.747 66H90.7525V68H92.747V66ZM88.7579 66H86.7633V68H88.7579V66ZM84.7688 66H82.7742V68H84.7688V66ZM80.7796 66H78.7851V68H80.7796V66ZM76.7905 66H74.7959V68H76.7905V66ZM72.8014 66H70.8068V68H72.8014V66ZM68.8122 66H66.8177V68H68.8122V66ZM64.8231 66H62.8285V68H64.8231V66ZM60.834 66H58.8394V68H60.834V66ZM56.8448 66H54.8503V68H56.8448V66ZM52.8557 66H50.8611V68H52.8557V66ZM48.8665 66H46.872V68H48.8665V66ZM44.8774 66H42.8828V68H44.8774V66ZM40.8883 66H38.8937V68H40.8883V66ZM36.8991 66H34.9046V68H36.8991V66ZM32.91 66H30.9154V68H32.91V66ZM28.9209 66H26.9263V68H28.9209V66ZM24.9317 66H22.9372V68H24.9317V66ZM20.9426 66H18.948V68H20.9426V66ZM16.9535 66H14.9589V68H16.9535V66ZM12.9643 66H10.9698V68H12.9643V66ZM8.97519 66H6.98063V68H8.97519V66ZM4.98606 66H2.99148V68H4.98606V66ZM0.996927 66H0V68H0.996927V66Z" fill="#E6E6E6" mask="url(#path-2-inside-1_346_8323)"/>
<mask id="path-4-inside-2_346_8323" fill="white">
<path d="M0 47H367V67H0V47Z"/>
</mask>
<path d="M367 46.5H366.003V47.5H367V46.5ZM364.008 46.5H362.014V47.5H364.008V46.5ZM360.019 46.5H358.024V47.5H360.019V46.5ZM356.03 46.5H354.035V47.5H356.03V46.5ZM352.041 46.5H350.046V47.5H352.041V46.5ZM348.052 46.5H346.057V47.5H348.052V46.5ZM344.062 46.5H342.068V47.5H344.062V46.5ZM340.073 46.5H338.079V47.5H340.073V46.5ZM336.084 46.5H334.09V47.5H336.084V46.5ZM332.095 46.5H330.101V47.5H332.095V46.5ZM328.106 46.5H326.111V47.5H328.106V46.5ZM324.117 46.5H322.122V47.5H324.117V46.5ZM320.128 46.5H318.133V47.5H320.128V46.5ZM316.139 46.5H314.144V47.5H316.139V46.5ZM312.149 46.5H310.155V47.5H312.149V46.5ZM308.16 46.5H306.166V47.5H308.16V46.5ZM304.171 46.5H302.177V47.5H304.171V46.5ZM300.182 46.5H298.188V47.5H300.182V46.5ZM296.193 46.5H294.198V47.5H296.193V46.5ZM292.204 46.5H290.209V47.5H292.204V46.5ZM288.215 46.5H286.22V47.5H288.215V46.5ZM284.226 46.5H282.231V47.5H284.226V46.5ZM280.236 46.5H278.242V47.5H280.236V46.5ZM276.247 46.5H274.253V47.5H276.247V46.5ZM272.258 46.5H270.264V47.5H272.258V46.5ZM268.269 46.5H266.274V47.5H268.269V46.5ZM264.28 46.5H262.285V47.5H264.28V46.5ZM260.291 46.5H258.296V47.5H260.291V46.5ZM256.302 46.5H254.307V47.5H256.302V46.5ZM252.312 46.5H250.318V47.5H252.312V46.5ZM248.323 46.5H246.329V47.5H248.323V46.5ZM244.334 46.5H242.34V47.5H244.334V46.5ZM240.345 46.5H238.35V47.5H240.345V46.5ZM236.356 46.5H234.361V47.5H236.356V46.5ZM232.367 46.5H230.372V47.5H232.367V46.5ZM228.378 46.5H226.383V47.5H228.378V46.5ZM224.389 46.5H222.394V47.5H224.389V46.5ZM220.399 46.5H218.405V47.5H220.399V46.5ZM216.41 46.5H214.416V47.5H216.41V46.5ZM212.421 46.5H210.427V47.5H212.421V46.5ZM208.432 46.5H206.437V47.5H208.432V46.5ZM204.443 46.5H202.448V47.5H204.443V46.5ZM200.454 46.5H198.459V47.5H200.454V46.5ZM196.465 46.5H194.47V47.5H196.465V46.5ZM192.475 46.5H190.481V47.5H192.475V46.5ZM188.486 46.5H186.492V47.5H188.486V46.5ZM184.497 46.5H182.503V47.5H184.497V46.5ZM180.508 46.5H178.513V47.5H180.508V46.5ZM176.519 46.5H174.524V47.5H176.519V46.5ZM172.53 46.5H170.535V47.5H172.53V46.5ZM168.541 46.5H166.546V47.5H168.541V46.5ZM164.551 46.5H162.557V47.5H164.551V46.5ZM160.562 46.5H158.568V47.5H160.562V46.5ZM156.573 46.5H154.579V47.5H156.573V46.5ZM152.584 46.5H150.589V47.5H152.584V46.5ZM148.595 46.5H146.6V47.5H148.595V46.5ZM144.606 46.5H142.611V47.5H144.606V46.5ZM140.617 46.5H138.622V47.5H140.617V46.5ZM136.628 46.5H134.633V47.5H136.628V46.5ZM132.638 46.5H130.644V47.5H132.638V46.5ZM128.649 46.5H126.655V47.5H128.649V46.5ZM124.66 46.5H122.666V47.5H124.66V46.5ZM120.671 46.5H118.676V47.5H120.671V46.5ZM116.682 46.5H114.687V47.5H116.682V46.5ZM112.693 46.5H110.698V47.5H112.693V46.5ZM108.704 46.5H106.709V47.5H108.704V46.5ZM104.714 46.5H102.72V47.5H104.714V46.5ZM100.725 46.5H98.7307V47.5H100.725V46.5ZM96.7362 46.5H94.7416V47.5H96.7362V46.5ZM92.747 46.5H90.7525V47.5H92.747V46.5ZM88.7579 46.5H86.7633V47.5H88.7579V46.5ZM84.7688 46.5H82.7742V47.5H84.7688V46.5ZM80.7796 46.5H78.7851V47.5H80.7796V46.5ZM76.7905 46.5H74.7959V47.5H76.7905V46.5ZM72.8014 46.5H70.8068V47.5H72.8014V46.5ZM68.8122 46.5H66.8177V47.5H68.8122V46.5ZM64.8231 46.5H62.8285V47.5H64.8231V46.5ZM60.834 46.5H58.8394V47.5H60.834V46.5ZM56.8448 46.5H54.8503V47.5H56.8448V46.5ZM52.8557 46.5H50.8611V47.5H52.8557V46.5ZM48.8665 46.5H46.872V47.5H48.8665V46.5ZM44.8774 46.5H42.8828V47.5H44.8774V46.5ZM40.8883 46.5H38.8937V47.5H40.8883V46.5ZM36.8991 46.5H34.9046V47.5H36.8991V46.5ZM32.91 46.5H30.9154V47.5H32.91V46.5ZM28.9209 46.5H26.9263V47.5H28.9209V46.5ZM24.9317 46.5H22.9372V47.5H24.9317V46.5ZM20.9426 46.5H18.948V47.5H20.9426V46.5ZM16.9535 46.5H14.9589V47.5H16.9535V46.5ZM12.9643 46.5H10.9698V47.5H12.9643V46.5ZM8.97519 46.5H6.98063V47.5H8.97519V46.5ZM4.98606 46.5H2.99148V47.5H4.98606V46.5ZM0.996927 46.5H0V47.5H0.996927V46.5ZM367 46H366.003V48H367V46ZM364.008 46H362.014V48H364.008V46ZM360.019 46H358.024V48H360.019V46ZM356.03 46H354.035V48H356.03V46ZM352.041 46H350.046V48H352.041V46ZM348.052 46H346.057V48H348.052V46ZM344.062 46H342.068V48H344.062V46ZM340.073 46H338.079V48H340.073V46ZM336.084 46H334.09V48H336.084V46ZM332.095 46H330.101V48H332.095V46ZM328.106 46H326.111V48H328.106V46ZM324.117 46H322.122V48H324.117V46ZM320.128 46H318.133V48H320.128V46ZM316.139 46H314.144V48H316.139V46ZM312.149 46H310.155V48H312.149V46ZM308.16 46H306.166V48H308.16V46ZM304.171 46H302.177V48H304.171V46ZM300.182 46H298.188V48H300.182V46ZM296.193 46H294.198V48H296.193V46ZM292.204 46H290.209V48H292.204V46ZM288.215 46H286.22V48H288.215V46ZM284.226 46H282.231V48H284.226V46ZM280.236 46H278.242V48H280.236V46ZM276.247 46H274.253V48H276.247V46ZM272.258 46H270.264V48H272.258V46ZM268.269 46H266.274V48H268.269V46ZM264.28 46H262.285V48H264.28V46ZM260.291 46H258.296V48H260.291V46ZM256.302 46H254.307V48H256.302V46ZM252.312 46H250.318V48H252.312V46ZM248.323 46H246.329V48H248.323V46ZM244.334 46H242.34V48H244.334V46ZM240.345 46H238.35V48H240.345V46ZM236.356 46H234.361V48H236.356V46ZM232.367 46H230.372V48H232.367V46ZM228.378 46H226.383V48H228.378V46ZM224.389 46H222.394V48H224.389V46ZM220.399 46H218.405V48H220.399V46ZM216.41 46H214.416V48H216.41V46ZM212.421 46H210.427V48H212.421V46ZM208.432 46H206.437V48H208.432V46ZM204.443 46H202.448V48H204.443V46ZM200.454 46H198.459V48H200.454V46ZM196.465 46H194.47V48H196.465V46ZM192.475 46H190.481V48H192.475V46ZM188.486 46H186.492V48H188.486V46ZM184.497 46H182.503V48H184.497V46ZM180.508 46H178.513V48H180.508V46ZM176.519 46H174.524V48H176.519V46ZM172.53 46H170.535V48H172.53V46ZM168.541 46H166.546V48H168.541V46ZM164.551 46H162.557V48H164.551V46ZM160.562 46H158.568V48H160.562V46ZM156.573 46H154.579V48H156.573V46ZM152.584 46H150.589V48H152.584V46ZM148.595 46H146.6V48H148.595V46ZM144.606 46H142.611V48H144.606V46ZM140.617 46H138.622V48H140.617V46ZM136.628 46H134.633V48H136.628V46ZM132.638 46H130.644V48H132.638V46ZM128.649 46H126.655V48H128.649V46ZM124.66 46H122.666V48H124.66V46ZM120.671 46H118.676V48H120.671V46ZM116.682 46H114.687V48H116.682V46ZM112.693 46H110.698V48H112.693V46ZM108.704 46H106.709V48H108.704V46ZM104.714 46H102.72V48H104.714V46ZM100.725 46H98.7307V48H100.725V46ZM96.7362 46H94.7416V48H96.7362V46ZM92.747 46H90.7525V48H92.747V46ZM88.7579 46H86.7633V48H88.7579V46ZM84.7688 46H82.7742V48H84.7688V46ZM80.7796 46H78.7851V48H80.7796V46ZM76.7905 46H74.7959V48H76.7905V46ZM72.8014 46H70.8068V48H72.8014V46ZM68.8122 46H66.8177V48H68.8122V46ZM64.8231 46H62.8285V48H64.8231V46ZM60.834 46H58.8394V48H60.834V46ZM56.8448 46H54.8503V48H56.8448V46ZM52.8557 46H50.8611V48H52.8557V46ZM48.8665 46H46.872V48H48.8665V46ZM44.8774 46H42.8828V48H44.8774V46ZM40.8883 46H38.8937V48H40.8883V46ZM36.8991 46H34.9046V48H36.8991V46ZM32.91 46H30.9154V48H32.91V46ZM28.9209 46H26.9263V48H28.9209V46ZM24.9317 46H22.9372V48H24.9317V46ZM20.9426 46H18.948V48H20.9426V46ZM16.9535 46H14.9589V48H16.9535V46ZM12.9643 46H10.9698V48H12.9643V46ZM8.97519 46H6.98063V48H8.97519V46ZM4.98606 46H2.99148V48H4.98606V46ZM0.996927 46H0V48H0.996927V46Z" fill="#E6E6E6" mask="url(#path-4-inside-2_346_8323)"/>
<mask id="path-6-inside-3_346_8323" fill="white">
<path d="M0 27H367V47H0V27Z"/>
</mask>
<path d="M367 26.5H366.003V27.5H367V26.5ZM364.008 26.5H362.014V27.5H364.008V26.5ZM360.019 26.5H358.024V27.5H360.019V26.5ZM356.03 26.5H354.035V27.5H356.03V26.5ZM352.041 26.5H350.046V27.5H352.041V26.5ZM348.052 26.5H346.057V27.5H348.052V26.5ZM344.062 26.5H342.068V27.5H344.062V26.5ZM340.073 26.5H338.079V27.5H340.073V26.5ZM336.084 26.5H334.09V27.5H336.084V26.5ZM332.095 26.5H330.101V27.5H332.095V26.5ZM328.106 26.5H326.111V27.5H328.106V26.5ZM324.117 26.5H322.122V27.5H324.117V26.5ZM320.128 26.5H318.133V27.5H320.128V26.5ZM316.139 26.5H314.144V27.5H316.139V26.5ZM312.149 26.5H310.155V27.5H312.149V26.5ZM308.16 26.5H306.166V27.5H308.16V26.5ZM304.171 26.5H302.177V27.5H304.171V26.5ZM300.182 26.5H298.188V27.5H300.182V26.5ZM296.193 26.5H294.198V27.5H296.193V26.5ZM292.204 26.5H290.209V27.5H292.204V26.5ZM288.215 26.5H286.22V27.5H288.215V26.5ZM284.226 26.5H282.231V27.5H284.226V26.5ZM280.236 26.5H278.242V27.5H280.236V26.5ZM276.247 26.5H274.253V27.5H276.247V26.5ZM272.258 26.5H270.264V27.5H272.258V26.5ZM268.269 26.5H266.274V27.5H268.269V26.5ZM264.28 26.5H262.285V27.5H264.28V26.5ZM260.291 26.5H258.296V27.5H260.291V26.5ZM256.302 26.5H254.307V27.5H256.302V26.5ZM252.312 26.5H250.318V27.5H252.312V26.5ZM248.323 26.5H246.329V27.5H248.323V26.5ZM244.334 26.5H242.34V27.5H244.334V26.5ZM240.345 26.5H238.35V27.5H240.345V26.5ZM236.356 26.5H234.361V27.5H236.356V26.5ZM232.367 26.5H230.372V27.5H232.367V26.5ZM228.378 26.5H226.383V27.5H228.378V26.5ZM224.389 26.5H222.394V27.5H224.389V26.5ZM220.399 26.5H218.405V27.5H220.399V26.5ZM216.41 26.5H214.416V27.5H216.41V26.5ZM212.421 26.5H210.427V27.5H212.421V26.5ZM208.432 26.5H206.437V27.5H208.432V26.5ZM204.443 26.5H202.448V27.5H204.443V26.5ZM200.454 26.5H198.459V27.5H200.454V26.5ZM196.465 26.5H194.47V27.5H196.465V26.5ZM192.475 26.5H190.481V27.5H192.475V26.5ZM188.486 26.5H186.492V27.5H188.486V26.5ZM184.497 26.5H182.503V27.5H184.497V26.5ZM180.508 26.5H178.513V27.5H180.508V26.5ZM176.519 26.5H174.524V27.5H176.519V26.5ZM172.53 26.5H170.535V27.5H172.53V26.5ZM168.541 26.5H166.546V27.5H168.541V26.5ZM164.551 26.5H162.557V27.5H164.551V26.5ZM160.562 26.5H158.568V27.5H160.562V26.5ZM156.573 26.5H154.579V27.5H156.573V26.5ZM152.584 26.5H150.589V27.5H152.584V26.5ZM148.595 26.5H146.6V27.5H148.595V26.5ZM144.606 26.5H142.611V27.5H144.606V26.5ZM140.617 26.5H138.622V27.5H140.617V26.5ZM136.628 26.5H134.633V27.5H136.628V26.5ZM132.638 26.5H130.644V27.5H132.638V26.5ZM128.649 26.5H126.655V27.5H128.649V26.5ZM124.66 26.5H122.666V27.5H124.66V26.5ZM120.671 26.5H118.676V27.5H120.671V26.5ZM116.682 26.5H114.687V27.5H116.682V26.5ZM112.693 26.5H110.698V27.5H112.693V26.5ZM108.704 26.5H106.709V27.5H108.704V26.5ZM104.714 26.5H102.72V27.5H104.714V26.5ZM100.725 26.5H98.7307V27.5H100.725V26.5ZM96.7362 26.5H94.7416V27.5H96.7362V26.5ZM92.747 26.5H90.7525V27.5H92.747V26.5ZM88.7579 26.5H86.7633V27.5H88.7579V26.5ZM84.7688 26.5H82.7742V27.5H84.7688V26.5ZM80.7796 26.5H78.7851V27.5H80.7796V26.5ZM76.7905 26.5H74.7959V27.5H76.7905V26.5ZM72.8014 26.5H70.8068V27.5H72.8014V26.5ZM68.8122 26.5H66.8177V27.5H68.8122V26.5ZM64.8231 26.5H62.8285V27.5H64.8231V26.5ZM60.834 26.5H58.8394V27.5H60.834V26.5ZM56.8448 26.5H54.8503V27.5H56.8448V26.5ZM52.8557 26.5H50.8611V27.5H52.8557V26.5ZM48.8665 26.5H46.872V27.5H48.8665V26.5ZM44.8774 26.5H42.8828V27.5H44.8774V26.5ZM40.8883 26.5H38.8937V27.5H40.8883V26.5ZM36.8991 26.5H34.9046V27.5H36.8991V26.5ZM32.91 26.5H30.9154V27.5H32.91V26.5ZM28.9209 26.5H26.9263V27.5H28.9209V26.5ZM24.9317 26.5H22.9372V27.5H24.9317V26.5ZM20.9426 26.5H18.948V27.5H20.9426V26.5ZM16.9535 26.5H14.9589V27.5H16.9535V26.5ZM12.9643 26.5H10.9698V27.5H12.9643V26.5ZM8.97519 26.5H6.98063V27.5H8.97519V26.5ZM4.98606 26.5H2.99148V27.5H4.98606V26.5ZM0.996927 26.5H0V27.5H0.996927V26.5ZM367 26H366.003V28H367V26ZM364.008 26H362.014V28H364.008V26ZM360.019 26H358.024V28H360.019V26ZM356.03 26H354.035V28H356.03V26ZM352.041 26H350.046V28H352.041V26ZM348.052 26H346.057V28H348.052V26ZM344.062 26H342.068V28H344.062V26ZM340.073 26H338.079V28H340.073V26ZM336.084 26H334.09V28H336.084V26ZM332.095 26H330.101V28H332.095V26ZM328.106 26H326.111V28H328.106V26ZM324.117 26H322.122V28H324.117V26ZM320.128 26H318.133V28H320.128V26ZM316.139 26H314.144V28H316.139V26ZM312.149 26H310.155V28H312.149V26ZM308.16 26H306.166V28H308.16V26ZM304.171 26H302.177V28H304.171V26ZM300.182 26H298.188V28H300.182V26ZM296.193 26H294.198V28H296.193V26ZM292.204 26H290.209V28H292.204V26ZM288.215 26H286.22V28H288.215V26ZM284.226 26H282.231V28H284.226V26ZM280.236 26H278.242V28H280.236V26ZM276.247 26H274.253V28H276.247V26ZM272.258 26H270.264V28H272.258V26ZM268.269 26H266.274V28H268.269V26ZM264.28 26H262.285V28H264.28V26ZM260.291 26H258.296V28H260.291V26ZM256.302 26H254.307V28H256.302V26ZM252.312 26H250.318V28H252.312V26ZM248.323 26H246.329V28H248.323V26ZM244.334 26H242.34V28H244.334V26ZM240.345 26H238.35V28H240.345V26ZM236.356 26H234.361V28H236.356V26ZM232.367 26H230.372V28H232.367V26ZM228.378 26H226.383V28H228.378V26ZM224.389 26H222.394V28H224.389V26ZM220.399 26H218.405V28H220.399V26ZM216.41 26H214.416V28H216.41V26ZM212.421 26H210.427V28H212.421V26ZM208.432 26H206.437V28H208.432V26ZM204.443 26H202.448V28H204.443V26ZM200.454 26H198.459V28H200.454V26ZM196.465 26H194.47V28H196.465V26ZM192.475 26H190.481V28H192.475V26ZM188.486 26H186.492V28H188.486V26ZM184.497 26H182.503V28H184.497V26ZM180.508 26H178.513V28H180.508V26ZM176.519 26H174.524V28H176.519V26ZM172.53 26H170.535V28H172.53V26ZM168.541 26H166.546V28H168.541V26ZM164.551 26H162.557V28H164.551V26ZM160.562 26H158.568V28H160.562V26ZM156.573 26H154.579V28H156.573V26ZM152.584 26H150.589V28H152.584V26ZM148.595 26H146.6V28H148.595V26ZM144.606 26H142.611V28H144.606V26ZM140.617 26H138.622V28H140.617V26ZM136.628 26H134.633V28H136.628V26ZM132.638 26H130.644V28H132.638V26ZM128.649 26H126.655V28H128.649V26ZM124.66 26H122.666V28H124.66V26ZM120.671 26H118.676V28H120.671V26ZM116.682 26H114.687V28H116.682V26ZM112.693 26H110.698V28H112.693V26ZM108.704 26H106.709V28H108.704V26ZM104.714 26H102.72V28H104.714V26ZM100.725 26H98.7307V28H100.725V26ZM96.7362 26H94.7416V28H96.7362V26ZM92.747 26H90.7525V28H92.747V26ZM88.7579 26H86.7633V28H88.7579V26ZM84.7688 26H82.7742V28H84.7688V26ZM80.7796 26H78.7851V28H80.7796V26ZM76.7905 26H74.7959V28H76.7905V26ZM72.8014 26H70.8068V28H72.8014V26ZM68.8122 26H66.8177V28H68.8122V26ZM64.8231 26H62.8285V28H64.8231V26ZM60.834 26H58.8394V28H60.834V26ZM56.8448 26H54.8503V28H56.8448V26ZM52.8557 26H50.8611V28H52.8557V26ZM48.8665 26H46.872V28H48.8665V26ZM44.8774 26H42.8828V28H44.8774V26ZM40.8883 26H38.8937V28H40.8883V26ZM36.8991 26H34.9046V28H36.8991V26ZM32.91 26H30.9154V28H32.91V26ZM28.9209 26H26.9263V28H28.9209V26ZM24.9317 26H22.9372V28H24.9317V26ZM20.9426 26H18.948V28H20.9426V26ZM16.9535 26H14.9589V28H16.9535V26ZM12.9643 26H10.9698V28H12.9643V26ZM8.97519 26H6.98063V28H8.97519V26ZM4.98606 26H2.99148V28H4.98606V26ZM0.996927 26H0V28H0.996927V26Z" fill="#E6E6E6" mask="url(#path-6-inside-3_346_8323)"/>
<mask id="path-8-inside-4_346_8323" fill="white">
<path d="M0 7H367V27H0V7Z"/>
</mask>
<path d="M367 6.5H366.003V7.5H367V6.5ZM364.008 6.5H362.014V7.5H364.008V6.5ZM360.019 6.5H358.024V7.5H360.019V6.5ZM356.03 6.5H354.035V7.5H356.03V6.5ZM352.041 6.5H350.046V7.5H352.041V6.5ZM348.052 6.5H346.057V7.5H348.052V6.5ZM344.062 6.5H342.068V7.5H344.062V6.5ZM340.073 6.5H338.079V7.5H340.073V6.5ZM336.084 6.5H334.09V7.5H336.084V6.5ZM332.095 6.5H330.101V7.5H332.095V6.5ZM328.106 6.5H326.111V7.5H328.106V6.5ZM324.117 6.5H322.122V7.5H324.117V6.5ZM320.128 6.5H318.133V7.5H320.128V6.5ZM316.139 6.5H314.144V7.5H316.139V6.5ZM312.149 6.5H310.155V7.5H312.149V6.5ZM308.16 6.5H306.166V7.5H308.16V6.5ZM304.171 6.5H302.177V7.5H304.171V6.5ZM300.182 6.5H298.188V7.5H300.182V6.5ZM296.193 6.5H294.198V7.5H296.193V6.5ZM292.204 6.5H290.209V7.5H292.204V6.5ZM288.215 6.5H286.22V7.5H288.215V6.5ZM284.226 6.5H282.231V7.5H284.226V6.5ZM280.236 6.5H278.242V7.5H280.236V6.5ZM276.247 6.5H274.253V7.5H276.247V6.5ZM272.258 6.5H270.264V7.5H272.258V6.5ZM268.269 6.5H266.274V7.5H268.269V6.5ZM264.28 6.5H262.285V7.5H264.28V6.5ZM260.291 6.5H258.296V7.5H260.291V6.5ZM256.302 6.5H254.307V7.5H256.302V6.5ZM252.312 6.5H250.318V7.5H252.312V6.5ZM248.323 6.5H246.329V7.5H248.323V6.5ZM244.334 6.5H242.34V7.5H244.334V6.5ZM240.345 6.5H238.35V7.5H240.345V6.5ZM236.356 6.5H234.361V7.5H236.356V6.5ZM232.367 6.5H230.372V7.5H232.367V6.5ZM228.378 6.5H226.383V7.5H228.378V6.5ZM224.389 6.5H222.394V7.5H224.389V6.5ZM220.399 6.5H218.405V7.5H220.399V6.5ZM216.41 6.5H214.416V7.5H216.41V6.5ZM212.421 6.5H210.427V7.5H212.421V6.5ZM208.432 6.5H206.437V7.5H208.432V6.5ZM204.443 6.5H202.448V7.5H204.443V6.5ZM200.454 6.5H198.459V7.5H200.454V6.5ZM196.465 6.5H194.47V7.5H196.465V6.5ZM192.475 6.5H190.481V7.5H192.475V6.5ZM188.486 6.5H186.492V7.5H188.486V6.5ZM184.497 6.5H182.503V7.5H184.497V6.5ZM180.508 6.5H178.513V7.5H180.508V6.5ZM176.519 6.5H174.524V7.5H176.519V6.5ZM172.53 6.5H170.535V7.5H172.53V6.5ZM168.541 6.5H166.546V7.5H168.541V6.5ZM164.551 6.5H162.557V7.5H164.551V6.5ZM160.562 6.5H158.568V7.5H160.562V6.5ZM156.573 6.5H154.579V7.5H156.573V6.5ZM152.584 6.5H150.589V7.5H152.584V6.5ZM148.595 6.5H146.6V7.5H148.595V6.5ZM144.606 6.5H142.611V7.5H144.606V6.5ZM140.617 6.5H138.622V7.5H140.617V6.5ZM136.628 6.5H134.633V7.5H136.628V6.5ZM132.638 6.5H130.644V7.5H132.638V6.5ZM128.649 6.5H126.655V7.5H128.649V6.5ZM124.66 6.5H122.666V7.5H124.66V6.5ZM120.671 6.5H118.676V7.5H120.671V6.5ZM116.682 6.5H114.687V7.5H116.682V6.5ZM112.693 6.5H110.698V7.5H112.693V6.5ZM108.704 6.5H106.709V7.5H108.704V6.5ZM104.714 6.5H102.72V7.5H104.714V6.5ZM100.725 6.5H98.7307V7.5H100.725V6.5ZM96.7362 6.5H94.7416V7.5H96.7362V6.5ZM92.747 6.5H90.7525V7.5H92.747V6.5ZM88.7579 6.5H86.7633V7.5H88.7579V6.5ZM84.7688 6.5H82.7742V7.5H84.7688V6.5ZM80.7796 6.5H78.7851V7.5H80.7796V6.5ZM76.7905 6.5H74.7959V7.5H76.7905V6.5ZM72.8014 6.5H70.8068V7.5H72.8014V6.5ZM68.8122 6.5H66.8177V7.5H68.8122V6.5ZM64.8231 6.5H62.8285V7.5H64.8231V6.5ZM60.834 6.5H58.8394V7.5H60.834V6.5ZM56.8448 6.5H54.8503V7.5H56.8448V6.5ZM52.8557 6.5H50.8611V7.5H52.8557V6.5ZM48.8665 6.5H46.872V7.5H48.8665V6.5ZM44.8774 6.5H42.8828V7.5H44.8774V6.5ZM40.8883 6.5H38.8937V7.5H40.8883V6.5ZM36.8991 6.5H34.9046V7.5H36.8991V6.5ZM32.91 6.5H30.9154V7.5H32.91V6.5ZM28.9209 6.5H26.9263V7.5H28.9209V6.5ZM24.9317 6.5H22.9372V7.5H24.9317V6.5ZM20.9426 6.5H18.948V7.5H20.9426V6.5ZM16.9535 6.5H14.9589V7.5H16.9535V6.5ZM12.9643 6.5H10.9698V7.5H12.9643V6.5ZM8.97519 6.5H6.98063V7.5H8.97519V6.5ZM4.98606 6.5H2.99148V7.5H4.98606V6.5ZM0.996927 6.5H0V7.5H0.996927V6.5ZM367 6H366.003V8H367V6ZM364.008 6H362.014V8H364.008V6ZM360.019 6H358.024V8H360.019V6ZM356.03 6H354.035V8H356.03V6ZM352.041 6H350.046V8H352.041V6ZM348.052 6H346.057V8H348.052V6ZM344.062 6H342.068V8H344.062V6ZM340.073 6H338.079V8H340.073V6ZM336.084 6H334.09V8H336.084V6ZM332.095 6H330.101V8H332.095V6ZM328.106 6H326.111V8H328.106V6ZM324.117 6H322.122V8H324.117V6ZM320.128 6H318.133V8H320.128V6ZM316.139 6H314.144V8H316.139V6ZM312.149 6H310.155V8H312.149V6ZM308.16 6H306.166V8H308.16V6ZM304.171 6H302.177V8H304.171V6ZM300.182 6H298.188V8H300.182V6ZM296.193 6H294.198V8H296.193V6ZM292.204 6H290.209V8H292.204V6ZM288.215 6H286.22V8H288.215V6ZM284.226 6H282.231V8H284.226V6ZM280.236 6H278.242V8H280.236V6ZM276.247 6H274.253V8H276.247V6ZM272.258 6H270.264V8H272.258V6ZM268.269 6H266.274V8H268.269V6ZM264.28 6H262.285V8H264.28V6ZM260.291 6H258.296V8H260.291V6ZM256.302 6H254.307V8H256.302V6ZM252.312 6H250.318V8H252.312V6ZM248.323 6H246.329V8H248.323V6ZM244.334 6H242.34V8H244.334V6ZM240.345 6H238.35V8H240.345V6ZM236.356 6H234.361V8H236.356V6ZM232.367 6H230.372V8H232.367V6ZM228.378 6H226.383V8H228.378V6ZM224.389 6H222.394V8H224.389V6ZM220.399 6H218.405V8H220.399V6ZM216.41 6H214.416V8H216.41V6ZM212.421 6H210.427V8H212.421V6ZM208.432 6H206.437V8H208.432V6ZM204.443 6H202.448V8H204.443V6ZM200.454 6H198.459V8H200.454V6ZM196.465 6H194.47V8H196.465V6ZM192.475 6H190.481V8H192.475V6ZM188.486 6H186.492V8H188.486V6ZM184.497 6H182.503V8H184.497V6ZM180.508 6H178.513V8H180.508V6ZM176.519 6H174.524V8H176.519V6ZM172.53 6H170.535V8H172.53V6ZM168.541 6H166.546V8H168.541V6ZM164.551 6H162.557V8H164.551V6ZM160.562 6H158.568V8H160.562V6ZM156.573 6H154.579V8H156.573V6ZM152.584 6H150.589V8H152.584V6ZM148.595 6H146.6V8H148.595V6ZM144.606 6H142.611V8H144.606V6ZM140.617 6H138.622V8H140.617V6ZM136.628 6H134.633V8H136.628V6ZM132.638 6H130.644V8H132.638V6ZM128.649 6H126.655V8H128.649V6ZM124.66 6H122.666V8H124.66V6ZM120.671 6H118.676V8H120.671V6ZM116.682 6H114.687V8H116.682V6ZM112.693 6H110.698V8H112.693V6ZM108.704 6H106.709V8H108.704V6ZM104.714 6H102.72V8H104.714V6ZM100.725 6H98.7307V8H100.725V6ZM96.7362 6H94.7416V8H96.7362V6ZM92.747 6H90.7525V8H92.747V6ZM88.7579 6H86.7633V8H88.7579V6ZM84.7688 6H82.7742V8H84.7688V6ZM80.7796 6H78.7851V8H80.7796V6ZM76.7905 6H74.7959V8H76.7905V6ZM72.8014 6H70.8068V8H72.8014V6ZM68.8122 6H66.8177V8H68.8122V6ZM64.8231 6H62.8285V8H64.8231V6ZM60.834 6H58.8394V8H60.834V6ZM56.8448 6H54.8503V8H56.8448V6ZM52.8557 6H50.8611V8H52.8557V6ZM48.8665 6H46.872V8H48.8665V6ZM44.8774 6H42.8828V8H44.8774V6ZM40.8883 6H38.8937V8H40.8883V6ZM36.8991 6H34.9046V8H36.8991V6ZM32.91 6H30.9154V8H32.91V6ZM28.9209 6H26.9263V8H28.9209V6ZM24.9317 6H22.9372V8H24.9317V6ZM20.9426 6H18.948V8H20.9426V6ZM16.9535 6H14.9589V8H16.9535V6ZM12.9643 6H10.9698V8H12.9643V6ZM8.97519 6H6.98063V8H8.97519V6ZM4.98606 6H2.99148V8H4.98606V6ZM0.996927 6H0V8H0.996927V6Z" fill="#E6E6E6" mask="url(#path-8-inside-4_346_8323)"/>
<path d="M100.5 47.5L44.5 67.5V86.5H324.5V67.5L268.5 47.5L212.5 67.5L156.5 7.5L100.5 47.5Z" fill="url(#paint0_linear_346_8323)"/>
<path d="M44.5 67.5L100.5 47.5L156.5 7.5L212.5 67.5L268.5 47.5L324.5 67.5" stroke="#D33B4D" stroke-linecap="round"/>
<circle cx="44.5" cy="67.5" r="2" fill="white" stroke="#D33B4D"/>
<circle cx="100.5" cy="47.5" r="2" fill="white" stroke="#D33B4D"/>
<circle cx="156.5" cy="7.5" r="2" fill="white" stroke="#D33B4D"/>
<circle cx="212.5" cy="67.5" r="2" fill="white" stroke="#D33B4D"/>
<circle cx="324.5" cy="67.5" r="2" fill="white" stroke="#D33B4D"/>
<circle cx="268.5" cy="47.5" r="2" fill="white" stroke="#D33B4D"/>
<defs>
<linearGradient id="paint0_linear_346_8323" x1="185" y1="100" x2="185" y2="-1.01739e-06" gradientUnits="userSpaceOnUse">
<stop stop-color="white" stop-opacity="0"/>
<stop offset="1" stop-color="#D33B4D" stop-opacity="0.5"/>
</linearGradient>
</defs>
</svg>
