<svg width="435" height="254" viewBox="0 0 435 254" fill="none" xmlns="http://www.w3.org/2000/svg">
<path d="M201 188L223 125" stroke="#BFC7D1"/>
<path d="M291 173L223 125" stroke="#BFC7D1"/>
<path d="M321 108L223 125" stroke="#BFC7D1"/>
<path d="M211 75L223 125" stroke="#BFC7D1"/>
<path d="M130 137L223 125" stroke="#BFC7D1"/>
<path d="M113 68L223 125" stroke="#BFC7D1"/>
<path d="M173 17L223 125" stroke="#BFC7D1"/>
<path d="M283 34L223 125" stroke="#BFC7D1"/>
<path d="M397 64L223 125" stroke="#BFC7D1"/>
<path d="M390 149L223 125" stroke="#BFC7D1"/>
<path d="M381 208L223 125" stroke="#BFC7D1"/>
<path d="M283 224L223 125" stroke="#BFC7D1"/>
<path d="M152 237L223 125" stroke="#BFC7D1"/>
<path d="M74 193L223 125" stroke="#BFC7D1"/>
<path d="M38 136L223 125" stroke="#BFC7D1"/>
<rect x="185" y="108" width="76" height="34" rx="17" fill="#373D49"/>
<path d="M209.914 124.368V119.12H211.45V132.528H209.914V125.712H207.498C206.698 127.456 205.338 129.024 203.082 130.304L202.154 129.152C204.186 128 205.434 126.656 206.122 125.072L202.41 125.472L202.186 124.048L206.57 123.792C206.73 123.136 206.842 122.48 206.89 121.776H202.89V120.448H208.474C208.474 121.824 208.346 123.136 207.994 124.368H209.914ZM212.906 118.768H214.49V133.232H212.906V118.768ZM226.681 118.768H228.345V133.264H226.681V118.768ZM220.649 119.84C222.809 119.84 224.377 121.824 224.377 124.928C224.377 128.064 222.809 130.032 220.649 130.032C218.505 130.032 216.937 128.064 216.937 124.928C216.937 121.824 218.505 119.84 220.649 119.84ZM220.649 121.328C219.401 121.328 218.521 122.688 218.521 124.928C218.521 127.2 219.401 128.56 220.649 128.56C221.913 128.56 222.793 127.2 222.793 124.928C222.793 122.688 221.913 121.328 220.649 121.328ZM231.895 124.48L240.711 124.144C240.743 123.376 240.743 122.64 240.743 121.904V121.488H232.295V120.16H242.359V121.904C242.359 124 242.359 125.984 241.719 129.024L240.087 128.88C240.391 127.584 240.551 126.448 240.631 125.392L232.103 125.824L231.895 124.48ZM230.775 130H243.831V131.36H230.775V130Z" fill="white"/>
<rect x="170" y="171" width="62" height="34" rx="17" fill="#D33B4D"/>
<path d="M187.969 182.584H194.641C194.641 186.344 192.193 188.776 187.889 189.784L187.265 188.456C190.737 187.672 192.593 185.992 192.817 183.928H187.969V182.584ZM196.929 194.728V193.144H190.961V194.728H196.929ZM196.929 191.848V190.232H198.561V196.056H189.329V190.232H190.961V191.848H196.929ZM200.625 185.064V186.424H198.561V189.608H196.913V181.768H198.561V185.064H200.625ZM213.52 181.784V189.24H211.856V181.784H213.52ZM210.512 187.752L209.776 189.016C208.064 188.536 206.832 187.464 206.176 186.136C205.536 187.608 204.272 188.776 202.512 189.336L201.728 188.04C203.968 187.368 205.28 185.656 205.312 183.864H202.176V182.536H210.08V183.864H206.992C207.04 185.544 208.32 187.128 210.512 187.752ZM205.696 194.824H213.952V196.104H204.08V192.36H211.888V191.144H204.048V189.896H213.52V193.544H205.696V194.824Z" fill="white"/>
<rect x="253" y="156" width="76" height="34" rx="17" fill="#D33B4D"/>
<path d="M272.17 173.552V176.4C273.69 176.384 275.114 176.304 276.81 176.016L276.954 177.376C275.002 177.712 273.386 177.76 271.578 177.76H270.586V172.224H274.106V169.632H270.554V168.304H275.69V173.552H272.17ZM277.962 171.84V167.104H279.498V180.512H277.962V173.2H276.33V171.84H277.962ZM280.89 166.784H282.458V181.232H280.89V166.784ZM286.745 173.408V176.528C289.049 176.512 290.697 176.432 292.585 176.112L292.729 177.44C290.665 177.808 288.857 177.872 286.233 177.872H285.097V168.032H291.801V169.392H286.745V172.096H291.209V173.408H286.745ZM294.793 166.752H296.457V181.248H294.793V173.424H292.025V172.064H294.793V166.752ZM310.679 166.784V175.632H309.031V166.784H310.679ZM307.527 173.088L307.719 174.432C305.447 174.8 303.495 174.864 300.727 174.864H299.511V170.592H304.471V168.992H299.479V167.664H306.087V171.84H301.143V173.52C303.623 173.52 305.431 173.44 307.527 173.088ZM305.879 179.936C307.959 179.936 309.127 179.456 309.127 178.576C309.127 177.68 307.959 177.2 305.879 177.2C303.815 177.2 302.631 177.68 302.631 178.576C302.631 179.456 303.815 179.936 305.879 179.936ZM305.879 175.904C308.919 175.904 310.775 176.896 310.775 178.576C310.775 180.256 308.919 181.248 305.879 181.248C302.839 181.248 300.999 180.256 300.999 178.576C300.999 176.896 302.839 175.904 305.879 175.904Z" fill="white"/>
<rect x="92" y="120" width="76" height="34" rx="17" fill="#D33B4D"/>
<path d="M118.274 135.84V139.2H116.722V131.056H118.274V134.496H119.794V130.8H121.362V139.664H119.794V135.84H118.274ZM116.386 137.408L115.506 138.64C114.226 138.144 113.33 137.184 112.786 136.032C112.258 137.36 111.314 138.48 109.922 139.088L109.058 137.824C110.994 136.944 111.97 135.136 111.97 133.488V131.664H113.57V133.488C113.57 135.088 114.514 136.672 116.386 137.408ZM116.546 143.968C118.578 143.968 119.794 143.472 119.794 142.592C119.794 141.696 118.578 141.2 116.546 141.2C114.514 141.2 113.298 141.696 113.298 142.592C113.298 143.472 114.514 143.968 116.546 143.968ZM116.546 139.936C119.554 139.936 121.442 140.928 121.442 142.592C121.442 144.24 119.554 145.232 116.546 145.232C113.538 145.232 111.65 144.24 111.65 142.592C111.65 140.928 113.538 139.936 116.546 139.936ZM124.577 136.48L133.393 136.144C133.425 135.376 133.425 134.64 133.425 133.904V133.488H124.977V132.16H135.041V133.904C135.041 136 135.041 137.984 134.401 141.024L132.769 140.88C133.073 139.584 133.233 138.448 133.313 137.392L124.785 137.824L124.577 136.48ZM123.457 142H136.513V143.36H123.457V142ZM146.527 136.976L146.719 138.32C144.447 138.688 142.495 138.752 139.727 138.752H138.511V134.496H143.471V132.944H138.479V131.616H145.087V135.76H140.143V137.408C142.623 137.408 144.431 137.328 146.527 136.976ZM141.839 141.392V143.744H148.063V141.392H141.839ZM140.223 145.056V140.08H149.679V145.056H140.223ZM148.031 130.768H149.679V139.36H148.031V130.768Z" fill="white"/>
<rect x="159" y="57" width="104" height="34" rx="17" fill="#D33B4D"/>
<path d="M177.019 76.584L176.395 75.256C179.435 74.84 181.419 73.192 181.515 71.256H176.987V69.912H181.531V68.04H183.179V69.912H187.707V71.256H183.195C183.291 73.192 185.275 74.84 188.315 75.256L187.691 76.584C185.259 76.2 183.307 75.08 182.363 73.448C181.403 75.08 179.451 76.2 177.019 76.584ZM183.179 79.144H188.907V80.488H175.819V79.144H181.531V76.072H183.179V79.144ZM191.242 72.92L200.09 72.584C200.122 71.8 200.122 71.08 200.122 70.424H191.658V69.096H201.754V70.424C201.754 72.184 201.77 74.184 201.13 77.24L199.498 77.048C199.754 75.848 199.914 74.792 199.994 73.848L191.466 74.312L191.242 72.92ZM196.666 79.064H203.194V80.424H190.122V79.064H195.002V75.432H196.666V79.064ZM212.233 73.368V68.12H213.769V81.528H212.233V74.712H209.817C209.017 76.456 207.657 78.024 205.401 79.304L204.473 78.152C206.505 77 207.753 75.656 208.441 74.072L204.729 74.472L204.505 73.048L208.889 72.792C209.049 72.136 209.161 71.48 209.209 70.776H205.209V69.448H210.793C210.793 70.824 210.665 72.136 210.313 73.368H212.233ZM215.225 67.768H216.809V82.232H215.225V67.768ZM228.999 67.768H230.663V82.264H228.999V67.768ZM222.967 68.84C225.127 68.84 226.695 70.824 226.695 73.928C226.695 77.064 225.127 79.032 222.967 79.032C220.823 79.032 219.255 77.064 219.255 73.928C219.255 70.824 220.823 68.84 222.967 68.84ZM222.967 70.328C221.719 70.328 220.839 71.688 220.839 73.928C220.839 76.2 221.719 77.56 222.967 77.56C224.231 77.56 225.111 76.2 225.111 73.928C225.111 71.688 224.231 70.328 222.967 70.328ZM234.214 73.48L243.03 73.144C243.062 72.376 243.062 71.64 243.062 70.904V70.488H234.614V69.16H244.678V70.904C244.678 73 244.678 74.984 244.038 78.024L242.406 77.88C242.71 76.584 242.87 75.448 242.95 74.392L234.422 74.824L234.214 73.48ZM233.094 79H246.15V80.36H233.094V79Z" fill="white"/>
<rect x="283" y="91" width="76" height="34" rx="17" fill="#D33B4D"/>
<path d="M305.674 108.04V104.152H302.266V108.04H305.674ZM307.29 102.84V109.368H300.634V102.84H307.29ZM307.77 110.68V111.08C307.77 112.92 309.658 114.472 312.458 114.888L311.818 116.168C309.594 115.8 307.818 114.76 306.954 113.272C306.074 114.76 304.298 115.8 302.074 116.168L301.434 114.888C304.234 114.472 306.122 112.92 306.122 111.08V110.68H307.77ZM311.418 105.576H313.466V106.936H311.418V111.352H309.77V101.784H311.418V105.576ZM326.361 101.8V110.008H324.713V101.8H326.361ZM318.569 103.944C317.289 103.944 316.345 104.76 316.345 105.992C316.345 107.24 317.289 108.04 318.569 108.04C319.849 108.04 320.793 107.24 320.793 105.992C320.793 104.76 319.849 103.944 318.569 103.944ZM318.569 109.4C316.361 109.4 314.729 108.008 314.729 105.992C314.729 103.976 316.361 102.584 318.569 102.584C320.777 102.584 322.393 103.976 322.393 105.992C322.393 108.008 320.777 109.4 318.569 109.4ZM324.825 110.632V111.272C324.825 112.76 325.769 114.216 327.641 114.824L326.825 116.04C325.433 115.544 324.489 114.616 323.993 113.448C323.529 114.584 322.665 115.624 321.353 116.168C319.993 115.64 319.145 114.648 318.697 113.48C318.169 114.616 317.241 115.544 315.897 116.04L315.097 114.824C316.937 114.168 317.897 112.68 317.897 111.272V110.632H319.497V111.272C319.497 112.488 320.057 113.784 321.321 114.584C322.601 113.72 323.209 112.36 323.209 111.272V110.632H324.825ZM330.999 104.488V111.32C333.335 111.304 335.095 111.208 337.111 110.856L337.287 112.216C335.095 112.616 333.143 112.696 330.535 112.696H329.351V103.144H336.071V104.488H330.999ZM342.215 107.336V108.696H339.959V116.248H338.311V101.768H339.959V107.336H342.215Z" fill="white"/>
<rect x="75" y="51" width="76" height="34" rx="17" fill="#FD929F"/>
<path d="M99.3859 66.488H103.354V67.848H99.3859V66.488ZM95.6579 62.904H97.0179V65.304C97.0179 68.744 95.5139 72.008 93.0019 73.304L91.9459 71.96C94.2499 70.856 95.6579 68.04 95.6579 65.304V62.904ZM95.9939 62.904H97.3379V65.304C97.3379 68.008 98.7299 70.664 100.986 71.704L99.9779 73.048C97.4499 71.784 95.9939 68.696 95.9939 65.304V62.904ZM102.522 61.688H104.186V76.344H102.522V61.688ZM112.121 68.616H113.785V70.776H112.121V68.616ZM112.969 61.864C116.249 61.864 118.185 62.744 118.185 64.376C118.185 65.992 116.249 66.888 112.969 66.888C109.689 66.888 107.769 65.992 107.769 64.376C107.769 62.744 109.689 61.864 112.969 61.864ZM112.969 63.112C110.713 63.112 109.497 63.544 109.497 64.376C109.497 65.208 110.713 65.64 112.969 65.64C115.241 65.64 116.441 65.208 116.441 64.376C116.441 63.544 115.241 63.112 112.969 63.112ZM106.361 67.688H119.577V69.032H106.361V67.688ZM107.929 70.216H117.929V73.704H109.609V75.272H107.945V72.52H116.281V71.464H107.929V70.216ZM107.945 74.904H118.345V76.2H107.945V74.904ZM127.255 63.768H131.655V65.128H127.255V63.768ZM127.255 67H131.655V68.36H127.255V67ZM122.951 71.08H132.807V76.328H131.127V72.424H122.951V71.08ZM131.127 61.704H132.807V70.344H131.127V61.704ZM124.695 62.488C126.855 62.488 128.503 63.976 128.503 66.056C128.503 68.152 126.855 69.624 124.695 69.624C122.519 69.624 120.887 68.152 120.887 66.056C120.887 63.976 122.519 62.488 124.695 62.488ZM124.695 63.928C123.431 63.928 122.487 64.776 122.487 66.056C122.487 67.352 123.431 68.2 124.695 68.2C125.959 68.2 126.903 67.352 126.903 66.056C126.903 64.776 125.959 63.928 124.695 63.928Z" fill="white"/>
<rect x="113.5" width="119" height="34" rx="17" fill="#FD929F"/>
<path d="M134.564 18.128H136.244V21.36H134.564V18.128ZM141.012 10.704H142.692V21.808H141.012V10.704ZM132.468 23.68H143.028V25.04H132.468V23.68ZM132.468 20.736H134.148V24.048H132.468V20.736ZM130.724 18.688L130.5 17.328C133.188 17.328 136.788 17.296 139.876 16.896L139.988 18.112C136.852 18.624 133.364 18.688 130.724 18.688ZM138.132 19.28H141.412V20.464H138.132V19.28ZM135.236 11.264C137.364 11.264 138.852 12.288 138.852 13.84C138.852 15.392 137.364 16.4 135.236 16.4C133.092 16.4 131.62 15.392 131.62 13.84C131.62 12.288 133.092 11.264 135.236 11.264ZM135.236 12.496C134.036 12.496 133.204 12.992 133.204 13.84C133.204 14.672 134.036 15.168 135.236 15.168C136.42 15.168 137.252 14.672 137.252 13.84C137.252 12.992 136.42 12.496 135.236 12.496ZM155.763 10.704H157.363V25.328H155.763V10.704ZM149.923 16.176H153.475V17.536H149.923V16.176ZM152.787 11.008H154.355V24.624H152.787V11.008ZM145.379 20.544H146.355C148.531 20.544 149.907 20.48 151.523 20.144L151.667 21.52C150.019 21.872 148.595 21.936 146.355 21.936H145.379V20.544ZM145.379 12.432H150.915V13.776H147.027V21.104H145.379V12.432ZM169.569 10.688H171.249V25.344H169.569V10.688ZM163.457 11.776C165.649 11.776 167.233 13.776 167.233 16.928C167.233 20.08 165.649 22.096 163.457 22.096C161.281 22.096 159.697 20.08 159.697 16.928C159.697 13.776 161.281 11.776 163.457 11.776ZM163.457 13.296C162.177 13.296 161.297 14.656 161.297 16.928C161.297 19.216 162.177 20.592 163.457 20.592C164.737 20.592 165.617 19.216 165.617 16.928C165.617 14.656 164.737 13.296 163.457 13.296ZM175.184 11.312H184.528V12.64H175.184V11.312ZM183.488 11.312H185.136V12.512C185.136 13.76 185.136 15.168 184.736 17.008L183.088 16.832C183.488 15.04 183.488 13.744 183.488 12.512V11.312ZM183.984 13.776V14.944L175.008 15.328L174.8 14.016L183.984 13.776ZM173.552 16.528H186.72V17.856H173.552V16.528ZM175.024 19.008H185.232V22.624H176.72V24.416H175.056V21.408H183.568V20.288H175.024V19.008ZM175.056 23.856H185.728V25.152H175.056V23.856ZM188.287 20.56H189.279C191.039 20.56 192.623 20.512 194.527 20.192L194.655 21.568C192.703 21.904 191.087 21.952 189.279 21.952H188.287V20.56ZM188.255 12.224H193.759V17.584H189.919V21.072H188.287V16.24H192.143V13.568H188.255V12.224ZM198.719 10.704H200.319V25.328H198.719V10.704ZM196.479 16.368H199.119V17.728H196.479V16.368ZM195.423 10.992H196.975V24.608H195.423V10.992ZM207.838 11.632H209.294V12.736C209.294 15.904 206.638 18.528 203.342 19.232L202.606 17.84C205.502 17.312 207.838 15.04 207.838 12.736V11.632ZM208.158 11.632H209.614V12.736C209.614 15.072 211.95 17.312 214.846 17.84L214.11 19.232C210.814 18.528 208.158 15.936 208.158 12.736V11.632ZM202.174 22.064H215.422V23.44H202.174V22.064Z" fill="white"/>
<rect x="238" y="17" width="90" height="34" rx="17" fill="#FD929F"/>
<path d="M260.563 28.632H262.019V29.736C262.019 32.904 259.363 35.528 256.067 36.232L255.331 34.84C258.227 34.312 260.563 32.04 260.563 29.736V28.632ZM260.883 28.632H262.339V29.736C262.339 32.072 264.675 34.312 267.571 34.84L266.835 36.232C263.539 35.528 260.883 32.936 260.883 29.736V28.632ZM254.899 39.064H268.147V40.44H254.899V39.064ZM269.809 37.528H270.993C273.585 37.528 275.457 37.48 277.649 37.112L277.809 38.456C275.569 38.84 273.633 38.904 270.993 38.904H269.809V37.528ZM269.809 28.984H276.641V30.36H271.489V37.992H269.809V28.984ZM271.073 33.064H276.369V34.392H271.073V33.064ZM278.865 27.704H280.545V42.328H278.865V27.704ZM280.161 33.432H282.817V34.824H280.161V33.432ZM293.92 27.704H295.616V35.24H293.92V27.704ZM285.92 35.896H295.616V39.608H287.6V41.608H285.952V38.376H293.952V37.208H285.92V35.896ZM285.952 40.872H296.08V42.2H285.952V40.872ZM284.176 28.648H292.032V29.96H284.176V28.648ZM283.952 34.856L283.776 33.496C286.368 33.496 289.824 33.448 292.656 33.096L292.752 34.296C289.856 34.76 286.496 34.84 283.952 34.856ZM285.488 29.24H287.088V34.136H285.488V29.24ZM289.088 29.24H290.72V34.136H289.088V29.24ZM299.471 34.6H309.615V35.944H299.471V34.6ZM297.855 39.064H311.103V40.44H297.855V39.064ZM299.471 28.984H309.487V30.36H301.135V35.176H299.471V28.984Z" fill="white"/>
<rect x="352" y="132" width="76" height="34" rx="17" fill="#FD929F"/>
<path d="M373.874 144.4H375.458C375.458 148.352 374.386 151.872 370.002 154.368L369.058 153.184C372.834 151.072 373.874 148.208 373.874 144.672V144.4ZM369.826 144.4H374.434V145.744H369.826V144.4ZM373.794 147.76V149.008L369.314 149.472L369.09 148.032L373.794 147.76ZM374.29 148.368H377.49V149.712H374.29V148.368ZM379.938 142.704H381.554V157.328H379.938V142.704ZM376.898 143.056H378.466V156.624H376.898V143.056ZM393.729 142.688H395.409V157.344H393.729V142.688ZM387.617 143.776C389.809 143.776 391.393 145.776 391.393 148.928C391.393 152.08 389.809 154.096 387.617 154.096C385.441 154.096 383.857 152.08 383.857 148.928C383.857 145.776 385.441 143.776 387.617 143.776ZM387.617 145.296C386.337 145.296 385.457 146.656 385.457 148.928C385.457 151.216 386.337 152.592 387.617 152.592C388.897 152.592 389.777 151.216 389.777 148.928C389.777 146.656 388.897 145.296 387.617 145.296ZM399.231 144.096H408.479V145.456H399.231V144.096ZM397.695 154.048H410.911V155.44H397.695V154.048ZM407.759 144.096H409.407V145.856C409.407 147.984 409.407 150 408.767 153.072L407.103 152.912C407.759 150.048 407.759 147.936 407.759 145.856V144.096ZM408.143 148.128V149.376L399.039 149.84L398.815 148.48L408.143 148.128Z" fill="white"/>
<rect x="252" y="207" width="62" height="34" rx="17" fill="#FD929F"/>
<path d="M271.233 219.208H272.417V220.28C272.417 222.04 271.713 224.136 269.793 225.032L268.993 223.816C270.561 223.064 271.233 221.496 271.233 220.28V219.208ZM271.649 219.208H272.801V220.28C272.801 221.384 273.217 223.064 274.641 223.928L273.969 225.176C272.081 224.168 271.649 221.88 271.649 220.28V219.208ZM275.137 219.208H276.289V220.28C276.289 221.928 275.857 224.184 273.969 225.176L273.297 223.928C274.705 223.08 275.137 221.448 275.137 220.28V219.208ZM275.521 219.208H276.721V220.28C276.721 221.528 277.377 223.08 278.961 223.816L278.161 225.032C276.241 224.152 275.521 222.088 275.521 220.28V219.208ZM269.521 218.408H273.697V219.736H269.521V218.408ZM274.257 218.408H278.353V219.736H274.257V218.408ZM279.313 217.704H280.993V225.384H279.313V217.704ZM279.921 220.76H282.673V222.152H279.921V220.76ZM271.185 225.976H280.993V229.64H272.865V231.416H271.217V228.424H279.329V227.272H271.185V225.976ZM271.217 230.904H281.505V232.2H271.217V230.904ZM289.184 219.224H290.64V219.768C290.64 222.36 288.16 224.36 284.88 224.856L284.24 223.544C287.104 223.16 289.184 221.496 289.184 219.768V219.224ZM289.648 219.224H291.088V219.768C291.088 221.496 293.184 223.16 296.032 223.544L295.408 224.856C292.112 224.36 289.648 222.36 289.648 219.768V219.224ZM289.264 226.856H290.928V232.328H289.264V226.856ZM283.536 225.912H296.752V227.272H283.536V225.912ZM284.736 218.536H295.504V219.88H284.736V218.536Z" fill="white"/>
<rect x="343" y="190" width="76" height="34" rx="17" fill="#FD929F"/>
<path d="M364.698 210.368V206.896H362.17V210.368H364.698ZM368.01 206.176V201.072H369.546V214.56H368.01V207.536H366.218V211.696H360.618V202.16H362.17V205.584H364.698V202.16H366.218V206.176H368.01ZM370.906 200.784H372.474V215.232H370.906V200.784ZM384.681 200.768H386.345V215.264H384.681V200.768ZM378.649 201.84C380.809 201.84 382.377 203.824 382.377 206.928C382.377 210.064 380.809 212.032 378.649 212.032C376.505 212.032 374.937 210.064 374.937 206.928C374.937 203.824 376.505 201.84 378.649 201.84ZM378.649 203.328C377.401 203.328 376.521 204.688 376.521 206.928C376.521 209.2 377.401 210.56 378.649 210.56C379.913 210.56 380.793 209.2 380.793 206.928C380.793 204.688 379.913 203.328 378.649 203.328ZM400.679 200.784V209.408H399.031V200.784H400.679ZM389.767 201.696H396.439C396.439 205.568 394.455 208.24 389.735 209.6L389.111 208.288C391.367 207.664 392.839 206.736 393.703 205.6L389.287 205.936L389.047 204.624L394.391 204.4C394.535 203.984 394.647 203.52 394.695 203.04H389.767V201.696ZM395.879 213.952C397.911 213.952 399.111 213.392 399.111 212.432C399.111 211.456 397.911 210.928 395.879 210.928C393.815 210.928 392.615 211.456 392.615 212.432C392.615 213.392 393.815 213.952 395.879 213.952ZM395.879 209.616C398.887 209.616 400.759 210.672 400.759 212.432C400.759 214.192 398.887 215.232 395.879 215.232C392.855 215.232 390.967 214.192 390.967 212.432C390.967 210.672 392.855 209.616 395.879 209.616Z" fill="white"/>
<rect y="119" width="76" height="34" rx="17" fill="#FD929F"/>
<path d="M18.4339 131.064H27.7779V132.424H18.4339V131.064ZM17.0579 141.032H30.2739V142.408H17.0579V141.032ZM21.9859 135.896H23.6659V141.72H21.9859V135.896ZM27.1539 131.064H28.8339V132.488C28.8339 134.312 28.8339 136.344 28.2739 139.368L26.5939 139.176C27.1539 136.328 27.1539 134.248 27.1539 132.488V131.064ZM32.9606 130.616H42.1126V131.944H32.9606V130.616ZM31.3766 136.856H44.5926V138.232H31.3766V136.856ZM37.0886 137.8H38.7686V144.344H37.0886V137.8ZM41.2806 130.616H42.9286V131.896C42.9286 133.448 42.9286 135.176 42.3686 137.704L40.7206 137.496C41.2806 135.096 41.2806 133.384 41.2806 131.896V130.616ZM46.2074 131.128H53.0394V140.68H46.2074V131.128ZM51.3914 132.456H47.8554V139.352H51.3914V132.456ZM55.3434 129.704H57.0234V144.328H55.3434V129.704ZM56.6394 135.4H59.2954V136.792H56.6394V135.4Z" fill="white"/>
<rect x="36" y="176" width="76" height="34" rx="17" fill="#FD929F"/>
<path d="M62.7059 186.704H64.3859V201.328H62.7059V186.704ZM64.0019 192.32H66.6579V193.728H64.0019V192.32ZM53.5699 187.904H55.2339V191.632H58.8499V187.904H60.5139V197.872H53.5699V187.904ZM55.2339 192.944V196.512H58.8499V192.944H55.2339ZM77.7286 186.704H79.4246V201.328H77.7286V186.704ZM71.2166 190.32H72.5606V191.36C72.5606 194.464 70.9606 197.408 68.4646 198.56L67.5526 197.264C69.8086 196.24 71.2166 193.76 71.2166 191.36V190.32ZM71.5686 190.32H72.8806V191.36C72.8806 193.648 74.3206 196.032 76.6086 197.024L75.6966 198.304C73.1846 197.216 71.5686 194.368 71.5686 191.36V190.32ZM67.9846 189.168H76.0646V190.512H67.9846V189.168ZM71.2166 187.008H72.8966V189.888H71.2166V187.008ZM86.5114 188.4H88.0954C88.0954 192.352 87.0234 195.872 82.6394 198.368L81.6954 197.184C85.4714 195.072 86.5114 192.208 86.5114 188.672V188.4ZM82.4634 188.4H87.0714V189.744H82.4634V188.4ZM86.4314 191.76V193.008L81.9514 193.472L81.7274 192.032L86.4314 191.76ZM86.9274 192.368H90.1274V193.712H86.9274V192.368ZM92.5754 186.704H94.1914V201.328H92.5754V186.704ZM89.5354 187.056H91.1034V200.624H89.5354V187.056Z" fill="white"/>
<rect x="107" y="220" width="90" height="34" rx="17" fill="#FD929F"/>
<path d="M132.971 235.776V238.992H131.435V231.056H132.971V234.432H134.635V230.768H136.203V239.472H134.635V235.776H132.971ZM130.523 236.544L130.699 237.888C128.859 238.256 127.323 238.336 125.579 238.336H124.619V231.92H126.267V236.976C127.675 236.944 129.019 236.848 130.523 236.544ZM131.403 243.936C133.419 243.936 134.635 243.392 134.635 242.448C134.635 241.504 133.419 240.96 131.403 240.96C129.371 240.96 128.139 241.504 128.139 242.448C128.139 243.392 129.371 243.936 131.403 243.936ZM131.403 239.664C134.379 239.664 136.283 240.72 136.283 242.448C136.283 244.176 134.379 245.232 131.403 245.232C128.411 245.232 126.491 244.176 126.491 242.448C126.491 240.72 128.411 239.664 131.403 239.664ZM146.777 237.584L145.977 238.864C144.361 238.352 143.209 237.312 142.585 235.968C141.945 237.504 140.729 238.736 139.001 239.328L138.169 238.032C140.441 237.248 141.705 235.392 141.705 233.424V233.136H138.633V231.808H146.393V233.136H143.369V233.408C143.369 235.2 144.569 236.88 146.777 237.584ZM144.921 243.936C146.937 243.936 148.105 243.424 148.105 242.496C148.105 241.552 146.937 241.056 144.921 241.056C142.905 241.056 141.737 241.552 141.737 242.496C141.737 243.424 142.905 243.936 144.921 243.936ZM144.921 239.76C147.897 239.76 149.737 240.768 149.737 242.496C149.737 244.208 147.897 245.232 144.921 245.232C141.945 245.232 140.105 244.208 140.105 242.496C140.105 240.768 141.945 239.76 144.921 239.76ZM149.577 234.304H151.625V235.664H149.577V239.424H147.929V230.784H149.577V234.304ZM155.72 235.504V237.872H162.568V235.504H155.72ZM159.96 242.112H165.704V243.472H152.616V242.112H158.312V239.2H154.088V231.744H155.72V234.176H162.568V231.744H164.2V239.2H159.96V242.112ZM174.567 236.976L172.951 236.8C173.239 235.248 173.287 234.112 173.303 233.216H167.655V231.872H174.919V232.704C174.919 233.68 174.919 235.104 174.567 236.976ZM175.767 237.696L175.879 238.896C172.871 239.424 169.463 239.504 166.951 239.504L166.775 238.16C167.639 238.16 168.631 238.16 169.655 238.128V235.168H171.287V238.08C172.791 238.016 174.343 237.92 175.767 237.696ZM170.615 240.672V243.616H178.775V244.96H168.951V240.672H170.615ZM178.311 235.36H180.231V236.72H178.311V241.632H176.647V230.784H178.311V235.36Z" fill="white"/>
<rect x="359" y="47" width="76" height="34" rx="17" fill="#FD929F"/>
<path d="M380.986 60.408V64.856H384.314V60.408H380.986ZM383.466 69.16H389.242V70.52H376.122V69.16H381.818V66.184H377.258V64.856H379.338V60.408H377.21V59.08H388.074V60.408H385.946V64.856H388.042V66.184H383.466V69.16ZM398.937 64.584L398.137 65.864C396.521 65.352 395.369 64.312 394.745 62.968C394.105 64.504 392.889 65.736 391.161 66.328L390.329 65.032C392.601 64.248 393.865 62.392 393.865 60.424V60.136H390.793V58.808H398.553V60.136H395.529V60.408C395.529 62.2 396.729 63.88 398.937 64.584ZM397.081 70.936C399.097 70.936 400.265 70.424 400.265 69.496C400.265 68.552 399.097 68.056 397.081 68.056C395.065 68.056 393.897 68.552 393.897 69.496C393.897 70.424 395.065 70.936 397.081 70.936ZM397.081 66.76C400.057 66.76 401.897 67.768 401.897 69.496C401.897 71.208 400.057 72.232 397.081 72.232C394.105 72.232 392.265 71.208 392.265 69.496C392.265 67.768 394.105 66.76 397.081 66.76ZM401.737 61.304H403.785V62.664H401.737V66.424H400.089V57.784H401.737V61.304ZM410.103 60.584V61.96C410.103 64.36 411.591 66.856 413.847 67.816L412.935 69.112C411.255 68.376 409.959 66.808 409.287 64.936C408.647 66.952 407.351 68.664 405.655 69.48L404.711 68.168C406.951 67.128 408.439 64.44 408.439 61.96V60.584H405.223V59.224H413.319V60.584H410.103ZM414.999 57.784H416.663V72.232H414.999V57.784Z" fill="white"/>
<path fill-rule="evenodd" clip-rule="evenodd" d="M131.857 115.571C131.469 116.218 130.531 116.218 130.143 115.571L126.2 109H107C102.582 109 99 105.418 99 101V87C99 82.5817 102.582 79 107 79H154C158.418 79 162 82.5817 162 87V101C162 105.418 158.418 109 154 109H135.8L131.857 115.571Z" fill="#373D49"/>
<path d="M130.143 115.571L129.714 115.828L129.714 115.828L130.143 115.571ZM131.857 115.571L132.286 115.828V115.828L131.857 115.571ZM126.2 109V108.5H126.483L126.629 108.743L126.2 109ZM135.8 109L135.371 108.743L135.517 108.5H135.8V109ZM130.571 115.314C130.765 115.637 131.235 115.637 131.429 115.314L132.286 115.828C131.704 116.799 130.296 116.799 129.714 115.828L130.571 115.314ZM126.629 108.743L130.571 115.314L129.714 115.828L125.771 109.257L126.629 108.743ZM107 108.5H126.2V109.5H107V108.5ZM99.5 101C99.5 105.142 102.858 108.5 107 108.5V109.5C102.306 109.5 98.5 105.694 98.5 101H99.5ZM99.5 87V101H98.5V87H99.5ZM107 79.5C102.858 79.5 99.5 82.8579 99.5 87H98.5C98.5 82.3056 102.306 78.5 107 78.5V79.5ZM154 79.5H107V78.5H154V79.5ZM161.5 87C161.5 82.8579 158.142 79.5 154 79.5V78.5C158.694 78.5 162.5 82.3056 162.5 87H161.5ZM161.5 101V87H162.5V101H161.5ZM154 108.5C158.142 108.5 161.5 105.142 161.5 101H162.5C162.5 105.694 158.694 109.5 154 109.5V108.5ZM135.8 108.5H154V109.5H135.8V108.5ZM131.429 115.314L135.371 108.743L136.229 109.257L132.286 115.828L131.429 115.314Z" fill="#707887"/>
<path d="M116.73 98.9998V98.4238C119.55 95.9758 120.786 94.1998 120.786 92.6638C120.786 91.6438 120.258 90.8638 119.118 90.8638C118.398 90.8638 117.75 91.3078 117.258 91.9078L116.682 91.3438C117.378 90.5878 118.134 90.0598 119.238 90.0598C120.798 90.0598 121.758 91.0798 121.758 92.6278C121.758 94.4158 120.366 96.2158 118.218 98.2438C118.686 98.1958 119.202 98.1598 119.658 98.1598H122.178V98.9998H116.73ZM122.916 98.9998V98.4238C125.736 95.9758 126.972 94.1998 126.972 92.6638C126.972 91.6438 126.444 90.8638 125.304 90.8638C124.584 90.8638 123.936 91.3078 123.444 91.9078L122.868 91.3438C123.564 90.5878 124.32 90.0598 125.424 90.0598C126.984 90.0598 127.944 91.0798 127.944 92.6278C127.944 94.4158 126.552 96.2158 124.404 98.2438C124.872 98.1958 125.388 98.1598 125.844 98.1598H128.364V98.9998H122.916ZM131.681 99.1678C130.301 99.1678 129.485 98.5798 128.897 98.0038L129.401 97.3558C129.893 97.8598 130.541 98.3398 131.597 98.3398C132.653 98.3398 133.517 97.5118 133.517 96.1918C133.517 94.8958 132.773 94.1158 131.645 94.1158C131.045 94.1158 130.661 94.3078 130.157 94.6438L129.605 94.2958L129.893 90.2158H134.081V91.0678H130.745L130.517 93.7198C130.913 93.4918 131.333 93.3598 131.873 93.3598C133.337 93.3598 134.513 94.2238 134.513 96.1558C134.513 98.0758 133.121 99.1678 131.681 99.1678ZM143.339 89.1118H144.227V97.1158H143.339V89.1118ZM140.927 92.4838H143.531V93.2278H140.927V92.4838ZM140.015 89.9518H140.951C140.951 92.7118 138.959 94.8238 135.923 95.8438L135.539 95.1238C138.215 94.2238 140.015 92.4838 140.015 90.2998V89.9518ZM136.079 89.9518H140.603V90.6838H136.079V89.9518ZM137.447 98.9278H144.503V99.6718H137.447V98.9278ZM137.447 96.2998H138.347V99.2878H137.447V96.2998Z" fill="white"/>
</svg>
